<?xml version="1.0" encoding="utf-8" standalone="no"?>
<!DOCTYPE svg PUBLIC "-//W3C//DTD SVG 1.1//EN"
  "http://www.w3.org/Graphics/SVG/1.1/DTD/svg11.dtd">
<!-- Created with matplotlib (https://matplotlib.org/) -->
<svg height="315.96075pt" version="1.1" viewBox="0 0 412.509687 315.96075" width="412.509687pt" xmlns="http://www.w3.org/2000/svg" xmlns:xlink="http://www.w3.org/1999/xlink">
 <defs>
  <style type="text/css">
*{stroke-linecap:butt;stroke-linejoin:round;white-space:pre;}
  </style>
 </defs>
 <g id="figure_1">
  <g id="patch_1">
   <path d="M 0 315.96075 
L 412.509687 315.96075 
L 412.509687 0 
L 0 0 
z
" style="fill:#ffffff;"/>
  </g>
  <g id="axes_1">
   <g id="patch_2">
    <path d="M 48.189688 273.312 
L 405.309688 273.312 
L 405.309688 7.2 
L 48.189688 7.2 
z
" style="fill:#ffffff;"/>
   </g>
   <g id="matplotlib.axis_1">
    <g id="xtick_1">
     <g id="line2d_1">
      <path clip-path="url(#p93ebb75000)" d="M 57.465532 273.312 
L 57.465532 7.2 
" style="fill:none;stroke:#cccccc;stroke-linecap:round;"/>
     </g>
     <g id="text_1">
      <!-- 0 -->
      <defs>
       <path d="M 4.15625 35.296875 
Q 4.15625 48 6.765625 55.734375 
Q 9.375 63.484375 14.515625 67.671875 
Q 19.671875 71.875 27.484375 71.875 
Q 33.25 71.875 37.59375 69.546875 
Q 41.9375 67.234375 44.765625 62.859375 
Q 47.609375 58.5 49.21875 52.21875 
Q 50.828125 45.953125 50.828125 35.296875 
Q 50.828125 22.703125 48.234375 14.96875 
Q 45.65625 7.234375 40.5 3 
Q 35.359375 -1.21875 27.484375 -1.21875 
Q 17.140625 -1.21875 11.234375 6.203125 
Q 4.15625 15.140625 4.15625 35.296875 
z
M 13.1875 35.296875 
Q 13.1875 17.671875 17.3125 11.828125 
Q 21.4375 6 27.484375 6 
Q 33.546875 6 37.671875 11.859375 
Q 41.796875 17.71875 41.796875 35.296875 
Q 41.796875 52.984375 37.671875 58.78125 
Q 33.546875 64.59375 27.390625 64.59375 
Q 21.34375 64.59375 17.71875 59.46875 
Q 13.1875 52.9375 13.1875 35.296875 
z
" id="ArialMT-48"/>
      </defs>
      <g style="fill:#262626;" transform="translate(54.407016 290.685594)scale(0.11 -0.11)">
       <use xlink:href="#ArialMT-48"/>
      </g>
     </g>
    </g>
    <g id="xtick_2">
     <g id="line2d_2">
      <path clip-path="url(#p93ebb75000)" d="M 103.844752 273.312 
L 103.844752 7.2 
" style="fill:none;stroke:#cccccc;stroke-linecap:round;"/>
     </g>
     <g id="text_2">
      <!-- 200 -->
      <defs>
       <path d="M 50.34375 8.453125 
L 50.34375 0 
L 3.03125 0 
Q 2.9375 3.171875 4.046875 6.109375 
Q 5.859375 10.9375 9.828125 15.625 
Q 13.8125 20.3125 21.34375 26.46875 
Q 33.015625 36.03125 37.109375 41.625 
Q 41.21875 47.21875 41.21875 52.203125 
Q 41.21875 57.421875 37.46875 61 
Q 33.734375 64.59375 27.734375 64.59375 
Q 21.390625 64.59375 17.578125 60.78125 
Q 13.765625 56.984375 13.71875 50.25 
L 4.6875 51.171875 
Q 5.609375 61.28125 11.65625 66.578125 
Q 17.71875 71.875 27.9375 71.875 
Q 38.234375 71.875 44.234375 66.15625 
Q 50.25 60.453125 50.25 52 
Q 50.25 47.703125 48.484375 43.546875 
Q 46.734375 39.40625 42.65625 34.8125 
Q 38.578125 30.21875 29.109375 22.21875 
Q 21.1875 15.578125 18.9375 13.203125 
Q 16.703125 10.84375 15.234375 8.453125 
z
" id="ArialMT-50"/>
      </defs>
      <g style="fill:#262626;" transform="translate(94.669206 290.685594)scale(0.11 -0.11)">
       <use xlink:href="#ArialMT-50"/>
       <use x="55.615234" xlink:href="#ArialMT-48"/>
       <use x="111.230469" xlink:href="#ArialMT-48"/>
      </g>
     </g>
    </g>
    <g id="xtick_3">
     <g id="line2d_3">
      <path clip-path="url(#p93ebb75000)" d="M 150.223973 273.312 
L 150.223973 7.2 
" style="fill:none;stroke:#cccccc;stroke-linecap:round;"/>
     </g>
     <g id="text_3">
      <!-- 400 -->
      <defs>
       <path d="M 32.328125 0 
L 32.328125 17.140625 
L 1.265625 17.140625 
L 1.265625 25.203125 
L 33.9375 71.578125 
L 41.109375 71.578125 
L 41.109375 25.203125 
L 50.78125 25.203125 
L 50.78125 17.140625 
L 41.109375 17.140625 
L 41.109375 0 
z
M 32.328125 25.203125 
L 32.328125 57.46875 
L 9.90625 25.203125 
z
" id="ArialMT-52"/>
      </defs>
      <g style="fill:#262626;" transform="translate(141.048426 290.685594)scale(0.11 -0.11)">
       <use xlink:href="#ArialMT-52"/>
       <use x="55.615234" xlink:href="#ArialMT-48"/>
       <use x="111.230469" xlink:href="#ArialMT-48"/>
      </g>
     </g>
    </g>
    <g id="xtick_4">
     <g id="line2d_4">
      <path clip-path="url(#p93ebb75000)" d="M 196.603194 273.312 
L 196.603194 7.2 
" style="fill:none;stroke:#cccccc;stroke-linecap:round;"/>
     </g>
     <g id="text_4">
      <!-- 600 -->
      <defs>
       <path d="M 49.75 54.046875 
L 41.015625 53.375 
Q 39.84375 58.546875 37.703125 60.890625 
Q 34.125 64.65625 28.90625 64.65625 
Q 24.703125 64.65625 21.53125 62.3125 
Q 17.390625 59.28125 14.984375 53.46875 
Q 12.59375 47.65625 12.5 36.921875 
Q 15.671875 41.75 20.265625 44.09375 
Q 24.859375 46.4375 29.890625 46.4375 
Q 38.671875 46.4375 44.84375 39.96875 
Q 51.03125 33.5 51.03125 23.25 
Q 51.03125 16.5 48.125 10.71875 
Q 45.21875 4.9375 40.140625 1.859375 
Q 35.0625 -1.21875 28.609375 -1.21875 
Q 17.625 -1.21875 10.6875 6.859375 
Q 3.765625 14.9375 3.765625 33.5 
Q 3.765625 54.25 11.421875 63.671875 
Q 18.109375 71.875 29.4375 71.875 
Q 37.890625 71.875 43.28125 67.140625 
Q 48.6875 62.40625 49.75 54.046875 
z
M 13.875 23.1875 
Q 13.875 18.65625 15.796875 14.5 
Q 17.71875 10.359375 21.1875 8.171875 
Q 24.65625 6 28.46875 6 
Q 34.03125 6 38.03125 10.484375 
Q 42.046875 14.984375 42.046875 22.703125 
Q 42.046875 30.125 38.078125 34.390625 
Q 34.125 38.671875 28.125 38.671875 
Q 22.171875 38.671875 18.015625 34.390625 
Q 13.875 30.125 13.875 23.1875 
z
" id="ArialMT-54"/>
      </defs>
      <g style="fill:#262626;" transform="translate(187.427647 290.685594)scale(0.11 -0.11)">
       <use xlink:href="#ArialMT-54"/>
       <use x="55.615234" xlink:href="#ArialMT-48"/>
       <use x="111.230469" xlink:href="#ArialMT-48"/>
      </g>
     </g>
    </g>
    <g id="xtick_5">
     <g id="line2d_5">
      <path clip-path="url(#p93ebb75000)" d="M 242.982415 273.312 
L 242.982415 7.2 
" style="fill:none;stroke:#cccccc;stroke-linecap:round;"/>
     </g>
     <g id="text_5">
      <!-- 800 -->
      <defs>
       <path d="M 17.671875 38.8125 
Q 12.203125 40.828125 9.5625 44.53125 
Q 6.9375 48.25 6.9375 53.421875 
Q 6.9375 61.234375 12.546875 66.546875 
Q 18.171875 71.875 27.484375 71.875 
Q 36.859375 71.875 42.578125 66.421875 
Q 48.296875 60.984375 48.296875 53.171875 
Q 48.296875 48.1875 45.671875 44.5 
Q 43.0625 40.828125 37.75 38.8125 
Q 44.34375 36.671875 47.78125 31.875 
Q 51.21875 27.09375 51.21875 20.453125 
Q 51.21875 11.28125 44.71875 5.03125 
Q 38.234375 -1.21875 27.640625 -1.21875 
Q 17.046875 -1.21875 10.546875 5.046875 
Q 4.046875 11.328125 4.046875 20.703125 
Q 4.046875 27.6875 7.59375 32.390625 
Q 11.140625 37.109375 17.671875 38.8125 
z
M 15.921875 53.71875 
Q 15.921875 48.640625 19.1875 45.40625 
Q 22.46875 42.1875 27.6875 42.1875 
Q 32.765625 42.1875 36.015625 45.375 
Q 39.265625 48.578125 39.265625 53.21875 
Q 39.265625 58.0625 35.90625 61.359375 
Q 32.5625 64.65625 27.59375 64.65625 
Q 22.5625 64.65625 19.234375 61.421875 
Q 15.921875 58.203125 15.921875 53.71875 
z
M 13.09375 20.65625 
Q 13.09375 16.890625 14.875 13.375 
Q 16.65625 9.859375 20.171875 7.921875 
Q 23.6875 6 27.734375 6 
Q 34.03125 6 38.125 10.046875 
Q 42.234375 14.109375 42.234375 20.359375 
Q 42.234375 26.703125 38.015625 30.859375 
Q 33.796875 35.015625 27.4375 35.015625 
Q 21.234375 35.015625 17.15625 30.90625 
Q 13.09375 26.8125 13.09375 20.65625 
z
" id="ArialMT-56"/>
      </defs>
      <g style="fill:#262626;" transform="translate(233.806868 290.685594)scale(0.11 -0.11)">
       <use xlink:href="#ArialMT-56"/>
       <use x="55.615234" xlink:href="#ArialMT-48"/>
       <use x="111.230469" xlink:href="#ArialMT-48"/>
      </g>
     </g>
    </g>
    <g id="xtick_6">
     <g id="line2d_6">
      <path clip-path="url(#p93ebb75000)" d="M 289.361636 273.312 
L 289.361636 7.2 
" style="fill:none;stroke:#cccccc;stroke-linecap:round;"/>
     </g>
     <g id="text_6">
      <!-- 1000 -->
      <defs>
       <path d="M 37.25 0 
L 28.46875 0 
L 28.46875 56 
Q 25.296875 52.984375 20.140625 49.953125 
Q 14.984375 46.921875 10.890625 45.40625 
L 10.890625 53.90625 
Q 18.265625 57.375 23.78125 62.296875 
Q 29.296875 67.234375 31.59375 71.875 
L 37.25 71.875 
z
" id="ArialMT-49"/>
      </defs>
      <g style="fill:#262626;" transform="translate(277.127573 290.685594)scale(0.11 -0.11)">
       <use xlink:href="#ArialMT-49"/>
       <use x="55.615234" xlink:href="#ArialMT-48"/>
       <use x="111.230469" xlink:href="#ArialMT-48"/>
       <use x="166.845703" xlink:href="#ArialMT-48"/>
      </g>
     </g>
    </g>
    <g id="xtick_7">
     <g id="line2d_7">
      <path clip-path="url(#p93ebb75000)" d="M 335.740856 273.312 
L 335.740856 7.2 
" style="fill:none;stroke:#cccccc;stroke-linecap:round;"/>
     </g>
     <g id="text_7">
      <!-- 1200 -->
      <g style="fill:#262626;" transform="translate(323.506794 290.685594)scale(0.11 -0.11)">
       <use xlink:href="#ArialMT-49"/>
       <use x="55.615234" xlink:href="#ArialMT-50"/>
       <use x="111.230469" xlink:href="#ArialMT-48"/>
       <use x="166.845703" xlink:href="#ArialMT-48"/>
      </g>
     </g>
    </g>
    <g id="xtick_8">
     <g id="line2d_8">
      <path clip-path="url(#p93ebb75000)" d="M 382.120077 273.312 
L 382.120077 7.2 
" style="fill:none;stroke:#cccccc;stroke-linecap:round;"/>
     </g>
     <g id="text_8">
      <!-- 1400 -->
      <g style="fill:#262626;" transform="translate(369.886015 290.685594)scale(0.11 -0.11)">
       <use xlink:href="#ArialMT-49"/>
       <use x="55.615234" xlink:href="#ArialMT-52"/>
       <use x="111.230469" xlink:href="#ArialMT-48"/>
       <use x="166.845703" xlink:href="#ArialMT-48"/>
      </g>
     </g>
    </g>
    <g id="text_9">
     <!-- Number of attacker channels -->
     <defs>
      <path d="M 7.625 0 
L 7.625 71.578125 
L 17.328125 71.578125 
L 54.9375 15.375 
L 54.9375 71.578125 
L 64.015625 71.578125 
L 64.015625 0 
L 54.296875 0 
L 16.703125 56.25 
L 16.703125 0 
z
" id="ArialMT-78"/>
      <path d="M 40.578125 0 
L 40.578125 7.625 
Q 34.515625 -1.171875 24.125 -1.171875 
Q 19.53125 -1.171875 15.546875 0.578125 
Q 11.578125 2.34375 9.640625 5 
Q 7.71875 7.671875 6.9375 11.53125 
Q 6.390625 14.109375 6.390625 19.734375 
L 6.390625 51.859375 
L 15.1875 51.859375 
L 15.1875 23.09375 
Q 15.1875 16.21875 15.71875 13.8125 
Q 16.546875 10.359375 19.234375 8.375 
Q 21.921875 6.390625 25.875 6.390625 
Q 29.828125 6.390625 33.296875 8.421875 
Q 36.765625 10.453125 38.203125 13.9375 
Q 39.65625 17.4375 39.65625 24.078125 
L 39.65625 51.859375 
L 48.4375 51.859375 
L 48.4375 0 
z
" id="ArialMT-117"/>
      <path d="M 6.59375 0 
L 6.59375 51.859375 
L 14.453125 51.859375 
L 14.453125 44.578125 
Q 16.890625 48.390625 20.9375 50.703125 
Q 25 53.03125 30.171875 53.03125 
Q 35.9375 53.03125 39.625 50.640625 
Q 43.3125 48.25 44.828125 43.953125 
Q 50.984375 53.03125 60.84375 53.03125 
Q 68.5625 53.03125 72.703125 48.75 
Q 76.859375 44.484375 76.859375 35.59375 
L 76.859375 0 
L 68.109375 0 
L 68.109375 32.671875 
Q 68.109375 37.9375 67.25 40.25 
Q 66.40625 42.578125 64.15625 43.984375 
Q 61.921875 45.40625 58.890625 45.40625 
Q 53.421875 45.40625 49.796875 41.765625 
Q 46.1875 38.140625 46.1875 30.125 
L 46.1875 0 
L 37.40625 0 
L 37.40625 33.6875 
Q 37.40625 39.546875 35.25 42.46875 
Q 33.109375 45.40625 28.21875 45.40625 
Q 24.515625 45.40625 21.359375 43.453125 
Q 18.21875 41.5 16.796875 37.734375 
Q 15.375 33.984375 15.375 26.90625 
L 15.375 0 
z
" id="ArialMT-109"/>
      <path d="M 14.703125 0 
L 6.546875 0 
L 6.546875 71.578125 
L 15.328125 71.578125 
L 15.328125 46.046875 
Q 20.90625 53.03125 29.546875 53.03125 
Q 34.328125 53.03125 38.59375 51.09375 
Q 42.875 49.171875 45.625 45.671875 
Q 48.390625 42.1875 49.953125 37.25 
Q 51.515625 32.328125 51.515625 26.703125 
Q 51.515625 13.375 44.921875 6.09375 
Q 38.328125 -1.171875 29.109375 -1.171875 
Q 19.921875 -1.171875 14.703125 6.5 
z
M 14.59375 26.3125 
Q 14.59375 17 17.140625 12.84375 
Q 21.296875 6.0625 28.375 6.0625 
Q 34.125 6.0625 38.328125 11.0625 
Q 42.53125 16.0625 42.53125 25.984375 
Q 42.53125 36.140625 38.5 40.96875 
Q 34.46875 45.796875 28.765625 45.796875 
Q 23 45.796875 18.796875 40.796875 
Q 14.59375 35.796875 14.59375 26.3125 
z
" id="ArialMT-98"/>
      <path d="M 42.09375 16.703125 
L 51.171875 15.578125 
Q 49.03125 7.625 43.21875 3.21875 
Q 37.40625 -1.171875 28.375 -1.171875 
Q 17 -1.171875 10.328125 5.828125 
Q 3.65625 12.84375 3.65625 25.484375 
Q 3.65625 38.578125 10.390625 45.796875 
Q 17.140625 53.03125 27.875 53.03125 
Q 38.28125 53.03125 44.875 45.953125 
Q 51.46875 38.875 51.46875 26.03125 
Q 51.46875 25.25 51.421875 23.6875 
L 12.75 23.6875 
Q 13.234375 15.140625 17.578125 10.59375 
Q 21.921875 6.0625 28.421875 6.0625 
Q 33.25 6.0625 36.671875 8.59375 
Q 40.09375 11.140625 42.09375 16.703125 
z
M 13.234375 30.90625 
L 42.1875 30.90625 
Q 41.609375 37.453125 38.875 40.71875 
Q 34.671875 45.796875 27.984375 45.796875 
Q 21.921875 45.796875 17.796875 41.75 
Q 13.671875 37.703125 13.234375 30.90625 
z
" id="ArialMT-101"/>
      <path d="M 6.5 0 
L 6.5 51.859375 
L 14.40625 51.859375 
L 14.40625 44 
Q 17.4375 49.515625 20 51.265625 
Q 22.5625 53.03125 25.640625 53.03125 
Q 30.078125 53.03125 34.671875 50.203125 
L 31.640625 42.046875 
Q 28.421875 43.953125 25.203125 43.953125 
Q 22.3125 43.953125 20.015625 42.21875 
Q 17.71875 40.484375 16.75 37.40625 
Q 15.28125 32.71875 15.28125 27.15625 
L 15.28125 0 
z
" id="ArialMT-114"/>
      <path id="ArialMT-32"/>
      <path d="M 3.328125 25.921875 
Q 3.328125 40.328125 11.328125 47.265625 
Q 18.015625 53.03125 27.640625 53.03125 
Q 38.328125 53.03125 45.109375 46.015625 
Q 51.90625 39.015625 51.90625 26.65625 
Q 51.90625 16.65625 48.90625 10.90625 
Q 45.90625 5.171875 40.15625 2 
Q 34.421875 -1.171875 27.640625 -1.171875 
Q 16.75 -1.171875 10.03125 5.8125 
Q 3.328125 12.796875 3.328125 25.921875 
z
M 12.359375 25.921875 
Q 12.359375 15.96875 16.703125 11.015625 
Q 21.046875 6.0625 27.640625 6.0625 
Q 34.1875 6.0625 38.53125 11.03125 
Q 42.875 16.015625 42.875 26.21875 
Q 42.875 35.84375 38.5 40.796875 
Q 34.125 45.75 27.640625 45.75 
Q 21.046875 45.75 16.703125 40.8125 
Q 12.359375 35.890625 12.359375 25.921875 
z
" id="ArialMT-111"/>
      <path d="M 8.6875 0 
L 8.6875 45.015625 
L 0.921875 45.015625 
L 0.921875 51.859375 
L 8.6875 51.859375 
L 8.6875 57.375 
Q 8.6875 62.59375 9.625 65.140625 
Q 10.890625 68.5625 14.078125 70.671875 
Q 17.28125 72.796875 23.046875 72.796875 
Q 26.765625 72.796875 31.25 71.921875 
L 29.9375 64.265625 
Q 27.203125 64.75 24.75 64.75 
Q 20.75 64.75 19.09375 63.03125 
Q 17.4375 61.328125 17.4375 56.640625 
L 17.4375 51.859375 
L 27.546875 51.859375 
L 27.546875 45.015625 
L 17.4375 45.015625 
L 17.4375 0 
z
" id="ArialMT-102"/>
      <path d="M 40.4375 6.390625 
Q 35.546875 2.25 31.03125 0.53125 
Q 26.515625 -1.171875 21.34375 -1.171875 
Q 12.796875 -1.171875 8.203125 3 
Q 3.609375 7.171875 3.609375 13.671875 
Q 3.609375 17.484375 5.34375 20.625 
Q 7.078125 23.78125 9.890625 25.6875 
Q 12.703125 27.59375 16.21875 28.5625 
Q 18.796875 29.25 24.03125 29.890625 
Q 34.671875 31.15625 39.703125 32.90625 
Q 39.75 34.71875 39.75 35.203125 
Q 39.75 40.578125 37.25 42.78125 
Q 33.890625 45.75 27.25 45.75 
Q 21.046875 45.75 18.09375 43.578125 
Q 15.140625 41.40625 13.71875 35.890625 
L 5.125 37.0625 
Q 6.296875 42.578125 8.984375 45.96875 
Q 11.671875 49.359375 16.75 51.1875 
Q 21.828125 53.03125 28.515625 53.03125 
Q 35.15625 53.03125 39.296875 51.46875 
Q 43.453125 49.90625 45.40625 47.53125 
Q 47.359375 45.171875 48.140625 41.546875 
Q 48.578125 39.3125 48.578125 33.453125 
L 48.578125 21.734375 
Q 48.578125 9.46875 49.140625 6.21875 
Q 49.703125 2.984375 51.375 0 
L 42.1875 0 
Q 40.828125 2.734375 40.4375 6.390625 
z
M 39.703125 26.03125 
Q 34.90625 24.078125 25.34375 22.703125 
Q 19.921875 21.921875 17.671875 20.9375 
Q 15.4375 19.96875 14.203125 18.09375 
Q 12.984375 16.21875 12.984375 13.921875 
Q 12.984375 10.40625 15.640625 8.0625 
Q 18.3125 5.71875 23.4375 5.71875 
Q 28.515625 5.71875 32.46875 7.9375 
Q 36.421875 10.15625 38.28125 14.015625 
Q 39.703125 17 39.703125 22.796875 
z
" id="ArialMT-97"/>
      <path d="M 25.78125 7.859375 
L 27.046875 0.09375 
Q 23.34375 -0.6875 20.40625 -0.6875 
Q 15.625 -0.6875 12.984375 0.828125 
Q 10.359375 2.34375 9.28125 4.8125 
Q 8.203125 7.28125 8.203125 15.1875 
L 8.203125 45.015625 
L 1.765625 45.015625 
L 1.765625 51.859375 
L 8.203125 51.859375 
L 8.203125 64.703125 
L 16.9375 69.96875 
L 16.9375 51.859375 
L 25.78125 51.859375 
L 25.78125 45.015625 
L 16.9375 45.015625 
L 16.9375 14.703125 
Q 16.9375 10.9375 17.40625 9.859375 
Q 17.875 8.796875 18.921875 8.15625 
Q 19.96875 7.515625 21.921875 7.515625 
Q 23.390625 7.515625 25.78125 7.859375 
z
" id="ArialMT-116"/>
      <path d="M 40.4375 19 
L 49.078125 17.875 
Q 47.65625 8.9375 41.8125 3.875 
Q 35.984375 -1.171875 27.484375 -1.171875 
Q 16.84375 -1.171875 10.375 5.78125 
Q 3.90625 12.75 3.90625 25.734375 
Q 3.90625 34.125 6.6875 40.421875 
Q 9.46875 46.734375 15.15625 49.875 
Q 20.84375 53.03125 27.546875 53.03125 
Q 35.984375 53.03125 41.359375 48.75 
Q 46.734375 44.484375 48.25 36.625 
L 39.703125 35.296875 
Q 38.484375 40.53125 35.375 43.15625 
Q 32.28125 45.796875 27.875 45.796875 
Q 21.234375 45.796875 17.078125 41.03125 
Q 12.9375 36.28125 12.9375 25.984375 
Q 12.9375 15.53125 16.9375 10.796875 
Q 20.953125 6.0625 27.390625 6.0625 
Q 32.5625 6.0625 36.03125 9.234375 
Q 39.5 12.40625 40.4375 19 
z
" id="ArialMT-99"/>
      <path d="M 6.640625 0 
L 6.640625 71.578125 
L 15.4375 71.578125 
L 15.4375 30.765625 
L 36.234375 51.859375 
L 47.609375 51.859375 
L 27.78125 32.625 
L 49.609375 0 
L 38.765625 0 
L 21.625 26.515625 
L 15.4375 20.5625 
L 15.4375 0 
z
" id="ArialMT-107"/>
      <path d="M 6.59375 0 
L 6.59375 71.578125 
L 15.375 71.578125 
L 15.375 45.90625 
Q 21.53125 53.03125 30.90625 53.03125 
Q 36.671875 53.03125 40.921875 50.75 
Q 45.171875 48.484375 47 44.484375 
Q 48.828125 40.484375 48.828125 32.859375 
L 48.828125 0 
L 40.046875 0 
L 40.046875 32.859375 
Q 40.046875 39.453125 37.1875 42.453125 
Q 34.328125 45.453125 29.109375 45.453125 
Q 25.203125 45.453125 21.75 43.421875 
Q 18.3125 41.40625 16.84375 37.9375 
Q 15.375 34.46875 15.375 28.375 
L 15.375 0 
z
" id="ArialMT-104"/>
      <path d="M 6.59375 0 
L 6.59375 51.859375 
L 14.5 51.859375 
L 14.5 44.484375 
Q 20.21875 53.03125 31 53.03125 
Q 35.6875 53.03125 39.625 51.34375 
Q 43.5625 49.65625 45.515625 46.921875 
Q 47.46875 44.1875 48.25 40.4375 
Q 48.734375 37.984375 48.734375 31.890625 
L 48.734375 0 
L 39.9375 0 
L 39.9375 31.546875 
Q 39.9375 36.921875 38.90625 39.578125 
Q 37.890625 42.234375 35.28125 43.8125 
Q 32.671875 45.40625 29.15625 45.40625 
Q 23.53125 45.40625 19.453125 41.84375 
Q 15.375 38.28125 15.375 28.328125 
L 15.375 0 
z
" id="ArialMT-110"/>
      <path d="M 6.390625 0 
L 6.390625 71.578125 
L 15.1875 71.578125 
L 15.1875 0 
z
" id="ArialMT-108"/>
      <path d="M 3.078125 15.484375 
L 11.765625 16.84375 
Q 12.5 11.625 15.84375 8.84375 
Q 19.1875 6.0625 25.203125 6.0625 
Q 31.25 6.0625 34.171875 8.515625 
Q 37.109375 10.984375 37.109375 14.3125 
Q 37.109375 17.28125 34.515625 19 
Q 32.71875 20.171875 25.53125 21.96875 
Q 15.875 24.421875 12.140625 26.203125 
Q 8.40625 27.984375 6.46875 31.125 
Q 4.546875 34.28125 4.546875 38.09375 
Q 4.546875 41.546875 6.125 44.5 
Q 7.71875 47.46875 10.453125 49.421875 
Q 12.5 50.921875 16.03125 51.96875 
Q 19.578125 53.03125 23.640625 53.03125 
Q 29.734375 53.03125 34.34375 51.265625 
Q 38.96875 49.515625 41.15625 46.5 
Q 43.359375 43.5 44.1875 38.484375 
L 35.59375 37.3125 
Q 35.015625 41.3125 32.203125 43.546875 
Q 29.390625 45.796875 24.265625 45.796875 
Q 18.21875 45.796875 15.625 43.796875 
Q 13.03125 41.796875 13.03125 39.109375 
Q 13.03125 37.40625 14.109375 36.03125 
Q 15.1875 34.625 17.484375 33.6875 
Q 18.796875 33.203125 25.25 31.453125 
Q 34.578125 28.953125 38.25 27.359375 
Q 41.9375 25.78125 44.03125 22.75 
Q 46.140625 19.734375 46.140625 15.234375 
Q 46.140625 10.84375 43.578125 6.953125 
Q 41.015625 3.078125 36.171875 0.953125 
Q 31.34375 -1.171875 25.25 -1.171875 
Q 15.140625 -1.171875 9.84375 3.03125 
Q 4.546875 7.234375 3.078125 15.484375 
z
" id="ArialMT-115"/>
     </defs>
     <g style="fill:#262626;" transform="translate(143.658359 306.177)scale(0.13 -0.13)">
      <use xlink:href="#ArialMT-78"/>
      <use x="72.216797" xlink:href="#ArialMT-117"/>
      <use x="127.832031" xlink:href="#ArialMT-109"/>
      <use x="211.132812" xlink:href="#ArialMT-98"/>
      <use x="266.748047" xlink:href="#ArialMT-101"/>
      <use x="322.363281" xlink:href="#ArialMT-114"/>
      <use x="355.664062" xlink:href="#ArialMT-32"/>
      <use x="383.447266" xlink:href="#ArialMT-111"/>
      <use x="439.0625" xlink:href="#ArialMT-102"/>
      <use x="466.845703" xlink:href="#ArialMT-32"/>
      <use x="494.628906" xlink:href="#ArialMT-97"/>
      <use x="550.244141" xlink:href="#ArialMT-116"/>
      <use x="578.027344" xlink:href="#ArialMT-116"/>
      <use x="605.810547" xlink:href="#ArialMT-97"/>
      <use x="661.425781" xlink:href="#ArialMT-99"/>
      <use x="711.425781" xlink:href="#ArialMT-107"/>
      <use x="761.425781" xlink:href="#ArialMT-101"/>
      <use x="817.041016" xlink:href="#ArialMT-114"/>
      <use x="850.341797" xlink:href="#ArialMT-32"/>
      <use x="878.125" xlink:href="#ArialMT-99"/>
      <use x="928.125" xlink:href="#ArialMT-104"/>
      <use x="983.740234" xlink:href="#ArialMT-97"/>
      <use x="1039.355469" xlink:href="#ArialMT-110"/>
      <use x="1094.970703" xlink:href="#ArialMT-110"/>
      <use x="1150.585938" xlink:href="#ArialMT-101"/>
      <use x="1206.201172" xlink:href="#ArialMT-108"/>
      <use x="1228.417969" xlink:href="#ArialMT-115"/>
     </g>
    </g>
   </g>
   <g id="matplotlib.axis_2">
    <g id="ytick_1">
     <g id="line2d_9">
      <path clip-path="url(#p93ebb75000)" d="M 48.189688 263.456 
L 405.309688 263.456 
" style="fill:none;stroke:#cccccc;stroke-linecap:round;"/>
     </g>
     <g id="text_10">
      <!-- 0.0 -->
      <defs>
       <path d="M 9.078125 0 
L 9.078125 10.015625 
L 19.09375 10.015625 
L 19.09375 0 
z
" id="ArialMT-46"/>
      </defs>
      <g style="fill:#262626;" transform="translate(23.399688 267.392797)scale(0.11 -0.11)">
       <use xlink:href="#ArialMT-48"/>
       <use x="55.615234" xlink:href="#ArialMT-46"/>
       <use x="83.398438" xlink:href="#ArialMT-48"/>
      </g>
     </g>
    </g>
    <g id="ytick_2">
     <g id="line2d_10">
      <path clip-path="url(#p93ebb75000)" d="M 48.189688 214.176 
L 405.309688 214.176 
" style="fill:none;stroke:#cccccc;stroke-linecap:round;"/>
     </g>
     <g id="text_11">
      <!-- 0.2 -->
      <g style="fill:#262626;" transform="translate(23.399688 218.112797)scale(0.11 -0.11)">
       <use xlink:href="#ArialMT-48"/>
       <use x="55.615234" xlink:href="#ArialMT-46"/>
       <use x="83.398438" xlink:href="#ArialMT-50"/>
      </g>
     </g>
    </g>
    <g id="ytick_3">
     <g id="line2d_11">
      <path clip-path="url(#p93ebb75000)" d="M 48.189688 164.896 
L 405.309688 164.896 
" style="fill:none;stroke:#cccccc;stroke-linecap:round;"/>
     </g>
     <g id="text_12">
      <!-- 0.4 -->
      <g style="fill:#262626;" transform="translate(23.399688 168.832797)scale(0.11 -0.11)">
       <use xlink:href="#ArialMT-48"/>
       <use x="55.615234" xlink:href="#ArialMT-46"/>
       <use x="83.398438" xlink:href="#ArialMT-52"/>
      </g>
     </g>
    </g>
    <g id="ytick_4">
     <g id="line2d_12">
      <path clip-path="url(#p93ebb75000)" d="M 48.189688 115.616 
L 405.309688 115.616 
" style="fill:none;stroke:#cccccc;stroke-linecap:round;"/>
     </g>
     <g id="text_13">
      <!-- 0.6 -->
      <g style="fill:#262626;" transform="translate(23.399688 119.552797)scale(0.11 -0.11)">
       <use xlink:href="#ArialMT-48"/>
       <use x="55.615234" xlink:href="#ArialMT-46"/>
       <use x="83.398438" xlink:href="#ArialMT-54"/>
      </g>
     </g>
    </g>
    <g id="ytick_5">
     <g id="line2d_13">
      <path clip-path="url(#p93ebb75000)" d="M 48.189688 66.336 
L 405.309688 66.336 
" style="fill:none;stroke:#cccccc;stroke-linecap:round;"/>
     </g>
     <g id="text_14">
      <!-- 0.8 -->
      <g style="fill:#262626;" transform="translate(23.399688 70.272797)scale(0.11 -0.11)">
       <use xlink:href="#ArialMT-48"/>
       <use x="55.615234" xlink:href="#ArialMT-46"/>
       <use x="83.398438" xlink:href="#ArialMT-56"/>
      </g>
     </g>
    </g>
    <g id="ytick_6">
     <g id="line2d_14">
      <path clip-path="url(#p93ebb75000)" d="M 48.189688 17.056 
L 405.309688 17.056 
" style="fill:none;stroke:#cccccc;stroke-linecap:round;"/>
     </g>
     <g id="text_15">
      <!-- 1.0 -->
      <g style="fill:#262626;" transform="translate(23.399688 20.992797)scale(0.11 -0.11)">
       <use xlink:href="#ArialMT-49"/>
       <use x="55.615234" xlink:href="#ArialMT-46"/>
       <use x="83.398438" xlink:href="#ArialMT-48"/>
      </g>
     </g>
    </g>
    <g id="text_16">
     <!-- Fraction of attacked capacity -->
     <defs>
      <path d="M 8.203125 0 
L 8.203125 71.578125 
L 56.5 71.578125 
L 56.5 63.140625 
L 17.671875 63.140625 
L 17.671875 40.96875 
L 51.265625 40.96875 
L 51.265625 32.515625 
L 17.671875 32.515625 
L 17.671875 0 
z
" id="ArialMT-70"/>
      <path d="M 6.640625 61.46875 
L 6.640625 71.578125 
L 15.4375 71.578125 
L 15.4375 61.46875 
z
M 6.640625 0 
L 6.640625 51.859375 
L 15.4375 51.859375 
L 15.4375 0 
z
" id="ArialMT-105"/>
      <path d="M 40.234375 0 
L 40.234375 6.546875 
Q 35.296875 -1.171875 25.734375 -1.171875 
Q 19.53125 -1.171875 14.328125 2.25 
Q 9.125 5.671875 6.265625 11.796875 
Q 3.421875 17.921875 3.421875 25.875 
Q 3.421875 33.640625 6 39.96875 
Q 8.59375 46.296875 13.765625 49.65625 
Q 18.953125 53.03125 25.34375 53.03125 
Q 30.03125 53.03125 33.6875 51.046875 
Q 37.359375 49.078125 39.65625 45.90625 
L 39.65625 71.578125 
L 48.390625 71.578125 
L 48.390625 0 
z
M 12.453125 25.875 
Q 12.453125 15.921875 16.640625 10.984375 
Q 20.84375 6.0625 26.5625 6.0625 
Q 32.328125 6.0625 36.34375 10.765625 
Q 40.375 15.484375 40.375 25.140625 
Q 40.375 35.796875 36.265625 40.765625 
Q 32.171875 45.75 26.171875 45.75 
Q 20.3125 45.75 16.375 40.96875 
Q 12.453125 36.1875 12.453125 25.875 
z
" id="ArialMT-100"/>
      <path d="M 6.59375 -19.875 
L 6.59375 51.859375 
L 14.59375 51.859375 
L 14.59375 45.125 
Q 17.4375 49.078125 21 51.046875 
Q 24.5625 53.03125 29.640625 53.03125 
Q 36.28125 53.03125 41.359375 49.609375 
Q 46.4375 46.1875 49.015625 39.953125 
Q 51.609375 33.734375 51.609375 26.3125 
Q 51.609375 18.359375 48.75 11.984375 
Q 45.90625 5.609375 40.453125 2.21875 
Q 35.015625 -1.171875 29 -1.171875 
Q 24.609375 -1.171875 21.109375 0.6875 
Q 17.625 2.546875 15.375 5.375 
L 15.375 -19.875 
z
M 14.546875 25.640625 
Q 14.546875 15.625 18.59375 10.84375 
Q 22.65625 6.0625 28.421875 6.0625 
Q 34.28125 6.0625 38.453125 11.015625 
Q 42.625 15.96875 42.625 26.375 
Q 42.625 36.28125 38.546875 41.203125 
Q 34.46875 46.140625 28.8125 46.140625 
Q 23.1875 46.140625 18.859375 40.890625 
Q 14.546875 35.640625 14.546875 25.640625 
z
" id="ArialMT-112"/>
      <path d="M 6.203125 -19.96875 
L 5.21875 -11.71875 
Q 8.109375 -12.5 10.25 -12.5 
Q 13.1875 -12.5 14.9375 -11.515625 
Q 16.703125 -10.546875 17.828125 -8.796875 
Q 18.65625 -7.46875 20.515625 -2.25 
Q 20.75 -1.515625 21.296875 -0.09375 
L 1.609375 51.859375 
L 11.078125 51.859375 
L 21.875 21.828125 
Q 23.96875 16.109375 25.640625 9.8125 
Q 27.15625 15.875 29.25 21.625 
L 40.328125 51.859375 
L 49.125 51.859375 
L 29.390625 -0.875 
Q 26.21875 -9.421875 24.46875 -12.640625 
Q 22.125 -17 19.09375 -19.015625 
Q 16.0625 -21.046875 11.859375 -21.046875 
Q 9.328125 -21.046875 6.203125 -19.96875 
z
" id="ArialMT-121"/>
     </defs>
     <g style="fill:#262626;" transform="translate(16.663594 222.985766)rotate(-90)scale(0.13 -0.13)">
      <use xlink:href="#ArialMT-70"/>
      <use x="61.083984" xlink:href="#ArialMT-114"/>
      <use x="94.384766" xlink:href="#ArialMT-97"/>
      <use x="150" xlink:href="#ArialMT-99"/>
      <use x="200" xlink:href="#ArialMT-116"/>
      <use x="227.783203" xlink:href="#ArialMT-105"/>
      <use x="250" xlink:href="#ArialMT-111"/>
      <use x="305.615234" xlink:href="#ArialMT-110"/>
      <use x="361.230469" xlink:href="#ArialMT-32"/>
      <use x="389.013672" xlink:href="#ArialMT-111"/>
      <use x="444.628906" xlink:href="#ArialMT-102"/>
      <use x="472.412109" xlink:href="#ArialMT-32"/>
      <use x="500.195312" xlink:href="#ArialMT-97"/>
      <use x="555.810547" xlink:href="#ArialMT-116"/>
      <use x="583.59375" xlink:href="#ArialMT-116"/>
      <use x="611.376953" xlink:href="#ArialMT-97"/>
      <use x="666.992188" xlink:href="#ArialMT-99"/>
      <use x="716.992188" xlink:href="#ArialMT-107"/>
      <use x="766.992188" xlink:href="#ArialMT-101"/>
      <use x="822.607422" xlink:href="#ArialMT-100"/>
      <use x="878.222656" xlink:href="#ArialMT-32"/>
      <use x="906.005859" xlink:href="#ArialMT-99"/>
      <use x="956.005859" xlink:href="#ArialMT-97"/>
      <use x="1011.621094" xlink:href="#ArialMT-112"/>
      <use x="1067.236328" xlink:href="#ArialMT-97"/>
      <use x="1122.851562" xlink:href="#ArialMT-99"/>
      <use x="1172.851562" xlink:href="#ArialMT-105"/>
      <use x="1195.068359" xlink:href="#ArialMT-116"/>
      <use x="1222.851562" xlink:href="#ArialMT-121"/>
     </g>
    </g>
   </g>
   <g id="patch_3">
    <path clip-path="url(#p93ebb75000)" d="M 324.146051 39.232 
L 330.407246 39.232 
L 330.407246 32.75168 
L 324.146051 32.75168 
L 324.146051 39.232 
z
" style="fill:none;stroke:#808080;stroke-linejoin:miter;"/>
   </g>
   <g id="line2d_15">
    <path clip-path="url(#p93ebb75000)" d="M 57.465532 255.664645 
L 58.393116 248.633834 
L 59.3207 246.177677 
L 87.612025 186.309978 
L 94.568908 172.319108 
L 100.598207 160.714026 
L 105.699921 151.475923 
L 109.874051 144.469714 
L 113.584389 138.668178 
L 116.367142 134.763655 
L 121.005064 128.645293 
L 123.787817 125.21964 
L 128.425739 119.79444 
L 133.527454 114.200532 
L 139.556752 107.930405 
L 145.122259 102.561703 
L 150.223973 98.000598 
L 154.861895 94.161131 
L 159.036025 91.002966 
L 164.601532 87.002161 
L 170.63083 82.94928 
L 177.123921 78.942466 
L 185.472181 74.067183 
L 192.892856 70.015892 
L 202.632493 64.949141 
L 208.197999 62.259044 
L 213.763506 59.755055 
L 219.792804 57.276074 
L 225.822103 55.055151 
L 231.851402 53.038609 
L 242.05483 49.848003 
L 251.330675 47.200086 
L 259.215142 45.201057 
L 270.809947 42.492115 
L 280.549584 40.417113 
L 292.144389 38.190856 
L 302.347817 36.461282 
L 312.087454 35.025933 
L 327.392597 33.037222 
L 345.480493 30.917831 
L 362.177012 29.174369 
L 378.409739 27.68332 
L 394.178675 26.470734 
L 413.509687 25.212615 
L 413.509687 25.212615 
" style="fill:none;stroke:#4c72b0;stroke-linecap:round;stroke-width:1.5;"/>
   </g>
   <g id="line2d_16">
    <path clip-path="url(#p93ebb75000)" d="M 57.465532 251.929068 
L 57.929324 246.208277 
L 58.393116 243.513278 
L 59.3207 241.300298 
L 67.66896 224.418985 
L 85.756856 188.128401 
L 94.105116 172.048941 
L 99.20683 162.587459 
L 103.844752 154.380244 
L 108.482675 146.475256 
L 111.72922 141.378806 
L 114.975765 136.657394 
L 118.222311 132.323612 
L 121.932649 127.869511 
L 127.498155 121.626623 
L 133.063662 115.70438 
L 138.629168 110.092517 
L 144.194675 104.75795 
L 149.760181 99.684036 
L 153.470519 96.539988 
L 157.180856 93.5977 
L 163.673947 88.913905 
L 170.63083 84.27467 
L 174.80496 81.725318 
L 184.080804 76.321418 
L 193.356649 71.202502 
L 199.849739 67.866646 
L 206.34283 64.75048 
L 213.299713 61.675778 
L 220.720389 58.6116 
L 226.749688 56.326984 
L 233.706571 53.914105 
L 242.518623 51.135487 
L 249.011713 49.290519 
L 258.75135 46.798536 
L 269.418571 44.324814 
L 282.404752 41.53058 
L 294.927142 39.094852 
L 305.130571 37.367783 
L 316.725376 35.622422 
L 328.783973 34.058509 
L 349.654623 31.643684 
L 370.06148 29.48142 
L 390.932129 27.504115 
L 406.237272 26.256611 
L 413.509687 25.743233 
L 413.509687 25.743233 
" style="fill:none;stroke:#dd8452;stroke-linecap:round;stroke-width:1.5;"/>
   </g>
   <g id="line2d_17">
    <path clip-path="url(#p93ebb75000)" d="M 57.465532 253.293027 
L 57.929324 250.460457 
L 59.3207 246.513939 
L 61.639662 241.492701 
L 86.220649 189.23389 
L 92.713739 176.207743 
L 97.815454 166.484969 
L 102.917168 157.345509 
L 107.091298 150.256677 
L 110.801636 144.357064 
L 114.511973 138.997774 
L 117.758519 134.691875 
L 122.396441 128.99398 
L 128.425739 122.043677 
L 134.91883 114.96904 
L 139.556752 110.230851 
L 144.194675 105.810464 
L 147.44122 103.016369 
L 153.934311 97.8015 
L 159.499817 93.600714 
L 165.992908 89.035359 
L 171.094623 85.680347 
L 178.515298 81.091342 
L 186.863558 76.192667 
L 194.284233 72.065597 
L 200.313532 69.026772 
L 207.270415 65.841715 
L 215.154882 62.414087 
L 224.430726 58.61661 
L 230.460025 56.37556 
L 236.953116 54.189828 
L 245.301376 51.603442 
L 254.113428 49.097505 
L 263.853064 46.563893 
L 274.520285 44.035543 
L 286.11509 41.539643 
L 293.535765 40.122071 
L 305.130571 38.120324 
L 316.261584 36.405829 
L 328.783973 34.72308 
L 348.263246 32.350986 
L 366.351142 30.336048 
L 381.656285 28.834029 
L 397.889012 27.488048 
L 413.509687 26.372589 
L 413.509687 26.372589 
" style="fill:none;stroke:#55a868;stroke-linecap:round;stroke-width:1.5;"/>
   </g>
   <g id="line2d_18">
    <path clip-path="url(#p93ebb75000)" d="M 57.465532 256.689359 
L 58.856908 253.454203 
L 80.19135 206.753877 
L 87.148233 192.26166 
L 92.713739 181.166367 
L 97.815454 171.392083 
L 101.989584 163.865766 
L 105.236129 158.366995 
L 110.337843 150.226408 
L 114.048181 144.723087 
L 117.758519 139.58109 
L 122.396441 133.615741 
L 127.961947 126.908907 
L 133.991246 119.949368 
L 138.165376 115.46909 
L 143.26709 110.380782 
L 148.832597 105.12446 
L 154.398103 100.238295 
L 159.499817 96.031602 
L 165.529116 91.422851 
L 171.094623 87.537164 
L 177.587713 83.3207 
L 185.472181 78.447374 
L 193.356649 73.822788 
L 199.849739 70.298042 
L 205.415246 67.506404 
L 212.835921 63.996493 
L 220.256597 60.747155 
L 229.068649 57.140019 
L 236.489324 54.378476 
L 242.05483 52.56725 
L 249.475506 50.368005 
L 256.896181 48.428196 
L 269.418571 45.404668 
L 280.085791 43.07207 
L 290.28922 41.060446 
L 301.420233 39.084519 
L 314.406415 37.06044 
L 328.320181 35.187192 
L 345.944285 33.050288 
L 364.032181 31.071104 
L 383.047662 29.22552 
L 402.063142 27.63959 
L 413.509687 26.801879 
L 413.509687 26.801879 
" style="fill:none;stroke:#c44e52;stroke-linecap:round;stroke-width:1.5;"/>
   </g>
   <g id="line2d_19">
    <path clip-path="url(#p93ebb75000)" d="M 57.465532 260.383181 
L 81.118934 208.164728 
L 88.075817 193.447432 
L 94.105116 181.212855 
L 98.279246 173.162192 
L 103.38096 163.865394 
L 107.55509 156.732321 
L 111.265428 150.814874 
L 114.975765 145.409217 
L 118.222311 141.006861 
L 121.932649 136.397354 
L 128.425739 128.713858 
L 133.991246 122.383127 
L 139.556752 116.45003 
L 144.194675 111.837411 
L 149.760181 106.722564 
L 153.934311 103.138851 
L 159.96361 98.321629 
L 166.920493 93.05463 
L 172.022207 89.42077 
L 177.587713 85.748262 
L 185.935973 80.57964 
L 192.429064 76.786123 
L 198.458363 73.467809 
L 206.806623 69.208319 
L 214.227298 65.679442 
L 220.720389 62.83734 
L 227.677272 60.068435 
L 233.706571 57.880804 
L 241.591038 55.210901 
L 250.40309 52.473377 
L 258.75135 50.10703 
L 267.09961 47.96209 
L 277.76683 45.474555 
L 290.28922 42.823212 
L 302.81161 40.464852 
L 314.870207 38.427969 
L 327.856389 36.464998 
L 341.306363 34.696936 
L 360.321843 32.431314 
L 376.554571 30.717593 
L 395.106259 28.990671 
L 410.875194 27.737526 
L 413.509687 27.544208 
L 413.509687 27.544208 
" style="fill:none;stroke:#8172b3;stroke-linecap:round;stroke-width:1.5;"/>
   </g>
   <g id="line2d_20">
    <path clip-path="url(#p93ebb75000)" d="M 57.465532 260.987599 
L 78.336181 212.266672 
L 83.901688 199.987342 
L 89.930986 187.318795 
L 94.568908 177.994659 
L 98.743038 170.1917 
L 103.38096 162.112181 
L 106.627506 156.904895 
L 110.801636 150.74529 
L 115.439558 144.33766 
L 118.686103 140.11794 
L 124.715402 132.633121 
L 129.817116 126.682457 
L 135.382623 120.464714 
L 140.484337 115.090847 
L 144.658467 110.974531 
L 148.832597 107.095572 
L 153.470519 103.10184 
L 160.427402 97.40378 
L 165.529116 93.49784 
L 171.558415 89.155816 
L 177.587713 85.253702 
L 185.472181 80.437672 
L 193.820441 75.616085 
L 199.849739 72.409753 
L 207.734207 68.537979 
L 213.763506 65.785782 
L 221.184181 62.670019 
L 228.141064 59.965222 
L 235.097947 57.49194 
L 244.837584 54.280178 
L 253.649636 51.597111 
L 261.997895 49.293714 
L 269.882363 47.360202 
L 279.621999 45.161489 
L 289.825428 43.104629 
L 303.739194 40.535542 
L 314.406415 38.762256 
L 324.609843 37.260402 
L 339.914986 35.251054 
L 355.683921 33.380071 
L 372.380441 31.602756 
L 391.859713 29.774601 
L 409.94761 28.321403 
L 413.509687 28.061562 
L 413.509687 28.061562 
" style="fill:none;stroke:#937860;stroke-linecap:round;stroke-width:1.5;"/>
   </g>
   <g id="line2d_21">
    <path clip-path="url(#p93ebb75000)" d="M 57.465532 260.401052 
L 75.553428 218.058018 
L 82.510311 202.585116 
L 86.684441 193.717037 
L 92.249947 182.422482 
L 98.279246 170.767116 
L 101.525791 164.972144 
L 106.163713 157.186671 
L 109.410259 152.07604 
L 112.193012 148.007133 
L 117.294726 140.994957 
L 121.932649 135.003335 
L 128.889532 126.55605 
L 133.991246 120.670085 
L 138.165376 116.172582 
L 141.875713 112.497711 
L 146.977428 107.841431 
L 152.542934 103.077818 
L 159.96361 97.024578 
L 165.529116 92.725336 
L 171.094623 88.713495 
L 176.660129 84.980182 
L 183.15322 80.969767 
L 190.110103 76.941392 
L 195.67561 73.982552 
L 205.415246 69.075056 
L 211.444545 66.310669 
L 217.473843 63.790823 
L 225.358311 60.810543 
L 233.706571 57.90823 
L 242.518623 55.159283 
L 252.722051 52.27247 
L 261.997895 49.866598 
L 272.665116 47.397892 
L 285.651298 44.659565 
L 297.709895 42.367436 
L 311.623662 39.948203 
L 321.82709 38.362858 
L 338.059817 36.130089 
L 353.828752 34.163926 
L 373.308025 31.977444 
L 391.395921 30.213941 
L 409.94761 28.653384 
L 413.509687 28.375642 
L 413.509687 28.375642 
" style="fill:none;stroke:#da8bc3;stroke-linecap:round;stroke-width:1.5;"/>
   </g>
   <g id="line2d_22">
    <path clip-path="url(#p93ebb75000)" d="M 57.465532 262.032502 
L 76.01722 217.678155 
L 82.046519 203.989908 
L 86.684441 193.94729 
L 91.322363 184.534424 
L 95.496493 176.583922 
L 99.670623 169.094581 
L 102.453376 164.46723 
L 107.55509 156.459165 
L 110.801636 151.656553 
L 116.830934 143.198689 
L 121.468856 137.150532 
L 128.425739 128.495318 
L 133.527454 122.590062 
L 138.629168 116.979409 
L 141.875713 113.63336 
L 145.586051 110.096118 
L 151.151558 105.090808 
L 157.180856 99.909416 
L 161.354986 96.559581 
L 166.4567 92.768987 
L 173.413584 87.979644 
L 179.906675 83.757577 
L 186.399765 79.715581 
L 193.356649 75.690094 
L 198.922155 72.767393 
L 206.806623 68.917659 
L 214.69109 65.34375 
L 221.647973 62.489702 
L 229.532441 59.518524 
L 237.416908 56.789564 
L 245.301376 54.314412 
L 254.57722 51.670264 
L 261.997895 49.758192 
L 271.737532 47.475169 
L 283.332337 45.103988 
L 298.63748 42.268867 
L 312.087454 40.019984 
L 324.146051 38.203766 
L 336.204649 36.565342 
L 352.901168 34.515987 
L 372.380441 32.336096 
L 388.613168 30.718309 
L 407.164856 29.05629 
L 413.509687 28.546254 
L 413.509687 28.546254 
" style="fill:none;stroke:#8c8c8c;stroke-linecap:round;stroke-width:1.5;"/>
   </g>
   <g id="line2d_23">
    <path clip-path="url(#p93ebb75000)" d="M 57.465532 260.55484 
L 76.944804 215.838462 
L 82.974103 202.694035 
L 86.684441 195.043566 
L 91.322363 186.012526 
L 95.960285 177.411556 
L 99.670623 170.993982 
L 103.38096 165.124757 
L 108.018882 158.303392 
L 112.656804 151.841911 
L 118.222311 144.44813 
L 122.396441 139.243554 
L 129.817116 130.419607 
L 134.91883 124.68096 
L 140.484337 118.727873 
L 144.194675 115.012137 
L 147.905012 111.582908 
L 155.325688 105.135767 
L 160.891194 100.570744 
L 167.848077 95.217653 
L 173.413584 91.216506 
L 179.442882 87.225539 
L 185.472181 83.453839 
L 192.429064 79.367278 
L 198.922155 75.82102 
L 206.34283 72.0252 
L 212.372129 69.262108 
L 218.86522 66.514556 
L 226.285895 63.604497 
L 233.706571 60.916145 
L 242.05483 58.126557 
L 249.939298 55.68689 
L 261.070311 52.471459 
L 271.273739 49.800709 
L 281.94096 47.283666 
L 292.608181 44.990378 
L 304.202986 42.773114 
L 316.725376 40.597085 
L 330.17535 38.514881 
L 342.697739 36.761476 
L 359.394259 34.66249 
L 374.699402 32.972704 
L 394.178675 31.043021 
L 413.509687 29.342752 
L 413.509687 29.342752 
" style="fill:none;stroke:#ccb974;stroke-linecap:round;stroke-width:1.5;"/>
   </g>
   <g id="line2d_24">
    <path clip-path="url(#p93ebb75000)" d="M 57.465532 261.987333 
L 59.3207 256.459737 
L 61.639662 250.351193 
L 64.886207 242.226851 
L 67.66896 235.69782 
L 70.451713 229.740451 
L 72.770675 225.139788 
L 78.799973 213.675781 
L 85.756856 201.12414 
L 92.249947 190.136373 
L 96.887869 182.664545 
L 101.061999 176.24041 
L 106.163713 169.05301 
L 110.337843 163.690941 
L 115.439558 157.581939 
L 122.860233 149.341384 
L 133.063662 138.794315 
L 141.411921 130.542718 
L 149.296389 123.078883 
L 154.398103 118.514888 
L 160.891194 113.004226 
L 169.239454 106.220031 
L 174.80496 101.977552 
L 180.834259 97.742703 
L 186.399765 94.11916 
L 192.429064 90.492279 
L 196.603194 88.218421 
L 204.023869 84.479808 
L 213.299713 80.166674 
L 219.329012 77.561936 
L 227.21348 74.403233 
L 236.025532 71.139077 
L 242.982415 68.863594 
L 253.185843 65.713233 
L 263.853064 62.683294 
L 272.665116 60.436846 
L 285.187506 57.540276 
L 299.101272 54.588803 
L 313.942623 51.662034 
L 327.856389 49.144128 
L 342.697739 46.644513 
L 358.002882 44.313241 
L 374.23561 42.050368 
L 391.395921 39.885689 
L 410.875194 37.680198 
L 413.509687 37.395897 
L 413.509687 37.395897 
" style="fill:none;stroke:#64b5cd;stroke-linecap:round;stroke-width:1.5;"/>
   </g>
   <g id="patch_4">
    <path d="M 48.189688 273.312 
L 48.189688 7.2 
" style="fill:none;stroke:#cccccc;stroke-linecap:square;stroke-linejoin:miter;stroke-width:1.25;"/>
   </g>
   <g id="patch_5">
    <path d="M 405.309688 273.312 
L 405.309688 7.2 
" style="fill:none;stroke:#cccccc;stroke-linecap:square;stroke-linejoin:miter;stroke-width:1.25;"/>
   </g>
   <g id="patch_6">
    <path d="M 48.189688 273.312 
L 405.309688 273.312 
" style="fill:none;stroke:#cccccc;stroke-linecap:square;stroke-linejoin:miter;stroke-width:1.25;"/>
   </g>
   <g id="patch_7">
    <path d="M 48.189688 7.2 
L 405.309688 7.2 
" style="fill:none;stroke:#cccccc;stroke-linecap:square;stroke-linejoin:miter;stroke-width:1.25;"/>
   </g>
   <g id="legend_1">
    <g id="patch_8">
     <path d="M 265.791875 267.812 
L 397.609688 267.812 
Q 399.809688 267.812 399.809688 265.612 
L 399.809688 110.462156 
Q 399.809688 108.262156 397.609688 108.262156 
L 265.791875 108.262156 
Q 263.591875 108.262156 263.591875 110.462156 
L 263.591875 265.612 
Q 263.591875 267.812 265.791875 267.812 
z
" style="fill:#ffffff;opacity:0.8;stroke:#cccccc;stroke-linejoin:miter;"/>
    </g>
    <g id="line2d_25">
     <path d="M 267.991875 116.68575 
L 289.991875 116.68575 
" style="fill:none;stroke:#4c72b0;stroke-linecap:round;stroke-width:1.5;"/>
    </g>
    <g id="line2d_26"/>
    <g id="text_17">
     <!-- 09 March 2019 -->
     <defs>
      <path d="M 5.46875 16.546875 
L 13.921875 17.328125 
Q 14.984375 11.375 18.015625 8.6875 
Q 21.046875 6 25.78125 6 
Q 29.828125 6 32.875 7.859375 
Q 35.9375 9.71875 37.890625 12.8125 
Q 39.84375 15.921875 41.15625 21.1875 
Q 42.484375 26.46875 42.484375 31.9375 
Q 42.484375 32.515625 42.4375 33.6875 
Q 39.796875 29.5 35.234375 26.875 
Q 30.671875 24.265625 25.34375 24.265625 
Q 16.453125 24.265625 10.296875 30.703125 
Q 4.15625 37.15625 4.15625 47.703125 
Q 4.15625 58.59375 10.578125 65.234375 
Q 17 71.875 26.65625 71.875 
Q 33.640625 71.875 39.421875 68.109375 
Q 45.21875 64.359375 48.21875 57.390625 
Q 51.21875 50.4375 51.21875 37.25 
Q 51.21875 23.53125 48.234375 15.40625 
Q 45.265625 7.28125 39.375 3.03125 
Q 33.5 -1.21875 25.59375 -1.21875 
Q 17.1875 -1.21875 11.859375 3.4375 
Q 6.546875 8.109375 5.46875 16.546875 
z
M 41.453125 48.140625 
Q 41.453125 55.71875 37.421875 60.15625 
Q 33.40625 64.59375 27.734375 64.59375 
Q 21.875 64.59375 17.53125 59.8125 
Q 13.1875 55.03125 13.1875 47.40625 
Q 13.1875 40.578125 17.3125 36.296875 
Q 21.4375 32.03125 27.484375 32.03125 
Q 33.59375 32.03125 37.515625 36.296875 
Q 41.453125 40.578125 41.453125 48.140625 
z
" id="ArialMT-57"/>
      <path d="M 7.421875 0 
L 7.421875 71.578125 
L 21.6875 71.578125 
L 38.625 20.90625 
Q 40.96875 13.8125 42.046875 10.296875 
Q 43.265625 14.203125 45.84375 21.78125 
L 62.984375 71.578125 
L 75.734375 71.578125 
L 75.734375 0 
L 66.609375 0 
L 66.609375 59.90625 
L 45.796875 0 
L 37.25 0 
L 16.546875 60.9375 
L 16.546875 0 
z
" id="ArialMT-77"/>
     </defs>
     <g style="fill:#262626;" transform="translate(298.791875 120.53575)scale(0.11 -0.11)">
      <use xlink:href="#ArialMT-48"/>
      <use x="55.615234" xlink:href="#ArialMT-57"/>
      <use x="111.230469" xlink:href="#ArialMT-32"/>
      <use x="139.013672" xlink:href="#ArialMT-77"/>
      <use x="222.314453" xlink:href="#ArialMT-97"/>
      <use x="277.929688" xlink:href="#ArialMT-114"/>
      <use x="311.230469" xlink:href="#ArialMT-99"/>
      <use x="361.230469" xlink:href="#ArialMT-104"/>
      <use x="416.845703" xlink:href="#ArialMT-32"/>
      <use x="444.628906" xlink:href="#ArialMT-50"/>
      <use x="500.244141" xlink:href="#ArialMT-48"/>
      <use x="555.859375" xlink:href="#ArialMT-49"/>
      <use x="611.474609" xlink:href="#ArialMT-57"/>
     </g>
    </g>
    <g id="line2d_27">
     <path d="M 267.991875 132.27825 
L 289.991875 132.27825 
" style="fill:none;stroke:#dd8452;stroke-linecap:round;stroke-width:1.5;"/>
    </g>
    <g id="line2d_28"/>
    <g id="text_18">
     <!-- 15 August 2019 -->
     <defs>
      <path d="M 4.15625 18.75 
L 13.375 19.53125 
Q 14.40625 12.796875 18.140625 9.390625 
Q 21.875 6 27.15625 6 
Q 33.5 6 37.890625 10.78125 
Q 42.28125 15.578125 42.28125 23.484375 
Q 42.28125 31 38.0625 35.34375 
Q 33.84375 39.703125 27 39.703125 
Q 22.75 39.703125 19.328125 37.765625 
Q 15.921875 35.84375 13.96875 32.765625 
L 5.71875 33.84375 
L 12.640625 70.609375 
L 48.25 70.609375 
L 48.25 62.203125 
L 19.671875 62.203125 
L 15.828125 42.96875 
Q 22.265625 47.46875 29.34375 47.46875 
Q 38.71875 47.46875 45.15625 40.96875 
Q 51.609375 34.46875 51.609375 24.265625 
Q 51.609375 14.546875 45.953125 7.46875 
Q 39.0625 -1.21875 27.15625 -1.21875 
Q 17.390625 -1.21875 11.203125 4.25 
Q 5.03125 9.71875 4.15625 18.75 
z
" id="ArialMT-53"/>
      <path d="M -0.140625 0 
L 27.34375 71.578125 
L 37.546875 71.578125 
L 66.84375 0 
L 56.0625 0 
L 47.703125 21.6875 
L 17.78125 21.6875 
L 9.90625 0 
z
M 20.515625 29.390625 
L 44.78125 29.390625 
L 37.3125 49.21875 
Q 33.890625 58.25 32.234375 64.0625 
Q 30.859375 57.171875 28.375 50.390625 
z
" id="ArialMT-65"/>
      <path d="M 4.984375 -4.296875 
L 13.53125 -5.5625 
Q 14.0625 -9.515625 16.5 -11.328125 
Q 19.78125 -13.765625 25.4375 -13.765625 
Q 31.546875 -13.765625 34.859375 -11.328125 
Q 38.1875 -8.890625 39.359375 -4.5 
Q 40.046875 -1.8125 39.984375 6.78125 
Q 34.234375 0 25.640625 0 
Q 14.9375 0 9.078125 7.71875 
Q 3.21875 15.4375 3.21875 26.21875 
Q 3.21875 33.640625 5.90625 39.90625 
Q 8.59375 46.1875 13.6875 49.609375 
Q 18.796875 53.03125 25.6875 53.03125 
Q 34.859375 53.03125 40.828125 45.609375 
L 40.828125 51.859375 
L 48.921875 51.859375 
L 48.921875 7.03125 
Q 48.921875 -5.078125 46.453125 -10.125 
Q 44 -15.1875 38.640625 -18.109375 
Q 33.296875 -21.046875 25.484375 -21.046875 
Q 16.21875 -21.046875 10.5 -16.875 
Q 4.78125 -12.703125 4.984375 -4.296875 
z
M 12.25 26.859375 
Q 12.25 16.65625 16.296875 11.96875 
Q 20.359375 7.28125 26.46875 7.28125 
Q 32.515625 7.28125 36.609375 11.9375 
Q 40.71875 16.609375 40.71875 26.5625 
Q 40.71875 36.078125 36.5 40.90625 
Q 32.28125 45.75 26.3125 45.75 
Q 20.453125 45.75 16.34375 40.984375 
Q 12.25 36.234375 12.25 26.859375 
z
" id="ArialMT-103"/>
     </defs>
     <g style="fill:#262626;" transform="translate(298.791875 136.12825)scale(0.11 -0.11)">
      <use xlink:href="#ArialMT-49"/>
      <use x="55.615234" xlink:href="#ArialMT-53"/>
      <use x="111.230469" xlink:href="#ArialMT-32"/>
      <use x="138.935547" xlink:href="#ArialMT-65"/>
      <use x="205.634766" xlink:href="#ArialMT-117"/>
      <use x="261.25" xlink:href="#ArialMT-103"/>
      <use x="316.865234" xlink:href="#ArialMT-117"/>
      <use x="372.480469" xlink:href="#ArialMT-115"/>
      <use x="422.480469" xlink:href="#ArialMT-116"/>
      <use x="450.263672" xlink:href="#ArialMT-32"/>
      <use x="478.046875" xlink:href="#ArialMT-50"/>
      <use x="533.662109" xlink:href="#ArialMT-48"/>
      <use x="589.277344" xlink:href="#ArialMT-49"/>
      <use x="644.892578" xlink:href="#ArialMT-57"/>
     </g>
    </g>
    <g id="line2d_29">
     <path d="M 267.991875 148.101062 
L 289.991875 148.101062 
" style="fill:none;stroke:#55a868;stroke-linecap:round;stroke-width:1.5;"/>
    </g>
    <g id="line2d_30"/>
    <g id="text_19">
     <!-- 27 September 2019 -->
     <defs>
      <path d="M 4.734375 62.203125 
L 4.734375 70.65625 
L 51.078125 70.65625 
L 51.078125 63.8125 
Q 44.234375 56.546875 37.515625 44.484375 
Q 30.8125 32.421875 27.15625 19.671875 
Q 24.515625 10.6875 23.78125 0 
L 14.75 0 
Q 14.890625 8.453125 18.0625 20.40625 
Q 21.234375 32.375 27.171875 43.484375 
Q 33.109375 54.59375 39.796875 62.203125 
z
" id="ArialMT-55"/>
      <path d="M 4.5 23 
L 13.421875 23.78125 
Q 14.0625 18.40625 16.375 14.96875 
Q 18.703125 11.53125 23.578125 9.40625 
Q 28.46875 7.28125 34.578125 7.28125 
Q 39.984375 7.28125 44.140625 8.890625 
Q 48.296875 10.5 50.3125 13.296875 
Q 52.34375 16.109375 52.34375 19.4375 
Q 52.34375 22.796875 50.390625 25.3125 
Q 48.4375 27.828125 43.953125 29.546875 
Q 41.0625 30.671875 31.203125 33.03125 
Q 21.34375 35.40625 17.390625 37.5 
Q 12.25 40.1875 9.734375 44.15625 
Q 7.234375 48.140625 7.234375 53.078125 
Q 7.234375 58.5 10.296875 63.203125 
Q 13.375 67.921875 19.28125 70.359375 
Q 25.203125 72.796875 32.421875 72.796875 
Q 40.375 72.796875 46.453125 70.234375 
Q 52.546875 67.671875 55.8125 62.6875 
Q 59.078125 57.71875 59.328125 51.421875 
L 50.25 50.734375 
Q 49.515625 57.515625 45.28125 60.984375 
Q 41.0625 64.453125 32.8125 64.453125 
Q 24.21875 64.453125 20.28125 61.296875 
Q 16.359375 58.15625 16.359375 53.71875 
Q 16.359375 49.859375 19.140625 47.359375 
Q 21.875 44.875 33.421875 42.265625 
Q 44.96875 39.65625 49.265625 37.703125 
Q 55.515625 34.8125 58.484375 30.390625 
Q 61.46875 25.984375 61.46875 20.21875 
Q 61.46875 14.5 58.203125 9.4375 
Q 54.9375 4.390625 48.796875 1.578125 
Q 42.671875 -1.21875 35.015625 -1.21875 
Q 25.296875 -1.21875 18.71875 1.609375 
Q 12.15625 4.4375 8.421875 10.125 
Q 4.6875 15.828125 4.5 23 
z
" id="ArialMT-83"/>
     </defs>
     <g style="fill:#262626;" transform="translate(298.791875 151.951062)scale(0.11 -0.11)">
      <use xlink:href="#ArialMT-50"/>
      <use x="55.615234" xlink:href="#ArialMT-55"/>
      <use x="111.230469" xlink:href="#ArialMT-32"/>
      <use x="139.013672" xlink:href="#ArialMT-83"/>
      <use x="205.712891" xlink:href="#ArialMT-101"/>
      <use x="261.328125" xlink:href="#ArialMT-112"/>
      <use x="316.943359" xlink:href="#ArialMT-116"/>
      <use x="344.726562" xlink:href="#ArialMT-101"/>
      <use x="400.341797" xlink:href="#ArialMT-109"/>
      <use x="483.642578" xlink:href="#ArialMT-98"/>
      <use x="539.257812" xlink:href="#ArialMT-101"/>
      <use x="594.873047" xlink:href="#ArialMT-114"/>
      <use x="628.173828" xlink:href="#ArialMT-32"/>
      <use x="655.957031" xlink:href="#ArialMT-50"/>
      <use x="711.572266" xlink:href="#ArialMT-48"/>
      <use x="767.1875" xlink:href="#ArialMT-49"/>
      <use x="822.802734" xlink:href="#ArialMT-57"/>
     </g>
    </g>
    <g id="line2d_31">
     <path d="M 267.991875 163.660906 
L 289.991875 163.660906 
" style="fill:none;stroke:#c44e52;stroke-linecap:round;stroke-width:1.5;"/>
    </g>
    <g id="line2d_32"/>
    <g id="text_20">
     <!-- 15 October 2019 -->
     <defs>
      <path d="M 4.828125 34.859375 
Q 4.828125 52.6875 14.390625 62.765625 
Q 23.96875 72.859375 39.109375 72.859375 
Q 49.03125 72.859375 56.984375 68.109375 
Q 64.9375 63.375 69.109375 54.90625 
Q 73.296875 46.4375 73.296875 35.6875 
Q 73.296875 24.8125 68.890625 16.21875 
Q 64.5 7.625 56.4375 3.203125 
Q 48.390625 -1.21875 39.0625 -1.21875 
Q 28.953125 -1.21875 20.984375 3.65625 
Q 13.03125 8.546875 8.921875 16.984375 
Q 4.828125 25.4375 4.828125 34.859375 
z
M 14.59375 34.71875 
Q 14.59375 21.78125 21.546875 14.328125 
Q 28.515625 6.890625 39.015625 6.890625 
Q 49.703125 6.890625 56.609375 14.40625 
Q 63.53125 21.921875 63.53125 35.75 
Q 63.53125 44.484375 60.578125 51 
Q 57.625 57.515625 51.921875 61.109375 
Q 46.234375 64.703125 39.15625 64.703125 
Q 29.109375 64.703125 21.84375 57.78125 
Q 14.59375 50.875 14.59375 34.71875 
z
" id="ArialMT-79"/>
     </defs>
     <g style="fill:#262626;" transform="translate(298.791875 167.510906)scale(0.11 -0.11)">
      <use xlink:href="#ArialMT-49"/>
      <use x="55.615234" xlink:href="#ArialMT-53"/>
      <use x="111.230469" xlink:href="#ArialMT-32"/>
      <use x="139.013672" xlink:href="#ArialMT-79"/>
      <use x="216.796875" xlink:href="#ArialMT-99"/>
      <use x="266.796875" xlink:href="#ArialMT-116"/>
      <use x="294.580078" xlink:href="#ArialMT-111"/>
      <use x="350.195312" xlink:href="#ArialMT-98"/>
      <use x="405.810547" xlink:href="#ArialMT-101"/>
      <use x="461.425781" xlink:href="#ArialMT-114"/>
      <use x="494.726562" xlink:href="#ArialMT-32"/>
      <use x="522.509766" xlink:href="#ArialMT-50"/>
      <use x="578.125" xlink:href="#ArialMT-48"/>
      <use x="633.740234" xlink:href="#ArialMT-49"/>
      <use x="689.355469" xlink:href="#ArialMT-57"/>
     </g>
    </g>
    <g id="line2d_33">
     <path d="M 267.991875 179.22075 
L 289.991875 179.22075 
" style="fill:none;stroke:#8172b3;stroke-linecap:round;stroke-width:1.5;"/>
    </g>
    <g id="line2d_34"/>
    <g id="text_21">
     <!-- 15 November 2019 -->
     <defs>
      <path d="M 21 0 
L 1.265625 51.859375 
L 10.546875 51.859375 
L 21.6875 20.796875 
Q 23.484375 15.765625 25 10.359375 
Q 26.171875 14.453125 28.265625 20.21875 
L 39.796875 51.859375 
L 48.828125 51.859375 
L 29.203125 0 
z
" id="ArialMT-118"/>
     </defs>
     <g style="fill:#262626;" transform="translate(298.791875 183.07075)scale(0.11 -0.11)">
      <use xlink:href="#ArialMT-49"/>
      <use x="55.615234" xlink:href="#ArialMT-53"/>
      <use x="111.230469" xlink:href="#ArialMT-32"/>
      <use x="139.013672" xlink:href="#ArialMT-78"/>
      <use x="211.230469" xlink:href="#ArialMT-111"/>
      <use x="266.845703" xlink:href="#ArialMT-118"/>
      <use x="316.845703" xlink:href="#ArialMT-101"/>
      <use x="372.460938" xlink:href="#ArialMT-109"/>
      <use x="455.761719" xlink:href="#ArialMT-98"/>
      <use x="511.376953" xlink:href="#ArialMT-101"/>
      <use x="566.992188" xlink:href="#ArialMT-114"/>
      <use x="600.292969" xlink:href="#ArialMT-32"/>
      <use x="628.076172" xlink:href="#ArialMT-50"/>
      <use x="683.691406" xlink:href="#ArialMT-48"/>
      <use x="739.306641" xlink:href="#ArialMT-49"/>
      <use x="794.921875" xlink:href="#ArialMT-57"/>
     </g>
    </g>
    <g id="line2d_35">
     <path d="M 267.991875 194.780594 
L 289.991875 194.780594 
" style="fill:none;stroke:#937860;stroke-linecap:round;stroke-width:1.5;"/>
    </g>
    <g id="line2d_36"/>
    <g id="text_22">
     <!-- 15 December 2019 -->
     <defs>
      <path d="M 7.71875 0 
L 7.71875 71.578125 
L 32.375 71.578125 
Q 40.71875 71.578125 45.125 70.5625 
Q 51.265625 69.140625 55.609375 65.4375 
Q 61.28125 60.640625 64.078125 53.1875 
Q 66.890625 45.75 66.890625 36.1875 
Q 66.890625 28.03125 64.984375 21.734375 
Q 63.09375 15.4375 60.109375 11.296875 
Q 57.125 7.171875 53.578125 4.796875 
Q 50.046875 2.4375 45.046875 1.21875 
Q 40.046875 0 33.546875 0 
z
M 17.1875 8.453125 
L 32.46875 8.453125 
Q 39.546875 8.453125 43.578125 9.765625 
Q 47.609375 11.078125 50 13.484375 
Q 53.375 16.84375 55.25 22.53125 
Q 57.125 28.21875 57.125 36.328125 
Q 57.125 47.5625 53.4375 53.59375 
Q 49.75 59.625 44.484375 61.671875 
Q 40.671875 63.140625 32.234375 63.140625 
L 17.1875 63.140625 
z
" id="ArialMT-68"/>
     </defs>
     <g style="fill:#262626;" transform="translate(298.791875 198.630594)scale(0.11 -0.11)">
      <use xlink:href="#ArialMT-49"/>
      <use x="55.615234" xlink:href="#ArialMT-53"/>
      <use x="111.230469" xlink:href="#ArialMT-32"/>
      <use x="139.013672" xlink:href="#ArialMT-68"/>
      <use x="211.230469" xlink:href="#ArialMT-101"/>
      <use x="266.845703" xlink:href="#ArialMT-99"/>
      <use x="316.845703" xlink:href="#ArialMT-101"/>
      <use x="372.460938" xlink:href="#ArialMT-109"/>
      <use x="455.761719" xlink:href="#ArialMT-98"/>
      <use x="511.376953" xlink:href="#ArialMT-101"/>
      <use x="566.992188" xlink:href="#ArialMT-114"/>
      <use x="600.292969" xlink:href="#ArialMT-32"/>
      <use x="628.076172" xlink:href="#ArialMT-50"/>
      <use x="683.691406" xlink:href="#ArialMT-48"/>
      <use x="739.306641" xlink:href="#ArialMT-49"/>
      <use x="794.921875" xlink:href="#ArialMT-57"/>
     </g>
    </g>
    <g id="line2d_37">
     <path d="M 267.991875 210.373094 
L 289.991875 210.373094 
" style="fill:none;stroke:#da8bc3;stroke-linecap:round;stroke-width:1.5;"/>
    </g>
    <g id="line2d_38"/>
    <g id="text_23">
     <!-- 15 January 2020 -->
     <defs>
      <path d="M 2.875 20.3125 
L 11.421875 21.484375 
Q 11.765625 13.28125 14.5 10.25 
Q 17.234375 7.234375 22.078125 7.234375 
Q 25.640625 7.234375 28.21875 8.859375 
Q 30.8125 10.5 31.78125 13.296875 
Q 32.765625 16.109375 32.765625 22.265625 
L 32.765625 71.578125 
L 42.234375 71.578125 
L 42.234375 22.796875 
Q 42.234375 13.8125 40.0625 8.875 
Q 37.890625 3.953125 33.171875 1.359375 
Q 28.46875 -1.21875 22.125 -1.21875 
Q 12.703125 -1.21875 7.6875 4.203125 
Q 2.6875 9.625 2.875 20.3125 
z
" id="ArialMT-74"/>
     </defs>
     <g style="fill:#262626;" transform="translate(298.791875 214.223094)scale(0.11 -0.11)">
      <use xlink:href="#ArialMT-49"/>
      <use x="55.615234" xlink:href="#ArialMT-53"/>
      <use x="111.230469" xlink:href="#ArialMT-32"/>
      <use x="139.013672" xlink:href="#ArialMT-74"/>
      <use x="189.013672" xlink:href="#ArialMT-97"/>
      <use x="244.628906" xlink:href="#ArialMT-110"/>
      <use x="300.244141" xlink:href="#ArialMT-117"/>
      <use x="355.859375" xlink:href="#ArialMT-97"/>
      <use x="411.474609" xlink:href="#ArialMT-114"/>
      <use x="444.775391" xlink:href="#ArialMT-121"/>
      <use x="494.775391" xlink:href="#ArialMT-32"/>
      <use x="522.558594" xlink:href="#ArialMT-50"/>
      <use x="578.173828" xlink:href="#ArialMT-48"/>
      <use x="633.789062" xlink:href="#ArialMT-50"/>
      <use x="689.404297" xlink:href="#ArialMT-48"/>
     </g>
    </g>
    <g id="line2d_39">
     <path d="M 267.991875 226.061844 
L 289.991875 226.061844 
" style="fill:none;stroke:#8c8c8c;stroke-linecap:round;stroke-width:1.5;"/>
    </g>
    <g id="line2d_40"/>
    <g id="text_24">
     <!-- 15 March 2020 -->
     <g style="fill:#262626;" transform="translate(298.791875 229.911844)scale(0.11 -0.11)">
      <use xlink:href="#ArialMT-49"/>
      <use x="55.615234" xlink:href="#ArialMT-53"/>
      <use x="111.230469" xlink:href="#ArialMT-32"/>
      <use x="139.013672" xlink:href="#ArialMT-77"/>
      <use x="222.314453" xlink:href="#ArialMT-97"/>
      <use x="277.929688" xlink:href="#ArialMT-114"/>
      <use x="311.230469" xlink:href="#ArialMT-99"/>
      <use x="361.230469" xlink:href="#ArialMT-104"/>
      <use x="416.845703" xlink:href="#ArialMT-32"/>
      <use x="444.628906" xlink:href="#ArialMT-50"/>
      <use x="500.244141" xlink:href="#ArialMT-48"/>
      <use x="555.859375" xlink:href="#ArialMT-50"/>
      <use x="611.474609" xlink:href="#ArialMT-48"/>
     </g>
    </g>
    <g id="line2d_41">
     <path d="M 267.991875 241.654344 
L 289.991875 241.654344 
" style="fill:none;stroke:#ccb974;stroke-linecap:round;stroke-width:1.5;"/>
    </g>
    <g id="line2d_42"/>
    <g id="text_25">
     <!-- 15 April 2020 -->
     <g style="fill:#262626;" transform="translate(298.791875 245.504344)scale(0.11 -0.11)">
      <use xlink:href="#ArialMT-49"/>
      <use x="55.615234" xlink:href="#ArialMT-53"/>
      <use x="111.230469" xlink:href="#ArialMT-32"/>
      <use x="138.935547" xlink:href="#ArialMT-65"/>
      <use x="205.634766" xlink:href="#ArialMT-112"/>
      <use x="261.25" xlink:href="#ArialMT-114"/>
      <use x="294.550781" xlink:href="#ArialMT-105"/>
      <use x="316.767578" xlink:href="#ArialMT-108"/>
      <use x="338.984375" xlink:href="#ArialMT-32"/>
      <use x="366.767578" xlink:href="#ArialMT-50"/>
      <use x="422.382812" xlink:href="#ArialMT-48"/>
      <use x="477.998047" xlink:href="#ArialMT-50"/>
      <use x="533.613281" xlink:href="#ArialMT-48"/>
     </g>
    </g>
    <g id="line2d_43">
     <path d="M 267.991875 257.246844 
L 289.991875 257.246844 
" style="fill:none;stroke:#64b5cd;stroke-linecap:round;stroke-width:1.5;"/>
    </g>
    <g id="line2d_44"/>
    <g id="text_26">
     <!-- 15 May 2020 -->
     <g style="fill:#262626;" transform="translate(298.791875 261.096844)scale(0.11 -0.11)">
      <use xlink:href="#ArialMT-49"/>
      <use x="55.615234" xlink:href="#ArialMT-53"/>
      <use x="111.230469" xlink:href="#ArialMT-32"/>
      <use x="139.013672" xlink:href="#ArialMT-77"/>
      <use x="222.314453" xlink:href="#ArialMT-97"/>
      <use x="277.929688" xlink:href="#ArialMT-121"/>
      <use x="327.929688" xlink:href="#ArialMT-32"/>
      <use x="355.712891" xlink:href="#ArialMT-50"/>
      <use x="411.328125" xlink:href="#ArialMT-48"/>
      <use x="466.943359" xlink:href="#ArialMT-50"/>
      <use x="522.558594" xlink:href="#ArialMT-48"/>
     </g>
    </g>
   </g>
  </g>
  <g id="axes_2">
   <g id="patch_9">
    <path d="M 53.689688 90.46384 
L 128.824025 90.46384 
L 128.824025 12.7 
L 53.689688 12.7 
z
" style="fill:#ffffff;"/>
   </g>
   <g id="matplotlib.axis_3">
    <g id="xtick_9"/>
    <g id="xtick_10"/>
    <g id="xtick_11"/>
   </g>
   <g id="matplotlib.axis_4">
    <g id="ytick_7"/>
    <g id="ytick_8"/>
    <g id="ytick_9"/>
   </g>
   <g id="patch_10">
    <path d="M 53.689688 12.7 
L 324.146051 32.75168 
" style="fill:none;stroke:#808080;stroke-linejoin:miter;"/>
   </g>
   <g id="patch_11">
    <path d="M 128.824025 90.46384 
L 330.407246 39.232 
" style="fill:none;stroke:#808080;stroke-linejoin:miter;"/>
   </g>
   <g id="line2d_45">
    <path clip-path="url(#p7cf16b0f3c)" d="M -1 27.966513 
L 53.689688 20.986964 
L 114.910259 13.393793 
L 170.565324 6.683337 
L 235.986951 -1 
L 235.986951 -1 
" style="fill:none;stroke:#4c72b0;stroke-linecap:round;stroke-width:1.5;"/>
   </g>
   <g id="line2d_46">
    <path clip-path="url(#p7cf16b0f3c)" d="M -1 42.460211 
L 42.558675 36.721763 
L 92.648233 30.427139 
L 142.737791 24.375738 
L 226.220389 14.541826 
L 293.006467 6.901044 
L 363.419172 -1 
L 363.419172 -1 
" style="fill:none;stroke:#dd8452;stroke-linecap:round;stroke-width:1.5;"/>
   </g>
   <g id="line2d_47">
    <path clip-path="url(#p7cf16b0f3c)" d="M -1 50.895873 
L 25.862155 47.234367 
L 75.951713 40.631666 
L 142.737791 32.127885 
L 215.089376 23.168476 
L 287.44096 14.473532 
L 382.054571 3.344937 
L 413.509687 -0.26422 
L 413.509687 -0.26422 
" style="fill:none;stroke:#55a868;stroke-linecap:round;stroke-width:1.5;"/>
   </g>
   <g id="line2d_48">
    <path clip-path="url(#p7cf16b0f3c)" d="M -1 55.725296 
L 42.558675 49.876073 
L 109.344752 41.216156 
L 170.565324 33.55108 
L 248.482415 24.100491 
L 304.13748 17.571226 
L 376.489064 9.298086 
L 413.509687 5.179109 
L 413.509687 5.179109 
" style="fill:none;stroke:#c44e52;stroke-linecap:round;stroke-width:1.5;"/>
   </g>
   <g id="line2d_49">
    <path clip-path="url(#p7cf16b0f3c)" d="M -1 71.919305 
L 42.558675 65.306794 
L 92.648233 58.03733 
L 137.172285 51.91741 
L 198.392856 43.851705 
L 259.613428 36.043074 
L 331.965012 27.121233 
L 393.185584 19.75651 
L 413.509687 17.36782 
L 413.509687 17.36782 
" style="fill:none;stroke:#8172b3;stroke-linecap:round;stroke-width:1.5;"/>
   </g>
   <g id="line2d_50">
    <path clip-path="url(#p7cf16b0f3c)" d="M -1 75.36765 
L 36.993168 69.91801 
L 81.51722 63.757013 
L 142.737791 55.579995 
L 192.82735 49.051107 
L 259.613428 40.608969 
L 315.268493 33.82287 
L 359.792545 28.53726 
L 413.509687 22.356882 
L 413.509687 22.356882 
" style="fill:none;stroke:#937860;stroke-linecap:round;stroke-width:1.5;"/>
   </g>
   <g id="line2d_51">
    <path clip-path="url(#p7cf16b0f3c)" d="M -1 83.96897 
L 42.558675 77.626054 
L 98.213739 69.758651 
L 142.737791 63.634366 
L 198.392856 56.180422 
L 259.613428 48.181324 
L 304.13748 42.556892 
L 370.923558 34.282886 
L 413.509687 29.219514 
L 413.509687 29.219514 
" style="fill:none;stroke:#da8bc3;stroke-linecap:round;stroke-width:1.5;"/>
   </g>
   <g id="line2d_52">
    <path clip-path="url(#p7cf16b0f3c)" d="M -1 86.141821 
L 59.255194 77.318384 
L 92.648233 72.576422 
L 131.606778 67.277975 
L 192.82735 59.184463 
L 248.482415 52.071599 
L 309.702986 44.509802 
L 376.489064 36.495123 
L 413.509687 32.151223 
L 413.509687 32.151223 
" style="fill:none;stroke:#8c8c8c;stroke-linecap:round;stroke-width:1.5;"/>
   </g>
   <g id="line2d_53">
    <path clip-path="url(#p7cf16b0f3c)" d="M -1 101.329224 
L 64.8207 91.117435 
L 120.475765 82.685978 
L 159.434311 76.978864 
L 203.958363 70.713206 
L 265.178934 62.310136 
L 309.702986 56.425277 
L 359.792545 49.988631 
L 413.509687 43.264099 
L 413.509687 43.264099 
" style="fill:none;stroke:#ccb974;stroke-linecap:round;stroke-width:1.5;"/>
   </g>
   <g id="line2d_54">
    <path clip-path="url(#p7cf16b0f3c)" d="M -1 227.095573 
L 53.689688 217.284171 
L 120.475765 205.509358 
L 170.565324 196.879396 
L 226.220389 187.588003 
L 276.309947 179.413991 
L 326.399506 171.517395 
L 382.054571 162.969731 
L 413.509687 158.276413 
L 413.509687 158.276413 
" style="fill:none;stroke:#64b5cd;stroke-linecap:round;stroke-width:1.5;"/>
   </g>
   <g id="patch_12">
    <path d="M 53.689688 90.46384 
L 53.689688 12.7 
" style="fill:none;stroke:#cccccc;stroke-linecap:square;stroke-linejoin:miter;stroke-width:1.25;"/>
   </g>
   <g id="patch_13">
    <path d="M 128.824025 90.46384 
L 128.824025 12.7 
" style="fill:none;stroke:#cccccc;stroke-linecap:square;stroke-linejoin:miter;stroke-width:1.25;"/>
   </g>
   <g id="patch_14">
    <path d="M 53.689688 90.46384 
L 128.824025 90.46384 
" style="fill:none;stroke:#cccccc;stroke-linecap:square;stroke-linejoin:miter;stroke-width:1.25;"/>
   </g>
   <g id="patch_15">
    <path d="M 53.689688 12.7 
L 128.824025 12.7 
" style="fill:none;stroke:#cccccc;stroke-linecap:square;stroke-linejoin:miter;stroke-width:1.25;"/>
   </g>
  </g>
 </g>
 <defs>
  <clipPath id="p93ebb75000">
   <rect height="266.112" width="357.12" x="48.189688" y="7.2"/>
  </clipPath>
  <clipPath id="p7cf16b0f3c">
   <rect height="77.76384" width="75.134338" x="53.689688" y="12.7"/>
  </clipPath>
 </defs>
</svg>
