<?xml version="1.0" encoding="utf-8" standalone="no"?>
<!DOCTYPE svg PUBLIC "-//W3C//DTD SVG 1.1//EN"
  "http://www.w3.org/Graphics/SVG/1.1/DTD/svg11.dtd">
<!-- Created with matplotlib (https://matplotlib.org/) -->
<svg height="288pt" version="1.1" viewBox="0 0 360 288" width="360pt" xmlns="http://www.w3.org/2000/svg" xmlns:xlink="http://www.w3.org/1999/xlink">
 <defs>
  <style type="text/css">
*{stroke-linecap:butt;stroke-linejoin:round;white-space:pre;}
  </style>
 </defs>
 <g id="figure_1">
  <g id="patch_1">
   <path d="M 0 288 
L 360 288 
L 360 0 
L 0 0 
z
" style="fill:#ffffff;"/>
  </g>
  <g id="axes_1">
   <g id="patch_2">
    <path d="M 45 256.32 
L 324 256.32 
L 324 34.56 
L 45 34.56 
z
" style="fill:#ffffff;"/>
   </g>
   <g id="matplotlib.axis_1">
    <g id="xtick_1">
     <g id="line2d_1">
      <path clip-path="url(#pec86257e75)" d="M 55.333333 256.32 
L 55.333333 34.56 
" style="fill:none;stroke:#cccccc;stroke-linecap:round;"/>
     </g>
     <g id="text_1">
      <!-- 0 -->
      <defs>
       <path d="M 4.15625 35.296875 
Q 4.15625 48 6.765625 55.734375 
Q 9.375 63.484375 14.515625 67.671875 
Q 19.671875 71.875 27.484375 71.875 
Q 33.25 71.875 37.59375 69.546875 
Q 41.9375 67.234375 44.765625 62.859375 
Q 47.609375 58.5 49.21875 52.21875 
Q 50.828125 45.953125 50.828125 35.296875 
Q 50.828125 22.703125 48.234375 14.96875 
Q 45.65625 7.234375 40.5 3 
Q 35.359375 -1.21875 27.484375 -1.21875 
Q 17.140625 -1.21875 11.234375 6.203125 
Q 4.15625 15.140625 4.15625 35.296875 
z
M 13.1875 35.296875 
Q 13.1875 17.671875 17.3125 11.828125 
Q 21.4375 6 27.484375 6 
Q 33.546875 6 37.671875 11.859375 
Q 41.796875 17.71875 41.796875 35.296875 
Q 41.796875 52.984375 37.671875 58.78125 
Q 33.546875 64.59375 27.390625 64.59375 
Q 21.34375 64.59375 17.71875 59.46875 
Q 13.1875 52.9375 13.1875 35.296875 
z
" id="ArialMT-48"/>
      </defs>
      <g style="fill:#262626;" transform="translate(52.274818 273.693594)scale(0.11 -0.11)">
       <use xlink:href="#ArialMT-48"/>
      </g>
     </g>
    </g>
    <g id="xtick_2">
     <g id="line2d_2">
      <path clip-path="url(#pec86257e75)" d="M 107 256.32 
L 107 34.56 
" style="fill:none;stroke:#cccccc;stroke-linecap:round;"/>
     </g>
     <g id="text_2">
      <!-- 100 -->
      <defs>
       <path d="M 37.25 0 
L 28.46875 0 
L 28.46875 56 
Q 25.296875 52.984375 20.140625 49.953125 
Q 14.984375 46.921875 10.890625 45.40625 
L 10.890625 53.90625 
Q 18.265625 57.375 23.78125 62.296875 
Q 29.296875 67.234375 31.59375 71.875 
L 37.25 71.875 
z
" id="ArialMT-49"/>
      </defs>
      <g style="fill:#262626;" transform="translate(97.824453 273.693594)scale(0.11 -0.11)">
       <use xlink:href="#ArialMT-49"/>
       <use x="55.615234" xlink:href="#ArialMT-48"/>
       <use x="111.230469" xlink:href="#ArialMT-48"/>
      </g>
     </g>
    </g>
    <g id="xtick_3">
     <g id="line2d_3">
      <path clip-path="url(#pec86257e75)" d="M 158.666667 256.32 
L 158.666667 34.56 
" style="fill:none;stroke:#cccccc;stroke-linecap:round;"/>
     </g>
     <g id="text_3">
      <!-- 200 -->
      <defs>
       <path d="M 50.34375 8.453125 
L 50.34375 0 
L 3.03125 0 
Q 2.9375 3.171875 4.046875 6.109375 
Q 5.859375 10.9375 9.828125 15.625 
Q 13.8125 20.3125 21.34375 26.46875 
Q 33.015625 36.03125 37.109375 41.625 
Q 41.21875 47.21875 41.21875 52.203125 
Q 41.21875 57.421875 37.46875 61 
Q 33.734375 64.59375 27.734375 64.59375 
Q 21.390625 64.59375 17.578125 60.78125 
Q 13.765625 56.984375 13.71875 50.25 
L 4.6875 51.171875 
Q 5.609375 61.28125 11.65625 66.578125 
Q 17.71875 71.875 27.9375 71.875 
Q 38.234375 71.875 44.234375 66.15625 
Q 50.25 60.453125 50.25 52 
Q 50.25 47.703125 48.484375 43.546875 
Q 46.734375 39.40625 42.65625 34.8125 
Q 38.578125 30.21875 29.109375 22.21875 
Q 21.1875 15.578125 18.9375 13.203125 
Q 16.703125 10.84375 15.234375 8.453125 
z
" id="ArialMT-50"/>
      </defs>
      <g style="fill:#262626;" transform="translate(149.49112 273.693594)scale(0.11 -0.11)">
       <use xlink:href="#ArialMT-50"/>
       <use x="55.615234" xlink:href="#ArialMT-48"/>
       <use x="111.230469" xlink:href="#ArialMT-48"/>
      </g>
     </g>
    </g>
    <g id="xtick_4">
     <g id="line2d_4">
      <path clip-path="url(#pec86257e75)" d="M 210.333333 256.32 
L 210.333333 34.56 
" style="fill:none;stroke:#cccccc;stroke-linecap:round;"/>
     </g>
     <g id="text_4">
      <!-- 300 -->
      <defs>
       <path d="M 4.203125 18.890625 
L 12.984375 20.0625 
Q 14.5 12.59375 18.140625 9.296875 
Q 21.78125 6 27 6 
Q 33.203125 6 37.46875 10.296875 
Q 41.75 14.59375 41.75 20.953125 
Q 41.75 27 37.796875 30.921875 
Q 33.84375 34.859375 27.734375 34.859375 
Q 25.25 34.859375 21.53125 33.890625 
L 22.515625 41.609375 
Q 23.390625 41.5 23.921875 41.5 
Q 29.546875 41.5 34.03125 44.421875 
Q 38.53125 47.359375 38.53125 53.46875 
Q 38.53125 58.296875 35.25 61.46875 
Q 31.984375 64.65625 26.8125 64.65625 
Q 21.6875 64.65625 18.265625 61.421875 
Q 14.84375 58.203125 13.875 51.765625 
L 5.078125 53.328125 
Q 6.6875 62.15625 12.390625 67.015625 
Q 18.109375 71.875 26.609375 71.875 
Q 32.46875 71.875 37.390625 69.359375 
Q 42.328125 66.84375 44.9375 62.5 
Q 47.5625 58.15625 47.5625 53.265625 
Q 47.5625 48.640625 45.0625 44.828125 
Q 42.578125 41.015625 37.703125 38.765625 
Q 44.046875 37.3125 47.5625 32.6875 
Q 51.078125 28.078125 51.078125 21.140625 
Q 51.078125 11.765625 44.234375 5.25 
Q 37.40625 -1.265625 26.953125 -1.265625 
Q 17.53125 -1.265625 11.296875 4.34375 
Q 5.078125 9.96875 4.203125 18.890625 
z
" id="ArialMT-51"/>
      </defs>
      <g style="fill:#262626;" transform="translate(201.157786 273.693594)scale(0.11 -0.11)">
       <use xlink:href="#ArialMT-51"/>
       <use x="55.615234" xlink:href="#ArialMT-48"/>
       <use x="111.230469" xlink:href="#ArialMT-48"/>
      </g>
     </g>
    </g>
    <g id="xtick_5">
     <g id="line2d_5">
      <path clip-path="url(#pec86257e75)" d="M 262 256.32 
L 262 34.56 
" style="fill:none;stroke:#cccccc;stroke-linecap:round;"/>
     </g>
     <g id="text_5">
      <!-- 400 -->
      <defs>
       <path d="M 32.328125 0 
L 32.328125 17.140625 
L 1.265625 17.140625 
L 1.265625 25.203125 
L 33.9375 71.578125 
L 41.109375 71.578125 
L 41.109375 25.203125 
L 50.78125 25.203125 
L 50.78125 17.140625 
L 41.109375 17.140625 
L 41.109375 0 
z
M 32.328125 25.203125 
L 32.328125 57.46875 
L 9.90625 25.203125 
z
" id="ArialMT-52"/>
      </defs>
      <g style="fill:#262626;" transform="translate(252.824453 273.693594)scale(0.11 -0.11)">
       <use xlink:href="#ArialMT-52"/>
       <use x="55.615234" xlink:href="#ArialMT-48"/>
       <use x="111.230469" xlink:href="#ArialMT-48"/>
      </g>
     </g>
    </g>
    <g id="xtick_6">
     <g id="line2d_6">
      <path clip-path="url(#pec86257e75)" d="M 313.666667 256.32 
L 313.666667 34.56 
" style="fill:none;stroke:#cccccc;stroke-linecap:round;"/>
     </g>
     <g id="text_6">
      <!-- 500 -->
      <defs>
       <path d="M 4.15625 18.75 
L 13.375 19.53125 
Q 14.40625 12.796875 18.140625 9.390625 
Q 21.875 6 27.15625 6 
Q 33.5 6 37.890625 10.78125 
Q 42.28125 15.578125 42.28125 23.484375 
Q 42.28125 31 38.0625 35.34375 
Q 33.84375 39.703125 27 39.703125 
Q 22.75 39.703125 19.328125 37.765625 
Q 15.921875 35.84375 13.96875 32.765625 
L 5.71875 33.84375 
L 12.640625 70.609375 
L 48.25 70.609375 
L 48.25 62.203125 
L 19.671875 62.203125 
L 15.828125 42.96875 
Q 22.265625 47.46875 29.34375 47.46875 
Q 38.71875 47.46875 45.15625 40.96875 
Q 51.609375 34.46875 51.609375 24.265625 
Q 51.609375 14.546875 45.953125 7.46875 
Q 39.0625 -1.21875 27.15625 -1.21875 
Q 17.390625 -1.21875 11.203125 4.25 
Q 5.03125 9.71875 4.15625 18.75 
z
" id="ArialMT-53"/>
      </defs>
      <g style="fill:#262626;" transform="translate(304.49112 273.693594)scale(0.11 -0.11)">
       <use xlink:href="#ArialMT-53"/>
       <use x="55.615234" xlink:href="#ArialMT-48"/>
       <use x="111.230469" xlink:href="#ArialMT-48"/>
      </g>
     </g>
    </g>
    <g id="text_7">
     <!-- Degree -->
     <defs>
      <path d="M 7.71875 0 
L 7.71875 71.578125 
L 32.375 71.578125 
Q 40.71875 71.578125 45.125 70.5625 
Q 51.265625 69.140625 55.609375 65.4375 
Q 61.28125 60.640625 64.078125 53.1875 
Q 66.890625 45.75 66.890625 36.1875 
Q 66.890625 28.03125 64.984375 21.734375 
Q 63.09375 15.4375 60.109375 11.296875 
Q 57.125 7.171875 53.578125 4.796875 
Q 50.046875 2.4375 45.046875 1.21875 
Q 40.046875 0 33.546875 0 
z
M 17.1875 8.453125 
L 32.46875 8.453125 
Q 39.546875 8.453125 43.578125 9.765625 
Q 47.609375 11.078125 50 13.484375 
Q 53.375 16.84375 55.25 22.53125 
Q 57.125 28.21875 57.125 36.328125 
Q 57.125 47.5625 53.4375 53.59375 
Q 49.75 59.625 44.484375 61.671875 
Q 40.671875 63.140625 32.234375 63.140625 
L 17.1875 63.140625 
z
" id="ArialMT-68"/>
      <path d="M 42.09375 16.703125 
L 51.171875 15.578125 
Q 49.03125 7.625 43.21875 3.21875 
Q 37.40625 -1.171875 28.375 -1.171875 
Q 17 -1.171875 10.328125 5.828125 
Q 3.65625 12.84375 3.65625 25.484375 
Q 3.65625 38.578125 10.390625 45.796875 
Q 17.140625 53.03125 27.875 53.03125 
Q 38.28125 53.03125 44.875 45.953125 
Q 51.46875 38.875 51.46875 26.03125 
Q 51.46875 25.25 51.421875 23.6875 
L 12.75 23.6875 
Q 13.234375 15.140625 17.578125 10.59375 
Q 21.921875 6.0625 28.421875 6.0625 
Q 33.25 6.0625 36.671875 8.59375 
Q 40.09375 11.140625 42.09375 16.703125 
z
M 13.234375 30.90625 
L 42.1875 30.90625 
Q 41.609375 37.453125 38.875 40.71875 
Q 34.671875 45.796875 27.984375 45.796875 
Q 21.921875 45.796875 17.796875 41.75 
Q 13.671875 37.703125 13.234375 30.90625 
z
" id="ArialMT-101"/>
      <path d="M 4.984375 -4.296875 
L 13.53125 -5.5625 
Q 14.0625 -9.515625 16.5 -11.328125 
Q 19.78125 -13.765625 25.4375 -13.765625 
Q 31.546875 -13.765625 34.859375 -11.328125 
Q 38.1875 -8.890625 39.359375 -4.5 
Q 40.046875 -1.8125 39.984375 6.78125 
Q 34.234375 0 25.640625 0 
Q 14.9375 0 9.078125 7.71875 
Q 3.21875 15.4375 3.21875 26.21875 
Q 3.21875 33.640625 5.90625 39.90625 
Q 8.59375 46.1875 13.6875 49.609375 
Q 18.796875 53.03125 25.6875 53.03125 
Q 34.859375 53.03125 40.828125 45.609375 
L 40.828125 51.859375 
L 48.921875 51.859375 
L 48.921875 7.03125 
Q 48.921875 -5.078125 46.453125 -10.125 
Q 44 -15.1875 38.640625 -18.109375 
Q 33.296875 -21.046875 25.484375 -21.046875 
Q 16.21875 -21.046875 10.5 -16.875 
Q 4.78125 -12.703125 4.984375 -4.296875 
z
M 12.25 26.859375 
Q 12.25 16.65625 16.296875 11.96875 
Q 20.359375 7.28125 26.46875 7.28125 
Q 32.515625 7.28125 36.609375 11.9375 
Q 40.71875 16.609375 40.71875 26.5625 
Q 40.71875 36.078125 36.5 40.90625 
Q 32.28125 45.75 26.3125 45.75 
Q 20.453125 45.75 16.34375 40.984375 
Q 12.25 36.234375 12.25 26.859375 
z
" id="ArialMT-103"/>
      <path d="M 6.5 0 
L 6.5 51.859375 
L 14.40625 51.859375 
L 14.40625 44 
Q 17.4375 49.515625 20 51.265625 
Q 22.5625 53.03125 25.640625 53.03125 
Q 30.078125 53.03125 34.671875 50.203125 
L 31.640625 42.046875 
Q 28.421875 43.953125 25.203125 43.953125 
Q 22.3125 43.953125 20.015625 42.21875 
Q 17.71875 40.484375 16.75 37.40625 
Q 15.28125 32.71875 15.28125 27.15625 
L 15.28125 0 
z
" id="ArialMT-114"/>
     </defs>
     <g style="fill:#262626;" transform="translate(166.462578 287.753438)scale(0.11 -0.11)">
      <use xlink:href="#ArialMT-68"/>
      <use x="72.216797" xlink:href="#ArialMT-101"/>
      <use x="127.832031" xlink:href="#ArialMT-103"/>
      <use x="183.447266" xlink:href="#ArialMT-114"/>
      <use x="216.748047" xlink:href="#ArialMT-101"/>
      <use x="272.363281" xlink:href="#ArialMT-101"/>
     </g>
    </g>
   </g>
   <g id="matplotlib.axis_2">
    <g id="ytick_1">
     <g id="line2d_7">
      <path clip-path="url(#pec86257e75)" d="M 45 246.053333 
L 324 246.053333 
" style="fill:none;stroke:#cccccc;stroke-linecap:round;"/>
     </g>
     <g id="text_8">
      <!-- 0 -->
      <g style="fill:#262626;" transform="translate(29.382969 249.99013)scale(0.11 -0.11)">
       <use xlink:href="#ArialMT-48"/>
      </g>
     </g>
    </g>
    <g id="ytick_2">
     <g id="line2d_8">
      <path clip-path="url(#pec86257e75)" d="M 45 204.986667 
L 324 204.986667 
" style="fill:none;stroke:#cccccc;stroke-linecap:round;"/>
     </g>
     <g id="text_9">
      <!-- 20 -->
      <g style="fill:#262626;" transform="translate(23.265937 208.923464)scale(0.11 -0.11)">
       <use xlink:href="#ArialMT-50"/>
       <use x="55.615234" xlink:href="#ArialMT-48"/>
      </g>
     </g>
    </g>
    <g id="ytick_3">
     <g id="line2d_9">
      <path clip-path="url(#pec86257e75)" d="M 45 163.92 
L 324 163.92 
" style="fill:none;stroke:#cccccc;stroke-linecap:round;"/>
     </g>
     <g id="text_10">
      <!-- 40 -->
      <g style="fill:#262626;" transform="translate(23.265937 167.856797)scale(0.11 -0.11)">
       <use xlink:href="#ArialMT-52"/>
       <use x="55.615234" xlink:href="#ArialMT-48"/>
      </g>
     </g>
    </g>
    <g id="ytick_4">
     <g id="line2d_10">
      <path clip-path="url(#pec86257e75)" d="M 45 122.853333 
L 324 122.853333 
" style="fill:none;stroke:#cccccc;stroke-linecap:round;"/>
     </g>
     <g id="text_11">
      <!-- 60 -->
      <defs>
       <path d="M 49.75 54.046875 
L 41.015625 53.375 
Q 39.84375 58.546875 37.703125 60.890625 
Q 34.125 64.65625 28.90625 64.65625 
Q 24.703125 64.65625 21.53125 62.3125 
Q 17.390625 59.28125 14.984375 53.46875 
Q 12.59375 47.65625 12.5 36.921875 
Q 15.671875 41.75 20.265625 44.09375 
Q 24.859375 46.4375 29.890625 46.4375 
Q 38.671875 46.4375 44.84375 39.96875 
Q 51.03125 33.5 51.03125 23.25 
Q 51.03125 16.5 48.125 10.71875 
Q 45.21875 4.9375 40.140625 1.859375 
Q 35.0625 -1.21875 28.609375 -1.21875 
Q 17.625 -1.21875 10.6875 6.859375 
Q 3.765625 14.9375 3.765625 33.5 
Q 3.765625 54.25 11.421875 63.671875 
Q 18.109375 71.875 29.4375 71.875 
Q 37.890625 71.875 43.28125 67.140625 
Q 48.6875 62.40625 49.75 54.046875 
z
M 13.875 23.1875 
Q 13.875 18.65625 15.796875 14.5 
Q 17.71875 10.359375 21.1875 8.171875 
Q 24.65625 6 28.46875 6 
Q 34.03125 6 38.03125 10.484375 
Q 42.046875 14.984375 42.046875 22.703125 
Q 42.046875 30.125 38.078125 34.390625 
Q 34.125 38.671875 28.125 38.671875 
Q 22.171875 38.671875 18.015625 34.390625 
Q 13.875 30.125 13.875 23.1875 
z
" id="ArialMT-54"/>
      </defs>
      <g style="fill:#262626;" transform="translate(23.265937 126.79013)scale(0.11 -0.11)">
       <use xlink:href="#ArialMT-54"/>
       <use x="55.615234" xlink:href="#ArialMT-48"/>
      </g>
     </g>
    </g>
    <g id="ytick_5">
     <g id="line2d_11">
      <path clip-path="url(#pec86257e75)" d="M 45 81.786667 
L 324 81.786667 
" style="fill:none;stroke:#cccccc;stroke-linecap:round;"/>
     </g>
     <g id="text_12">
      <!-- 80 -->
      <defs>
       <path d="M 17.671875 38.8125 
Q 12.203125 40.828125 9.5625 44.53125 
Q 6.9375 48.25 6.9375 53.421875 
Q 6.9375 61.234375 12.546875 66.546875 
Q 18.171875 71.875 27.484375 71.875 
Q 36.859375 71.875 42.578125 66.421875 
Q 48.296875 60.984375 48.296875 53.171875 
Q 48.296875 48.1875 45.671875 44.5 
Q 43.0625 40.828125 37.75 38.8125 
Q 44.34375 36.671875 47.78125 31.875 
Q 51.21875 27.09375 51.21875 20.453125 
Q 51.21875 11.28125 44.71875 5.03125 
Q 38.234375 -1.21875 27.640625 -1.21875 
Q 17.046875 -1.21875 10.546875 5.046875 
Q 4.046875 11.328125 4.046875 20.703125 
Q 4.046875 27.6875 7.59375 32.390625 
Q 11.140625 37.109375 17.671875 38.8125 
z
M 15.921875 53.71875 
Q 15.921875 48.640625 19.1875 45.40625 
Q 22.46875 42.1875 27.6875 42.1875 
Q 32.765625 42.1875 36.015625 45.375 
Q 39.265625 48.578125 39.265625 53.21875 
Q 39.265625 58.0625 35.90625 61.359375 
Q 32.5625 64.65625 27.59375 64.65625 
Q 22.5625 64.65625 19.234375 61.421875 
Q 15.921875 58.203125 15.921875 53.71875 
z
M 13.09375 20.65625 
Q 13.09375 16.890625 14.875 13.375 
Q 16.65625 9.859375 20.171875 7.921875 
Q 23.6875 6 27.734375 6 
Q 34.03125 6 38.125 10.046875 
Q 42.234375 14.109375 42.234375 20.359375 
Q 42.234375 26.703125 38.015625 30.859375 
Q 33.796875 35.015625 27.4375 35.015625 
Q 21.234375 35.015625 17.15625 30.90625 
Q 13.09375 26.8125 13.09375 20.65625 
z
" id="ArialMT-56"/>
      </defs>
      <g style="fill:#262626;" transform="translate(23.265937 85.723464)scale(0.11 -0.11)">
       <use xlink:href="#ArialMT-56"/>
       <use x="55.615234" xlink:href="#ArialMT-48"/>
      </g>
     </g>
    </g>
    <g id="ytick_6">
     <g id="line2d_12">
      <path clip-path="url(#pec86257e75)" d="M 45 40.72 
L 324 40.72 
" style="fill:none;stroke:#cccccc;stroke-linecap:round;"/>
     </g>
     <g id="text_13">
      <!-- 100 -->
      <g style="fill:#262626;" transform="translate(17.148906 44.656797)scale(0.11 -0.11)">
       <use xlink:href="#ArialMT-49"/>
       <use x="55.615234" xlink:href="#ArialMT-48"/>
       <use x="111.230469" xlink:href="#ArialMT-48"/>
      </g>
     </g>
    </g>
    <g id="text_14">
     <!-- Attacker Channels -->
     <defs>
      <path d="M -0.140625 0 
L 27.34375 71.578125 
L 37.546875 71.578125 
L 66.84375 0 
L 56.0625 0 
L 47.703125 21.6875 
L 17.78125 21.6875 
L 9.90625 0 
z
M 20.515625 29.390625 
L 44.78125 29.390625 
L 37.3125 49.21875 
Q 33.890625 58.25 32.234375 64.0625 
Q 30.859375 57.171875 28.375 50.390625 
z
" id="ArialMT-65"/>
      <path d="M 25.78125 7.859375 
L 27.046875 0.09375 
Q 23.34375 -0.6875 20.40625 -0.6875 
Q 15.625 -0.6875 12.984375 0.828125 
Q 10.359375 2.34375 9.28125 4.8125 
Q 8.203125 7.28125 8.203125 15.1875 
L 8.203125 45.015625 
L 1.765625 45.015625 
L 1.765625 51.859375 
L 8.203125 51.859375 
L 8.203125 64.703125 
L 16.9375 69.96875 
L 16.9375 51.859375 
L 25.78125 51.859375 
L 25.78125 45.015625 
L 16.9375 45.015625 
L 16.9375 14.703125 
Q 16.9375 10.9375 17.40625 9.859375 
Q 17.875 8.796875 18.921875 8.15625 
Q 19.96875 7.515625 21.921875 7.515625 
Q 23.390625 7.515625 25.78125 7.859375 
z
" id="ArialMT-116"/>
      <path d="M 40.4375 6.390625 
Q 35.546875 2.25 31.03125 0.53125 
Q 26.515625 -1.171875 21.34375 -1.171875 
Q 12.796875 -1.171875 8.203125 3 
Q 3.609375 7.171875 3.609375 13.671875 
Q 3.609375 17.484375 5.34375 20.625 
Q 7.078125 23.78125 9.890625 25.6875 
Q 12.703125 27.59375 16.21875 28.5625 
Q 18.796875 29.25 24.03125 29.890625 
Q 34.671875 31.15625 39.703125 32.90625 
Q 39.75 34.71875 39.75 35.203125 
Q 39.75 40.578125 37.25 42.78125 
Q 33.890625 45.75 27.25 45.75 
Q 21.046875 45.75 18.09375 43.578125 
Q 15.140625 41.40625 13.71875 35.890625 
L 5.125 37.0625 
Q 6.296875 42.578125 8.984375 45.96875 
Q 11.671875 49.359375 16.75 51.1875 
Q 21.828125 53.03125 28.515625 53.03125 
Q 35.15625 53.03125 39.296875 51.46875 
Q 43.453125 49.90625 45.40625 47.53125 
Q 47.359375 45.171875 48.140625 41.546875 
Q 48.578125 39.3125 48.578125 33.453125 
L 48.578125 21.734375 
Q 48.578125 9.46875 49.140625 6.21875 
Q 49.703125 2.984375 51.375 0 
L 42.1875 0 
Q 40.828125 2.734375 40.4375 6.390625 
z
M 39.703125 26.03125 
Q 34.90625 24.078125 25.34375 22.703125 
Q 19.921875 21.921875 17.671875 20.9375 
Q 15.4375 19.96875 14.203125 18.09375 
Q 12.984375 16.21875 12.984375 13.921875 
Q 12.984375 10.40625 15.640625 8.0625 
Q 18.3125 5.71875 23.4375 5.71875 
Q 28.515625 5.71875 32.46875 7.9375 
Q 36.421875 10.15625 38.28125 14.015625 
Q 39.703125 17 39.703125 22.796875 
z
" id="ArialMT-97"/>
      <path d="M 40.4375 19 
L 49.078125 17.875 
Q 47.65625 8.9375 41.8125 3.875 
Q 35.984375 -1.171875 27.484375 -1.171875 
Q 16.84375 -1.171875 10.375 5.78125 
Q 3.90625 12.75 3.90625 25.734375 
Q 3.90625 34.125 6.6875 40.421875 
Q 9.46875 46.734375 15.15625 49.875 
Q 20.84375 53.03125 27.546875 53.03125 
Q 35.984375 53.03125 41.359375 48.75 
Q 46.734375 44.484375 48.25 36.625 
L 39.703125 35.296875 
Q 38.484375 40.53125 35.375 43.15625 
Q 32.28125 45.796875 27.875 45.796875 
Q 21.234375 45.796875 17.078125 41.03125 
Q 12.9375 36.28125 12.9375 25.984375 
Q 12.9375 15.53125 16.9375 10.796875 
Q 20.953125 6.0625 27.390625 6.0625 
Q 32.5625 6.0625 36.03125 9.234375 
Q 39.5 12.40625 40.4375 19 
z
" id="ArialMT-99"/>
      <path d="M 6.640625 0 
L 6.640625 71.578125 
L 15.4375 71.578125 
L 15.4375 30.765625 
L 36.234375 51.859375 
L 47.609375 51.859375 
L 27.78125 32.625 
L 49.609375 0 
L 38.765625 0 
L 21.625 26.515625 
L 15.4375 20.5625 
L 15.4375 0 
z
" id="ArialMT-107"/>
      <path id="ArialMT-32"/>
      <path d="M 58.796875 25.09375 
L 68.265625 22.703125 
Q 65.28125 11.03125 57.546875 4.90625 
Q 49.8125 -1.21875 38.625 -1.21875 
Q 27.046875 -1.21875 19.796875 3.484375 
Q 12.546875 8.203125 8.765625 17.140625 
Q 4.984375 26.078125 4.984375 36.328125 
Q 4.984375 47.515625 9.25 55.828125 
Q 13.53125 64.15625 21.40625 68.46875 
Q 29.296875 72.796875 38.765625 72.796875 
Q 49.515625 72.796875 56.828125 67.328125 
Q 64.15625 61.859375 67.046875 51.953125 
L 57.71875 49.75 
Q 55.21875 57.5625 50.484375 61.125 
Q 45.75 64.703125 38.578125 64.703125 
Q 30.328125 64.703125 24.78125 60.734375 
Q 19.234375 56.78125 16.984375 50.109375 
Q 14.75 43.453125 14.75 36.375 
Q 14.75 27.25 17.40625 20.4375 
Q 20.0625 13.625 25.671875 10.25 
Q 31.296875 6.890625 37.84375 6.890625 
Q 45.796875 6.890625 51.3125 11.46875 
Q 56.84375 16.0625 58.796875 25.09375 
z
" id="ArialMT-67"/>
      <path d="M 6.59375 0 
L 6.59375 71.578125 
L 15.375 71.578125 
L 15.375 45.90625 
Q 21.53125 53.03125 30.90625 53.03125 
Q 36.671875 53.03125 40.921875 50.75 
Q 45.171875 48.484375 47 44.484375 
Q 48.828125 40.484375 48.828125 32.859375 
L 48.828125 0 
L 40.046875 0 
L 40.046875 32.859375 
Q 40.046875 39.453125 37.1875 42.453125 
Q 34.328125 45.453125 29.109375 45.453125 
Q 25.203125 45.453125 21.75 43.421875 
Q 18.3125 41.40625 16.84375 37.9375 
Q 15.375 34.46875 15.375 28.375 
L 15.375 0 
z
" id="ArialMT-104"/>
      <path d="M 6.59375 0 
L 6.59375 51.859375 
L 14.5 51.859375 
L 14.5 44.484375 
Q 20.21875 53.03125 31 53.03125 
Q 35.6875 53.03125 39.625 51.34375 
Q 43.5625 49.65625 45.515625 46.921875 
Q 47.46875 44.1875 48.25 40.4375 
Q 48.734375 37.984375 48.734375 31.890625 
L 48.734375 0 
L 39.9375 0 
L 39.9375 31.546875 
Q 39.9375 36.921875 38.90625 39.578125 
Q 37.890625 42.234375 35.28125 43.8125 
Q 32.671875 45.40625 29.15625 45.40625 
Q 23.53125 45.40625 19.453125 41.84375 
Q 15.375 38.28125 15.375 28.328125 
L 15.375 0 
z
" id="ArialMT-110"/>
      <path d="M 6.390625 0 
L 6.390625 71.578125 
L 15.1875 71.578125 
L 15.1875 0 
z
" id="ArialMT-108"/>
      <path d="M 3.078125 15.484375 
L 11.765625 16.84375 
Q 12.5 11.625 15.84375 8.84375 
Q 19.1875 6.0625 25.203125 6.0625 
Q 31.25 6.0625 34.171875 8.515625 
Q 37.109375 10.984375 37.109375 14.3125 
Q 37.109375 17.28125 34.515625 19 
Q 32.71875 20.171875 25.53125 21.96875 
Q 15.875 24.421875 12.140625 26.203125 
Q 8.40625 27.984375 6.46875 31.125 
Q 4.546875 34.28125 4.546875 38.09375 
Q 4.546875 41.546875 6.125 44.5 
Q 7.71875 47.46875 10.453125 49.421875 
Q 12.5 50.921875 16.03125 51.96875 
Q 19.578125 53.03125 23.640625 53.03125 
Q 29.734375 53.03125 34.34375 51.265625 
Q 38.96875 49.515625 41.15625 46.5 
Q 43.359375 43.5 44.1875 38.484375 
L 35.59375 37.3125 
Q 35.015625 41.3125 32.203125 43.546875 
Q 29.390625 45.796875 24.265625 45.796875 
Q 18.21875 45.796875 15.625 43.796875 
Q 13.03125 41.796875 13.03125 39.109375 
Q 13.03125 37.40625 14.109375 36.03125 
Q 15.1875 34.625 17.484375 33.6875 
Q 18.796875 33.203125 25.25 31.453125 
Q 34.578125 28.953125 38.25 27.359375 
Q 41.9375 25.78125 44.03125 22.75 
Q 46.140625 19.734375 46.140625 15.234375 
Q 46.140625 10.84375 43.578125 6.953125 
Q 41.015625 3.078125 36.171875 0.953125 
Q 31.34375 -1.171875 25.25 -1.171875 
Q 15.140625 -1.171875 9.84375 3.03125 
Q 4.546875 7.234375 3.078125 15.484375 
z
" id="ArialMT-115"/>
     </defs>
     <g style="fill:#262626;" transform="translate(10.962656 190.377578)rotate(-90)scale(0.11 -0.11)">
      <use xlink:href="#ArialMT-65"/>
      <use x="66.699219" xlink:href="#ArialMT-116"/>
      <use x="94.482422" xlink:href="#ArialMT-116"/>
      <use x="122.265625" xlink:href="#ArialMT-97"/>
      <use x="177.880859" xlink:href="#ArialMT-99"/>
      <use x="227.880859" xlink:href="#ArialMT-107"/>
      <use x="277.880859" xlink:href="#ArialMT-101"/>
      <use x="333.496094" xlink:href="#ArialMT-114"/>
      <use x="366.796875" xlink:href="#ArialMT-32"/>
      <use x="394.580078" xlink:href="#ArialMT-67"/>
      <use x="466.796875" xlink:href="#ArialMT-104"/>
      <use x="522.412109" xlink:href="#ArialMT-97"/>
      <use x="578.027344" xlink:href="#ArialMT-110"/>
      <use x="633.642578" xlink:href="#ArialMT-110"/>
      <use x="689.257812" xlink:href="#ArialMT-101"/>
      <use x="744.873047" xlink:href="#ArialMT-108"/>
      <use x="767.089844" xlink:href="#ArialMT-115"/>
     </g>
    </g>
   </g>
   <g id="patch_3">
    <path clip-path="url(#pec86257e75)" d="M 54.558333 246.669333 
L 66.441667 246.669333 
L 66.441667 237.224 
L 54.558333 237.224 
L 54.558333 246.669333 
z
" style="fill:none;stroke:#808080;stroke-linejoin:miter;stroke-width:0.5;"/>
   </g>
   <g id="line2d_13">
    <path clip-path="url(#pec86257e75)" d="M 55.333333 246.053333 
L 55.85 244 
L 59.466667 244 
L 59.983333 241.946667 
L 64.116667 241.946667 
L 64.633333 239.893333 
L 68.766667 239.893333 
L 69.283333 237.84 
L 73.416667 237.84 
L 73.933333 235.786667 
L 78.066667 235.786667 
L 78.583333 233.733333 
L 82.716667 233.733333 
L 83.233333 231.68 
L 87.366667 231.68 
L 87.883333 229.626667 
L 92.016667 229.626667 
L 92.533333 227.573333 
L 96.666667 227.573333 
L 97.183333 225.52 
L 101.316667 225.52 
L 101.833333 223.466667 
L 105.966667 223.466667 
L 106.483333 221.413333 
L 110.616667 221.413333 
L 111.133333 219.36 
L 115.266667 219.36 
L 115.783333 217.306667 
L 119.4 217.306667 
L 119.916667 215.253333 
L 124.05 215.253333 
L 124.566667 213.2 
L 128.7 213.2 
L 129.216667 211.146667 
L 133.35 211.146667 
L 133.866667 209.093333 
L 138 209.093333 
L 138.516667 207.04 
L 142.65 207.04 
L 143.166667 204.986667 
L 147.3 204.986667 
L 147.816667 202.933333 
L 151.95 202.933333 
L 152.466667 200.88 
L 156.6 200.88 
L 157.116667 198.826667 
L 161.25 198.826667 
L 161.766667 196.773333 
L 165.9 196.773333 
L 166.416667 194.72 
L 170.55 194.72 
L 171.066667 192.666667 
L 175.2 192.666667 
L 175.716667 190.613333 
L 179.85 190.613333 
L 180.366667 188.56 
L 183.983333 188.56 
L 184.5 186.506667 
L 188.633333 186.506667 
L 189.15 184.453333 
L 193.283333 184.453333 
L 193.8 182.4 
L 197.933333 182.4 
L 198.45 180.346667 
L 202.583333 180.346667 
L 203.1 178.293333 
L 207.233333 178.293333 
L 207.75 176.24 
L 211.883333 176.24 
L 212.4 174.186667 
L 216.533333 174.186667 
L 217.05 172.133333 
L 221.183333 172.133333 
L 221.7 170.08 
L 225.833333 170.08 
L 226.35 168.026667 
L 230.483333 168.026667 
L 231 165.973333 
L 235.133333 165.973333 
L 235.65 163.92 
L 239.783333 163.92 
L 240.3 161.866667 
L 243.916667 161.866667 
L 244.433333 159.813333 
L 248.566667 159.813333 
L 249.083333 157.76 
L 253.216667 157.76 
L 253.733333 155.706667 
L 257.866667 155.706667 
L 258.383333 153.653333 
L 262.516667 153.653333 
L 263.033333 151.6 
L 267.166667 151.6 
L 267.683333 149.546667 
L 271.816667 149.546667 
L 272.333333 147.493333 
L 276.466667 147.493333 
L 276.983333 145.44 
L 281.116667 145.44 
L 281.633333 143.386667 
L 285.766667 143.386667 
L 286.283333 141.333333 
L 290.416667 141.333333 
L 290.933333 139.28 
L 295.066667 139.28 
L 295.583333 137.226667 
L 299.716667 137.226667 
L 300.233333 135.173333 
L 304.366667 135.173333 
L 304.883333 133.12 
L 308.5 133.12 
L 309.016667 131.066667 
L 313.15 131.066667 
L 313.666667 129.013333 
L 317.8 129.013333 
L 318.316667 126.96 
L 322.45 126.96 
L 322.966667 124.906667 
L 323.483333 124.906667 
L 323.483333 124.906667 
" style="fill:none;stroke:#4c72b0;stroke-linecap:round;stroke-width:1.5;"/>
   </g>
   <g id="line2d_14">
    <path clip-path="url(#pec86257e75)" d="M 55.333333 246.053333 
L 55.85 244 
L 58.95 244 
L 59.466667 241.946667 
L 63.083333 241.946667 
L 63.6 239.893333 
L 66.7 239.893333 
L 67.216667 237.84 
L 70.833333 237.84 
L 71.35 235.786667 
L 74.45 235.786667 
L 74.966667 233.733333 
L 78.583333 233.733333 
L 79.1 231.68 
L 82.2 231.68 
L 82.716667 229.626667 
L 86.333333 229.626667 
L 86.85 227.573333 
L 89.95 227.573333 
L 90.466667 225.52 
L 94.083333 225.52 
L 94.6 223.466667 
L 97.7 223.466667 
L 98.216667 221.413333 
L 101.833333 221.413333 
L 102.35 219.36 
L 105.45 219.36 
L 105.966667 217.306667 
L 109.583333 217.306667 
L 110.1 215.253333 
L 113.2 215.253333 
L 113.716667 213.2 
L 117.333333 213.2 
L 117.85 211.146667 
L 120.95 211.146667 
L 121.466667 209.093333 
L 125.083333 209.093333 
L 125.6 207.04 
L 128.7 207.04 
L 129.216667 204.986667 
L 132.833333 204.986667 
L 133.35 202.933333 
L 136.45 202.933333 
L 136.966667 200.88 
L 140.583333 200.88 
L 141.1 198.826667 
L 144.2 198.826667 
L 144.716667 196.773333 
L 148.333333 196.773333 
L 148.85 194.72 
L 151.95 194.72 
L 152.466667 192.666667 
L 156.083333 192.666667 
L 156.6 190.613333 
L 159.7 190.613333 
L 160.216667 188.56 
L 163.833333 188.56 
L 164.35 186.506667 
L 167.45 186.506667 
L 167.966667 184.453333 
L 171.583333 184.453333 
L 172.1 182.4 
L 175.2 182.4 
L 175.716667 180.346667 
L 179.333333 180.346667 
L 179.85 178.293333 
L 182.95 178.293333 
L 183.466667 176.24 
L 187.083333 176.24 
L 187.6 174.186667 
L 190.7 174.186667 
L 191.216667 172.133333 
L 194.833333 172.133333 
L 195.35 170.08 
L 198.45 170.08 
L 198.966667 168.026667 
L 202.583333 168.026667 
L 203.1 165.973333 
L 206.2 165.973333 
L 206.716667 163.92 
L 210.333333 163.92 
L 210.85 161.866667 
L 213.95 161.866667 
L 214.466667 159.813333 
L 218.083333 159.813333 
L 218.6 157.76 
L 221.7 157.76 
L 222.216667 155.706667 
L 225.833333 155.706667 
L 226.35 153.653333 
L 229.45 153.653333 
L 229.966667 151.6 
L 233.583333 151.6 
L 234.1 149.546667 
L 237.2 149.546667 
L 237.716667 147.493333 
L 241.333333 147.493333 
L 241.85 145.44 
L 244.95 145.44 
L 245.466667 143.386667 
L 249.083333 143.386667 
L 249.6 141.333333 
L 252.7 141.333333 
L 253.216667 139.28 
L 256.833333 139.28 
L 257.35 137.226667 
L 260.45 137.226667 
L 260.966667 135.173333 
L 264.583333 135.173333 
L 265.1 133.12 
L 268.2 133.12 
L 268.716667 131.066667 
L 272.333333 131.066667 
L 272.85 129.013333 
L 275.95 129.013333 
L 276.466667 126.96 
L 280.083333 126.96 
L 280.6 124.906667 
L 283.7 124.906667 
L 284.216667 122.853333 
L 287.833333 122.853333 
L 288.35 120.8 
L 291.45 120.8 
L 291.966667 118.746667 
L 295.583333 118.746667 
L 296.1 116.693333 
L 299.2 116.693333 
L 299.716667 114.64 
L 303.333333 114.64 
L 303.85 112.586667 
L 306.95 112.586667 
L 307.466667 110.533333 
L 311.083333 110.533333 
L 311.6 108.48 
L 314.7 108.48 
L 315.216667 106.426667 
L 318.833333 106.426667 
L 319.35 104.373333 
L 322.45 104.373333 
L 322.966667 102.32 
L 323.483333 102.32 
L 323.483333 102.32 
" style="fill:none;stroke:#dd8452;stroke-linecap:round;stroke-width:1.5;"/>
   </g>
   <g id="line2d_15">
    <path clip-path="url(#pec86257e75)" d="M 55.333333 246.053333 
L 55.85 244 
L 57.916667 244 
L 58.433333 241.946667 
L 60.5 241.946667 
L 61.016667 239.893333 
L 63.083333 239.893333 
L 63.6 237.84 
L 65.666667 237.84 
L 66.183333 235.786667 
L 68.25 235.786667 
L 68.766667 233.733333 
L 70.833333 233.733333 
L 71.35 231.68 
L 73.416667 231.68 
L 73.933333 229.626667 
L 76 229.626667 
L 76.516667 227.573333 
L 78.583333 227.573333 
L 79.1 225.52 
L 81.166667 225.52 
L 81.683333 223.466667 
L 83.75 223.466667 
L 84.266667 221.413333 
L 86.333333 221.413333 
L 86.85 219.36 
L 88.916667 219.36 
L 89.433333 217.306667 
L 91.5 217.306667 
L 92.016667 215.253333 
L 94.083333 215.253333 
L 94.6 213.2 
L 96.666667 213.2 
L 97.183333 211.146667 
L 99.25 211.146667 
L 99.766667 209.093333 
L 101.833333 209.093333 
L 102.35 207.04 
L 104.416667 207.04 
L 104.933333 204.986667 
L 107 204.986667 
L 107.516667 202.933333 
L 109.583333 202.933333 
L 110.1 200.88 
L 112.166667 200.88 
L 112.683333 198.826667 
L 114.75 198.826667 
L 115.266667 196.773333 
L 117.333333 196.773333 
L 117.85 194.72 
L 119.916667 194.72 
L 120.433333 192.666667 
L 122.5 192.666667 
L 123.016667 190.613333 
L 125.083333 190.613333 
L 125.6 188.56 
L 127.666667 188.56 
L 128.183333 186.506667 
L 130.25 186.506667 
L 130.766667 184.453333 
L 132.833333 184.453333 
L 133.35 182.4 
L 135.416667 182.4 
L 135.933333 180.346667 
L 138 180.346667 
L 138.516667 178.293333 
L 140.583333 178.293333 
L 141.1 176.24 
L 143.166667 176.24 
L 143.683333 174.186667 
L 145.75 174.186667 
L 146.266667 172.133333 
L 148.333333 172.133333 
L 148.85 170.08 
L 150.916667 170.08 
L 151.433333 168.026667 
L 153.5 168.026667 
L 154.016667 165.973333 
L 156.083333 165.973333 
L 156.6 163.92 
L 158.666667 163.92 
L 159.183333 161.866667 
L 161.25 161.866667 
L 161.766667 159.813333 
L 163.833333 159.813333 
L 164.35 157.76 
L 166.416667 157.76 
L 166.933333 155.706667 
L 169 155.706667 
L 169.516667 153.653333 
L 171.583333 153.653333 
L 172.1 151.6 
L 174.166667 151.6 
L 174.683333 149.546667 
L 176.75 149.546667 
L 177.266667 147.493333 
L 179.333333 147.493333 
L 179.85 145.44 
L 181.916667 145.44 
L 182.433333 143.386667 
L 184.5 143.386667 
L 185.016667 141.333333 
L 187.083333 141.333333 
L 187.6 139.28 
L 189.666667 139.28 
L 190.183333 137.226667 
L 192.25 137.226667 
L 192.766667 135.173333 
L 194.833333 135.173333 
L 195.35 133.12 
L 197.416667 133.12 
L 197.933333 131.066667 
L 200 131.066667 
L 200.516667 129.013333 
L 202.583333 129.013333 
L 203.1 126.96 
L 205.166667 126.96 
L 205.683333 124.906667 
L 207.75 124.906667 
L 208.266667 122.853333 
L 210.333333 122.853333 
L 210.85 120.8 
L 212.916667 120.8 
L 213.433333 118.746667 
L 215.5 118.746667 
L 216.016667 116.693333 
L 218.083333 116.693333 
L 218.6 114.64 
L 220.666667 114.64 
L 221.183333 112.586667 
L 223.25 112.586667 
L 223.766667 110.533333 
L 225.833333 110.533333 
L 226.35 108.48 
L 228.416667 108.48 
L 228.933333 106.426667 
L 231 106.426667 
L 231.516667 104.373333 
L 233.583333 104.373333 
L 234.1 102.32 
L 236.166667 102.32 
L 236.683333 100.266667 
L 238.75 100.266667 
L 239.266667 98.213333 
L 241.333333 98.213333 
L 241.85 96.16 
L 243.916667 96.16 
L 244.433333 94.106667 
L 246.5 94.106667 
L 247.016667 92.053333 
L 249.083333 92.053333 
L 249.6 90 
L 251.666667 90 
L 252.183333 87.946667 
L 254.25 87.946667 
L 254.766667 85.893333 
L 256.833333 85.893333 
L 257.35 83.84 
L 259.416667 83.84 
L 259.933333 81.786667 
L 262 81.786667 
L 262.516667 79.733333 
L 264.583333 79.733333 
L 265.1 77.68 
L 267.166667 77.68 
L 267.683333 75.626667 
L 269.75 75.626667 
L 270.266667 73.573333 
L 272.333333 73.573333 
L 272.85 71.52 
L 274.916667 71.52 
L 275.433333 69.466667 
L 277.5 69.466667 
L 278.016667 67.413333 
L 280.083333 67.413333 
L 280.6 65.36 
L 282.666667 65.36 
L 283.183333 63.306667 
L 285.25 63.306667 
L 285.766667 61.253333 
L 287.833333 61.253333 
L 288.35 59.2 
L 290.416667 59.2 
L 290.933333 57.146667 
L 293 57.146667 
L 293.516667 55.093333 
L 295.583333 55.093333 
L 296.1 53.04 
L 298.166667 53.04 
L 298.683333 50.986667 
L 300.75 50.986667 
L 301.266667 48.933333 
L 303.333333 48.933333 
L 303.85 46.88 
L 305.916667 46.88 
L 306.433333 44.826667 
L 308.5 44.826667 
L 309.016667 42.773333 
L 311.083333 42.773333 
L 311.6 40.72 
L 313.666667 40.72 
L 314.183333 38.666667 
L 316.25 38.666667 
L 316.766667 36.613333 
L 318.833333 36.613333 
L 319.35 34.56 
L 321.416667 34.56 
L 321.933333 32.506667 
L 323.483333 32.506667 
L 323.483333 32.506667 
" style="fill:none;stroke:#55a868;stroke-linecap:round;stroke-width:1.5;"/>
   </g>
   <g id="patch_4">
    <path d="M 45 256.32 
L 45 34.56 
" style="fill:none;stroke:#cccccc;stroke-linecap:square;stroke-linejoin:miter;stroke-width:1.25;"/>
   </g>
   <g id="patch_5">
    <path d="M 324 256.32 
L 324 34.56 
" style="fill:none;stroke:#cccccc;stroke-linecap:square;stroke-linejoin:miter;stroke-width:1.25;"/>
   </g>
   <g id="patch_6">
    <path d="M 45 256.32 
L 324 256.32 
" style="fill:none;stroke:#cccccc;stroke-linecap:square;stroke-linejoin:miter;stroke-width:1.25;"/>
   </g>
   <g id="patch_7">
    <path d="M 45 34.56 
L 324 34.56 
" style="fill:none;stroke:#cccccc;stroke-linecap:square;stroke-linejoin:miter;stroke-width:1.25;"/>
   </g>
   <g id="legend_1">
    <g id="patch_8">
     <path d="M 224.847031 250.82 
L 316.3 250.82 
Q 318.5 250.82 318.5 248.62 
L 318.5 202.7775 
Q 318.5 200.5775 316.3 200.5775 
L 224.847031 200.5775 
Q 222.647031 200.5775 222.647031 202.7775 
L 222.647031 248.62 
Q 222.647031 250.82 224.847031 250.82 
z
" style="fill:#ffffff;opacity:0.8;stroke:#cccccc;stroke-linejoin:miter;"/>
    </g>
    <g id="line2d_16">
     <path d="M 227.047031 209.001094 
L 249.047031 209.001094 
" style="fill:none;stroke:#4c72b0;stroke-linecap:round;stroke-width:1.5;"/>
    </g>
    <g id="line2d_17"/>
    <g id="text_15">
     <!-- LND -->
     <defs>
      <path d="M 7.328125 0 
L 7.328125 71.578125 
L 16.796875 71.578125 
L 16.796875 8.453125 
L 52.046875 8.453125 
L 52.046875 0 
z
" id="ArialMT-76"/>
      <path d="M 7.625 0 
L 7.625 71.578125 
L 17.328125 71.578125 
L 54.9375 15.375 
L 54.9375 71.578125 
L 64.015625 71.578125 
L 64.015625 0 
L 54.296875 0 
L 16.703125 56.25 
L 16.703125 0 
z
" id="ArialMT-78"/>
     </defs>
     <g style="fill:#262626;" transform="translate(257.847031 212.851094)scale(0.11 -0.11)">
      <use xlink:href="#ArialMT-76"/>
      <use x="55.615234" xlink:href="#ArialMT-78"/>
      <use x="127.832031" xlink:href="#ArialMT-68"/>
     </g>
    </g>
    <g id="line2d_18">
     <path d="M 227.047031 224.695 
L 249.047031 224.695 
" style="fill:none;stroke:#dd8452;stroke-linecap:round;stroke-width:1.5;"/>
    </g>
    <g id="line2d_19"/>
    <g id="text_16">
     <!-- C-Lightning -->
     <defs>
      <path d="M 3.171875 21.484375 
L 3.171875 30.328125 
L 30.171875 30.328125 
L 30.171875 21.484375 
z
" id="ArialMT-45"/>
      <path d="M 6.640625 61.46875 
L 6.640625 71.578125 
L 15.4375 71.578125 
L 15.4375 61.46875 
z
M 6.640625 0 
L 6.640625 51.859375 
L 15.4375 51.859375 
L 15.4375 0 
z
" id="ArialMT-105"/>
     </defs>
     <g style="fill:#262626;" transform="translate(257.847031 228.545)scale(0.11 -0.11)">
      <use xlink:href="#ArialMT-67"/>
      <use x="72.216797" xlink:href="#ArialMT-45"/>
      <use x="105.517578" xlink:href="#ArialMT-76"/>
      <use x="161.132812" xlink:href="#ArialMT-105"/>
      <use x="183.349609" xlink:href="#ArialMT-103"/>
      <use x="238.964844" xlink:href="#ArialMT-104"/>
      <use x="294.580078" xlink:href="#ArialMT-116"/>
      <use x="322.363281" xlink:href="#ArialMT-110"/>
      <use x="377.978516" xlink:href="#ArialMT-105"/>
      <use x="400.195312" xlink:href="#ArialMT-110"/>
      <use x="455.810547" xlink:href="#ArialMT-103"/>
     </g>
    </g>
    <g id="line2d_20">
     <path d="M 227.047031 240.38375 
L 249.047031 240.38375 
" style="fill:none;stroke:#55a868;stroke-linecap:round;stroke-width:1.5;"/>
    </g>
    <g id="line2d_21"/>
    <g id="text_17">
     <!-- Eclair -->
     <defs>
      <path d="M 7.90625 0 
L 7.90625 71.578125 
L 59.671875 71.578125 
L 59.671875 63.140625 
L 17.390625 63.140625 
L 17.390625 41.21875 
L 56.984375 41.21875 
L 56.984375 32.8125 
L 17.390625 32.8125 
L 17.390625 8.453125 
L 61.328125 8.453125 
L 61.328125 0 
z
" id="ArialMT-69"/>
     </defs>
     <g style="fill:#262626;" transform="translate(257.847031 244.23375)scale(0.11 -0.11)">
      <use xlink:href="#ArialMT-69"/>
      <use x="66.699219" xlink:href="#ArialMT-99"/>
      <use x="116.699219" xlink:href="#ArialMT-108"/>
      <use x="138.916016" xlink:href="#ArialMT-97"/>
      <use x="194.53125" xlink:href="#ArialMT-105"/>
      <use x="216.748047" xlink:href="#ArialMT-114"/>
     </g>
    </g>
   </g>
  </g>
  <g id="axes_2">
   <g id="patch_9">
    <path d="M 50.5 134.513333 
L 169.333333 134.513333 
L 169.333333 40.06 
L 50.5 40.06 
z
" style="fill:#ffffff;"/>
   </g>
   <g id="matplotlib.axis_3">
    <g id="xtick_7">
     <g id="line2d_22">
      <path clip-path="url(#p6d724fbafc)" d="M 58.25 134.513333 
L 58.25 40.06 
" style="fill:none;stroke:#cccccc;stroke-linecap:round;"/>
     </g>
    </g>
    <g id="xtick_8">
     <g id="line2d_23">
      <path clip-path="url(#p6d724fbafc)" d="M 109.916667 134.513333 
L 109.916667 40.06 
" style="fill:none;stroke:#cccccc;stroke-linecap:round;"/>
     </g>
    </g>
    <g id="xtick_9">
     <g id="line2d_24">
      <path clip-path="url(#p6d724fbafc)" d="M 161.583333 134.513333 
L 161.583333 40.06 
" style="fill:none;stroke:#cccccc;stroke-linecap:round;"/>
     </g>
    </g>
   </g>
   <g id="matplotlib.axis_4">
    <g id="ytick_7">
     <g id="line2d_25">
      <path clip-path="url(#p6d724fbafc)" d="M 50.5 128.353333 
L 169.333333 128.353333 
" style="fill:none;stroke:#cccccc;stroke-linecap:round;"/>
     </g>
    </g>
    <g id="ytick_8">
     <g id="line2d_26">
      <path clip-path="url(#p6d724fbafc)" d="M 50.5 87.286667 
L 169.333333 87.286667 
" style="fill:none;stroke:#cccccc;stroke-linecap:round;"/>
     </g>
    </g>
    <g id="ytick_9">
     <g id="line2d_27">
      <path clip-path="url(#p6d724fbafc)" d="M 50.5 46.22 
L 169.333333 46.22 
" style="fill:none;stroke:#cccccc;stroke-linecap:round;"/>
     </g>
    </g>
   </g>
   <g id="patch_10">
    <path d="M 50.5 40.06 
L 54.558333 237.224 
" style="fill:none;stroke:#808080;stroke-linejoin:miter;stroke-width:0.5;"/>
   </g>
   <g id="patch_11">
    <path d="M 169.333333 134.513333 
L 66.441667 246.669333 
" style="fill:none;stroke:#808080;stroke-linejoin:miter;stroke-width:0.5;"/>
   </g>
   <g id="line2d_28">
    <path clip-path="url(#p6d724fbafc)" d="M 58.25 128.353333 
L 63.416667 107.82 
L 99.583333 107.82 
L 104.75 87.286667 
L 146.083333 87.286667 
L 151.25 66.753333 
L 192.583333 66.753333 
L 197.75 46.22 
L 239.083333 46.22 
L 244.25 25.686667 
L 285.583333 25.686667 
L 290.75 5.153333 
L 332.083333 5.153333 
L 333.631656 -1 
L 333.631656 -1 
" style="fill:none;stroke:#4c72b0;stroke-linecap:round;stroke-width:1.5;"/>
    <defs>
     <path d="M 0 1.5 
C 0.397805 1.5 0.77937 1.341951 1.06066 1.06066 
C 1.341951 0.77937 1.5 0.397805 1.5 0 
C 1.5 -0.397805 1.341951 -0.77937 1.06066 -1.06066 
C 0.77937 -1.341951 0.397805 -1.5 0 -1.5 
C -0.397805 -1.5 -0.77937 -1.341951 -1.06066 -1.06066 
C -1.341951 -0.77937 -1.5 -0.397805 -1.5 0 
C -1.5 0.397805 -1.341951 0.77937 -1.06066 1.06066 
C -0.77937 1.341951 -0.397805 1.5 0 1.5 
z
" id="mdada8815da" style="stroke:#4c72b0;"/>
    </defs>
    <g clip-path="url(#p6d724fbafc)">
     <use style="fill:#4c72b0;stroke:#4c72b0;" x="58.25" xlink:href="#mdada8815da" y="128.353333"/>
     <use style="fill:#4c72b0;stroke:#4c72b0;" x="63.416667" xlink:href="#mdada8815da" y="107.82"/>
     <use style="fill:#4c72b0;stroke:#4c72b0;" x="68.583333" xlink:href="#mdada8815da" y="107.82"/>
     <use style="fill:#4c72b0;stroke:#4c72b0;" x="73.75" xlink:href="#mdada8815da" y="107.82"/>
     <use style="fill:#4c72b0;stroke:#4c72b0;" x="78.916667" xlink:href="#mdada8815da" y="107.82"/>
     <use style="fill:#4c72b0;stroke:#4c72b0;" x="84.083333" xlink:href="#mdada8815da" y="107.82"/>
     <use style="fill:#4c72b0;stroke:#4c72b0;" x="89.25" xlink:href="#mdada8815da" y="107.82"/>
     <use style="fill:#4c72b0;stroke:#4c72b0;" x="94.416667" xlink:href="#mdada8815da" y="107.82"/>
     <use style="fill:#4c72b0;stroke:#4c72b0;" x="99.583333" xlink:href="#mdada8815da" y="107.82"/>
     <use style="fill:#4c72b0;stroke:#4c72b0;" x="104.75" xlink:href="#mdada8815da" y="87.286667"/>
     <use style="fill:#4c72b0;stroke:#4c72b0;" x="109.916667" xlink:href="#mdada8815da" y="87.286667"/>
     <use style="fill:#4c72b0;stroke:#4c72b0;" x="115.083333" xlink:href="#mdada8815da" y="87.286667"/>
     <use style="fill:#4c72b0;stroke:#4c72b0;" x="120.25" xlink:href="#mdada8815da" y="87.286667"/>
     <use style="fill:#4c72b0;stroke:#4c72b0;" x="125.416667" xlink:href="#mdada8815da" y="87.286667"/>
     <use style="fill:#4c72b0;stroke:#4c72b0;" x="130.583333" xlink:href="#mdada8815da" y="87.286667"/>
     <use style="fill:#4c72b0;stroke:#4c72b0;" x="135.75" xlink:href="#mdada8815da" y="87.286667"/>
     <use style="fill:#4c72b0;stroke:#4c72b0;" x="140.916667" xlink:href="#mdada8815da" y="87.286667"/>
     <use style="fill:#4c72b0;stroke:#4c72b0;" x="146.083333" xlink:href="#mdada8815da" y="87.286667"/>
     <use style="fill:#4c72b0;stroke:#4c72b0;" x="151.25" xlink:href="#mdada8815da" y="66.753333"/>
     <use style="fill:#4c72b0;stroke:#4c72b0;" x="156.416667" xlink:href="#mdada8815da" y="66.753333"/>
     <use style="fill:#4c72b0;stroke:#4c72b0;" x="161.583333" xlink:href="#mdada8815da" y="66.753333"/>
     <use style="fill:#4c72b0;stroke:#4c72b0;" x="166.75" xlink:href="#mdada8815da" y="66.753333"/>
     <use style="fill:#4c72b0;stroke:#4c72b0;" x="171.916667" xlink:href="#mdada8815da" y="66.753333"/>
     <use style="fill:#4c72b0;stroke:#4c72b0;" x="177.083333" xlink:href="#mdada8815da" y="66.753333"/>
     <use style="fill:#4c72b0;stroke:#4c72b0;" x="182.25" xlink:href="#mdada8815da" y="66.753333"/>
     <use style="fill:#4c72b0;stroke:#4c72b0;" x="187.416667" xlink:href="#mdada8815da" y="66.753333"/>
     <use style="fill:#4c72b0;stroke:#4c72b0;" x="192.583333" xlink:href="#mdada8815da" y="66.753333"/>
     <use style="fill:#4c72b0;stroke:#4c72b0;" x="197.75" xlink:href="#mdada8815da" y="46.22"/>
     <use style="fill:#4c72b0;stroke:#4c72b0;" x="202.916667" xlink:href="#mdada8815da" y="46.22"/>
     <use style="fill:#4c72b0;stroke:#4c72b0;" x="208.083333" xlink:href="#mdada8815da" y="46.22"/>
     <use style="fill:#4c72b0;stroke:#4c72b0;" x="213.25" xlink:href="#mdada8815da" y="46.22"/>
     <use style="fill:#4c72b0;stroke:#4c72b0;" x="218.416667" xlink:href="#mdada8815da" y="46.22"/>
     <use style="fill:#4c72b0;stroke:#4c72b0;" x="223.583333" xlink:href="#mdada8815da" y="46.22"/>
     <use style="fill:#4c72b0;stroke:#4c72b0;" x="228.75" xlink:href="#mdada8815da" y="46.22"/>
     <use style="fill:#4c72b0;stroke:#4c72b0;" x="233.916667" xlink:href="#mdada8815da" y="46.22"/>
     <use style="fill:#4c72b0;stroke:#4c72b0;" x="239.083333" xlink:href="#mdada8815da" y="46.22"/>
     <use style="fill:#4c72b0;stroke:#4c72b0;" x="244.25" xlink:href="#mdada8815da" y="25.686667"/>
     <use style="fill:#4c72b0;stroke:#4c72b0;" x="249.416667" xlink:href="#mdada8815da" y="25.686667"/>
     <use style="fill:#4c72b0;stroke:#4c72b0;" x="254.583333" xlink:href="#mdada8815da" y="25.686667"/>
     <use style="fill:#4c72b0;stroke:#4c72b0;" x="259.75" xlink:href="#mdada8815da" y="25.686667"/>
     <use style="fill:#4c72b0;stroke:#4c72b0;" x="264.916667" xlink:href="#mdada8815da" y="25.686667"/>
     <use style="fill:#4c72b0;stroke:#4c72b0;" x="270.083333" xlink:href="#mdada8815da" y="25.686667"/>
     <use style="fill:#4c72b0;stroke:#4c72b0;" x="275.25" xlink:href="#mdada8815da" y="25.686667"/>
     <use style="fill:#4c72b0;stroke:#4c72b0;" x="280.416667" xlink:href="#mdada8815da" y="25.686667"/>
     <use style="fill:#4c72b0;stroke:#4c72b0;" x="285.583333" xlink:href="#mdada8815da" y="25.686667"/>
     <use style="fill:#4c72b0;stroke:#4c72b0;" x="290.75" xlink:href="#mdada8815da" y="5.153333"/>
     <use style="fill:#4c72b0;stroke:#4c72b0;" x="295.916667" xlink:href="#mdada8815da" y="5.153333"/>
     <use style="fill:#4c72b0;stroke:#4c72b0;" x="301.083333" xlink:href="#mdada8815da" y="5.153333"/>
     <use style="fill:#4c72b0;stroke:#4c72b0;" x="306.25" xlink:href="#mdada8815da" y="5.153333"/>
     <use style="fill:#4c72b0;stroke:#4c72b0;" x="311.416667" xlink:href="#mdada8815da" y="5.153333"/>
     <use style="fill:#4c72b0;stroke:#4c72b0;" x="316.583333" xlink:href="#mdada8815da" y="5.153333"/>
     <use style="fill:#4c72b0;stroke:#4c72b0;" x="321.75" xlink:href="#mdada8815da" y="5.153333"/>
     <use style="fill:#4c72b0;stroke:#4c72b0;" x="326.916667" xlink:href="#mdada8815da" y="5.153333"/>
     <use style="fill:#4c72b0;stroke:#4c72b0;" x="332.083333" xlink:href="#mdada8815da" y="5.153333"/>
     <use style="fill:#4c72b0;stroke:#4c72b0;" x="333.631656" xlink:href="#mdada8815da" y="-1"/>
    </g>
   </g>
   <g id="line2d_29">
    <path clip-path="url(#p6d724fbafc)" d="M 58.25 128.353333 
L 63.416667 107.82 
L 94.416667 107.82 
L 99.583333 87.286667 
L 135.75 87.286667 
L 140.916667 66.753333 
L 171.916667 66.753333 
L 177.083333 46.22 
L 213.25 46.22 
L 218.416667 25.686667 
L 249.416667 25.686667 
L 254.583333 5.153333 
L 290.75 5.153333 
L 292.298323 -1 
L 292.298323 -1 
" style="fill:none;stroke:#dd8452;stroke-linecap:round;stroke-width:1.5;"/>
    <defs>
     <path d="M 0 1.5 
C 0.397805 1.5 0.77937 1.341951 1.06066 1.06066 
C 1.341951 0.77937 1.5 0.397805 1.5 0 
C 1.5 -0.397805 1.341951 -0.77937 1.06066 -1.06066 
C 0.77937 -1.341951 0.397805 -1.5 0 -1.5 
C -0.397805 -1.5 -0.77937 -1.341951 -1.06066 -1.06066 
C -1.341951 -0.77937 -1.5 -0.397805 -1.5 0 
C -1.5 0.397805 -1.341951 0.77937 -1.06066 1.06066 
C -0.77937 1.341951 -0.397805 1.5 0 1.5 
z
" id="m5907175358" style="stroke:#dd8452;"/>
    </defs>
    <g clip-path="url(#p6d724fbafc)">
     <use style="fill:#dd8452;stroke:#dd8452;" x="58.25" xlink:href="#m5907175358" y="128.353333"/>
     <use style="fill:#dd8452;stroke:#dd8452;" x="63.416667" xlink:href="#m5907175358" y="107.82"/>
     <use style="fill:#dd8452;stroke:#dd8452;" x="68.583333" xlink:href="#m5907175358" y="107.82"/>
     <use style="fill:#dd8452;stroke:#dd8452;" x="73.75" xlink:href="#m5907175358" y="107.82"/>
     <use style="fill:#dd8452;stroke:#dd8452;" x="78.916667" xlink:href="#m5907175358" y="107.82"/>
     <use style="fill:#dd8452;stroke:#dd8452;" x="84.083333" xlink:href="#m5907175358" y="107.82"/>
     <use style="fill:#dd8452;stroke:#dd8452;" x="89.25" xlink:href="#m5907175358" y="107.82"/>
     <use style="fill:#dd8452;stroke:#dd8452;" x="94.416667" xlink:href="#m5907175358" y="107.82"/>
     <use style="fill:#dd8452;stroke:#dd8452;" x="99.583333" xlink:href="#m5907175358" y="87.286667"/>
     <use style="fill:#dd8452;stroke:#dd8452;" x="104.75" xlink:href="#m5907175358" y="87.286667"/>
     <use style="fill:#dd8452;stroke:#dd8452;" x="109.916667" xlink:href="#m5907175358" y="87.286667"/>
     <use style="fill:#dd8452;stroke:#dd8452;" x="115.083333" xlink:href="#m5907175358" y="87.286667"/>
     <use style="fill:#dd8452;stroke:#dd8452;" x="120.25" xlink:href="#m5907175358" y="87.286667"/>
     <use style="fill:#dd8452;stroke:#dd8452;" x="125.416667" xlink:href="#m5907175358" y="87.286667"/>
     <use style="fill:#dd8452;stroke:#dd8452;" x="130.583333" xlink:href="#m5907175358" y="87.286667"/>
     <use style="fill:#dd8452;stroke:#dd8452;" x="135.75" xlink:href="#m5907175358" y="87.286667"/>
     <use style="fill:#dd8452;stroke:#dd8452;" x="140.916667" xlink:href="#m5907175358" y="66.753333"/>
     <use style="fill:#dd8452;stroke:#dd8452;" x="146.083333" xlink:href="#m5907175358" y="66.753333"/>
     <use style="fill:#dd8452;stroke:#dd8452;" x="151.25" xlink:href="#m5907175358" y="66.753333"/>
     <use style="fill:#dd8452;stroke:#dd8452;" x="156.416667" xlink:href="#m5907175358" y="66.753333"/>
     <use style="fill:#dd8452;stroke:#dd8452;" x="161.583333" xlink:href="#m5907175358" y="66.753333"/>
     <use style="fill:#dd8452;stroke:#dd8452;" x="166.75" xlink:href="#m5907175358" y="66.753333"/>
     <use style="fill:#dd8452;stroke:#dd8452;" x="171.916667" xlink:href="#m5907175358" y="66.753333"/>
     <use style="fill:#dd8452;stroke:#dd8452;" x="177.083333" xlink:href="#m5907175358" y="46.22"/>
     <use style="fill:#dd8452;stroke:#dd8452;" x="182.25" xlink:href="#m5907175358" y="46.22"/>
     <use style="fill:#dd8452;stroke:#dd8452;" x="187.416667" xlink:href="#m5907175358" y="46.22"/>
     <use style="fill:#dd8452;stroke:#dd8452;" x="192.583333" xlink:href="#m5907175358" y="46.22"/>
     <use style="fill:#dd8452;stroke:#dd8452;" x="197.75" xlink:href="#m5907175358" y="46.22"/>
     <use style="fill:#dd8452;stroke:#dd8452;" x="202.916667" xlink:href="#m5907175358" y="46.22"/>
     <use style="fill:#dd8452;stroke:#dd8452;" x="208.083333" xlink:href="#m5907175358" y="46.22"/>
     <use style="fill:#dd8452;stroke:#dd8452;" x="213.25" xlink:href="#m5907175358" y="46.22"/>
     <use style="fill:#dd8452;stroke:#dd8452;" x="218.416667" xlink:href="#m5907175358" y="25.686667"/>
     <use style="fill:#dd8452;stroke:#dd8452;" x="223.583333" xlink:href="#m5907175358" y="25.686667"/>
     <use style="fill:#dd8452;stroke:#dd8452;" x="228.75" xlink:href="#m5907175358" y="25.686667"/>
     <use style="fill:#dd8452;stroke:#dd8452;" x="233.916667" xlink:href="#m5907175358" y="25.686667"/>
     <use style="fill:#dd8452;stroke:#dd8452;" x="239.083333" xlink:href="#m5907175358" y="25.686667"/>
     <use style="fill:#dd8452;stroke:#dd8452;" x="244.25" xlink:href="#m5907175358" y="25.686667"/>
     <use style="fill:#dd8452;stroke:#dd8452;" x="249.416667" xlink:href="#m5907175358" y="25.686667"/>
     <use style="fill:#dd8452;stroke:#dd8452;" x="254.583333" xlink:href="#m5907175358" y="5.153333"/>
     <use style="fill:#dd8452;stroke:#dd8452;" x="259.75" xlink:href="#m5907175358" y="5.153333"/>
     <use style="fill:#dd8452;stroke:#dd8452;" x="264.916667" xlink:href="#m5907175358" y="5.153333"/>
     <use style="fill:#dd8452;stroke:#dd8452;" x="270.083333" xlink:href="#m5907175358" y="5.153333"/>
     <use style="fill:#dd8452;stroke:#dd8452;" x="275.25" xlink:href="#m5907175358" y="5.153333"/>
     <use style="fill:#dd8452;stroke:#dd8452;" x="280.416667" xlink:href="#m5907175358" y="5.153333"/>
     <use style="fill:#dd8452;stroke:#dd8452;" x="285.583333" xlink:href="#m5907175358" y="5.153333"/>
     <use style="fill:#dd8452;stroke:#dd8452;" x="290.75" xlink:href="#m5907175358" y="5.153333"/>
     <use style="fill:#dd8452;stroke:#dd8452;" x="292.298323" xlink:href="#m5907175358" y="-1"/>
    </g>
   </g>
   <g id="line2d_30">
    <path clip-path="url(#p6d724fbafc)" d="M 58.25 128.353333 
L 63.416667 107.82 
L 84.083333 107.82 
L 89.25 87.286667 
L 109.916667 87.286667 
L 115.083333 66.753333 
L 135.75 66.753333 
L 140.916667 46.22 
L 161.583333 46.22 
L 166.75 25.686667 
L 187.416667 25.686667 
L 192.583333 5.153333 
L 213.25 5.153333 
L 214.798323 -1 
L 214.798323 -1 
" style="fill:none;stroke:#55a868;stroke-linecap:round;stroke-width:1.5;"/>
    <defs>
     <path d="M 0 1.5 
C 0.397805 1.5 0.77937 1.341951 1.06066 1.06066 
C 1.341951 0.77937 1.5 0.397805 1.5 0 
C 1.5 -0.397805 1.341951 -0.77937 1.06066 -1.06066 
C 0.77937 -1.341951 0.397805 -1.5 0 -1.5 
C -0.397805 -1.5 -0.77937 -1.341951 -1.06066 -1.06066 
C -1.341951 -0.77937 -1.5 -0.397805 -1.5 0 
C -1.5 0.397805 -1.341951 0.77937 -1.06066 1.06066 
C -0.77937 1.341951 -0.397805 1.5 0 1.5 
z
" id="m9645e5865d" style="stroke:#55a868;"/>
    </defs>
    <g clip-path="url(#p6d724fbafc)">
     <use style="fill:#55a868;stroke:#55a868;" x="58.25" xlink:href="#m9645e5865d" y="128.353333"/>
     <use style="fill:#55a868;stroke:#55a868;" x="63.416667" xlink:href="#m9645e5865d" y="107.82"/>
     <use style="fill:#55a868;stroke:#55a868;" x="68.583333" xlink:href="#m9645e5865d" y="107.82"/>
     <use style="fill:#55a868;stroke:#55a868;" x="73.75" xlink:href="#m9645e5865d" y="107.82"/>
     <use style="fill:#55a868;stroke:#55a868;" x="78.916667" xlink:href="#m9645e5865d" y="107.82"/>
     <use style="fill:#55a868;stroke:#55a868;" x="84.083333" xlink:href="#m9645e5865d" y="107.82"/>
     <use style="fill:#55a868;stroke:#55a868;" x="89.25" xlink:href="#m9645e5865d" y="87.286667"/>
     <use style="fill:#55a868;stroke:#55a868;" x="94.416667" xlink:href="#m9645e5865d" y="87.286667"/>
     <use style="fill:#55a868;stroke:#55a868;" x="99.583333" xlink:href="#m9645e5865d" y="87.286667"/>
     <use style="fill:#55a868;stroke:#55a868;" x="104.75" xlink:href="#m9645e5865d" y="87.286667"/>
     <use style="fill:#55a868;stroke:#55a868;" x="109.916667" xlink:href="#m9645e5865d" y="87.286667"/>
     <use style="fill:#55a868;stroke:#55a868;" x="115.083333" xlink:href="#m9645e5865d" y="66.753333"/>
     <use style="fill:#55a868;stroke:#55a868;" x="120.25" xlink:href="#m9645e5865d" y="66.753333"/>
     <use style="fill:#55a868;stroke:#55a868;" x="125.416667" xlink:href="#m9645e5865d" y="66.753333"/>
     <use style="fill:#55a868;stroke:#55a868;" x="130.583333" xlink:href="#m9645e5865d" y="66.753333"/>
     <use style="fill:#55a868;stroke:#55a868;" x="135.75" xlink:href="#m9645e5865d" y="66.753333"/>
     <use style="fill:#55a868;stroke:#55a868;" x="140.916667" xlink:href="#m9645e5865d" y="46.22"/>
     <use style="fill:#55a868;stroke:#55a868;" x="146.083333" xlink:href="#m9645e5865d" y="46.22"/>
     <use style="fill:#55a868;stroke:#55a868;" x="151.25" xlink:href="#m9645e5865d" y="46.22"/>
     <use style="fill:#55a868;stroke:#55a868;" x="156.416667" xlink:href="#m9645e5865d" y="46.22"/>
     <use style="fill:#55a868;stroke:#55a868;" x="161.583333" xlink:href="#m9645e5865d" y="46.22"/>
     <use style="fill:#55a868;stroke:#55a868;" x="166.75" xlink:href="#m9645e5865d" y="25.686667"/>
     <use style="fill:#55a868;stroke:#55a868;" x="171.916667" xlink:href="#m9645e5865d" y="25.686667"/>
     <use style="fill:#55a868;stroke:#55a868;" x="177.083333" xlink:href="#m9645e5865d" y="25.686667"/>
     <use style="fill:#55a868;stroke:#55a868;" x="182.25" xlink:href="#m9645e5865d" y="25.686667"/>
     <use style="fill:#55a868;stroke:#55a868;" x="187.416667" xlink:href="#m9645e5865d" y="25.686667"/>
     <use style="fill:#55a868;stroke:#55a868;" x="192.583333" xlink:href="#m9645e5865d" y="5.153333"/>
     <use style="fill:#55a868;stroke:#55a868;" x="197.75" xlink:href="#m9645e5865d" y="5.153333"/>
     <use style="fill:#55a868;stroke:#55a868;" x="202.916667" xlink:href="#m9645e5865d" y="5.153333"/>
     <use style="fill:#55a868;stroke:#55a868;" x="208.083333" xlink:href="#m9645e5865d" y="5.153333"/>
     <use style="fill:#55a868;stroke:#55a868;" x="213.25" xlink:href="#m9645e5865d" y="5.153333"/>
     <use style="fill:#55a868;stroke:#55a868;" x="214.798323" xlink:href="#m9645e5865d" y="-1"/>
    </g>
   </g>
   <g id="patch_12">
    <path d="M 50.5 134.513333 
L 50.5 40.06 
" style="fill:none;stroke:#cccccc;stroke-linecap:square;stroke-linejoin:miter;stroke-width:1.25;"/>
   </g>
   <g id="patch_13">
    <path d="M 169.333333 134.513333 
L 169.333333 40.06 
" style="fill:none;stroke:#cccccc;stroke-linecap:square;stroke-linejoin:miter;stroke-width:1.25;"/>
   </g>
   <g id="patch_14">
    <path d="M 50.5 134.513333 
L 169.333333 134.513333 
" style="fill:none;stroke:#cccccc;stroke-linecap:square;stroke-linejoin:miter;stroke-width:1.25;"/>
   </g>
   <g id="patch_15">
    <path d="M 50.5 40.06 
L 169.333333 40.06 
" style="fill:none;stroke:#cccccc;stroke-linecap:square;stroke-linejoin:miter;stroke-width:1.25;"/>
   </g>
   <g id="text_18">
    <!-- 0 -->
    <g style="fill:#262626;" transform="translate(58.25 130.406667)scale(0.06 -0.06)">
     <use xlink:href="#ArialMT-48"/>
    </g>
   </g>
   <g id="text_19">
    <!-- 10 -->
    <g style="fill:#262626;" transform="translate(104.75 130.406667)scale(0.06 -0.06)">
     <use xlink:href="#ArialMT-49"/>
     <use x="55.615234" xlink:href="#ArialMT-48"/>
    </g>
   </g>
   <g id="text_20">
    <!-- 20 -->
    <g style="fill:#262626;" transform="translate(156.416667 130.406667)scale(0.06 -0.06)">
     <use xlink:href="#ArialMT-50"/>
     <use x="55.615234" xlink:href="#ArialMT-48"/>
    </g>
   </g>
   <g id="text_21">
    <!-- 2 -->
    <g style="fill:#262626;" transform="translate(58.25 87.286667)scale(0.06 -0.06)">
     <use xlink:href="#ArialMT-50"/>
    </g>
   </g>
   <g id="text_22">
    <!-- 4 -->
    <g style="fill:#262626;" transform="translate(58.25 46.22)scale(0.06 -0.06)">
     <use xlink:href="#ArialMT-52"/>
    </g>
   </g>
  </g>
 </g>
 <defs>
  <clipPath id="pec86257e75">
   <rect height="221.76" width="279" x="45" y="34.56"/>
  </clipPath>
  <clipPath id="p6d724fbafc">
   <rect height="94.453333" width="118.833333" x="50.5" y="40.06"/>
  </clipPath>
 </defs>
</svg>
