<?xml version="1.0" encoding="utf-8" standalone="no"?>
<!DOCTYPE svg PUBLIC "-//W3C//DTD SVG 1.1//EN"
  "http://www.w3.org/Graphics/SVG/1.1/DTD/svg11.dtd">
<!-- Created with matplotlib (https://matplotlib.org/) -->
<svg height="317.789812pt" version="1.1" viewBox="0 0 414.386562 317.789812" width="414.386562pt" xmlns="http://www.w3.org/2000/svg" xmlns:xlink="http://www.w3.org/1999/xlink">
 <defs>
  <style type="text/css">
*{stroke-linecap:butt;stroke-linejoin:round;white-space:pre;}
  </style>
 </defs>
 <g id="figure_1">
  <g id="patch_1">
   <path d="M 0 317.789812 
L 414.386562 317.789812 
L 414.386562 0 
L 0 0 
z
" style="fill:#ffffff;"/>
  </g>
  <g id="axes_1">
   <g id="patch_2">
    <path d="M 50.066563 273.312 
L 407.186563 273.312 
L 407.186563 7.2 
L 50.066563 7.2 
z
" style="fill:#ffffff;"/>
   </g>
   <g id="matplotlib.axis_1">
    <g id="xtick_1">
     <g id="line2d_1">
      <path clip-path="url(#p61ce4d47ae)" d="M 59.342407 273.312 
L 59.342407 7.2 
" style="fill:none;stroke:#cccccc;stroke-linecap:round;"/>
     </g>
     <g id="text_1">
      <!-- 0 -->
      <defs>
       <path d="M 4.15625 35.296875 
Q 4.15625 48 6.765625 55.734375 
Q 9.375 63.484375 14.515625 67.671875 
Q 19.671875 71.875 27.484375 71.875 
Q 33.25 71.875 37.59375 69.546875 
Q 41.9375 67.234375 44.765625 62.859375 
Q 47.609375 58.5 49.21875 52.21875 
Q 50.828125 45.953125 50.828125 35.296875 
Q 50.828125 22.703125 48.234375 14.96875 
Q 45.65625 7.234375 40.5 3 
Q 35.359375 -1.21875 27.484375 -1.21875 
Q 17.140625 -1.21875 11.234375 6.203125 
Q 4.15625 15.140625 4.15625 35.296875 
z
M 13.1875 35.296875 
Q 13.1875 17.671875 17.3125 11.828125 
Q 21.4375 6 27.484375 6 
Q 33.546875 6 37.671875 11.859375 
Q 41.796875 17.71875 41.796875 35.296875 
Q 41.796875 52.984375 37.671875 58.78125 
Q 33.546875 64.59375 27.390625 64.59375 
Q 21.34375 64.59375 17.71875 59.46875 
Q 13.1875 52.9375 13.1875 35.296875 
z
" id="ArialMT-48"/>
      </defs>
      <g style="fill:#262626;" transform="translate(56.283891 290.685594)scale(0.11 -0.11)">
       <use xlink:href="#ArialMT-48"/>
      </g>
     </g>
    </g>
    <g id="xtick_2">
     <g id="line2d_2">
      <path clip-path="url(#p61ce4d47ae)" d="M 105.721627 273.312 
L 105.721627 7.2 
" style="fill:none;stroke:#cccccc;stroke-linecap:round;"/>
     </g>
     <g id="text_2">
      <!-- 200 -->
      <defs>
       <path d="M 50.34375 8.453125 
L 50.34375 0 
L 3.03125 0 
Q 2.9375 3.171875 4.046875 6.109375 
Q 5.859375 10.9375 9.828125 15.625 
Q 13.8125 20.3125 21.34375 26.46875 
Q 33.015625 36.03125 37.109375 41.625 
Q 41.21875 47.21875 41.21875 52.203125 
Q 41.21875 57.421875 37.46875 61 
Q 33.734375 64.59375 27.734375 64.59375 
Q 21.390625 64.59375 17.578125 60.78125 
Q 13.765625 56.984375 13.71875 50.25 
L 4.6875 51.171875 
Q 5.609375 61.28125 11.65625 66.578125 
Q 17.71875 71.875 27.9375 71.875 
Q 38.234375 71.875 44.234375 66.15625 
Q 50.25 60.453125 50.25 52 
Q 50.25 47.703125 48.484375 43.546875 
Q 46.734375 39.40625 42.65625 34.8125 
Q 38.578125 30.21875 29.109375 22.21875 
Q 21.1875 15.578125 18.9375 13.203125 
Q 16.703125 10.84375 15.234375 8.453125 
z
" id="ArialMT-50"/>
      </defs>
      <g style="fill:#262626;" transform="translate(96.546081 290.685594)scale(0.11 -0.11)">
       <use xlink:href="#ArialMT-50"/>
       <use x="55.615234" xlink:href="#ArialMT-48"/>
       <use x="111.230469" xlink:href="#ArialMT-48"/>
      </g>
     </g>
    </g>
    <g id="xtick_3">
     <g id="line2d_3">
      <path clip-path="url(#p61ce4d47ae)" d="M 152.100848 273.312 
L 152.100848 7.2 
" style="fill:none;stroke:#cccccc;stroke-linecap:round;"/>
     </g>
     <g id="text_3">
      <!-- 400 -->
      <defs>
       <path d="M 32.328125 0 
L 32.328125 17.140625 
L 1.265625 17.140625 
L 1.265625 25.203125 
L 33.9375 71.578125 
L 41.109375 71.578125 
L 41.109375 25.203125 
L 50.78125 25.203125 
L 50.78125 17.140625 
L 41.109375 17.140625 
L 41.109375 0 
z
M 32.328125 25.203125 
L 32.328125 57.46875 
L 9.90625 25.203125 
z
" id="ArialMT-52"/>
      </defs>
      <g style="fill:#262626;" transform="translate(142.925301 290.685594)scale(0.11 -0.11)">
       <use xlink:href="#ArialMT-52"/>
       <use x="55.615234" xlink:href="#ArialMT-48"/>
       <use x="111.230469" xlink:href="#ArialMT-48"/>
      </g>
     </g>
    </g>
    <g id="xtick_4">
     <g id="line2d_4">
      <path clip-path="url(#p61ce4d47ae)" d="M 198.480069 273.312 
L 198.480069 7.2 
" style="fill:none;stroke:#cccccc;stroke-linecap:round;"/>
     </g>
     <g id="text_4">
      <!-- 600 -->
      <defs>
       <path d="M 49.75 54.046875 
L 41.015625 53.375 
Q 39.84375 58.546875 37.703125 60.890625 
Q 34.125 64.65625 28.90625 64.65625 
Q 24.703125 64.65625 21.53125 62.3125 
Q 17.390625 59.28125 14.984375 53.46875 
Q 12.59375 47.65625 12.5 36.921875 
Q 15.671875 41.75 20.265625 44.09375 
Q 24.859375 46.4375 29.890625 46.4375 
Q 38.671875 46.4375 44.84375 39.96875 
Q 51.03125 33.5 51.03125 23.25 
Q 51.03125 16.5 48.125 10.71875 
Q 45.21875 4.9375 40.140625 1.859375 
Q 35.0625 -1.21875 28.609375 -1.21875 
Q 17.625 -1.21875 10.6875 6.859375 
Q 3.765625 14.9375 3.765625 33.5 
Q 3.765625 54.25 11.421875 63.671875 
Q 18.109375 71.875 29.4375 71.875 
Q 37.890625 71.875 43.28125 67.140625 
Q 48.6875 62.40625 49.75 54.046875 
z
M 13.875 23.1875 
Q 13.875 18.65625 15.796875 14.5 
Q 17.71875 10.359375 21.1875 8.171875 
Q 24.65625 6 28.46875 6 
Q 34.03125 6 38.03125 10.484375 
Q 42.046875 14.984375 42.046875 22.703125 
Q 42.046875 30.125 38.078125 34.390625 
Q 34.125 38.671875 28.125 38.671875 
Q 22.171875 38.671875 18.015625 34.390625 
Q 13.875 30.125 13.875 23.1875 
z
" id="ArialMT-54"/>
      </defs>
      <g style="fill:#262626;" transform="translate(189.304522 290.685594)scale(0.11 -0.11)">
       <use xlink:href="#ArialMT-54"/>
       <use x="55.615234" xlink:href="#ArialMT-48"/>
       <use x="111.230469" xlink:href="#ArialMT-48"/>
      </g>
     </g>
    </g>
    <g id="xtick_5">
     <g id="line2d_5">
      <path clip-path="url(#p61ce4d47ae)" d="M 244.85929 273.312 
L 244.85929 7.2 
" style="fill:none;stroke:#cccccc;stroke-linecap:round;"/>
     </g>
     <g id="text_5">
      <!-- 800 -->
      <defs>
       <path d="M 17.671875 38.8125 
Q 12.203125 40.828125 9.5625 44.53125 
Q 6.9375 48.25 6.9375 53.421875 
Q 6.9375 61.234375 12.546875 66.546875 
Q 18.171875 71.875 27.484375 71.875 
Q 36.859375 71.875 42.578125 66.421875 
Q 48.296875 60.984375 48.296875 53.171875 
Q 48.296875 48.1875 45.671875 44.5 
Q 43.0625 40.828125 37.75 38.8125 
Q 44.34375 36.671875 47.78125 31.875 
Q 51.21875 27.09375 51.21875 20.453125 
Q 51.21875 11.28125 44.71875 5.03125 
Q 38.234375 -1.21875 27.640625 -1.21875 
Q 17.046875 -1.21875 10.546875 5.046875 
Q 4.046875 11.328125 4.046875 20.703125 
Q 4.046875 27.6875 7.59375 32.390625 
Q 11.140625 37.109375 17.671875 38.8125 
z
M 15.921875 53.71875 
Q 15.921875 48.640625 19.1875 45.40625 
Q 22.46875 42.1875 27.6875 42.1875 
Q 32.765625 42.1875 36.015625 45.375 
Q 39.265625 48.578125 39.265625 53.21875 
Q 39.265625 58.0625 35.90625 61.359375 
Q 32.5625 64.65625 27.59375 64.65625 
Q 22.5625 64.65625 19.234375 61.421875 
Q 15.921875 58.203125 15.921875 53.71875 
z
M 13.09375 20.65625 
Q 13.09375 16.890625 14.875 13.375 
Q 16.65625 9.859375 20.171875 7.921875 
Q 23.6875 6 27.734375 6 
Q 34.03125 6 38.125 10.046875 
Q 42.234375 14.109375 42.234375 20.359375 
Q 42.234375 26.703125 38.015625 30.859375 
Q 33.796875 35.015625 27.4375 35.015625 
Q 21.234375 35.015625 17.15625 30.90625 
Q 13.09375 26.8125 13.09375 20.65625 
z
" id="ArialMT-56"/>
      </defs>
      <g style="fill:#262626;" transform="translate(235.683743 290.685594)scale(0.11 -0.11)">
       <use xlink:href="#ArialMT-56"/>
       <use x="55.615234" xlink:href="#ArialMT-48"/>
       <use x="111.230469" xlink:href="#ArialMT-48"/>
      </g>
     </g>
    </g>
    <g id="xtick_6">
     <g id="line2d_6">
      <path clip-path="url(#p61ce4d47ae)" d="M 291.238511 273.312 
L 291.238511 7.2 
" style="fill:none;stroke:#cccccc;stroke-linecap:round;"/>
     </g>
     <g id="text_6">
      <!-- 1000 -->
      <defs>
       <path d="M 37.25 0 
L 28.46875 0 
L 28.46875 56 
Q 25.296875 52.984375 20.140625 49.953125 
Q 14.984375 46.921875 10.890625 45.40625 
L 10.890625 53.90625 
Q 18.265625 57.375 23.78125 62.296875 
Q 29.296875 67.234375 31.59375 71.875 
L 37.25 71.875 
z
" id="ArialMT-49"/>
      </defs>
      <g style="fill:#262626;" transform="translate(279.004448 290.685594)scale(0.11 -0.11)">
       <use xlink:href="#ArialMT-49"/>
       <use x="55.615234" xlink:href="#ArialMT-48"/>
       <use x="111.230469" xlink:href="#ArialMT-48"/>
       <use x="166.845703" xlink:href="#ArialMT-48"/>
      </g>
     </g>
    </g>
    <g id="xtick_7">
     <g id="line2d_7">
      <path clip-path="url(#p61ce4d47ae)" d="M 337.617731 273.312 
L 337.617731 7.2 
" style="fill:none;stroke:#cccccc;stroke-linecap:round;"/>
     </g>
     <g id="text_7">
      <!-- 1200 -->
      <g style="fill:#262626;" transform="translate(325.383669 290.685594)scale(0.11 -0.11)">
       <use xlink:href="#ArialMT-49"/>
       <use x="55.615234" xlink:href="#ArialMT-50"/>
       <use x="111.230469" xlink:href="#ArialMT-48"/>
       <use x="166.845703" xlink:href="#ArialMT-48"/>
      </g>
     </g>
    </g>
    <g id="xtick_8">
     <g id="line2d_8">
      <path clip-path="url(#p61ce4d47ae)" d="M 383.996952 273.312 
L 383.996952 7.2 
" style="fill:none;stroke:#cccccc;stroke-linecap:round;"/>
     </g>
     <g id="text_8">
      <!-- 1400 -->
      <g style="fill:#262626;" transform="translate(371.76289 290.685594)scale(0.11 -0.11)">
       <use xlink:href="#ArialMT-49"/>
       <use x="55.615234" xlink:href="#ArialMT-52"/>
       <use x="111.230469" xlink:href="#ArialMT-48"/>
       <use x="166.845703" xlink:href="#ArialMT-48"/>
      </g>
     </g>
    </g>
    <g id="text_9">
     <!-- Number of attacker channels -->
     <defs>
      <path d="M 7.625 0 
L 7.625 71.578125 
L 17.328125 71.578125 
L 54.9375 15.375 
L 54.9375 71.578125 
L 64.015625 71.578125 
L 64.015625 0 
L 54.296875 0 
L 16.703125 56.25 
L 16.703125 0 
z
" id="ArialMT-78"/>
      <path d="M 40.578125 0 
L 40.578125 7.625 
Q 34.515625 -1.171875 24.125 -1.171875 
Q 19.53125 -1.171875 15.546875 0.578125 
Q 11.578125 2.34375 9.640625 5 
Q 7.71875 7.671875 6.9375 11.53125 
Q 6.390625 14.109375 6.390625 19.734375 
L 6.390625 51.859375 
L 15.1875 51.859375 
L 15.1875 23.09375 
Q 15.1875 16.21875 15.71875 13.8125 
Q 16.546875 10.359375 19.234375 8.375 
Q 21.921875 6.390625 25.875 6.390625 
Q 29.828125 6.390625 33.296875 8.421875 
Q 36.765625 10.453125 38.203125 13.9375 
Q 39.65625 17.4375 39.65625 24.078125 
L 39.65625 51.859375 
L 48.4375 51.859375 
L 48.4375 0 
z
" id="ArialMT-117"/>
      <path d="M 6.59375 0 
L 6.59375 51.859375 
L 14.453125 51.859375 
L 14.453125 44.578125 
Q 16.890625 48.390625 20.9375 50.703125 
Q 25 53.03125 30.171875 53.03125 
Q 35.9375 53.03125 39.625 50.640625 
Q 43.3125 48.25 44.828125 43.953125 
Q 50.984375 53.03125 60.84375 53.03125 
Q 68.5625 53.03125 72.703125 48.75 
Q 76.859375 44.484375 76.859375 35.59375 
L 76.859375 0 
L 68.109375 0 
L 68.109375 32.671875 
Q 68.109375 37.9375 67.25 40.25 
Q 66.40625 42.578125 64.15625 43.984375 
Q 61.921875 45.40625 58.890625 45.40625 
Q 53.421875 45.40625 49.796875 41.765625 
Q 46.1875 38.140625 46.1875 30.125 
L 46.1875 0 
L 37.40625 0 
L 37.40625 33.6875 
Q 37.40625 39.546875 35.25 42.46875 
Q 33.109375 45.40625 28.21875 45.40625 
Q 24.515625 45.40625 21.359375 43.453125 
Q 18.21875 41.5 16.796875 37.734375 
Q 15.375 33.984375 15.375 26.90625 
L 15.375 0 
z
" id="ArialMT-109"/>
      <path d="M 14.703125 0 
L 6.546875 0 
L 6.546875 71.578125 
L 15.328125 71.578125 
L 15.328125 46.046875 
Q 20.90625 53.03125 29.546875 53.03125 
Q 34.328125 53.03125 38.59375 51.09375 
Q 42.875 49.171875 45.625 45.671875 
Q 48.390625 42.1875 49.953125 37.25 
Q 51.515625 32.328125 51.515625 26.703125 
Q 51.515625 13.375 44.921875 6.09375 
Q 38.328125 -1.171875 29.109375 -1.171875 
Q 19.921875 -1.171875 14.703125 6.5 
z
M 14.59375 26.3125 
Q 14.59375 17 17.140625 12.84375 
Q 21.296875 6.0625 28.375 6.0625 
Q 34.125 6.0625 38.328125 11.0625 
Q 42.53125 16.0625 42.53125 25.984375 
Q 42.53125 36.140625 38.5 40.96875 
Q 34.46875 45.796875 28.765625 45.796875 
Q 23 45.796875 18.796875 40.796875 
Q 14.59375 35.796875 14.59375 26.3125 
z
" id="ArialMT-98"/>
      <path d="M 42.09375 16.703125 
L 51.171875 15.578125 
Q 49.03125 7.625 43.21875 3.21875 
Q 37.40625 -1.171875 28.375 -1.171875 
Q 17 -1.171875 10.328125 5.828125 
Q 3.65625 12.84375 3.65625 25.484375 
Q 3.65625 38.578125 10.390625 45.796875 
Q 17.140625 53.03125 27.875 53.03125 
Q 38.28125 53.03125 44.875 45.953125 
Q 51.46875 38.875 51.46875 26.03125 
Q 51.46875 25.25 51.421875 23.6875 
L 12.75 23.6875 
Q 13.234375 15.140625 17.578125 10.59375 
Q 21.921875 6.0625 28.421875 6.0625 
Q 33.25 6.0625 36.671875 8.59375 
Q 40.09375 11.140625 42.09375 16.703125 
z
M 13.234375 30.90625 
L 42.1875 30.90625 
Q 41.609375 37.453125 38.875 40.71875 
Q 34.671875 45.796875 27.984375 45.796875 
Q 21.921875 45.796875 17.796875 41.75 
Q 13.671875 37.703125 13.234375 30.90625 
z
" id="ArialMT-101"/>
      <path d="M 6.5 0 
L 6.5 51.859375 
L 14.40625 51.859375 
L 14.40625 44 
Q 17.4375 49.515625 20 51.265625 
Q 22.5625 53.03125 25.640625 53.03125 
Q 30.078125 53.03125 34.671875 50.203125 
L 31.640625 42.046875 
Q 28.421875 43.953125 25.203125 43.953125 
Q 22.3125 43.953125 20.015625 42.21875 
Q 17.71875 40.484375 16.75 37.40625 
Q 15.28125 32.71875 15.28125 27.15625 
L 15.28125 0 
z
" id="ArialMT-114"/>
      <path id="ArialMT-32"/>
      <path d="M 3.328125 25.921875 
Q 3.328125 40.328125 11.328125 47.265625 
Q 18.015625 53.03125 27.640625 53.03125 
Q 38.328125 53.03125 45.109375 46.015625 
Q 51.90625 39.015625 51.90625 26.65625 
Q 51.90625 16.65625 48.90625 10.90625 
Q 45.90625 5.171875 40.15625 2 
Q 34.421875 -1.171875 27.640625 -1.171875 
Q 16.75 -1.171875 10.03125 5.8125 
Q 3.328125 12.796875 3.328125 25.921875 
z
M 12.359375 25.921875 
Q 12.359375 15.96875 16.703125 11.015625 
Q 21.046875 6.0625 27.640625 6.0625 
Q 34.1875 6.0625 38.53125 11.03125 
Q 42.875 16.015625 42.875 26.21875 
Q 42.875 35.84375 38.5 40.796875 
Q 34.125 45.75 27.640625 45.75 
Q 21.046875 45.75 16.703125 40.8125 
Q 12.359375 35.890625 12.359375 25.921875 
z
" id="ArialMT-111"/>
      <path d="M 8.6875 0 
L 8.6875 45.015625 
L 0.921875 45.015625 
L 0.921875 51.859375 
L 8.6875 51.859375 
L 8.6875 57.375 
Q 8.6875 62.59375 9.625 65.140625 
Q 10.890625 68.5625 14.078125 70.671875 
Q 17.28125 72.796875 23.046875 72.796875 
Q 26.765625 72.796875 31.25 71.921875 
L 29.9375 64.265625 
Q 27.203125 64.75 24.75 64.75 
Q 20.75 64.75 19.09375 63.03125 
Q 17.4375 61.328125 17.4375 56.640625 
L 17.4375 51.859375 
L 27.546875 51.859375 
L 27.546875 45.015625 
L 17.4375 45.015625 
L 17.4375 0 
z
" id="ArialMT-102"/>
      <path d="M 40.4375 6.390625 
Q 35.546875 2.25 31.03125 0.53125 
Q 26.515625 -1.171875 21.34375 -1.171875 
Q 12.796875 -1.171875 8.203125 3 
Q 3.609375 7.171875 3.609375 13.671875 
Q 3.609375 17.484375 5.34375 20.625 
Q 7.078125 23.78125 9.890625 25.6875 
Q 12.703125 27.59375 16.21875 28.5625 
Q 18.796875 29.25 24.03125 29.890625 
Q 34.671875 31.15625 39.703125 32.90625 
Q 39.75 34.71875 39.75 35.203125 
Q 39.75 40.578125 37.25 42.78125 
Q 33.890625 45.75 27.25 45.75 
Q 21.046875 45.75 18.09375 43.578125 
Q 15.140625 41.40625 13.71875 35.890625 
L 5.125 37.0625 
Q 6.296875 42.578125 8.984375 45.96875 
Q 11.671875 49.359375 16.75 51.1875 
Q 21.828125 53.03125 28.515625 53.03125 
Q 35.15625 53.03125 39.296875 51.46875 
Q 43.453125 49.90625 45.40625 47.53125 
Q 47.359375 45.171875 48.140625 41.546875 
Q 48.578125 39.3125 48.578125 33.453125 
L 48.578125 21.734375 
Q 48.578125 9.46875 49.140625 6.21875 
Q 49.703125 2.984375 51.375 0 
L 42.1875 0 
Q 40.828125 2.734375 40.4375 6.390625 
z
M 39.703125 26.03125 
Q 34.90625 24.078125 25.34375 22.703125 
Q 19.921875 21.921875 17.671875 20.9375 
Q 15.4375 19.96875 14.203125 18.09375 
Q 12.984375 16.21875 12.984375 13.921875 
Q 12.984375 10.40625 15.640625 8.0625 
Q 18.3125 5.71875 23.4375 5.71875 
Q 28.515625 5.71875 32.46875 7.9375 
Q 36.421875 10.15625 38.28125 14.015625 
Q 39.703125 17 39.703125 22.796875 
z
" id="ArialMT-97"/>
      <path d="M 25.78125 7.859375 
L 27.046875 0.09375 
Q 23.34375 -0.6875 20.40625 -0.6875 
Q 15.625 -0.6875 12.984375 0.828125 
Q 10.359375 2.34375 9.28125 4.8125 
Q 8.203125 7.28125 8.203125 15.1875 
L 8.203125 45.015625 
L 1.765625 45.015625 
L 1.765625 51.859375 
L 8.203125 51.859375 
L 8.203125 64.703125 
L 16.9375 69.96875 
L 16.9375 51.859375 
L 25.78125 51.859375 
L 25.78125 45.015625 
L 16.9375 45.015625 
L 16.9375 14.703125 
Q 16.9375 10.9375 17.40625 9.859375 
Q 17.875 8.796875 18.921875 8.15625 
Q 19.96875 7.515625 21.921875 7.515625 
Q 23.390625 7.515625 25.78125 7.859375 
z
" id="ArialMT-116"/>
      <path d="M 40.4375 19 
L 49.078125 17.875 
Q 47.65625 8.9375 41.8125 3.875 
Q 35.984375 -1.171875 27.484375 -1.171875 
Q 16.84375 -1.171875 10.375 5.78125 
Q 3.90625 12.75 3.90625 25.734375 
Q 3.90625 34.125 6.6875 40.421875 
Q 9.46875 46.734375 15.15625 49.875 
Q 20.84375 53.03125 27.546875 53.03125 
Q 35.984375 53.03125 41.359375 48.75 
Q 46.734375 44.484375 48.25 36.625 
L 39.703125 35.296875 
Q 38.484375 40.53125 35.375 43.15625 
Q 32.28125 45.796875 27.875 45.796875 
Q 21.234375 45.796875 17.078125 41.03125 
Q 12.9375 36.28125 12.9375 25.984375 
Q 12.9375 15.53125 16.9375 10.796875 
Q 20.953125 6.0625 27.390625 6.0625 
Q 32.5625 6.0625 36.03125 9.234375 
Q 39.5 12.40625 40.4375 19 
z
" id="ArialMT-99"/>
      <path d="M 6.640625 0 
L 6.640625 71.578125 
L 15.4375 71.578125 
L 15.4375 30.765625 
L 36.234375 51.859375 
L 47.609375 51.859375 
L 27.78125 32.625 
L 49.609375 0 
L 38.765625 0 
L 21.625 26.515625 
L 15.4375 20.5625 
L 15.4375 0 
z
" id="ArialMT-107"/>
      <path d="M 6.59375 0 
L 6.59375 71.578125 
L 15.375 71.578125 
L 15.375 45.90625 
Q 21.53125 53.03125 30.90625 53.03125 
Q 36.671875 53.03125 40.921875 50.75 
Q 45.171875 48.484375 47 44.484375 
Q 48.828125 40.484375 48.828125 32.859375 
L 48.828125 0 
L 40.046875 0 
L 40.046875 32.859375 
Q 40.046875 39.453125 37.1875 42.453125 
Q 34.328125 45.453125 29.109375 45.453125 
Q 25.203125 45.453125 21.75 43.421875 
Q 18.3125 41.40625 16.84375 37.9375 
Q 15.375 34.46875 15.375 28.375 
L 15.375 0 
z
" id="ArialMT-104"/>
      <path d="M 6.59375 0 
L 6.59375 51.859375 
L 14.5 51.859375 
L 14.5 44.484375 
Q 20.21875 53.03125 31 53.03125 
Q 35.6875 53.03125 39.625 51.34375 
Q 43.5625 49.65625 45.515625 46.921875 
Q 47.46875 44.1875 48.25 40.4375 
Q 48.734375 37.984375 48.734375 31.890625 
L 48.734375 0 
L 39.9375 0 
L 39.9375 31.546875 
Q 39.9375 36.921875 38.90625 39.578125 
Q 37.890625 42.234375 35.28125 43.8125 
Q 32.671875 45.40625 29.15625 45.40625 
Q 23.53125 45.40625 19.453125 41.84375 
Q 15.375 38.28125 15.375 28.328125 
L 15.375 0 
z
" id="ArialMT-110"/>
      <path d="M 6.390625 0 
L 6.390625 71.578125 
L 15.1875 71.578125 
L 15.1875 0 
z
" id="ArialMT-108"/>
      <path d="M 3.078125 15.484375 
L 11.765625 16.84375 
Q 12.5 11.625 15.84375 8.84375 
Q 19.1875 6.0625 25.203125 6.0625 
Q 31.25 6.0625 34.171875 8.515625 
Q 37.109375 10.984375 37.109375 14.3125 
Q 37.109375 17.28125 34.515625 19 
Q 32.71875 20.171875 25.53125 21.96875 
Q 15.875 24.421875 12.140625 26.203125 
Q 8.40625 27.984375 6.46875 31.125 
Q 4.546875 34.28125 4.546875 38.09375 
Q 4.546875 41.546875 6.125 44.5 
Q 7.71875 47.46875 10.453125 49.421875 
Q 12.5 50.921875 16.03125 51.96875 
Q 19.578125 53.03125 23.640625 53.03125 
Q 29.734375 53.03125 34.34375 51.265625 
Q 38.96875 49.515625 41.15625 46.5 
Q 43.359375 43.5 44.1875 38.484375 
L 35.59375 37.3125 
Q 35.015625 41.3125 32.203125 43.546875 
Q 29.390625 45.796875 24.265625 45.796875 
Q 18.21875 45.796875 15.625 43.796875 
Q 13.03125 41.796875 13.03125 39.109375 
Q 13.03125 37.40625 14.109375 36.03125 
Q 15.1875 34.625 17.484375 33.6875 
Q 18.796875 33.203125 25.25 31.453125 
Q 34.578125 28.953125 38.25 27.359375 
Q 41.9375 25.78125 44.03125 22.75 
Q 46.140625 19.734375 46.140625 15.234375 
Q 46.140625 10.84375 43.578125 6.953125 
Q 41.015625 3.078125 36.171875 0.953125 
Q 31.34375 -1.171875 25.25 -1.171875 
Q 15.140625 -1.171875 9.84375 3.03125 
Q 4.546875 7.234375 3.078125 15.484375 
z
" id="ArialMT-115"/>
     </defs>
     <g style="fill:#262626;" transform="translate(132.751953 307.608562)scale(0.15 -0.15)">
      <use xlink:href="#ArialMT-78"/>
      <use x="72.216797" xlink:href="#ArialMT-117"/>
      <use x="127.832031" xlink:href="#ArialMT-109"/>
      <use x="211.132812" xlink:href="#ArialMT-98"/>
      <use x="266.748047" xlink:href="#ArialMT-101"/>
      <use x="322.363281" xlink:href="#ArialMT-114"/>
      <use x="355.664062" xlink:href="#ArialMT-32"/>
      <use x="383.447266" xlink:href="#ArialMT-111"/>
      <use x="439.0625" xlink:href="#ArialMT-102"/>
      <use x="466.845703" xlink:href="#ArialMT-32"/>
      <use x="494.628906" xlink:href="#ArialMT-97"/>
      <use x="550.244141" xlink:href="#ArialMT-116"/>
      <use x="578.027344" xlink:href="#ArialMT-116"/>
      <use x="605.810547" xlink:href="#ArialMT-97"/>
      <use x="661.425781" xlink:href="#ArialMT-99"/>
      <use x="711.425781" xlink:href="#ArialMT-107"/>
      <use x="761.425781" xlink:href="#ArialMT-101"/>
      <use x="817.041016" xlink:href="#ArialMT-114"/>
      <use x="850.341797" xlink:href="#ArialMT-32"/>
      <use x="878.125" xlink:href="#ArialMT-99"/>
      <use x="928.125" xlink:href="#ArialMT-104"/>
      <use x="983.740234" xlink:href="#ArialMT-97"/>
      <use x="1039.355469" xlink:href="#ArialMT-110"/>
      <use x="1094.970703" xlink:href="#ArialMT-110"/>
      <use x="1150.585938" xlink:href="#ArialMT-101"/>
      <use x="1206.201172" xlink:href="#ArialMT-108"/>
      <use x="1228.417969" xlink:href="#ArialMT-115"/>
     </g>
    </g>
   </g>
   <g id="matplotlib.axis_2">
    <g id="ytick_1">
     <g id="line2d_9">
      <path clip-path="url(#p61ce4d47ae)" d="M 50.066563 263.456 
L 407.186563 263.456 
" style="fill:none;stroke:#cccccc;stroke-linecap:round;"/>
     </g>
     <g id="text_10">
      <!-- 0.0 -->
      <defs>
       <path d="M 9.078125 0 
L 9.078125 10.015625 
L 19.09375 10.015625 
L 19.09375 0 
z
" id="ArialMT-46"/>
      </defs>
      <g style="fill:#262626;" transform="translate(25.276563 267.392797)scale(0.11 -0.11)">
       <use xlink:href="#ArialMT-48"/>
       <use x="55.615234" xlink:href="#ArialMT-46"/>
       <use x="83.398438" xlink:href="#ArialMT-48"/>
      </g>
     </g>
    </g>
    <g id="ytick_2">
     <g id="line2d_10">
      <path clip-path="url(#p61ce4d47ae)" d="M 50.066563 214.176 
L 407.186563 214.176 
" style="fill:none;stroke:#cccccc;stroke-linecap:round;"/>
     </g>
     <g id="text_11">
      <!-- 0.2 -->
      <g style="fill:#262626;" transform="translate(25.276563 218.112797)scale(0.11 -0.11)">
       <use xlink:href="#ArialMT-48"/>
       <use x="55.615234" xlink:href="#ArialMT-46"/>
       <use x="83.398438" xlink:href="#ArialMT-50"/>
      </g>
     </g>
    </g>
    <g id="ytick_3">
     <g id="line2d_11">
      <path clip-path="url(#p61ce4d47ae)" d="M 50.066563 164.896 
L 407.186563 164.896 
" style="fill:none;stroke:#cccccc;stroke-linecap:round;"/>
     </g>
     <g id="text_12">
      <!-- 0.4 -->
      <g style="fill:#262626;" transform="translate(25.276563 168.832797)scale(0.11 -0.11)">
       <use xlink:href="#ArialMT-48"/>
       <use x="55.615234" xlink:href="#ArialMT-46"/>
       <use x="83.398438" xlink:href="#ArialMT-52"/>
      </g>
     </g>
    </g>
    <g id="ytick_4">
     <g id="line2d_12">
      <path clip-path="url(#p61ce4d47ae)" d="M 50.066563 115.616 
L 407.186563 115.616 
" style="fill:none;stroke:#cccccc;stroke-linecap:round;"/>
     </g>
     <g id="text_13">
      <!-- 0.6 -->
      <g style="fill:#262626;" transform="translate(25.276563 119.552797)scale(0.11 -0.11)">
       <use xlink:href="#ArialMT-48"/>
       <use x="55.615234" xlink:href="#ArialMT-46"/>
       <use x="83.398438" xlink:href="#ArialMT-54"/>
      </g>
     </g>
    </g>
    <g id="ytick_5">
     <g id="line2d_13">
      <path clip-path="url(#p61ce4d47ae)" d="M 50.066563 66.336 
L 407.186563 66.336 
" style="fill:none;stroke:#cccccc;stroke-linecap:round;"/>
     </g>
     <g id="text_14">
      <!-- 0.8 -->
      <g style="fill:#262626;" transform="translate(25.276563 70.272797)scale(0.11 -0.11)">
       <use xlink:href="#ArialMT-48"/>
       <use x="55.615234" xlink:href="#ArialMT-46"/>
       <use x="83.398438" xlink:href="#ArialMT-56"/>
      </g>
     </g>
    </g>
    <g id="ytick_6">
     <g id="line2d_14">
      <path clip-path="url(#p61ce4d47ae)" d="M 50.066563 17.056 
L 407.186563 17.056 
" style="fill:none;stroke:#cccccc;stroke-linecap:round;"/>
     </g>
     <g id="text_15">
      <!-- 1.0 -->
      <g style="fill:#262626;" transform="translate(25.276563 20.992797)scale(0.11 -0.11)">
       <use xlink:href="#ArialMT-49"/>
       <use x="55.615234" xlink:href="#ArialMT-46"/>
       <use x="83.398438" xlink:href="#ArialMT-48"/>
      </g>
     </g>
    </g>
    <g id="text_16">
     <!-- Fraction of attacked capacity -->
     <defs>
      <path d="M 8.203125 0 
L 8.203125 71.578125 
L 56.5 71.578125 
L 56.5 63.140625 
L 17.671875 63.140625 
L 17.671875 40.96875 
L 51.265625 40.96875 
L 51.265625 32.515625 
L 17.671875 32.515625 
L 17.671875 0 
z
" id="ArialMT-70"/>
      <path d="M 6.640625 61.46875 
L 6.640625 71.578125 
L 15.4375 71.578125 
L 15.4375 61.46875 
z
M 6.640625 0 
L 6.640625 51.859375 
L 15.4375 51.859375 
L 15.4375 0 
z
" id="ArialMT-105"/>
      <path d="M 40.234375 0 
L 40.234375 6.546875 
Q 35.296875 -1.171875 25.734375 -1.171875 
Q 19.53125 -1.171875 14.328125 2.25 
Q 9.125 5.671875 6.265625 11.796875 
Q 3.421875 17.921875 3.421875 25.875 
Q 3.421875 33.640625 6 39.96875 
Q 8.59375 46.296875 13.765625 49.65625 
Q 18.953125 53.03125 25.34375 53.03125 
Q 30.03125 53.03125 33.6875 51.046875 
Q 37.359375 49.078125 39.65625 45.90625 
L 39.65625 71.578125 
L 48.390625 71.578125 
L 48.390625 0 
z
M 12.453125 25.875 
Q 12.453125 15.921875 16.640625 10.984375 
Q 20.84375 6.0625 26.5625 6.0625 
Q 32.328125 6.0625 36.34375 10.765625 
Q 40.375 15.484375 40.375 25.140625 
Q 40.375 35.796875 36.265625 40.765625 
Q 32.171875 45.75 26.171875 45.75 
Q 20.3125 45.75 16.375 40.96875 
Q 12.453125 36.1875 12.453125 25.875 
z
" id="ArialMT-100"/>
      <path d="M 6.59375 -19.875 
L 6.59375 51.859375 
L 14.59375 51.859375 
L 14.59375 45.125 
Q 17.4375 49.078125 21 51.046875 
Q 24.5625 53.03125 29.640625 53.03125 
Q 36.28125 53.03125 41.359375 49.609375 
Q 46.4375 46.1875 49.015625 39.953125 
Q 51.609375 33.734375 51.609375 26.3125 
Q 51.609375 18.359375 48.75 11.984375 
Q 45.90625 5.609375 40.453125 2.21875 
Q 35.015625 -1.171875 29 -1.171875 
Q 24.609375 -1.171875 21.109375 0.6875 
Q 17.625 2.546875 15.375 5.375 
L 15.375 -19.875 
z
M 14.546875 25.640625 
Q 14.546875 15.625 18.59375 10.84375 
Q 22.65625 6.0625 28.421875 6.0625 
Q 34.28125 6.0625 38.453125 11.015625 
Q 42.625 15.96875 42.625 26.375 
Q 42.625 36.28125 38.546875 41.203125 
Q 34.46875 46.140625 28.8125 46.140625 
Q 23.1875 46.140625 18.859375 40.890625 
Q 14.546875 35.640625 14.546875 25.640625 
z
" id="ArialMT-112"/>
      <path d="M 6.203125 -19.96875 
L 5.21875 -11.71875 
Q 8.109375 -12.5 10.25 -12.5 
Q 13.1875 -12.5 14.9375 -11.515625 
Q 16.703125 -10.546875 17.828125 -8.796875 
Q 18.65625 -7.46875 20.515625 -2.25 
Q 20.75 -1.515625 21.296875 -0.09375 
L 1.609375 51.859375 
L 11.078125 51.859375 
L 21.875 21.828125 
Q 23.96875 16.109375 25.640625 9.8125 
Q 27.15625 15.875 29.25 21.625 
L 40.328125 51.859375 
L 49.125 51.859375 
L 29.390625 -0.875 
Q 26.21875 -9.421875 24.46875 -12.640625 
Q 22.125 -17 19.09375 -19.015625 
Q 16.0625 -21.046875 11.859375 -21.046875 
Q 9.328125 -21.046875 6.203125 -19.96875 
z
" id="ArialMT-121"/>
     </defs>
     <g style="fill:#262626;" transform="translate(18.119531 235.713422)rotate(-90)scale(0.15 -0.15)">
      <use xlink:href="#ArialMT-70"/>
      <use x="61.083984" xlink:href="#ArialMT-114"/>
      <use x="94.384766" xlink:href="#ArialMT-97"/>
      <use x="150" xlink:href="#ArialMT-99"/>
      <use x="200" xlink:href="#ArialMT-116"/>
      <use x="227.783203" xlink:href="#ArialMT-105"/>
      <use x="250" xlink:href="#ArialMT-111"/>
      <use x="305.615234" xlink:href="#ArialMT-110"/>
      <use x="361.230469" xlink:href="#ArialMT-32"/>
      <use x="389.013672" xlink:href="#ArialMT-111"/>
      <use x="444.628906" xlink:href="#ArialMT-102"/>
      <use x="472.412109" xlink:href="#ArialMT-32"/>
      <use x="500.195312" xlink:href="#ArialMT-97"/>
      <use x="555.810547" xlink:href="#ArialMT-116"/>
      <use x="583.59375" xlink:href="#ArialMT-116"/>
      <use x="611.376953" xlink:href="#ArialMT-97"/>
      <use x="666.992188" xlink:href="#ArialMT-99"/>
      <use x="716.992188" xlink:href="#ArialMT-107"/>
      <use x="766.992188" xlink:href="#ArialMT-101"/>
      <use x="822.607422" xlink:href="#ArialMT-100"/>
      <use x="878.222656" xlink:href="#ArialMT-32"/>
      <use x="906.005859" xlink:href="#ArialMT-99"/>
      <use x="956.005859" xlink:href="#ArialMT-97"/>
      <use x="1011.621094" xlink:href="#ArialMT-112"/>
      <use x="1067.236328" xlink:href="#ArialMT-97"/>
      <use x="1122.851562" xlink:href="#ArialMT-99"/>
      <use x="1172.851562" xlink:href="#ArialMT-105"/>
      <use x="1195.068359" xlink:href="#ArialMT-116"/>
      <use x="1222.851562" xlink:href="#ArialMT-121"/>
     </g>
    </g>
   </g>
   <g id="patch_3">
    <path clip-path="url(#p61ce4d47ae)" d="M 360.807342 35.536 
L 366.604744 35.536 
L 366.604744 28.6368 
L 360.807342 28.6368 
L 360.807342 35.536 
z
" style="fill:none;stroke:#808080;stroke-linejoin:miter;"/>
   </g>
   <g id="line2d_15">
    <path clip-path="url(#p61ce4d47ae)" d="M 59.342407 261.987333 
L 61.197575 256.459737 
L 63.516537 250.351193 
L 66.763082 242.226851 
L 69.545835 235.69782 
L 72.328588 229.740451 
L 74.64755 225.139788 
L 80.676848 213.675781 
L 87.633731 201.12414 
L 94.126822 190.136373 
L 98.764744 182.664545 
L 102.938874 176.24041 
L 108.040588 169.05301 
L 112.214718 163.690941 
L 117.316433 157.581939 
L 124.737108 149.341384 
L 134.940537 138.794315 
L 143.288796 130.542718 
L 151.173264 123.078883 
L 156.274978 118.514888 
L 162.768069 113.004226 
L 171.116329 106.220031 
L 176.681835 101.977552 
L 182.711134 97.742703 
L 188.27664 94.11916 
L 194.305939 90.492279 
L 198.480069 88.218421 
L 205.900744 84.479808 
L 215.176588 80.166674 
L 221.205887 77.561936 
L 229.090355 74.403233 
L 237.902407 71.139077 
L 244.85929 68.863594 
L 255.062718 65.713233 
L 265.729939 62.683294 
L 274.541991 60.436846 
L 287.064381 57.540276 
L 300.978147 54.588803 
L 315.819498 51.662034 
L 329.733264 49.144128 
L 344.574614 46.644513 
L 359.879757 44.313241 
L 376.112485 42.050368 
L 393.272796 39.885689 
L 412.752069 37.680198 
L 415.386562 37.395897 
L 415.386562 37.395897 
" style="fill:none;stroke:#4c72b0;stroke-linecap:round;stroke-width:1.5;"/>
   </g>
   <g id="line2d_16">
    <path clip-path="url(#p61ce4d47ae)" d="M 59.342407 260.55484 
L 78.821679 215.838462 
L 84.850978 202.694035 
L 88.561316 195.043566 
L 93.199238 186.012526 
L 97.83716 177.411556 
L 101.547498 170.993982 
L 105.257835 165.124757 
L 109.895757 158.303392 
L 114.533679 151.841911 
L 120.099186 144.44813 
L 124.273316 139.243554 
L 131.693991 130.419607 
L 136.795705 124.68096 
L 142.361212 118.727873 
L 146.07155 115.012137 
L 149.781887 111.582908 
L 157.202562 105.135767 
L 162.768069 100.570744 
L 169.724952 95.217653 
L 175.290459 91.216506 
L 181.319757 87.225539 
L 187.349056 83.453839 
L 194.305939 79.367278 
L 200.79903 75.82102 
L 208.219705 72.0252 
L 214.249004 69.262108 
L 220.742095 66.514556 
L 228.16277 63.604497 
L 235.583446 60.916145 
L 243.931705 58.126557 
L 251.816173 55.68689 
L 262.947186 52.471459 
L 273.150614 49.800709 
L 283.817835 47.283666 
L 294.485056 44.990378 
L 306.079861 42.773114 
L 318.602251 40.597085 
L 332.052225 38.514881 
L 344.574614 36.761476 
L 361.271134 34.66249 
L 376.576277 32.972704 
L 396.05555 31.043021 
L 415.386562 29.342752 
L 415.386562 29.342752 
" style="fill:none;stroke:#dd8452;stroke-linecap:round;stroke-width:1.5;"/>
   </g>
   <g id="line2d_17">
    <path clip-path="url(#p61ce4d47ae)" d="M 59.342407 260.401052 
L 77.430303 218.058018 
L 84.387186 202.585116 
L 88.561316 193.717037 
L 94.126822 182.422482 
L 100.156121 170.767116 
L 103.402666 164.972144 
L 108.040588 157.186671 
L 111.287134 152.07604 
L 114.069887 148.007133 
L 119.171601 140.994957 
L 123.809524 135.003335 
L 130.766407 126.55605 
L 135.868121 120.670085 
L 140.042251 116.172582 
L 143.752588 112.497711 
L 148.854303 107.841431 
L 154.419809 103.077818 
L 161.840485 97.024578 
L 167.405991 92.725336 
L 172.971498 88.713495 
L 178.537004 84.980182 
L 185.030095 80.969767 
L 191.986978 76.941392 
L 197.552485 73.982552 
L 207.292121 69.075056 
L 213.32142 66.310669 
L 219.350718 63.790823 
L 227.235186 60.810543 
L 235.583446 57.90823 
L 244.395498 55.159283 
L 254.598926 52.27247 
L 263.87477 49.866598 
L 274.541991 47.397892 
L 287.528173 44.659565 
L 299.58677 42.367436 
L 313.500537 39.948203 
L 323.703965 38.362858 
L 339.936692 36.130089 
L 355.705627 34.163926 
L 375.1849 31.977444 
L 393.272796 30.213941 
L 411.824485 28.653384 
L 415.386562 28.375642 
L 415.386562 28.375642 
" style="fill:none;stroke:#55a868;stroke-linecap:round;stroke-width:1.5;"/>
   </g>
   <g id="line2d_18">
    <path clip-path="url(#p61ce4d47ae)" d="M 59.342407 260.987599 
L 80.213056 212.266672 
L 85.778563 199.987342 
L 91.807861 187.318795 
L 96.445783 177.994659 
L 100.619913 170.1917 
L 105.257835 162.112181 
L 108.504381 156.904895 
L 112.678511 150.74529 
L 117.316433 144.33766 
L 120.562978 140.11794 
L 126.592277 132.633121 
L 131.693991 126.682457 
L 137.259498 120.464714 
L 142.361212 115.090847 
L 146.535342 110.974531 
L 150.709472 107.095572 
L 155.347394 103.10184 
L 162.304277 97.40378 
L 167.405991 93.49784 
L 173.43529 89.155816 
L 179.464588 85.253702 
L 187.349056 80.437672 
L 195.697316 75.616085 
L 201.726614 72.409753 
L 209.611082 68.537979 
L 215.640381 65.785782 
L 223.061056 62.670019 
L 230.017939 59.965222 
L 236.974822 57.49194 
L 246.714459 54.280178 
L 255.526511 51.597111 
L 263.87477 49.293714 
L 271.759238 47.360202 
L 281.498874 45.161489 
L 291.702303 43.104629 
L 305.616069 40.535542 
L 316.28329 38.762256 
L 326.486718 37.260402 
L 341.791861 35.251054 
L 357.560796 33.380071 
L 374.257316 31.602756 
L 393.736588 29.774601 
L 411.824485 28.321403 
L 415.386562 28.061562 
L 415.386562 28.061562 
" style="fill:none;stroke:#c44e52;stroke-linecap:round;stroke-width:1.5;"/>
   </g>
   <g id="line2d_19">
    <path clip-path="url(#p61ce4d47ae)" d="M 59.342407 260.383181 
L 82.995809 208.164728 
L 89.952692 193.447432 
L 95.981991 181.212855 
L 100.156121 173.162192 
L 105.257835 163.865394 
L 109.431965 156.732321 
L 113.142303 150.814874 
L 116.85264 145.409217 
L 120.099186 141.006861 
L 123.809524 136.397354 
L 130.302614 128.713858 
L 135.868121 122.383127 
L 141.433627 116.45003 
L 146.07155 111.837411 
L 151.637056 106.722564 
L 155.811186 103.138851 
L 161.840485 98.321629 
L 168.797368 93.05463 
L 173.899082 89.42077 
L 179.464588 85.748262 
L 187.812848 80.57964 
L 194.305939 76.786123 
L 200.335238 73.467809 
L 208.683498 69.208319 
L 216.104173 65.679442 
L 222.597264 62.83734 
L 229.554147 60.068435 
L 235.583446 57.880804 
L 243.467913 55.210901 
L 252.279965 52.473377 
L 260.628225 50.10703 
L 268.976485 47.96209 
L 279.643705 45.474555 
L 292.166095 42.823212 
L 304.688485 40.464852 
L 316.747082 38.427969 
L 329.733264 36.464998 
L 343.183238 34.696936 
L 362.198718 32.431314 
L 378.431446 30.717593 
L 396.983134 28.990671 
L 412.752069 27.737526 
L 415.386562 27.544208 
L 415.386562 27.544208 
" style="fill:none;stroke:#8172b3;stroke-linecap:round;stroke-width:1.5;"/>
   </g>
   <g id="line2d_20">
    <path clip-path="url(#p61ce4d47ae)" d="M 59.342407 256.689359 
L 60.733783 253.454203 
L 82.068225 206.753877 
L 89.025108 192.26166 
L 94.590614 181.166367 
L 99.692329 171.392083 
L 103.866459 163.865766 
L 107.113004 158.366995 
L 112.214718 150.226408 
L 115.925056 144.723087 
L 119.635394 139.58109 
L 124.273316 133.615741 
L 129.838822 126.908907 
L 135.868121 119.949368 
L 140.042251 115.46909 
L 145.143965 110.380782 
L 150.709472 105.12446 
L 156.274978 100.238295 
L 161.376692 96.031602 
L 167.405991 91.422851 
L 172.971498 87.537164 
L 179.464588 83.3207 
L 187.349056 78.447374 
L 195.233524 73.822788 
L 201.726614 70.298042 
L 207.292121 67.506404 
L 214.712796 63.996493 
L 222.133472 60.747155 
L 230.945524 57.140019 
L 238.366199 54.378476 
L 243.931705 52.56725 
L 251.352381 50.368005 
L 258.773056 48.428196 
L 271.295446 45.404668 
L 281.962666 43.07207 
L 292.166095 41.060446 
L 303.297108 39.084519 
L 316.28329 37.06044 
L 330.197056 35.187192 
L 347.82116 33.050288 
L 365.909056 31.071104 
L 384.924537 29.22552 
L 403.940017 27.63959 
L 415.386562 26.801879 
L 415.386562 26.801879 
" style="fill:none;stroke:#937860;stroke-linecap:round;stroke-width:1.5;"/>
   </g>
   <g id="line2d_21">
    <path clip-path="url(#p61ce4d47ae)" d="M 59.342407 253.293027 
L 59.806199 250.460457 
L 61.197575 246.513939 
L 63.516537 241.492701 
L 88.097524 189.23389 
L 94.590614 176.207743 
L 99.692329 166.484969 
L 104.794043 157.345509 
L 108.968173 150.256677 
L 112.678511 144.357064 
L 116.388848 138.997774 
L 119.635394 134.691875 
L 124.273316 128.99398 
L 130.302614 122.043677 
L 136.795705 114.96904 
L 141.433627 110.230851 
L 146.07155 105.810464 
L 149.318095 103.016369 
L 155.811186 97.8015 
L 161.376692 93.600714 
L 167.869783 89.035359 
L 172.971498 85.680347 
L 180.392173 81.091342 
L 188.740433 76.192667 
L 196.161108 72.065597 
L 202.190407 69.026772 
L 209.14729 65.841715 
L 217.031757 62.414087 
L 226.307601 58.61661 
L 232.3369 56.37556 
L 238.829991 54.189828 
L 247.178251 51.603442 
L 255.990303 49.097505 
L 265.729939 46.563893 
L 276.39716 44.035543 
L 287.991965 41.539643 
L 295.41264 40.122071 
L 307.007446 38.120324 
L 318.138459 36.405829 
L 330.660848 34.72308 
L 350.140121 32.350986 
L 368.228017 30.336048 
L 383.53316 28.834029 
L 399.765887 27.488048 
L 415.386562 26.372589 
L 415.386562 26.372589 
" style="fill:none;stroke:#da8bc3;stroke-linecap:round;stroke-width:1.5;"/>
   </g>
   <g id="line2d_22">
    <path clip-path="url(#p61ce4d47ae)" d="M 59.342407 251.929068 
L 59.806199 246.208277 
L 60.269991 243.513278 
L 61.197575 241.300298 
L 69.545835 224.418985 
L 87.633731 188.128401 
L 95.981991 172.048941 
L 101.083705 162.587459 
L 105.721627 154.380244 
L 110.35955 146.475256 
L 113.606095 141.378806 
L 116.85264 136.657394 
L 120.099186 132.323612 
L 123.809524 127.869511 
L 129.37503 121.626623 
L 134.940537 115.70438 
L 140.506043 110.092517 
L 146.07155 104.75795 
L 151.637056 99.684036 
L 155.347394 96.539988 
L 159.057731 93.5977 
L 165.550822 88.913905 
L 172.507705 84.27467 
L 176.681835 81.725318 
L 185.957679 76.321418 
L 195.233524 71.202502 
L 201.726614 67.866646 
L 208.219705 64.75048 
L 215.176588 61.675778 
L 222.597264 58.6116 
L 228.626563 56.326984 
L 235.583446 53.914105 
L 244.395498 51.135487 
L 250.888588 49.290519 
L 260.628225 46.798536 
L 271.295446 44.324814 
L 284.281627 41.53058 
L 296.804017 39.094852 
L 307.007446 37.367783 
L 318.602251 35.622422 
L 330.660848 34.058509 
L 351.531498 31.643684 
L 371.938355 29.48142 
L 392.809004 27.504115 
L 408.114147 26.256611 
L 415.386562 25.743233 
L 415.386562 25.743233 
" style="fill:none;stroke:#8c8c8c;stroke-linecap:round;stroke-width:1.5;"/>
   </g>
   <g id="line2d_23">
    <path clip-path="url(#p61ce4d47ae)" d="M 59.342407 255.664645 
L 60.269991 248.633834 
L 61.197575 246.177677 
L 89.4889 186.309978 
L 96.445783 172.319108 
L 102.475082 160.714026 
L 107.576796 151.475923 
L 111.750926 144.469714 
L 115.461264 138.668178 
L 118.244017 134.763655 
L 122.881939 128.645293 
L 125.664692 125.21964 
L 130.302614 119.79444 
L 135.404329 114.200532 
L 141.433627 107.930405 
L 146.999134 102.561703 
L 152.100848 98.000598 
L 156.73877 94.161131 
L 160.9129 91.002966 
L 166.478407 87.002161 
L 172.507705 82.94928 
L 179.000796 78.942466 
L 187.349056 74.067183 
L 194.769731 70.015892 
L 204.509368 64.949141 
L 210.074874 62.259044 
L 215.640381 59.755055 
L 221.669679 57.276074 
L 227.698978 55.055151 
L 233.728277 53.038609 
L 243.931705 49.848003 
L 253.20755 47.200086 
L 261.092017 45.201057 
L 272.686822 42.492115 
L 282.426459 40.417113 
L 294.021264 38.190856 
L 304.224692 36.461282 
L 313.964329 35.025933 
L 329.269472 33.037222 
L 347.357368 30.917831 
L 364.053887 29.174369 
L 380.286614 27.68332 
L 396.05555 26.470734 
L 415.386562 25.212615 
L 415.386562 25.212615 
" style="fill:none;stroke:#ccb974;stroke-linecap:round;stroke-width:1.5;"/>
   </g>
   <g id="line2d_24">
    <path clip-path="url(#p61ce4d47ae)" d="M 59.342407 256.800355 
L 60.269991 248.844399 
L 61.197575 243.537637 
L 62.588952 240.181466 
L 88.097524 190.534909 
L 95.518199 176.677503 
L 101.083705 166.748269 
L 107.576796 155.718989 
L 113.142303 146.820003 
L 116.85264 141.241763 
L 121.490563 134.729858 
L 125.2009 130.136256 
L 131.230199 123.231408 
L 136.331913 117.739068 
L 145.143965 108.758337 
L 150.245679 103.810763 
L 155.347394 99.263387 
L 159.057731 96.197927 
L 162.768069 93.383638 
L 168.797368 89.112548 
L 174.362874 85.525877 
L 180.392173 81.914952 
L 187.812848 77.696758 
L 196.6249 73.003087 
L 205.900744 68.30473 
L 213.785212 64.558822 
L 221.669679 61.055688 
L 228.16277 58.435395 
L 236.047238 55.512651 
L 242.540329 53.34792 
L 250.888588 50.760774 
L 259.70064 48.261926 
L 268.512692 45.978199 
L 278.252329 43.692638 
L 288.91955 41.433326 
L 300.978147 39.122899 
L 312.10916 37.21094 
L 322.776381 35.618179 
L 333.907394 34.174761 
L 350.603913 32.261251 
L 372.402147 29.949148 
L 390.953835 28.201948 
L 409.041731 26.746751 
L 415.386562 26.293522 
L 415.386562 26.293522 
" style="fill:none;stroke:#64b5cd;stroke-linecap:round;stroke-width:1.5;"/>
   </g>
   <g id="line2d_25">
    <path clip-path="url(#p61ce4d47ae)" d="M 59.342407 257.885287 
L 60.269991 247.76585 
L 61.197575 239.90467 
L 62.12516 236.005944 
L 62.588952 234.616762 
L 64.444121 231.131036 
L 69.545835 222.262464 
L 92.271653 183.229043 
L 101.083705 168.673671 
L 107.576796 158.355664 
L 114.533679 147.698416 
L 118.707809 141.579444 
L 122.418147 136.492014 
L 126.128485 131.747453 
L 130.302614 126.86309 
L 134.012952 122.818523 
L 139.578459 117.232168 
L 146.07155 111.018932 
L 154.419809 103.350371 
L 160.9129 97.647086 
L 165.550822 93.83744 
L 169.26116 91.057018 
L 175.754251 86.547786 
L 180.392173 83.617162 
L 185.957679 80.361345 
L 191.523186 77.371781 
L 200.335238 72.90288 
L 209.611082 68.408553 
L 218.423134 64.386527 
L 226.771394 60.846235 
L 234.655861 57.745668 
L 242.540329 54.860438 
L 249.03342 52.731491 
L 258.309264 49.994258 
L 268.512692 47.233892 
L 276.39716 45.271844 
L 287.064381 42.876084 
L 298.659186 40.514618 
L 311.645368 38.095623 
L 323.240173 36.157617 
L 336.690147 34.186686 
L 348.284952 32.726869 
L 362.198718 31.224709 
L 384.924537 29.004273 
L 404.403809 27.308466 
L 415.386562 26.459657 
L 415.386562 26.459657 
" style="fill:none;stroke:#4c72b0;stroke-linecap:round;stroke-width:1.5;"/>
   </g>
   <g id="patch_4">
    <path d="M 50.066563 273.312 
L 50.066563 7.2 
" style="fill:none;stroke:#cccccc;stroke-linecap:square;stroke-linejoin:miter;stroke-width:1.25;"/>
   </g>
   <g id="patch_5">
    <path d="M 407.186563 273.312 
L 407.186563 7.2 
" style="fill:none;stroke:#cccccc;stroke-linecap:square;stroke-linejoin:miter;stroke-width:1.25;"/>
   </g>
   <g id="patch_6">
    <path d="M 50.066563 273.312 
L 407.186563 273.312 
" style="fill:none;stroke:#cccccc;stroke-linecap:square;stroke-linejoin:miter;stroke-width:1.25;"/>
   </g>
   <g id="patch_7">
    <path d="M 50.066563 7.2 
L 407.186563 7.2 
" style="fill:none;stroke:#cccccc;stroke-linecap:square;stroke-linejoin:miter;stroke-width:1.25;"/>
   </g>
   <g id="legend_1">
    <g id="patch_8">
     <path d="M 300.334062 267.312 
L 398.786563 267.312 
Q 401.186562 267.312 401.186562 264.912 
L 401.186562 79.393875 
Q 401.186562 76.993875 398.786563 76.993875 
L 300.334062 76.993875 
Q 297.934062 76.993875 297.934062 79.393875 
L 297.934062 264.912 
Q 297.934062 267.312 300.334062 267.312 
z
" style="fill:#ffffff;opacity:0.8;stroke:#cccccc;stroke-linejoin:miter;"/>
    </g>
    <g id="line2d_26">
     <path d="M 302.734062 86.18325 
L 326.734062 86.18325 
" style="fill:none;stroke:#4c72b0;stroke-linecap:round;stroke-width:1.5;"/>
    </g>
    <g id="line2d_27"/>
    <g id="text_17">
     <!-- 09.03.2019 -->
     <defs>
      <path d="M 5.46875 16.546875 
L 13.921875 17.328125 
Q 14.984375 11.375 18.015625 8.6875 
Q 21.046875 6 25.78125 6 
Q 29.828125 6 32.875 7.859375 
Q 35.9375 9.71875 37.890625 12.8125 
Q 39.84375 15.921875 41.15625 21.1875 
Q 42.484375 26.46875 42.484375 31.9375 
Q 42.484375 32.515625 42.4375 33.6875 
Q 39.796875 29.5 35.234375 26.875 
Q 30.671875 24.265625 25.34375 24.265625 
Q 16.453125 24.265625 10.296875 30.703125 
Q 4.15625 37.15625 4.15625 47.703125 
Q 4.15625 58.59375 10.578125 65.234375 
Q 17 71.875 26.65625 71.875 
Q 33.640625 71.875 39.421875 68.109375 
Q 45.21875 64.359375 48.21875 57.390625 
Q 51.21875 50.4375 51.21875 37.25 
Q 51.21875 23.53125 48.234375 15.40625 
Q 45.265625 7.28125 39.375 3.03125 
Q 33.5 -1.21875 25.59375 -1.21875 
Q 17.1875 -1.21875 11.859375 3.4375 
Q 6.546875 8.109375 5.46875 16.546875 
z
M 41.453125 48.140625 
Q 41.453125 55.71875 37.421875 60.15625 
Q 33.40625 64.59375 27.734375 64.59375 
Q 21.875 64.59375 17.53125 59.8125 
Q 13.1875 55.03125 13.1875 47.40625 
Q 13.1875 40.578125 17.3125 36.296875 
Q 21.4375 32.03125 27.484375 32.03125 
Q 33.59375 32.03125 37.515625 36.296875 
Q 41.453125 40.578125 41.453125 48.140625 
z
" id="ArialMT-57"/>
      <path d="M 4.203125 18.890625 
L 12.984375 20.0625 
Q 14.5 12.59375 18.140625 9.296875 
Q 21.78125 6 27 6 
Q 33.203125 6 37.46875 10.296875 
Q 41.75 14.59375 41.75 20.953125 
Q 41.75 27 37.796875 30.921875 
Q 33.84375 34.859375 27.734375 34.859375 
Q 25.25 34.859375 21.53125 33.890625 
L 22.515625 41.609375 
Q 23.390625 41.5 23.921875 41.5 
Q 29.546875 41.5 34.03125 44.421875 
Q 38.53125 47.359375 38.53125 53.46875 
Q 38.53125 58.296875 35.25 61.46875 
Q 31.984375 64.65625 26.8125 64.65625 
Q 21.6875 64.65625 18.265625 61.421875 
Q 14.84375 58.203125 13.875 51.765625 
L 5.078125 53.328125 
Q 6.6875 62.15625 12.390625 67.015625 
Q 18.109375 71.875 26.609375 71.875 
Q 32.46875 71.875 37.390625 69.359375 
Q 42.328125 66.84375 44.9375 62.5 
Q 47.5625 58.15625 47.5625 53.265625 
Q 47.5625 48.640625 45.0625 44.828125 
Q 42.578125 41.015625 37.703125 38.765625 
Q 44.046875 37.3125 47.5625 32.6875 
Q 51.078125 28.078125 51.078125 21.140625 
Q 51.078125 11.765625 44.234375 5.25 
Q 37.40625 -1.265625 26.953125 -1.265625 
Q 17.53125 -1.265625 11.296875 4.34375 
Q 5.078125 9.96875 4.203125 18.890625 
z
" id="ArialMT-51"/>
     </defs>
     <g style="fill:#262626;" transform="translate(336.334063 90.38325)scale(0.12 -0.12)">
      <use xlink:href="#ArialMT-48"/>
      <use x="55.615234" xlink:href="#ArialMT-57"/>
      <use x="111.230469" xlink:href="#ArialMT-46"/>
      <use x="139.013672" xlink:href="#ArialMT-48"/>
      <use x="194.628906" xlink:href="#ArialMT-51"/>
      <use x="250.244141" xlink:href="#ArialMT-46"/>
      <use x="278.027344" xlink:href="#ArialMT-50"/>
      <use x="333.642578" xlink:href="#ArialMT-48"/>
      <use x="389.257812" xlink:href="#ArialMT-49"/>
      <use x="444.873047" xlink:href="#ArialMT-57"/>
     </g>
    </g>
    <g id="line2d_28">
     <path d="M 302.734062 103.157625 
L 326.734062 103.157625 
" style="fill:none;stroke:#dd8452;stroke-linecap:round;stroke-width:1.5;"/>
    </g>
    <g id="line2d_29"/>
    <g id="text_18">
     <!-- 15.08.2019 -->
     <defs>
      <path d="M 4.15625 18.75 
L 13.375 19.53125 
Q 14.40625 12.796875 18.140625 9.390625 
Q 21.875 6 27.15625 6 
Q 33.5 6 37.890625 10.78125 
Q 42.28125 15.578125 42.28125 23.484375 
Q 42.28125 31 38.0625 35.34375 
Q 33.84375 39.703125 27 39.703125 
Q 22.75 39.703125 19.328125 37.765625 
Q 15.921875 35.84375 13.96875 32.765625 
L 5.71875 33.84375 
L 12.640625 70.609375 
L 48.25 70.609375 
L 48.25 62.203125 
L 19.671875 62.203125 
L 15.828125 42.96875 
Q 22.265625 47.46875 29.34375 47.46875 
Q 38.71875 47.46875 45.15625 40.96875 
Q 51.609375 34.46875 51.609375 24.265625 
Q 51.609375 14.546875 45.953125 7.46875 
Q 39.0625 -1.21875 27.15625 -1.21875 
Q 17.390625 -1.21875 11.203125 4.25 
Q 5.03125 9.71875 4.15625 18.75 
z
" id="ArialMT-53"/>
     </defs>
     <g style="fill:#262626;" transform="translate(336.334063 107.357625)scale(0.12 -0.12)">
      <use xlink:href="#ArialMT-49"/>
      <use x="55.615234" xlink:href="#ArialMT-53"/>
      <use x="111.230469" xlink:href="#ArialMT-46"/>
      <use x="139.013672" xlink:href="#ArialMT-48"/>
      <use x="194.628906" xlink:href="#ArialMT-56"/>
      <use x="250.244141" xlink:href="#ArialMT-46"/>
      <use x="278.027344" xlink:href="#ArialMT-50"/>
      <use x="333.642578" xlink:href="#ArialMT-48"/>
      <use x="389.257812" xlink:href="#ArialMT-49"/>
      <use x="444.873047" xlink:href="#ArialMT-57"/>
     </g>
    </g>
    <g id="line2d_30">
     <path d="M 302.734062 120.132 
L 326.734062 120.132 
" style="fill:none;stroke:#55a868;stroke-linecap:round;stroke-width:1.5;"/>
    </g>
    <g id="line2d_31"/>
    <g id="text_19">
     <!-- 15.10.2019 -->
     <g style="fill:#262626;" transform="translate(336.334063 124.332)scale(0.12 -0.12)">
      <use xlink:href="#ArialMT-49"/>
      <use x="55.615234" xlink:href="#ArialMT-53"/>
      <use x="111.230469" xlink:href="#ArialMT-46"/>
      <use x="139.013672" xlink:href="#ArialMT-49"/>
      <use x="194.628906" xlink:href="#ArialMT-48"/>
      <use x="250.244141" xlink:href="#ArialMT-46"/>
      <use x="278.027344" xlink:href="#ArialMT-50"/>
      <use x="333.642578" xlink:href="#ArialMT-48"/>
      <use x="389.257812" xlink:href="#ArialMT-49"/>
      <use x="444.873047" xlink:href="#ArialMT-57"/>
     </g>
    </g>
    <g id="line2d_32">
     <path d="M 302.734062 137.106375 
L 326.734062 137.106375 
" style="fill:none;stroke:#c44e52;stroke-linecap:round;stroke-width:1.5;"/>
    </g>
    <g id="line2d_33"/>
    <g id="text_20">
     <!-- 15.11.2019 -->
     <g style="fill:#262626;" transform="translate(336.334063 141.306375)scale(0.12 -0.12)">
      <use xlink:href="#ArialMT-49"/>
      <use x="55.615234" xlink:href="#ArialMT-53"/>
      <use x="111.230469" xlink:href="#ArialMT-46"/>
      <use x="139.013672" xlink:href="#ArialMT-49"/>
      <use x="194.519531" xlink:href="#ArialMT-49"/>
      <use x="250.134766" xlink:href="#ArialMT-46"/>
      <use x="277.917969" xlink:href="#ArialMT-50"/>
      <use x="333.533203" xlink:href="#ArialMT-48"/>
      <use x="389.148438" xlink:href="#ArialMT-49"/>
      <use x="444.763672" xlink:href="#ArialMT-57"/>
     </g>
    </g>
    <g id="line2d_34">
     <path d="M 302.734062 154.08075 
L 326.734062 154.08075 
" style="fill:none;stroke:#8172b3;stroke-linecap:round;stroke-width:1.5;"/>
    </g>
    <g id="line2d_35"/>
    <g id="text_21">
     <!-- 15.12.2019 -->
     <g style="fill:#262626;" transform="translate(336.334063 158.28075)scale(0.12 -0.12)">
      <use xlink:href="#ArialMT-49"/>
      <use x="55.615234" xlink:href="#ArialMT-53"/>
      <use x="111.230469" xlink:href="#ArialMT-46"/>
      <use x="139.013672" xlink:href="#ArialMT-49"/>
      <use x="194.628906" xlink:href="#ArialMT-50"/>
      <use x="250.244141" xlink:href="#ArialMT-46"/>
      <use x="278.027344" xlink:href="#ArialMT-50"/>
      <use x="333.642578" xlink:href="#ArialMT-48"/>
      <use x="389.257812" xlink:href="#ArialMT-49"/>
      <use x="444.873047" xlink:href="#ArialMT-57"/>
     </g>
    </g>
    <g id="line2d_36">
     <path d="M 302.734062 171.055125 
L 326.734062 171.055125 
" style="fill:none;stroke:#937860;stroke-linecap:round;stroke-width:1.5;"/>
    </g>
    <g id="line2d_37"/>
    <g id="text_22">
     <!-- 15.01.2020 -->
     <g style="fill:#262626;" transform="translate(336.334063 175.255125)scale(0.12 -0.12)">
      <use xlink:href="#ArialMT-49"/>
      <use x="55.615234" xlink:href="#ArialMT-53"/>
      <use x="111.230469" xlink:href="#ArialMT-46"/>
      <use x="139.013672" xlink:href="#ArialMT-48"/>
      <use x="194.628906" xlink:href="#ArialMT-49"/>
      <use x="250.244141" xlink:href="#ArialMT-46"/>
      <use x="278.027344" xlink:href="#ArialMT-50"/>
      <use x="333.642578" xlink:href="#ArialMT-48"/>
      <use x="389.257812" xlink:href="#ArialMT-50"/>
      <use x="444.873047" xlink:href="#ArialMT-48"/>
     </g>
    </g>
    <g id="line2d_38">
     <path d="M 302.734062 188.0295 
L 326.734062 188.0295 
" style="fill:none;stroke:#da8bc3;stroke-linecap:round;stroke-width:1.5;"/>
    </g>
    <g id="line2d_39"/>
    <g id="text_23">
     <!-- 15.03.2020 -->
     <g style="fill:#262626;" transform="translate(336.334063 192.2295)scale(0.12 -0.12)">
      <use xlink:href="#ArialMT-49"/>
      <use x="55.615234" xlink:href="#ArialMT-53"/>
      <use x="111.230469" xlink:href="#ArialMT-46"/>
      <use x="139.013672" xlink:href="#ArialMT-48"/>
      <use x="194.628906" xlink:href="#ArialMT-51"/>
      <use x="250.244141" xlink:href="#ArialMT-46"/>
      <use x="278.027344" xlink:href="#ArialMT-50"/>
      <use x="333.642578" xlink:href="#ArialMT-48"/>
      <use x="389.257812" xlink:href="#ArialMT-50"/>
      <use x="444.873047" xlink:href="#ArialMT-48"/>
     </g>
    </g>
    <g id="line2d_40">
     <path d="M 302.734062 205.003875 
L 326.734062 205.003875 
" style="fill:none;stroke:#8c8c8c;stroke-linecap:round;stroke-width:1.5;"/>
    </g>
    <g id="line2d_41"/>
    <g id="text_24">
     <!-- 15.04.2020 -->
     <g style="fill:#262626;" transform="translate(336.334063 209.203875)scale(0.12 -0.12)">
      <use xlink:href="#ArialMT-49"/>
      <use x="55.615234" xlink:href="#ArialMT-53"/>
      <use x="111.230469" xlink:href="#ArialMT-46"/>
      <use x="139.013672" xlink:href="#ArialMT-48"/>
      <use x="194.628906" xlink:href="#ArialMT-52"/>
      <use x="250.244141" xlink:href="#ArialMT-46"/>
      <use x="278.027344" xlink:href="#ArialMT-50"/>
      <use x="333.642578" xlink:href="#ArialMT-48"/>
      <use x="389.257812" xlink:href="#ArialMT-50"/>
      <use x="444.873047" xlink:href="#ArialMT-48"/>
     </g>
    </g>
    <g id="line2d_42">
     <path d="M 302.734062 221.97825 
L 326.734062 221.97825 
" style="fill:none;stroke:#ccb974;stroke-linecap:round;stroke-width:1.5;"/>
    </g>
    <g id="line2d_43"/>
    <g id="text_25">
     <!-- 15.05.2020 -->
     <g style="fill:#262626;" transform="translate(336.334063 226.17825)scale(0.12 -0.12)">
      <use xlink:href="#ArialMT-49"/>
      <use x="55.615234" xlink:href="#ArialMT-53"/>
      <use x="111.230469" xlink:href="#ArialMT-46"/>
      <use x="139.013672" xlink:href="#ArialMT-48"/>
      <use x="194.628906" xlink:href="#ArialMT-53"/>
      <use x="250.244141" xlink:href="#ArialMT-46"/>
      <use x="278.027344" xlink:href="#ArialMT-50"/>
      <use x="333.642578" xlink:href="#ArialMT-48"/>
      <use x="389.257812" xlink:href="#ArialMT-50"/>
      <use x="444.873047" xlink:href="#ArialMT-48"/>
     </g>
    </g>
    <g id="line2d_44">
     <path d="M 302.734062 238.952625 
L 326.734062 238.952625 
" style="fill:none;stroke:#64b5cd;stroke-linecap:round;stroke-width:1.5;"/>
    </g>
    <g id="line2d_45"/>
    <g id="text_26">
     <!-- 15.07.2020 -->
     <defs>
      <path d="M 4.734375 62.203125 
L 4.734375 70.65625 
L 51.078125 70.65625 
L 51.078125 63.8125 
Q 44.234375 56.546875 37.515625 44.484375 
Q 30.8125 32.421875 27.15625 19.671875 
Q 24.515625 10.6875 23.78125 0 
L 14.75 0 
Q 14.890625 8.453125 18.0625 20.40625 
Q 21.234375 32.375 27.171875 43.484375 
Q 33.109375 54.59375 39.796875 62.203125 
z
" id="ArialMT-55"/>
     </defs>
     <g style="fill:#262626;" transform="translate(336.334063 243.152625)scale(0.12 -0.12)">
      <use xlink:href="#ArialMT-49"/>
      <use x="55.615234" xlink:href="#ArialMT-53"/>
      <use x="111.230469" xlink:href="#ArialMT-46"/>
      <use x="139.013672" xlink:href="#ArialMT-48"/>
      <use x="194.628906" xlink:href="#ArialMT-55"/>
      <use x="250.244141" xlink:href="#ArialMT-46"/>
      <use x="278.027344" xlink:href="#ArialMT-50"/>
      <use x="333.642578" xlink:href="#ArialMT-48"/>
      <use x="389.257812" xlink:href="#ArialMT-50"/>
      <use x="444.873047" xlink:href="#ArialMT-48"/>
     </g>
    </g>
    <g id="line2d_46">
     <path d="M 302.734062 255.927 
L 326.734062 255.927 
" style="fill:none;stroke:#4c72b0;stroke-linecap:round;stroke-width:1.5;"/>
    </g>
    <g id="line2d_47"/>
    <g id="text_27">
     <!-- 21.09.2020 -->
     <g style="fill:#262626;" transform="translate(336.334063 260.127)scale(0.12 -0.12)">
      <use xlink:href="#ArialMT-50"/>
      <use x="55.615234" xlink:href="#ArialMT-49"/>
      <use x="111.230469" xlink:href="#ArialMT-46"/>
      <use x="139.013672" xlink:href="#ArialMT-48"/>
      <use x="194.628906" xlink:href="#ArialMT-57"/>
      <use x="250.244141" xlink:href="#ArialMT-46"/>
      <use x="278.027344" xlink:href="#ArialMT-50"/>
      <use x="333.642578" xlink:href="#ArialMT-48"/>
      <use x="389.257812" xlink:href="#ArialMT-50"/>
      <use x="444.873047" xlink:href="#ArialMT-48"/>
     </g>
    </g>
   </g>
  </g>
  <g id="axes_2">
   <g id="patch_9">
    <path d="M 55.566563 95.4904 
L 125.135394 95.4904 
L 125.135394 12.7 
L 55.566563 12.7 
z
" style="fill:#ffffff;"/>
   </g>
   <g id="matplotlib.axis_3">
    <g id="xtick_9"/>
    <g id="xtick_10"/>
   </g>
   <g id="matplotlib.axis_4">
    <g id="ytick_7"/>
    <g id="ytick_8"/>
    <g id="ytick_9"/>
   </g>
   <g id="patch_10">
    <path d="M 55.566563 12.7 
L 360.807342 28.6368 
" style="fill:none;stroke:#808080;stroke-linejoin:miter;"/>
   </g>
   <g id="patch_11">
    <path d="M 125.135394 95.4904 
L 366.604744 35.536 
" style="fill:none;stroke:#808080;stroke-linejoin:miter;"/>
   </g>
   <g id="line2d_48">
    <path clip-path="url(#pdcd6833916)" d="M -1 207.502676 
L 61.132069 198.383099 
L 122.35264 189.599448 
L 178.007705 181.868479 
L 222.531757 175.878753 
L 306.014355 164.908343 
L 356.103913 158.544979 
L 415.386562 151.254447 
L 415.386562 151.254447 
" style="fill:none;stroke:#4c72b0;stroke-linecap:round;stroke-width:1.5;"/>
   </g>
   <g id="line2d_49">
    <path clip-path="url(#pdcd6833916)" d="M -1 92.515362 
L 38.870043 87.673311 
L 83.394095 82.410582 
L 144.614666 75.493177 
L 205.835238 68.840725 
L 283.752329 60.696441 
L 344.9729 54.556269 
L 415.386562 47.613746 
L 415.386562 47.613746 
" style="fill:none;stroke:#dd8452;stroke-linecap:round;stroke-width:1.5;"/>
   </g>
   <g id="line2d_50">
    <path clip-path="url(#pdcd6833916)" d="M -1 78.47713 
L 77.828588 69.294795 
L 144.614666 61.751005 
L 194.704225 56.30223 
L 250.35929 50.491226 
L 311.579861 44.315215 
L 367.234926 38.887817 
L 415.386562 34.348981 
L 415.386562 34.348981 
" style="fill:none;stroke:#55a868;stroke-linecap:round;stroke-width:1.5;"/>
   </g>
   <g id="line2d_51">
    <path clip-path="url(#pdcd6833916)" d="M -1 71.618276 
L 61.132069 64.636635 
L 116.787134 58.593664 
L 183.573212 51.6666 
L 244.793783 45.533541 
L 317.145368 38.517282 
L 378.365939 32.819565 
L 415.386562 29.46193 
L 415.386562 29.46193 
" style="fill:none;stroke:#c44e52;stroke-linecap:round;stroke-width:1.5;"/>
   </g>
   <g id="line2d_52">
    <path clip-path="url(#pdcd6833916)" d="M -1 66.626103 
L 50.001056 60.744667 
L 111.221627 53.91175 
L 178.007705 46.715865 
L 233.66277 41.005866 
L 294.883342 34.942373 
L 361.66942 28.545627 
L 415.386562 23.545923 
L 415.386562 23.545923 
" style="fill:none;stroke:#8172b3;stroke-linecap:round;stroke-width:1.5;"/>
   </g>
   <g id="line2d_53">
    <path clip-path="url(#pdcd6833916)" d="M -1 54.444973 
L 61.132069 47.7249 
L 111.221627 42.483694 
L 189.138718 34.583624 
L 261.490303 27.544878 
L 339.407394 20.264707 
L 400.627965 14.860181 
L 415.386562 13.578727 
L 415.386562 13.578727 
" style="fill:none;stroke:#937860;stroke-linecap:round;stroke-width:1.5;"/>
   </g>
   <g id="line2d_54">
    <path clip-path="url(#pdcd6833916)" d="M -1 48.997263 
L 55.566563 42.655101 
L 100.090614 37.821013 
L 178.007705 29.610277 
L 233.66277 23.991726 
L 289.317835 18.651719 
L 333.841887 14.567583 
L 395.062459 9.201613 
L 415.386562 7.483023 
L 415.386562 7.483023 
" style="fill:none;stroke:#da8bc3;stroke-linecap:round;stroke-width:1.5;"/>
   </g>
   <g id="line2d_55">
    <path clip-path="url(#pdcd6833916)" d="M -1 42.742511 
L 61.132069 36.036018 
L 122.35264 29.601479 
L 183.573212 23.393531 
L 250.35929 16.802417 
L 328.276381 9.318184 
L 389.496952 3.618327 
L 415.386562 1.268649 
L 415.386562 1.268649 
" style="fill:none;stroke:#8c8c8c;stroke-linecap:round;stroke-width:1.5;"/>
   </g>
   <g id="line2d_56">
    <path clip-path="url(#pdcd6833916)" d="M -1 28.815156 
L 55.566563 23.020051 
L 116.787134 16.962795 
L 172.442199 11.626116 
L 228.097264 6.536186 
L 272.621316 2.668478 
L 316.926592 -1 
L 316.926592 -1 
" style="fill:none;stroke:#ccb974;stroke-linecap:round;stroke-width:1.5;"/>
   </g>
   <g id="line2d_57">
    <path clip-path="url(#pdcd6833916)" d="M -1 48.937461 
L 83.394095 39.871795 
L 150.180173 32.940403 
L 222.531757 25.690229 
L 311.579861 17.067728 
L 361.66942 12.391146 
L 415.386562 7.650053 
L 415.386562 7.650053 
" style="fill:none;stroke:#64b5cd;stroke-linecap:round;stroke-width:1.5;"/>
   </g>
   <g id="line2d_58">
    <path clip-path="url(#pdcd6833916)" d="M -1 51.401284 
L 55.566563 45.472678 
L 139.04916 36.982904 
L 216.966251 29.282704 
L 300.448848 21.263384 
L 367.234926 15.054408 
L 415.386562 10.686051 
L 415.386562 10.686051 
" style="fill:none;stroke:#4c72b0;stroke-linecap:round;stroke-width:1.5;"/>
   </g>
   <g id="patch_12">
    <path d="M 55.566563 95.4904 
L 55.566563 12.7 
" style="fill:none;stroke:#cccccc;stroke-linecap:square;stroke-linejoin:miter;stroke-width:1.25;"/>
   </g>
   <g id="patch_13">
    <path d="M 125.135394 95.4904 
L 125.135394 12.7 
" style="fill:none;stroke:#cccccc;stroke-linecap:square;stroke-linejoin:miter;stroke-width:1.25;"/>
   </g>
   <g id="patch_14">
    <path d="M 55.566563 95.4904 
L 125.135394 95.4904 
" style="fill:none;stroke:#cccccc;stroke-linecap:square;stroke-linejoin:miter;stroke-width:1.25;"/>
   </g>
   <g id="patch_15">
    <path d="M 55.566563 12.7 
L 125.135394 12.7 
" style="fill:none;stroke:#cccccc;stroke-linecap:square;stroke-linejoin:miter;stroke-width:1.25;"/>
   </g>
  </g>
 </g>
 <defs>
  <clipPath id="p61ce4d47ae">
   <rect height="266.112" width="357.12" x="50.066563" y="7.2"/>
  </clipPath>
  <clipPath id="pdcd6833916">
   <rect height="82.7904" width="69.568831" x="55.566563" y="12.7"/>
  </clipPath>
 </defs>
</svg>
