<?xml version="1.0" encoding="utf-8" standalone="no"?>
<!DOCTYPE svg PUBLIC "-//W3C//DTD SVG 1.1//EN"
  "http://www.w3.org/Graphics/SVG/1.1/DTD/svg11.dtd">
<!-- Created with matplotlib (https://matplotlib.org/) -->
<svg height="288pt" version="1.1" viewBox="0 0 360 288" width="360pt" xmlns="http://www.w3.org/2000/svg" xmlns:xlink="http://www.w3.org/1999/xlink">
 <defs>
  <style type="text/css">
*{stroke-linecap:butt;stroke-linejoin:round;white-space:pre;}
  </style>
 </defs>
 <g id="figure_1">
  <g id="patch_1">
   <path d="M 0 288 
L 360 288 
L 360 0 
L 0 0 
z
" style="fill:#ffffff;"/>
  </g>
  <g id="axes_1">
   <g id="patch_2">
    <path d="M 45 256.32 
L 324 256.32 
L 324 34.56 
L 45 34.56 
z
" style="fill:#ffffff;"/>
   </g>
   <g id="matplotlib.axis_1">
    <g id="xtick_1">
     <g id="line2d_1">
      <path clip-path="url(#p2b8f7dd51b)" d="M 55.689655 256.32 
L 55.689655 34.56 
" style="fill:none;stroke:#cccccc;stroke-linecap:round;"/>
     </g>
     <g id="text_1">
      <!-- 0 -->
      <defs>
       <path d="M 4.15625 35.296875 
Q 4.15625 48 6.765625 55.734375 
Q 9.375 63.484375 14.515625 67.671875 
Q 19.671875 71.875 27.484375 71.875 
Q 33.25 71.875 37.59375 69.546875 
Q 41.9375 67.234375 44.765625 62.859375 
Q 47.609375 58.5 49.21875 52.21875 
Q 50.828125 45.953125 50.828125 35.296875 
Q 50.828125 22.703125 48.234375 14.96875 
Q 45.65625 7.234375 40.5 3 
Q 35.359375 -1.21875 27.484375 -1.21875 
Q 17.140625 -1.21875 11.234375 6.203125 
Q 4.15625 15.140625 4.15625 35.296875 
z
M 13.1875 35.296875 
Q 13.1875 17.671875 17.3125 11.828125 
Q 21.4375 6 27.484375 6 
Q 33.546875 6 37.671875 11.859375 
Q 41.796875 17.71875 41.796875 35.296875 
Q 41.796875 52.984375 37.671875 58.78125 
Q 33.546875 64.59375 27.390625 64.59375 
Q 21.34375 64.59375 17.71875 59.46875 
Q 13.1875 52.9375 13.1875 35.296875 
z
" id="ArialMT-48"/>
      </defs>
      <g style="fill:#262626;" transform="translate(52.63114 273.693594)scale(0.11 -0.11)">
       <use xlink:href="#ArialMT-48"/>
      </g>
     </g>
    </g>
    <g id="xtick_2">
     <g id="line2d_2">
      <path clip-path="url(#p2b8f7dd51b)" d="M 109.137931 256.32 
L 109.137931 34.56 
" style="fill:none;stroke:#cccccc;stroke-linecap:round;"/>
     </g>
     <g id="text_2">
      <!-- 100 -->
      <defs>
       <path d="M 37.25 0 
L 28.46875 0 
L 28.46875 56 
Q 25.296875 52.984375 20.140625 49.953125 
Q 14.984375 46.921875 10.890625 45.40625 
L 10.890625 53.90625 
Q 18.265625 57.375 23.78125 62.296875 
Q 29.296875 67.234375 31.59375 71.875 
L 37.25 71.875 
z
" id="ArialMT-49"/>
      </defs>
      <g style="fill:#262626;" transform="translate(99.962384 273.693594)scale(0.11 -0.11)">
       <use xlink:href="#ArialMT-49"/>
       <use x="55.615234" xlink:href="#ArialMT-48"/>
       <use x="111.230469" xlink:href="#ArialMT-48"/>
      </g>
     </g>
    </g>
    <g id="xtick_3">
     <g id="line2d_3">
      <path clip-path="url(#p2b8f7dd51b)" d="M 162.586207 256.32 
L 162.586207 34.56 
" style="fill:none;stroke:#cccccc;stroke-linecap:round;"/>
     </g>
     <g id="text_3">
      <!-- 200 -->
      <defs>
       <path d="M 50.34375 8.453125 
L 50.34375 0 
L 3.03125 0 
Q 2.9375 3.171875 4.046875 6.109375 
Q 5.859375 10.9375 9.828125 15.625 
Q 13.8125 20.3125 21.34375 26.46875 
Q 33.015625 36.03125 37.109375 41.625 
Q 41.21875 47.21875 41.21875 52.203125 
Q 41.21875 57.421875 37.46875 61 
Q 33.734375 64.59375 27.734375 64.59375 
Q 21.390625 64.59375 17.578125 60.78125 
Q 13.765625 56.984375 13.71875 50.25 
L 4.6875 51.171875 
Q 5.609375 61.28125 11.65625 66.578125 
Q 17.71875 71.875 27.9375 71.875 
Q 38.234375 71.875 44.234375 66.15625 
Q 50.25 60.453125 50.25 52 
Q 50.25 47.703125 48.484375 43.546875 
Q 46.734375 39.40625 42.65625 34.8125 
Q 38.578125 30.21875 29.109375 22.21875 
Q 21.1875 15.578125 18.9375 13.203125 
Q 16.703125 10.84375 15.234375 8.453125 
z
" id="ArialMT-50"/>
      </defs>
      <g style="fill:#262626;" transform="translate(153.41066 273.693594)scale(0.11 -0.11)">
       <use xlink:href="#ArialMT-50"/>
       <use x="55.615234" xlink:href="#ArialMT-48"/>
       <use x="111.230469" xlink:href="#ArialMT-48"/>
      </g>
     </g>
    </g>
    <g id="xtick_4">
     <g id="line2d_4">
      <path clip-path="url(#p2b8f7dd51b)" d="M 216.034483 256.32 
L 216.034483 34.56 
" style="fill:none;stroke:#cccccc;stroke-linecap:round;"/>
     </g>
     <g id="text_4">
      <!-- 300 -->
      <defs>
       <path d="M 4.203125 18.890625 
L 12.984375 20.0625 
Q 14.5 12.59375 18.140625 9.296875 
Q 21.78125 6 27 6 
Q 33.203125 6 37.46875 10.296875 
Q 41.75 14.59375 41.75 20.953125 
Q 41.75 27 37.796875 30.921875 
Q 33.84375 34.859375 27.734375 34.859375 
Q 25.25 34.859375 21.53125 33.890625 
L 22.515625 41.609375 
Q 23.390625 41.5 23.921875 41.5 
Q 29.546875 41.5 34.03125 44.421875 
Q 38.53125 47.359375 38.53125 53.46875 
Q 38.53125 58.296875 35.25 61.46875 
Q 31.984375 64.65625 26.8125 64.65625 
Q 21.6875 64.65625 18.265625 61.421875 
Q 14.84375 58.203125 13.875 51.765625 
L 5.078125 53.328125 
Q 6.6875 62.15625 12.390625 67.015625 
Q 18.109375 71.875 26.609375 71.875 
Q 32.46875 71.875 37.390625 69.359375 
Q 42.328125 66.84375 44.9375 62.5 
Q 47.5625 58.15625 47.5625 53.265625 
Q 47.5625 48.640625 45.0625 44.828125 
Q 42.578125 41.015625 37.703125 38.765625 
Q 44.046875 37.3125 47.5625 32.6875 
Q 51.078125 28.078125 51.078125 21.140625 
Q 51.078125 11.765625 44.234375 5.25 
Q 37.40625 -1.265625 26.953125 -1.265625 
Q 17.53125 -1.265625 11.296875 4.34375 
Q 5.078125 9.96875 4.203125 18.890625 
z
" id="ArialMT-51"/>
      </defs>
      <g style="fill:#262626;" transform="translate(206.858936 273.693594)scale(0.11 -0.11)">
       <use xlink:href="#ArialMT-51"/>
       <use x="55.615234" xlink:href="#ArialMT-48"/>
       <use x="111.230469" xlink:href="#ArialMT-48"/>
      </g>
     </g>
    </g>
    <g id="xtick_5">
     <g id="line2d_5">
      <path clip-path="url(#p2b8f7dd51b)" d="M 269.482759 256.32 
L 269.482759 34.56 
" style="fill:none;stroke:#cccccc;stroke-linecap:round;"/>
     </g>
     <g id="text_5">
      <!-- 400 -->
      <defs>
       <path d="M 32.328125 0 
L 32.328125 17.140625 
L 1.265625 17.140625 
L 1.265625 25.203125 
L 33.9375 71.578125 
L 41.109375 71.578125 
L 41.109375 25.203125 
L 50.78125 25.203125 
L 50.78125 17.140625 
L 41.109375 17.140625 
L 41.109375 0 
z
M 32.328125 25.203125 
L 32.328125 57.46875 
L 9.90625 25.203125 
z
" id="ArialMT-52"/>
      </defs>
      <g style="fill:#262626;" transform="translate(260.307212 273.693594)scale(0.11 -0.11)">
       <use xlink:href="#ArialMT-52"/>
       <use x="55.615234" xlink:href="#ArialMT-48"/>
       <use x="111.230469" xlink:href="#ArialMT-48"/>
      </g>
     </g>
    </g>
    <g id="xtick_6">
     <g id="line2d_6">
      <path clip-path="url(#p2b8f7dd51b)" d="M 322.931034 256.32 
L 322.931034 34.56 
" style="fill:none;stroke:#cccccc;stroke-linecap:round;"/>
     </g>
     <g id="text_6">
      <!-- 500 -->
      <defs>
       <path d="M 4.15625 18.75 
L 13.375 19.53125 
Q 14.40625 12.796875 18.140625 9.390625 
Q 21.875 6 27.15625 6 
Q 33.5 6 37.890625 10.78125 
Q 42.28125 15.578125 42.28125 23.484375 
Q 42.28125 31 38.0625 35.34375 
Q 33.84375 39.703125 27 39.703125 
Q 22.75 39.703125 19.328125 37.765625 
Q 15.921875 35.84375 13.96875 32.765625 
L 5.71875 33.84375 
L 12.640625 70.609375 
L 48.25 70.609375 
L 48.25 62.203125 
L 19.671875 62.203125 
L 15.828125 42.96875 
Q 22.265625 47.46875 29.34375 47.46875 
Q 38.71875 47.46875 45.15625 40.96875 
Q 51.609375 34.46875 51.609375 24.265625 
Q 51.609375 14.546875 45.953125 7.46875 
Q 39.0625 -1.21875 27.15625 -1.21875 
Q 17.390625 -1.21875 11.203125 4.25 
Q 5.03125 9.71875 4.15625 18.75 
z
" id="ArialMT-53"/>
      </defs>
      <g style="fill:#262626;" transform="translate(313.755488 273.693594)scale(0.11 -0.11)">
       <use xlink:href="#ArialMT-53"/>
       <use x="55.615234" xlink:href="#ArialMT-48"/>
       <use x="111.230469" xlink:href="#ArialMT-48"/>
      </g>
     </g>
    </g>
    <g id="text_7">
     <!-- Degree -->
     <defs>
      <path d="M 7.71875 0 
L 7.71875 71.578125 
L 32.375 71.578125 
Q 40.71875 71.578125 45.125 70.5625 
Q 51.265625 69.140625 55.609375 65.4375 
Q 61.28125 60.640625 64.078125 53.1875 
Q 66.890625 45.75 66.890625 36.1875 
Q 66.890625 28.03125 64.984375 21.734375 
Q 63.09375 15.4375 60.109375 11.296875 
Q 57.125 7.171875 53.578125 4.796875 
Q 50.046875 2.4375 45.046875 1.21875 
Q 40.046875 0 33.546875 0 
z
M 17.1875 8.453125 
L 32.46875 8.453125 
Q 39.546875 8.453125 43.578125 9.765625 
Q 47.609375 11.078125 50 13.484375 
Q 53.375 16.84375 55.25 22.53125 
Q 57.125 28.21875 57.125 36.328125 
Q 57.125 47.5625 53.4375 53.59375 
Q 49.75 59.625 44.484375 61.671875 
Q 40.671875 63.140625 32.234375 63.140625 
L 17.1875 63.140625 
z
" id="ArialMT-68"/>
      <path d="M 42.09375 16.703125 
L 51.171875 15.578125 
Q 49.03125 7.625 43.21875 3.21875 
Q 37.40625 -1.171875 28.375 -1.171875 
Q 17 -1.171875 10.328125 5.828125 
Q 3.65625 12.84375 3.65625 25.484375 
Q 3.65625 38.578125 10.390625 45.796875 
Q 17.140625 53.03125 27.875 53.03125 
Q 38.28125 53.03125 44.875 45.953125 
Q 51.46875 38.875 51.46875 26.03125 
Q 51.46875 25.25 51.421875 23.6875 
L 12.75 23.6875 
Q 13.234375 15.140625 17.578125 10.59375 
Q 21.921875 6.0625 28.421875 6.0625 
Q 33.25 6.0625 36.671875 8.59375 
Q 40.09375 11.140625 42.09375 16.703125 
z
M 13.234375 30.90625 
L 42.1875 30.90625 
Q 41.609375 37.453125 38.875 40.71875 
Q 34.671875 45.796875 27.984375 45.796875 
Q 21.921875 45.796875 17.796875 41.75 
Q 13.671875 37.703125 13.234375 30.90625 
z
" id="ArialMT-101"/>
      <path d="M 4.984375 -4.296875 
L 13.53125 -5.5625 
Q 14.0625 -9.515625 16.5 -11.328125 
Q 19.78125 -13.765625 25.4375 -13.765625 
Q 31.546875 -13.765625 34.859375 -11.328125 
Q 38.1875 -8.890625 39.359375 -4.5 
Q 40.046875 -1.8125 39.984375 6.78125 
Q 34.234375 0 25.640625 0 
Q 14.9375 0 9.078125 7.71875 
Q 3.21875 15.4375 3.21875 26.21875 
Q 3.21875 33.640625 5.90625 39.90625 
Q 8.59375 46.1875 13.6875 49.609375 
Q 18.796875 53.03125 25.6875 53.03125 
Q 34.859375 53.03125 40.828125 45.609375 
L 40.828125 51.859375 
L 48.921875 51.859375 
L 48.921875 7.03125 
Q 48.921875 -5.078125 46.453125 -10.125 
Q 44 -15.1875 38.640625 -18.109375 
Q 33.296875 -21.046875 25.484375 -21.046875 
Q 16.21875 -21.046875 10.5 -16.875 
Q 4.78125 -12.703125 4.984375 -4.296875 
z
M 12.25 26.859375 
Q 12.25 16.65625 16.296875 11.96875 
Q 20.359375 7.28125 26.46875 7.28125 
Q 32.515625 7.28125 36.609375 11.9375 
Q 40.71875 16.609375 40.71875 26.5625 
Q 40.71875 36.078125 36.5 40.90625 
Q 32.28125 45.75 26.3125 45.75 
Q 20.453125 45.75 16.34375 40.984375 
Q 12.25 36.234375 12.25 26.859375 
z
" id="ArialMT-103"/>
      <path d="M 6.5 0 
L 6.5 51.859375 
L 14.40625 51.859375 
L 14.40625 44 
Q 17.4375 49.515625 20 51.265625 
Q 22.5625 53.03125 25.640625 53.03125 
Q 30.078125 53.03125 34.671875 50.203125 
L 31.640625 42.046875 
Q 28.421875 43.953125 25.203125 43.953125 
Q 22.3125 43.953125 20.015625 42.21875 
Q 17.71875 40.484375 16.75 37.40625 
Q 15.28125 32.71875 15.28125 27.15625 
L 15.28125 0 
z
" id="ArialMT-114"/>
     </defs>
     <g style="fill:#262626;" transform="translate(166.462578 287.753438)scale(0.11 -0.11)">
      <use xlink:href="#ArialMT-68"/>
      <use x="72.216797" xlink:href="#ArialMT-101"/>
      <use x="127.832031" xlink:href="#ArialMT-103"/>
      <use x="183.447266" xlink:href="#ArialMT-114"/>
      <use x="216.748047" xlink:href="#ArialMT-101"/>
      <use x="272.363281" xlink:href="#ArialMT-101"/>
     </g>
    </g>
   </g>
   <g id="matplotlib.axis_2">
    <g id="ytick_1">
     <g id="line2d_7">
      <path clip-path="url(#p2b8f7dd51b)" d="M 45 245.957383 
L 324 245.957383 
" style="fill:none;stroke:#cccccc;stroke-linecap:round;"/>
     </g>
     <g id="text_8">
      <!-- 0 -->
      <g style="fill:#262626;" transform="translate(29.382969 249.89418)scale(0.11 -0.11)">
       <use xlink:href="#ArialMT-48"/>
      </g>
     </g>
    </g>
    <g id="ytick_2">
     <g id="line2d_8">
      <path clip-path="url(#p2b8f7dd51b)" d="M 45 204.506916 
L 324 204.506916 
" style="fill:none;stroke:#cccccc;stroke-linecap:round;"/>
     </g>
     <g id="text_9">
      <!-- 20 -->
      <g style="fill:#262626;" transform="translate(23.265937 208.443713)scale(0.11 -0.11)">
       <use xlink:href="#ArialMT-50"/>
       <use x="55.615234" xlink:href="#ArialMT-48"/>
      </g>
     </g>
    </g>
    <g id="ytick_3">
     <g id="line2d_9">
      <path clip-path="url(#p2b8f7dd51b)" d="M 45 163.056449 
L 324 163.056449 
" style="fill:none;stroke:#cccccc;stroke-linecap:round;"/>
     </g>
     <g id="text_10">
      <!-- 40 -->
      <g style="fill:#262626;" transform="translate(23.265937 166.993245)scale(0.11 -0.11)">
       <use xlink:href="#ArialMT-52"/>
       <use x="55.615234" xlink:href="#ArialMT-48"/>
      </g>
     </g>
    </g>
    <g id="ytick_4">
     <g id="line2d_10">
      <path clip-path="url(#p2b8f7dd51b)" d="M 45 121.605981 
L 324 121.605981 
" style="fill:none;stroke:#cccccc;stroke-linecap:round;"/>
     </g>
     <g id="text_11">
      <!-- 60 -->
      <defs>
       <path d="M 49.75 54.046875 
L 41.015625 53.375 
Q 39.84375 58.546875 37.703125 60.890625 
Q 34.125 64.65625 28.90625 64.65625 
Q 24.703125 64.65625 21.53125 62.3125 
Q 17.390625 59.28125 14.984375 53.46875 
Q 12.59375 47.65625 12.5 36.921875 
Q 15.671875 41.75 20.265625 44.09375 
Q 24.859375 46.4375 29.890625 46.4375 
Q 38.671875 46.4375 44.84375 39.96875 
Q 51.03125 33.5 51.03125 23.25 
Q 51.03125 16.5 48.125 10.71875 
Q 45.21875 4.9375 40.140625 1.859375 
Q 35.0625 -1.21875 28.609375 -1.21875 
Q 17.625 -1.21875 10.6875 6.859375 
Q 3.765625 14.9375 3.765625 33.5 
Q 3.765625 54.25 11.421875 63.671875 
Q 18.109375 71.875 29.4375 71.875 
Q 37.890625 71.875 43.28125 67.140625 
Q 48.6875 62.40625 49.75 54.046875 
z
M 13.875 23.1875 
Q 13.875 18.65625 15.796875 14.5 
Q 17.71875 10.359375 21.1875 8.171875 
Q 24.65625 6 28.46875 6 
Q 34.03125 6 38.03125 10.484375 
Q 42.046875 14.984375 42.046875 22.703125 
Q 42.046875 30.125 38.078125 34.390625 
Q 34.125 38.671875 28.125 38.671875 
Q 22.171875 38.671875 18.015625 34.390625 
Q 13.875 30.125 13.875 23.1875 
z
" id="ArialMT-54"/>
      </defs>
      <g style="fill:#262626;" transform="translate(23.265937 125.542778)scale(0.11 -0.11)">
       <use xlink:href="#ArialMT-54"/>
       <use x="55.615234" xlink:href="#ArialMT-48"/>
      </g>
     </g>
    </g>
    <g id="ytick_5">
     <g id="line2d_11">
      <path clip-path="url(#p2b8f7dd51b)" d="M 45 80.155514 
L 324 80.155514 
" style="fill:none;stroke:#cccccc;stroke-linecap:round;"/>
     </g>
     <g id="text_12">
      <!-- 80 -->
      <defs>
       <path d="M 17.671875 38.8125 
Q 12.203125 40.828125 9.5625 44.53125 
Q 6.9375 48.25 6.9375 53.421875 
Q 6.9375 61.234375 12.546875 66.546875 
Q 18.171875 71.875 27.484375 71.875 
Q 36.859375 71.875 42.578125 66.421875 
Q 48.296875 60.984375 48.296875 53.171875 
Q 48.296875 48.1875 45.671875 44.5 
Q 43.0625 40.828125 37.75 38.8125 
Q 44.34375 36.671875 47.78125 31.875 
Q 51.21875 27.09375 51.21875 20.453125 
Q 51.21875 11.28125 44.71875 5.03125 
Q 38.234375 -1.21875 27.640625 -1.21875 
Q 17.046875 -1.21875 10.546875 5.046875 
Q 4.046875 11.328125 4.046875 20.703125 
Q 4.046875 27.6875 7.59375 32.390625 
Q 11.140625 37.109375 17.671875 38.8125 
z
M 15.921875 53.71875 
Q 15.921875 48.640625 19.1875 45.40625 
Q 22.46875 42.1875 27.6875 42.1875 
Q 32.765625 42.1875 36.015625 45.375 
Q 39.265625 48.578125 39.265625 53.21875 
Q 39.265625 58.0625 35.90625 61.359375 
Q 32.5625 64.65625 27.59375 64.65625 
Q 22.5625 64.65625 19.234375 61.421875 
Q 15.921875 58.203125 15.921875 53.71875 
z
M 13.09375 20.65625 
Q 13.09375 16.890625 14.875 13.375 
Q 16.65625 9.859375 20.171875 7.921875 
Q 23.6875 6 27.734375 6 
Q 34.03125 6 38.125 10.046875 
Q 42.234375 14.109375 42.234375 20.359375 
Q 42.234375 26.703125 38.015625 30.859375 
Q 33.796875 35.015625 27.4375 35.015625 
Q 21.234375 35.015625 17.15625 30.90625 
Q 13.09375 26.8125 13.09375 20.65625 
z
" id="ArialMT-56"/>
      </defs>
      <g style="fill:#262626;" transform="translate(23.265937 84.092311)scale(0.11 -0.11)">
       <use xlink:href="#ArialMT-56"/>
       <use x="55.615234" xlink:href="#ArialMT-48"/>
      </g>
     </g>
    </g>
    <g id="ytick_6">
     <g id="line2d_12">
      <path clip-path="url(#p2b8f7dd51b)" d="M 45 38.705047 
L 324 38.705047 
" style="fill:none;stroke:#cccccc;stroke-linecap:round;"/>
     </g>
     <g id="text_13">
      <!-- 100 -->
      <g style="fill:#262626;" transform="translate(17.148906 42.641844)scale(0.11 -0.11)">
       <use xlink:href="#ArialMT-49"/>
       <use x="55.615234" xlink:href="#ArialMT-48"/>
       <use x="111.230469" xlink:href="#ArialMT-48"/>
      </g>
     </g>
    </g>
    <g id="text_14">
     <!-- Attacker Channels -->
     <defs>
      <path d="M -0.140625 0 
L 27.34375 71.578125 
L 37.546875 71.578125 
L 66.84375 0 
L 56.0625 0 
L 47.703125 21.6875 
L 17.78125 21.6875 
L 9.90625 0 
z
M 20.515625 29.390625 
L 44.78125 29.390625 
L 37.3125 49.21875 
Q 33.890625 58.25 32.234375 64.0625 
Q 30.859375 57.171875 28.375 50.390625 
z
" id="ArialMT-65"/>
      <path d="M 25.78125 7.859375 
L 27.046875 0.09375 
Q 23.34375 -0.6875 20.40625 -0.6875 
Q 15.625 -0.6875 12.984375 0.828125 
Q 10.359375 2.34375 9.28125 4.8125 
Q 8.203125 7.28125 8.203125 15.1875 
L 8.203125 45.015625 
L 1.765625 45.015625 
L 1.765625 51.859375 
L 8.203125 51.859375 
L 8.203125 64.703125 
L 16.9375 69.96875 
L 16.9375 51.859375 
L 25.78125 51.859375 
L 25.78125 45.015625 
L 16.9375 45.015625 
L 16.9375 14.703125 
Q 16.9375 10.9375 17.40625 9.859375 
Q 17.875 8.796875 18.921875 8.15625 
Q 19.96875 7.515625 21.921875 7.515625 
Q 23.390625 7.515625 25.78125 7.859375 
z
" id="ArialMT-116"/>
      <path d="M 40.4375 6.390625 
Q 35.546875 2.25 31.03125 0.53125 
Q 26.515625 -1.171875 21.34375 -1.171875 
Q 12.796875 -1.171875 8.203125 3 
Q 3.609375 7.171875 3.609375 13.671875 
Q 3.609375 17.484375 5.34375 20.625 
Q 7.078125 23.78125 9.890625 25.6875 
Q 12.703125 27.59375 16.21875 28.5625 
Q 18.796875 29.25 24.03125 29.890625 
Q 34.671875 31.15625 39.703125 32.90625 
Q 39.75 34.71875 39.75 35.203125 
Q 39.75 40.578125 37.25 42.78125 
Q 33.890625 45.75 27.25 45.75 
Q 21.046875 45.75 18.09375 43.578125 
Q 15.140625 41.40625 13.71875 35.890625 
L 5.125 37.0625 
Q 6.296875 42.578125 8.984375 45.96875 
Q 11.671875 49.359375 16.75 51.1875 
Q 21.828125 53.03125 28.515625 53.03125 
Q 35.15625 53.03125 39.296875 51.46875 
Q 43.453125 49.90625 45.40625 47.53125 
Q 47.359375 45.171875 48.140625 41.546875 
Q 48.578125 39.3125 48.578125 33.453125 
L 48.578125 21.734375 
Q 48.578125 9.46875 49.140625 6.21875 
Q 49.703125 2.984375 51.375 0 
L 42.1875 0 
Q 40.828125 2.734375 40.4375 6.390625 
z
M 39.703125 26.03125 
Q 34.90625 24.078125 25.34375 22.703125 
Q 19.921875 21.921875 17.671875 20.9375 
Q 15.4375 19.96875 14.203125 18.09375 
Q 12.984375 16.21875 12.984375 13.921875 
Q 12.984375 10.40625 15.640625 8.0625 
Q 18.3125 5.71875 23.4375 5.71875 
Q 28.515625 5.71875 32.46875 7.9375 
Q 36.421875 10.15625 38.28125 14.015625 
Q 39.703125 17 39.703125 22.796875 
z
" id="ArialMT-97"/>
      <path d="M 40.4375 19 
L 49.078125 17.875 
Q 47.65625 8.9375 41.8125 3.875 
Q 35.984375 -1.171875 27.484375 -1.171875 
Q 16.84375 -1.171875 10.375 5.78125 
Q 3.90625 12.75 3.90625 25.734375 
Q 3.90625 34.125 6.6875 40.421875 
Q 9.46875 46.734375 15.15625 49.875 
Q 20.84375 53.03125 27.546875 53.03125 
Q 35.984375 53.03125 41.359375 48.75 
Q 46.734375 44.484375 48.25 36.625 
L 39.703125 35.296875 
Q 38.484375 40.53125 35.375 43.15625 
Q 32.28125 45.796875 27.875 45.796875 
Q 21.234375 45.796875 17.078125 41.03125 
Q 12.9375 36.28125 12.9375 25.984375 
Q 12.9375 15.53125 16.9375 10.796875 
Q 20.953125 6.0625 27.390625 6.0625 
Q 32.5625 6.0625 36.03125 9.234375 
Q 39.5 12.40625 40.4375 19 
z
" id="ArialMT-99"/>
      <path d="M 6.640625 0 
L 6.640625 71.578125 
L 15.4375 71.578125 
L 15.4375 30.765625 
L 36.234375 51.859375 
L 47.609375 51.859375 
L 27.78125 32.625 
L 49.609375 0 
L 38.765625 0 
L 21.625 26.515625 
L 15.4375 20.5625 
L 15.4375 0 
z
" id="ArialMT-107"/>
      <path id="ArialMT-32"/>
      <path d="M 58.796875 25.09375 
L 68.265625 22.703125 
Q 65.28125 11.03125 57.546875 4.90625 
Q 49.8125 -1.21875 38.625 -1.21875 
Q 27.046875 -1.21875 19.796875 3.484375 
Q 12.546875 8.203125 8.765625 17.140625 
Q 4.984375 26.078125 4.984375 36.328125 
Q 4.984375 47.515625 9.25 55.828125 
Q 13.53125 64.15625 21.40625 68.46875 
Q 29.296875 72.796875 38.765625 72.796875 
Q 49.515625 72.796875 56.828125 67.328125 
Q 64.15625 61.859375 67.046875 51.953125 
L 57.71875 49.75 
Q 55.21875 57.5625 50.484375 61.125 
Q 45.75 64.703125 38.578125 64.703125 
Q 30.328125 64.703125 24.78125 60.734375 
Q 19.234375 56.78125 16.984375 50.109375 
Q 14.75 43.453125 14.75 36.375 
Q 14.75 27.25 17.40625 20.4375 
Q 20.0625 13.625 25.671875 10.25 
Q 31.296875 6.890625 37.84375 6.890625 
Q 45.796875 6.890625 51.3125 11.46875 
Q 56.84375 16.0625 58.796875 25.09375 
z
" id="ArialMT-67"/>
      <path d="M 6.59375 0 
L 6.59375 71.578125 
L 15.375 71.578125 
L 15.375 45.90625 
Q 21.53125 53.03125 30.90625 53.03125 
Q 36.671875 53.03125 40.921875 50.75 
Q 45.171875 48.484375 47 44.484375 
Q 48.828125 40.484375 48.828125 32.859375 
L 48.828125 0 
L 40.046875 0 
L 40.046875 32.859375 
Q 40.046875 39.453125 37.1875 42.453125 
Q 34.328125 45.453125 29.109375 45.453125 
Q 25.203125 45.453125 21.75 43.421875 
Q 18.3125 41.40625 16.84375 37.9375 
Q 15.375 34.46875 15.375 28.375 
L 15.375 0 
z
" id="ArialMT-104"/>
      <path d="M 6.59375 0 
L 6.59375 51.859375 
L 14.5 51.859375 
L 14.5 44.484375 
Q 20.21875 53.03125 31 53.03125 
Q 35.6875 53.03125 39.625 51.34375 
Q 43.5625 49.65625 45.515625 46.921875 
Q 47.46875 44.1875 48.25 40.4375 
Q 48.734375 37.984375 48.734375 31.890625 
L 48.734375 0 
L 39.9375 0 
L 39.9375 31.546875 
Q 39.9375 36.921875 38.90625 39.578125 
Q 37.890625 42.234375 35.28125 43.8125 
Q 32.671875 45.40625 29.15625 45.40625 
Q 23.53125 45.40625 19.453125 41.84375 
Q 15.375 38.28125 15.375 28.328125 
L 15.375 0 
z
" id="ArialMT-110"/>
      <path d="M 6.390625 0 
L 6.390625 71.578125 
L 15.1875 71.578125 
L 15.1875 0 
z
" id="ArialMT-108"/>
      <path d="M 3.078125 15.484375 
L 11.765625 16.84375 
Q 12.5 11.625 15.84375 8.84375 
Q 19.1875 6.0625 25.203125 6.0625 
Q 31.25 6.0625 34.171875 8.515625 
Q 37.109375 10.984375 37.109375 14.3125 
Q 37.109375 17.28125 34.515625 19 
Q 32.71875 20.171875 25.53125 21.96875 
Q 15.875 24.421875 12.140625 26.203125 
Q 8.40625 27.984375 6.46875 31.125 
Q 4.546875 34.28125 4.546875 38.09375 
Q 4.546875 41.546875 6.125 44.5 
Q 7.71875 47.46875 10.453125 49.421875 
Q 12.5 50.921875 16.03125 51.96875 
Q 19.578125 53.03125 23.640625 53.03125 
Q 29.734375 53.03125 34.34375 51.265625 
Q 38.96875 49.515625 41.15625 46.5 
Q 43.359375 43.5 44.1875 38.484375 
L 35.59375 37.3125 
Q 35.015625 41.3125 32.203125 43.546875 
Q 29.390625 45.796875 24.265625 45.796875 
Q 18.21875 45.796875 15.625 43.796875 
Q 13.03125 41.796875 13.03125 39.109375 
Q 13.03125 37.40625 14.109375 36.03125 
Q 15.1875 34.625 17.484375 33.6875 
Q 18.796875 33.203125 25.25 31.453125 
Q 34.578125 28.953125 38.25 27.359375 
Q 41.9375 25.78125 44.03125 22.75 
Q 46.140625 19.734375 46.140625 15.234375 
Q 46.140625 10.84375 43.578125 6.953125 
Q 41.015625 3.078125 36.171875 0.953125 
Q 31.34375 -1.171875 25.25 -1.171875 
Q 15.140625 -1.171875 9.84375 3.03125 
Q 4.546875 7.234375 3.078125 15.484375 
z
" id="ArialMT-115"/>
     </defs>
     <g style="fill:#262626;" transform="translate(10.962656 190.377578)rotate(-90)scale(0.11 -0.11)">
      <use xlink:href="#ArialMT-65"/>
      <use x="66.699219" xlink:href="#ArialMT-116"/>
      <use x="94.482422" xlink:href="#ArialMT-116"/>
      <use x="122.265625" xlink:href="#ArialMT-97"/>
      <use x="177.880859" xlink:href="#ArialMT-99"/>
      <use x="227.880859" xlink:href="#ArialMT-107"/>
      <use x="277.880859" xlink:href="#ArialMT-101"/>
      <use x="333.496094" xlink:href="#ArialMT-114"/>
      <use x="366.796875" xlink:href="#ArialMT-32"/>
      <use x="394.580078" xlink:href="#ArialMT-67"/>
      <use x="466.796875" xlink:href="#ArialMT-104"/>
      <use x="522.412109" xlink:href="#ArialMT-97"/>
      <use x="578.027344" xlink:href="#ArialMT-110"/>
      <use x="633.642578" xlink:href="#ArialMT-110"/>
      <use x="689.257812" xlink:href="#ArialMT-101"/>
      <use x="744.873047" xlink:href="#ArialMT-108"/>
      <use x="767.089844" xlink:href="#ArialMT-115"/>
     </g>
    </g>
   </g>
   <g id="patch_3">
    <path clip-path="url(#p2b8f7dd51b)" d="M 54.887931 246.57914 
L 67.181034 246.57914 
L 67.181034 237.045533 
L 54.887931 237.045533 
L 54.887931 246.57914 
z
" style="fill:none;stroke:#808080;stroke-linejoin:miter;stroke-width:0.5;"/>
   </g>
   <g id="line2d_13">
    <path clip-path="url(#p2b8f7dd51b)" d="M 55.689655 245.957383 
L 56.224138 243.88486 
L 56.758621 243.88486 
L 57.293103 243.88486 
L 57.827586 243.88486 
L 58.362069 243.88486 
L 58.896552 243.88486 
L 59.431034 243.88486 
L 59.965517 243.88486 
L 60.5 241.812336 
L 61.034483 241.812336 
L 61.568966 241.812336 
L 62.103448 241.812336 
L 62.637931 241.812336 
L 63.172414 241.812336 
L 63.706897 241.812336 
L 64.241379 241.812336 
L 64.775862 241.812336 
L 65.310345 239.739813 
L 65.844828 239.739813 
L 66.37931 239.739813 
L 66.913793 239.739813 
L 67.448276 239.739813 
L 67.982759 239.739813 
L 68.517241 239.739813 
L 69.051724 239.739813 
L 69.586207 239.739813 
L 70.12069 237.66729 
L 70.655172 237.66729 
L 71.189655 237.66729 
L 71.724138 237.66729 
L 72.258621 237.66729 
L 72.793103 237.66729 
L 73.327586 237.66729 
L 73.862069 237.66729 
L 74.396552 237.66729 
L 74.931034 235.594766 
L 75.465517 235.594766 
L 76 235.594766 
L 76.534483 235.594766 
L 77.068966 235.594766 
L 77.603448 235.594766 
L 78.137931 235.594766 
L 78.672414 235.594766 
L 79.206897 235.594766 
L 79.741379 233.522243 
L 80.275862 233.522243 
L 80.810345 233.522243 
L 81.344828 233.522243 
L 81.87931 233.522243 
" style="fill:none;stroke:#4c72b0;stroke-linecap:round;stroke-width:1.5;"/>
   </g>
   <g id="line2d_14">
    <path clip-path="url(#p2b8f7dd51b)" d="M 55.689655 245.957383 
L 56.224138 243.88486 
L 56.758621 243.88486 
L 57.293103 243.88486 
L 57.827586 243.88486 
L 58.362069 243.88486 
L 58.896552 243.88486 
L 59.431034 243.88486 
L 59.965517 241.812336 
L 60.5 241.812336 
L 61.034483 241.812336 
L 61.568966 241.812336 
L 62.103448 241.812336 
L 62.637931 241.812336 
L 63.172414 241.812336 
L 63.706897 241.812336 
L 64.241379 239.739813 
L 64.775862 239.739813 
L 65.310345 239.739813 
L 65.844828 239.739813 
L 66.37931 239.739813 
L 66.913793 239.739813 
L 67.448276 239.739813 
L 67.982759 237.66729 
L 68.517241 237.66729 
L 69.051724 237.66729 
L 69.586207 237.66729 
L 70.12069 237.66729 
L 70.655172 237.66729 
L 71.189655 237.66729 
L 71.724138 237.66729 
L 72.258621 235.594766 
L 72.793103 235.594766 
L 73.327586 235.594766 
L 73.862069 235.594766 
L 74.396552 235.594766 
L 74.931034 235.594766 
L 75.465517 235.594766 
L 76 233.522243 
L 76.534483 233.522243 
L 77.068966 233.522243 
L 77.603448 233.522243 
L 78.137931 233.522243 
L 78.672414 233.522243 
L 79.206897 233.522243 
L 79.741379 233.522243 
L 80.275862 231.44972 
L 80.810345 231.44972 
L 81.344828 231.44972 
L 81.87931 231.44972 
" style="fill:none;stroke:#dd8452;stroke-linecap:round;stroke-width:1.5;"/>
   </g>
   <g id="line2d_15">
    <path clip-path="url(#p2b8f7dd51b)" d="M 55.689655 245.957383 
L 56.224138 243.88486 
L 56.758621 243.88486 
L 57.293103 243.88486 
L 57.827586 243.88486 
L 58.362069 243.88486 
L 58.896552 241.812336 
L 59.431034 241.812336 
L 59.965517 241.812336 
L 60.5 241.812336 
L 61.034483 241.812336 
L 61.568966 239.739813 
L 62.103448 239.739813 
L 62.637931 239.739813 
L 63.172414 239.739813 
L 63.706897 239.739813 
L 64.241379 237.66729 
L 64.775862 237.66729 
L 65.310345 237.66729 
L 65.844828 237.66729 
L 66.37931 237.66729 
L 66.913793 235.594766 
L 67.448276 235.594766 
L 67.982759 235.594766 
L 68.517241 235.594766 
L 69.051724 235.594766 
L 69.586207 233.522243 
L 70.12069 233.522243 
L 70.655172 233.522243 
L 71.189655 233.522243 
L 71.724138 233.522243 
L 72.258621 231.44972 
L 72.793103 231.44972 
L 73.327586 231.44972 
L 73.862069 231.44972 
L 74.396552 231.44972 
L 74.931034 229.377196 
L 75.465517 229.377196 
L 76 229.377196 
L 76.534483 229.377196 
L 77.068966 229.377196 
L 77.603448 227.304673 
L 78.137931 227.304673 
L 78.672414 227.304673 
L 79.206897 227.304673 
L 79.741379 227.304673 
L 80.275862 225.23215 
L 80.810345 225.23215 
L 81.344828 225.23215 
L 81.87931 225.23215 
" style="fill:none;stroke:#55a868;stroke-linecap:round;stroke-width:1.5;"/>
   </g>
   <g id="patch_4">
    <path d="M 45 256.32 
L 45 34.56 
" style="fill:none;stroke:#cccccc;stroke-linecap:square;stroke-linejoin:miter;stroke-width:1.25;"/>
   </g>
   <g id="patch_5">
    <path d="M 324 256.32 
L 324 34.56 
" style="fill:none;stroke:#cccccc;stroke-linecap:square;stroke-linejoin:miter;stroke-width:1.25;"/>
   </g>
   <g id="patch_6">
    <path d="M 45 256.32 
L 324 256.32 
" style="fill:none;stroke:#cccccc;stroke-linecap:square;stroke-linejoin:miter;stroke-width:1.25;"/>
   </g>
   <g id="patch_7">
    <path d="M 45 34.56 
L 324 34.56 
" style="fill:none;stroke:#cccccc;stroke-linecap:square;stroke-linejoin:miter;stroke-width:1.25;"/>
   </g>
   <g id="legend_1">
    <g id="patch_8">
     <path d="M 224.847031 250.82 
L 316.3 250.82 
Q 318.5 250.82 318.5 248.62 
L 318.5 202.7775 
Q 318.5 200.5775 316.3 200.5775 
L 224.847031 200.5775 
Q 222.647031 200.5775 222.647031 202.7775 
L 222.647031 248.62 
Q 222.647031 250.82 224.847031 250.82 
z
" style="fill:#ffffff;opacity:0.8;stroke:#cccccc;stroke-linejoin:miter;"/>
    </g>
    <g id="line2d_16">
     <path d="M 227.047031 209.001094 
L 249.047031 209.001094 
" style="fill:none;stroke:#4c72b0;stroke-linecap:round;stroke-width:1.5;"/>
    </g>
    <g id="line2d_17"/>
    <g id="text_15">
     <!-- LND -->
     <defs>
      <path d="M 7.328125 0 
L 7.328125 71.578125 
L 16.796875 71.578125 
L 16.796875 8.453125 
L 52.046875 8.453125 
L 52.046875 0 
z
" id="ArialMT-76"/>
      <path d="M 7.625 0 
L 7.625 71.578125 
L 17.328125 71.578125 
L 54.9375 15.375 
L 54.9375 71.578125 
L 64.015625 71.578125 
L 64.015625 0 
L 54.296875 0 
L 16.703125 56.25 
L 16.703125 0 
z
" id="ArialMT-78"/>
     </defs>
     <g style="fill:#262626;" transform="translate(257.847031 212.851094)scale(0.11 -0.11)">
      <use xlink:href="#ArialMT-76"/>
      <use x="55.615234" xlink:href="#ArialMT-78"/>
      <use x="127.832031" xlink:href="#ArialMT-68"/>
     </g>
    </g>
    <g id="line2d_18">
     <path d="M 227.047031 224.695 
L 249.047031 224.695 
" style="fill:none;stroke:#dd8452;stroke-linecap:round;stroke-width:1.5;"/>
    </g>
    <g id="line2d_19"/>
    <g id="text_16">
     <!-- C-Lightning -->
     <defs>
      <path d="M 3.171875 21.484375 
L 3.171875 30.328125 
L 30.171875 30.328125 
L 30.171875 21.484375 
z
" id="ArialMT-45"/>
      <path d="M 6.640625 61.46875 
L 6.640625 71.578125 
L 15.4375 71.578125 
L 15.4375 61.46875 
z
M 6.640625 0 
L 6.640625 51.859375 
L 15.4375 51.859375 
L 15.4375 0 
z
" id="ArialMT-105"/>
     </defs>
     <g style="fill:#262626;" transform="translate(257.847031 228.545)scale(0.11 -0.11)">
      <use xlink:href="#ArialMT-67"/>
      <use x="72.216797" xlink:href="#ArialMT-45"/>
      <use x="105.517578" xlink:href="#ArialMT-76"/>
      <use x="161.132812" xlink:href="#ArialMT-105"/>
      <use x="183.349609" xlink:href="#ArialMT-103"/>
      <use x="238.964844" xlink:href="#ArialMT-104"/>
      <use x="294.580078" xlink:href="#ArialMT-116"/>
      <use x="322.363281" xlink:href="#ArialMT-110"/>
      <use x="377.978516" xlink:href="#ArialMT-105"/>
      <use x="400.195312" xlink:href="#ArialMT-110"/>
      <use x="455.810547" xlink:href="#ArialMT-103"/>
     </g>
    </g>
    <g id="line2d_20">
     <path d="M 227.047031 240.38375 
L 249.047031 240.38375 
" style="fill:none;stroke:#55a868;stroke-linecap:round;stroke-width:1.5;"/>
    </g>
    <g id="line2d_21"/>
    <g id="text_17">
     <!-- Eclair -->
     <defs>
      <path d="M 7.90625 0 
L 7.90625 71.578125 
L 59.671875 71.578125 
L 59.671875 63.140625 
L 17.390625 63.140625 
L 17.390625 41.21875 
L 56.984375 41.21875 
L 56.984375 32.8125 
L 17.390625 32.8125 
L 17.390625 8.453125 
L 61.328125 8.453125 
L 61.328125 0 
z
" id="ArialMT-69"/>
     </defs>
     <g style="fill:#262626;" transform="translate(257.847031 244.23375)scale(0.11 -0.11)">
      <use xlink:href="#ArialMT-69"/>
      <use x="66.699219" xlink:href="#ArialMT-99"/>
      <use x="116.699219" xlink:href="#ArialMT-108"/>
      <use x="138.916016" xlink:href="#ArialMT-97"/>
      <use x="194.53125" xlink:href="#ArialMT-105"/>
      <use x="216.748047" xlink:href="#ArialMT-114"/>
     </g>
    </g>
   </g>
  </g>
  <g id="axes_2">
   <g id="patch_9">
    <path d="M 50.5 135.396075 
L 173.431034 135.396075 
L 173.431034 40.06 
L 50.5 40.06 
z
" style="fill:#ffffff;"/>
   </g>
   <g id="matplotlib.axis_3">
    <g id="xtick_7">
     <g id="line2d_22">
      <path clip-path="url(#p07c8e3087d)" d="M 58.517241 135.396075 
L 58.517241 40.06 
" style="fill:none;stroke:#cccccc;stroke-linecap:round;"/>
     </g>
    </g>
    <g id="xtick_8">
     <g id="line2d_23">
      <path clip-path="url(#p07c8e3087d)" d="M 111.965517 135.396075 
L 111.965517 40.06 
" style="fill:none;stroke:#cccccc;stroke-linecap:round;"/>
     </g>
    </g>
    <g id="xtick_9">
     <g id="line2d_24">
      <path clip-path="url(#p07c8e3087d)" d="M 165.413793 135.396075 
L 165.413793 40.06 
" style="fill:none;stroke:#cccccc;stroke-linecap:round;"/>
     </g>
    </g>
   </g>
   <g id="matplotlib.axis_4">
    <g id="ytick_7">
     <g id="line2d_25">
      <path clip-path="url(#p07c8e3087d)" d="M 50.5 129.178505 
L 173.431034 129.178505 
" style="fill:none;stroke:#cccccc;stroke-linecap:round;"/>
     </g>
    </g>
    <g id="ytick_8">
     <g id="line2d_26">
      <path clip-path="url(#p07c8e3087d)" d="M 50.5 87.728037 
L 173.431034 87.728037 
" style="fill:none;stroke:#cccccc;stroke-linecap:round;"/>
     </g>
    </g>
    <g id="ytick_9">
     <g id="line2d_27">
      <path clip-path="url(#p07c8e3087d)" d="M 50.5 46.27757 
L 173.431034 46.27757 
" style="fill:none;stroke:#cccccc;stroke-linecap:round;"/>
     </g>
    </g>
   </g>
   <g id="patch_10">
    <path d="M 50.5 40.06 
L 54.887931 237.045533 
" style="fill:none;stroke:#808080;stroke-linejoin:miter;stroke-width:0.5;"/>
   </g>
   <g id="patch_11">
    <path d="M 173.431034 135.396075 
L 67.181034 246.57914 
" style="fill:none;stroke:#808080;stroke-linejoin:miter;stroke-width:0.5;"/>
   </g>
   <g id="line2d_28">
    <path clip-path="url(#p07c8e3087d)" d="M 58.517241 129.178505 
L 63.862069 108.453271 
L 69.206897 108.453271 
L 74.551724 108.453271 
L 79.896552 108.453271 
L 85.241379 108.453271 
L 90.586207 108.453271 
L 95.931034 108.453271 
L 101.275862 108.453271 
L 106.62069 87.728037 
L 111.965517 87.728037 
L 117.310345 87.728037 
L 122.655172 87.728037 
L 128 87.728037 
L 133.344828 87.728037 
L 138.689655 87.728037 
L 144.034483 87.728037 
L 149.37931 87.728037 
L 154.724138 67.002804 
L 160.068966 67.002804 
L 165.413793 67.002804 
L 170.758621 67.002804 
L 176.103448 67.002804 
L 181.448276 67.002804 
L 186.793103 67.002804 
L 192.137931 67.002804 
L 197.482759 67.002804 
L 202.827586 46.27757 
L 208.172414 46.27757 
L 213.517241 46.27757 
L 218.862069 46.27757 
L 224.206897 46.27757 
L 229.551724 46.27757 
L 234.896552 46.27757 
L 240.241379 46.27757 
L 245.586207 46.27757 
L 250.931034 25.552336 
L 256.275862 25.552336 
L 261.62069 25.552336 
L 266.965517 25.552336 
L 272.310345 25.552336 
L 277.655172 25.552336 
L 283 25.552336 
L 288.344828 25.552336 
L 293.689655 25.552336 
L 299.034483 4.827103 
L 304.37931 4.827103 
L 309.724138 4.827103 
L 315.068966 4.827103 
L 320.413793 4.827103 
" style="fill:none;stroke:#4c72b0;stroke-linecap:round;stroke-width:1.5;"/>
    <defs>
     <path d="M 0 1.5 
C 0.397805 1.5 0.77937 1.341951 1.06066 1.06066 
C 1.341951 0.77937 1.5 0.397805 1.5 0 
C 1.5 -0.397805 1.341951 -0.77937 1.06066 -1.06066 
C 0.77937 -1.341951 0.397805 -1.5 0 -1.5 
C -0.397805 -1.5 -0.77937 -1.341951 -1.06066 -1.06066 
C -1.341951 -0.77937 -1.5 -0.397805 -1.5 0 
C -1.5 0.397805 -1.341951 0.77937 -1.06066 1.06066 
C -0.77937 1.341951 -0.397805 1.5 0 1.5 
z
" id="m6205860d3d" style="stroke:#4c72b0;"/>
    </defs>
    <g clip-path="url(#p07c8e3087d)">
     <use style="fill:#4c72b0;stroke:#4c72b0;" x="58.517241" xlink:href="#m6205860d3d" y="129.178505"/>
     <use style="fill:#4c72b0;stroke:#4c72b0;" x="63.862069" xlink:href="#m6205860d3d" y="108.453271"/>
     <use style="fill:#4c72b0;stroke:#4c72b0;" x="69.206897" xlink:href="#m6205860d3d" y="108.453271"/>
     <use style="fill:#4c72b0;stroke:#4c72b0;" x="74.551724" xlink:href="#m6205860d3d" y="108.453271"/>
     <use style="fill:#4c72b0;stroke:#4c72b0;" x="79.896552" xlink:href="#m6205860d3d" y="108.453271"/>
     <use style="fill:#4c72b0;stroke:#4c72b0;" x="85.241379" xlink:href="#m6205860d3d" y="108.453271"/>
     <use style="fill:#4c72b0;stroke:#4c72b0;" x="90.586207" xlink:href="#m6205860d3d" y="108.453271"/>
     <use style="fill:#4c72b0;stroke:#4c72b0;" x="95.931034" xlink:href="#m6205860d3d" y="108.453271"/>
     <use style="fill:#4c72b0;stroke:#4c72b0;" x="101.275862" xlink:href="#m6205860d3d" y="108.453271"/>
     <use style="fill:#4c72b0;stroke:#4c72b0;" x="106.62069" xlink:href="#m6205860d3d" y="87.728037"/>
     <use style="fill:#4c72b0;stroke:#4c72b0;" x="111.965517" xlink:href="#m6205860d3d" y="87.728037"/>
     <use style="fill:#4c72b0;stroke:#4c72b0;" x="117.310345" xlink:href="#m6205860d3d" y="87.728037"/>
     <use style="fill:#4c72b0;stroke:#4c72b0;" x="122.655172" xlink:href="#m6205860d3d" y="87.728037"/>
     <use style="fill:#4c72b0;stroke:#4c72b0;" x="128" xlink:href="#m6205860d3d" y="87.728037"/>
     <use style="fill:#4c72b0;stroke:#4c72b0;" x="133.344828" xlink:href="#m6205860d3d" y="87.728037"/>
     <use style="fill:#4c72b0;stroke:#4c72b0;" x="138.689655" xlink:href="#m6205860d3d" y="87.728037"/>
     <use style="fill:#4c72b0;stroke:#4c72b0;" x="144.034483" xlink:href="#m6205860d3d" y="87.728037"/>
     <use style="fill:#4c72b0;stroke:#4c72b0;" x="149.37931" xlink:href="#m6205860d3d" y="87.728037"/>
     <use style="fill:#4c72b0;stroke:#4c72b0;" x="154.724138" xlink:href="#m6205860d3d" y="67.002804"/>
     <use style="fill:#4c72b0;stroke:#4c72b0;" x="160.068966" xlink:href="#m6205860d3d" y="67.002804"/>
     <use style="fill:#4c72b0;stroke:#4c72b0;" x="165.413793" xlink:href="#m6205860d3d" y="67.002804"/>
     <use style="fill:#4c72b0;stroke:#4c72b0;" x="170.758621" xlink:href="#m6205860d3d" y="67.002804"/>
     <use style="fill:#4c72b0;stroke:#4c72b0;" x="176.103448" xlink:href="#m6205860d3d" y="67.002804"/>
     <use style="fill:#4c72b0;stroke:#4c72b0;" x="181.448276" xlink:href="#m6205860d3d" y="67.002804"/>
     <use style="fill:#4c72b0;stroke:#4c72b0;" x="186.793103" xlink:href="#m6205860d3d" y="67.002804"/>
     <use style="fill:#4c72b0;stroke:#4c72b0;" x="192.137931" xlink:href="#m6205860d3d" y="67.002804"/>
     <use style="fill:#4c72b0;stroke:#4c72b0;" x="197.482759" xlink:href="#m6205860d3d" y="67.002804"/>
     <use style="fill:#4c72b0;stroke:#4c72b0;" x="202.827586" xlink:href="#m6205860d3d" y="46.27757"/>
     <use style="fill:#4c72b0;stroke:#4c72b0;" x="208.172414" xlink:href="#m6205860d3d" y="46.27757"/>
     <use style="fill:#4c72b0;stroke:#4c72b0;" x="213.517241" xlink:href="#m6205860d3d" y="46.27757"/>
     <use style="fill:#4c72b0;stroke:#4c72b0;" x="218.862069" xlink:href="#m6205860d3d" y="46.27757"/>
     <use style="fill:#4c72b0;stroke:#4c72b0;" x="224.206897" xlink:href="#m6205860d3d" y="46.27757"/>
     <use style="fill:#4c72b0;stroke:#4c72b0;" x="229.551724" xlink:href="#m6205860d3d" y="46.27757"/>
     <use style="fill:#4c72b0;stroke:#4c72b0;" x="234.896552" xlink:href="#m6205860d3d" y="46.27757"/>
     <use style="fill:#4c72b0;stroke:#4c72b0;" x="240.241379" xlink:href="#m6205860d3d" y="46.27757"/>
     <use style="fill:#4c72b0;stroke:#4c72b0;" x="245.586207" xlink:href="#m6205860d3d" y="46.27757"/>
     <use style="fill:#4c72b0;stroke:#4c72b0;" x="250.931034" xlink:href="#m6205860d3d" y="25.552336"/>
     <use style="fill:#4c72b0;stroke:#4c72b0;" x="256.275862" xlink:href="#m6205860d3d" y="25.552336"/>
     <use style="fill:#4c72b0;stroke:#4c72b0;" x="261.62069" xlink:href="#m6205860d3d" y="25.552336"/>
     <use style="fill:#4c72b0;stroke:#4c72b0;" x="266.965517" xlink:href="#m6205860d3d" y="25.552336"/>
     <use style="fill:#4c72b0;stroke:#4c72b0;" x="272.310345" xlink:href="#m6205860d3d" y="25.552336"/>
     <use style="fill:#4c72b0;stroke:#4c72b0;" x="277.655172" xlink:href="#m6205860d3d" y="25.552336"/>
     <use style="fill:#4c72b0;stroke:#4c72b0;" x="283" xlink:href="#m6205860d3d" y="25.552336"/>
     <use style="fill:#4c72b0;stroke:#4c72b0;" x="288.344828" xlink:href="#m6205860d3d" y="25.552336"/>
     <use style="fill:#4c72b0;stroke:#4c72b0;" x="293.689655" xlink:href="#m6205860d3d" y="25.552336"/>
     <use style="fill:#4c72b0;stroke:#4c72b0;" x="299.034483" xlink:href="#m6205860d3d" y="4.827103"/>
     <use style="fill:#4c72b0;stroke:#4c72b0;" x="304.37931" xlink:href="#m6205860d3d" y="4.827103"/>
     <use style="fill:#4c72b0;stroke:#4c72b0;" x="309.724138" xlink:href="#m6205860d3d" y="4.827103"/>
     <use style="fill:#4c72b0;stroke:#4c72b0;" x="315.068966" xlink:href="#m6205860d3d" y="4.827103"/>
     <use style="fill:#4c72b0;stroke:#4c72b0;" x="320.413793" xlink:href="#m6205860d3d" y="4.827103"/>
    </g>
   </g>
   <g id="line2d_29">
    <path clip-path="url(#p07c8e3087d)" d="M 58.517241 129.178505 
L 63.862069 108.453271 
L 69.206897 108.453271 
L 74.551724 108.453271 
L 79.896552 108.453271 
L 85.241379 108.453271 
L 90.586207 108.453271 
L 95.931034 108.453271 
L 101.275862 87.728037 
L 106.62069 87.728037 
L 111.965517 87.728037 
L 117.310345 87.728037 
L 122.655172 87.728037 
L 128 87.728037 
L 133.344828 87.728037 
L 138.689655 87.728037 
L 144.034483 67.002804 
L 149.37931 67.002804 
L 154.724138 67.002804 
L 160.068966 67.002804 
L 165.413793 67.002804 
L 170.758621 67.002804 
L 176.103448 67.002804 
L 181.448276 46.27757 
L 186.793103 46.27757 
L 192.137931 46.27757 
L 197.482759 46.27757 
L 202.827586 46.27757 
L 208.172414 46.27757 
L 213.517241 46.27757 
L 218.862069 46.27757 
L 224.206897 25.552336 
L 229.551724 25.552336 
L 234.896552 25.552336 
L 240.241379 25.552336 
L 245.586207 25.552336 
L 250.931034 25.552336 
L 256.275862 25.552336 
L 261.62069 4.827103 
L 266.965517 4.827103 
L 272.310345 4.827103 
L 277.655172 4.827103 
L 283 4.827103 
L 288.344828 4.827103 
L 293.689655 4.827103 
L 299.034483 4.827103 
L 300.537233 -1 
" style="fill:none;stroke:#dd8452;stroke-linecap:round;stroke-width:1.5;"/>
    <defs>
     <path d="M 0 1.5 
C 0.397805 1.5 0.77937 1.341951 1.06066 1.06066 
C 1.341951 0.77937 1.5 0.397805 1.5 0 
C 1.5 -0.397805 1.341951 -0.77937 1.06066 -1.06066 
C 0.77937 -1.341951 0.397805 -1.5 0 -1.5 
C -0.397805 -1.5 -0.77937 -1.341951 -1.06066 -1.06066 
C -1.341951 -0.77937 -1.5 -0.397805 -1.5 0 
C -1.5 0.397805 -1.341951 0.77937 -1.06066 1.06066 
C -0.77937 1.341951 -0.397805 1.5 0 1.5 
z
" id="m676a58069f" style="stroke:#dd8452;"/>
    </defs>
    <g clip-path="url(#p07c8e3087d)">
     <use style="fill:#dd8452;stroke:#dd8452;" x="58.517241" xlink:href="#m676a58069f" y="129.178505"/>
     <use style="fill:#dd8452;stroke:#dd8452;" x="63.862069" xlink:href="#m676a58069f" y="108.453271"/>
     <use style="fill:#dd8452;stroke:#dd8452;" x="69.206897" xlink:href="#m676a58069f" y="108.453271"/>
     <use style="fill:#dd8452;stroke:#dd8452;" x="74.551724" xlink:href="#m676a58069f" y="108.453271"/>
     <use style="fill:#dd8452;stroke:#dd8452;" x="79.896552" xlink:href="#m676a58069f" y="108.453271"/>
     <use style="fill:#dd8452;stroke:#dd8452;" x="85.241379" xlink:href="#m676a58069f" y="108.453271"/>
     <use style="fill:#dd8452;stroke:#dd8452;" x="90.586207" xlink:href="#m676a58069f" y="108.453271"/>
     <use style="fill:#dd8452;stroke:#dd8452;" x="95.931034" xlink:href="#m676a58069f" y="108.453271"/>
     <use style="fill:#dd8452;stroke:#dd8452;" x="101.275862" xlink:href="#m676a58069f" y="87.728037"/>
     <use style="fill:#dd8452;stroke:#dd8452;" x="106.62069" xlink:href="#m676a58069f" y="87.728037"/>
     <use style="fill:#dd8452;stroke:#dd8452;" x="111.965517" xlink:href="#m676a58069f" y="87.728037"/>
     <use style="fill:#dd8452;stroke:#dd8452;" x="117.310345" xlink:href="#m676a58069f" y="87.728037"/>
     <use style="fill:#dd8452;stroke:#dd8452;" x="122.655172" xlink:href="#m676a58069f" y="87.728037"/>
     <use style="fill:#dd8452;stroke:#dd8452;" x="128" xlink:href="#m676a58069f" y="87.728037"/>
     <use style="fill:#dd8452;stroke:#dd8452;" x="133.344828" xlink:href="#m676a58069f" y="87.728037"/>
     <use style="fill:#dd8452;stroke:#dd8452;" x="138.689655" xlink:href="#m676a58069f" y="87.728037"/>
     <use style="fill:#dd8452;stroke:#dd8452;" x="144.034483" xlink:href="#m676a58069f" y="67.002804"/>
     <use style="fill:#dd8452;stroke:#dd8452;" x="149.37931" xlink:href="#m676a58069f" y="67.002804"/>
     <use style="fill:#dd8452;stroke:#dd8452;" x="154.724138" xlink:href="#m676a58069f" y="67.002804"/>
     <use style="fill:#dd8452;stroke:#dd8452;" x="160.068966" xlink:href="#m676a58069f" y="67.002804"/>
     <use style="fill:#dd8452;stroke:#dd8452;" x="165.413793" xlink:href="#m676a58069f" y="67.002804"/>
     <use style="fill:#dd8452;stroke:#dd8452;" x="170.758621" xlink:href="#m676a58069f" y="67.002804"/>
     <use style="fill:#dd8452;stroke:#dd8452;" x="176.103448" xlink:href="#m676a58069f" y="67.002804"/>
     <use style="fill:#dd8452;stroke:#dd8452;" x="181.448276" xlink:href="#m676a58069f" y="46.27757"/>
     <use style="fill:#dd8452;stroke:#dd8452;" x="186.793103" xlink:href="#m676a58069f" y="46.27757"/>
     <use style="fill:#dd8452;stroke:#dd8452;" x="192.137931" xlink:href="#m676a58069f" y="46.27757"/>
     <use style="fill:#dd8452;stroke:#dd8452;" x="197.482759" xlink:href="#m676a58069f" y="46.27757"/>
     <use style="fill:#dd8452;stroke:#dd8452;" x="202.827586" xlink:href="#m676a58069f" y="46.27757"/>
     <use style="fill:#dd8452;stroke:#dd8452;" x="208.172414" xlink:href="#m676a58069f" y="46.27757"/>
     <use style="fill:#dd8452;stroke:#dd8452;" x="213.517241" xlink:href="#m676a58069f" y="46.27757"/>
     <use style="fill:#dd8452;stroke:#dd8452;" x="218.862069" xlink:href="#m676a58069f" y="46.27757"/>
     <use style="fill:#dd8452;stroke:#dd8452;" x="224.206897" xlink:href="#m676a58069f" y="25.552336"/>
     <use style="fill:#dd8452;stroke:#dd8452;" x="229.551724" xlink:href="#m676a58069f" y="25.552336"/>
     <use style="fill:#dd8452;stroke:#dd8452;" x="234.896552" xlink:href="#m676a58069f" y="25.552336"/>
     <use style="fill:#dd8452;stroke:#dd8452;" x="240.241379" xlink:href="#m676a58069f" y="25.552336"/>
     <use style="fill:#dd8452;stroke:#dd8452;" x="245.586207" xlink:href="#m676a58069f" y="25.552336"/>
     <use style="fill:#dd8452;stroke:#dd8452;" x="250.931034" xlink:href="#m676a58069f" y="25.552336"/>
     <use style="fill:#dd8452;stroke:#dd8452;" x="256.275862" xlink:href="#m676a58069f" y="25.552336"/>
     <use style="fill:#dd8452;stroke:#dd8452;" x="261.62069" xlink:href="#m676a58069f" y="4.827103"/>
     <use style="fill:#dd8452;stroke:#dd8452;" x="266.965517" xlink:href="#m676a58069f" y="4.827103"/>
     <use style="fill:#dd8452;stroke:#dd8452;" x="272.310345" xlink:href="#m676a58069f" y="4.827103"/>
     <use style="fill:#dd8452;stroke:#dd8452;" x="277.655172" xlink:href="#m676a58069f" y="4.827103"/>
     <use style="fill:#dd8452;stroke:#dd8452;" x="283" xlink:href="#m676a58069f" y="4.827103"/>
     <use style="fill:#dd8452;stroke:#dd8452;" x="288.344828" xlink:href="#m676a58069f" y="4.827103"/>
     <use style="fill:#dd8452;stroke:#dd8452;" x="293.689655" xlink:href="#m676a58069f" y="4.827103"/>
     <use style="fill:#dd8452;stroke:#dd8452;" x="299.034483" xlink:href="#m676a58069f" y="4.827103"/>
     <use style="fill:#dd8452;stroke:#dd8452;" x="300.537233" xlink:href="#m676a58069f" y="-1"/>
    </g>
   </g>
   <g id="line2d_30">
    <path clip-path="url(#p07c8e3087d)" d="M 58.517241 129.178505 
L 63.862069 108.453271 
L 69.206897 108.453271 
L 74.551724 108.453271 
L 79.896552 108.453271 
L 85.241379 108.453271 
L 90.586207 87.728037 
L 95.931034 87.728037 
L 101.275862 87.728037 
L 106.62069 87.728037 
L 111.965517 87.728037 
L 117.310345 67.002804 
L 122.655172 67.002804 
L 128 67.002804 
L 133.344828 67.002804 
L 138.689655 67.002804 
L 144.034483 46.27757 
L 149.37931 46.27757 
L 154.724138 46.27757 
L 160.068966 46.27757 
L 165.413793 46.27757 
L 170.758621 25.552336 
L 176.103448 25.552336 
L 181.448276 25.552336 
L 186.793103 25.552336 
L 192.137931 25.552336 
L 197.482759 4.827103 
L 202.827586 4.827103 
L 208.172414 4.827103 
L 213.517241 4.827103 
L 218.862069 4.827103 
L 220.36482 -1 
" style="fill:none;stroke:#55a868;stroke-linecap:round;stroke-width:1.5;"/>
    <defs>
     <path d="M 0 1.5 
C 0.397805 1.5 0.77937 1.341951 1.06066 1.06066 
C 1.341951 0.77937 1.5 0.397805 1.5 0 
C 1.5 -0.397805 1.341951 -0.77937 1.06066 -1.06066 
C 0.77937 -1.341951 0.397805 -1.5 0 -1.5 
C -0.397805 -1.5 -0.77937 -1.341951 -1.06066 -1.06066 
C -1.341951 -0.77937 -1.5 -0.397805 -1.5 0 
C -1.5 0.397805 -1.341951 0.77937 -1.06066 1.06066 
C -0.77937 1.341951 -0.397805 1.5 0 1.5 
z
" id="mcc92c57fe3" style="stroke:#55a868;"/>
    </defs>
    <g clip-path="url(#p07c8e3087d)">
     <use style="fill:#55a868;stroke:#55a868;" x="58.517241" xlink:href="#mcc92c57fe3" y="129.178505"/>
     <use style="fill:#55a868;stroke:#55a868;" x="63.862069" xlink:href="#mcc92c57fe3" y="108.453271"/>
     <use style="fill:#55a868;stroke:#55a868;" x="69.206897" xlink:href="#mcc92c57fe3" y="108.453271"/>
     <use style="fill:#55a868;stroke:#55a868;" x="74.551724" xlink:href="#mcc92c57fe3" y="108.453271"/>
     <use style="fill:#55a868;stroke:#55a868;" x="79.896552" xlink:href="#mcc92c57fe3" y="108.453271"/>
     <use style="fill:#55a868;stroke:#55a868;" x="85.241379" xlink:href="#mcc92c57fe3" y="108.453271"/>
     <use style="fill:#55a868;stroke:#55a868;" x="90.586207" xlink:href="#mcc92c57fe3" y="87.728037"/>
     <use style="fill:#55a868;stroke:#55a868;" x="95.931034" xlink:href="#mcc92c57fe3" y="87.728037"/>
     <use style="fill:#55a868;stroke:#55a868;" x="101.275862" xlink:href="#mcc92c57fe3" y="87.728037"/>
     <use style="fill:#55a868;stroke:#55a868;" x="106.62069" xlink:href="#mcc92c57fe3" y="87.728037"/>
     <use style="fill:#55a868;stroke:#55a868;" x="111.965517" xlink:href="#mcc92c57fe3" y="87.728037"/>
     <use style="fill:#55a868;stroke:#55a868;" x="117.310345" xlink:href="#mcc92c57fe3" y="67.002804"/>
     <use style="fill:#55a868;stroke:#55a868;" x="122.655172" xlink:href="#mcc92c57fe3" y="67.002804"/>
     <use style="fill:#55a868;stroke:#55a868;" x="128" xlink:href="#mcc92c57fe3" y="67.002804"/>
     <use style="fill:#55a868;stroke:#55a868;" x="133.344828" xlink:href="#mcc92c57fe3" y="67.002804"/>
     <use style="fill:#55a868;stroke:#55a868;" x="138.689655" xlink:href="#mcc92c57fe3" y="67.002804"/>
     <use style="fill:#55a868;stroke:#55a868;" x="144.034483" xlink:href="#mcc92c57fe3" y="46.27757"/>
     <use style="fill:#55a868;stroke:#55a868;" x="149.37931" xlink:href="#mcc92c57fe3" y="46.27757"/>
     <use style="fill:#55a868;stroke:#55a868;" x="154.724138" xlink:href="#mcc92c57fe3" y="46.27757"/>
     <use style="fill:#55a868;stroke:#55a868;" x="160.068966" xlink:href="#mcc92c57fe3" y="46.27757"/>
     <use style="fill:#55a868;stroke:#55a868;" x="165.413793" xlink:href="#mcc92c57fe3" y="46.27757"/>
     <use style="fill:#55a868;stroke:#55a868;" x="170.758621" xlink:href="#mcc92c57fe3" y="25.552336"/>
     <use style="fill:#55a868;stroke:#55a868;" x="176.103448" xlink:href="#mcc92c57fe3" y="25.552336"/>
     <use style="fill:#55a868;stroke:#55a868;" x="181.448276" xlink:href="#mcc92c57fe3" y="25.552336"/>
     <use style="fill:#55a868;stroke:#55a868;" x="186.793103" xlink:href="#mcc92c57fe3" y="25.552336"/>
     <use style="fill:#55a868;stroke:#55a868;" x="192.137931" xlink:href="#mcc92c57fe3" y="25.552336"/>
     <use style="fill:#55a868;stroke:#55a868;" x="197.482759" xlink:href="#mcc92c57fe3" y="4.827103"/>
     <use style="fill:#55a868;stroke:#55a868;" x="202.827586" xlink:href="#mcc92c57fe3" y="4.827103"/>
     <use style="fill:#55a868;stroke:#55a868;" x="208.172414" xlink:href="#mcc92c57fe3" y="4.827103"/>
     <use style="fill:#55a868;stroke:#55a868;" x="213.517241" xlink:href="#mcc92c57fe3" y="4.827103"/>
     <use style="fill:#55a868;stroke:#55a868;" x="218.862069" xlink:href="#mcc92c57fe3" y="4.827103"/>
     <use style="fill:#55a868;stroke:#55a868;" x="220.36482" xlink:href="#mcc92c57fe3" y="-1"/>
    </g>
   </g>
   <g id="patch_12">
    <path d="M 50.5 135.396075 
L 50.5 40.06 
" style="fill:none;stroke:#cccccc;stroke-linecap:square;stroke-linejoin:miter;stroke-width:1.25;"/>
   </g>
   <g id="patch_13">
    <path d="M 173.431034 135.396075 
L 173.431034 40.06 
" style="fill:none;stroke:#cccccc;stroke-linecap:square;stroke-linejoin:miter;stroke-width:1.25;"/>
   </g>
   <g id="patch_14">
    <path d="M 50.5 135.396075 
L 173.431034 135.396075 
" style="fill:none;stroke:#cccccc;stroke-linecap:square;stroke-linejoin:miter;stroke-width:1.25;"/>
   </g>
   <g id="patch_15">
    <path d="M 50.5 40.06 
L 173.431034 40.06 
" style="fill:none;stroke:#cccccc;stroke-linecap:square;stroke-linejoin:miter;stroke-width:1.25;"/>
   </g>
   <g id="text_18">
    <!-- 0 -->
    <g style="fill:#262626;" transform="translate(58.517241 131.251028)scale(0.06 -0.06)">
     <use xlink:href="#ArialMT-48"/>
    </g>
   </g>
   <g id="text_19">
    <!-- 10 -->
    <g style="fill:#262626;" transform="translate(106.62069 131.251028)scale(0.06 -0.06)">
     <use xlink:href="#ArialMT-49"/>
     <use x="55.615234" xlink:href="#ArialMT-48"/>
    </g>
   </g>
   <g id="text_20">
    <!-- 20 -->
    <g style="fill:#262626;" transform="translate(160.068966 131.251028)scale(0.06 -0.06)">
     <use xlink:href="#ArialMT-50"/>
     <use x="55.615234" xlink:href="#ArialMT-48"/>
    </g>
   </g>
   <g id="text_21">
    <!-- 2 -->
    <g style="fill:#262626;" transform="translate(58.517241 87.728037)scale(0.06 -0.06)">
     <use xlink:href="#ArialMT-50"/>
    </g>
   </g>
   <g id="text_22">
    <!-- 4 -->
    <g style="fill:#262626;" transform="translate(58.517241 46.27757)scale(0.06 -0.06)">
     <use xlink:href="#ArialMT-52"/>
    </g>
   </g>
  </g>
 </g>
 <defs>
  <clipPath id="p2b8f7dd51b">
   <rect height="221.76" width="279" x="45" y="34.56"/>
  </clipPath>
  <clipPath id="p07c8e3087d">
   <rect height="95.336075" width="122.931034" x="50.5" y="40.06"/>
  </clipPath>
 </defs>
</svg>
