<?xml version="1.0" encoding="utf-8" standalone="no"?>
<!DOCTYPE svg PUBLIC "-//W3C//DTD SVG 1.1//EN"
  "http://www.w3.org/Graphics/SVG/1.1/DTD/svg11.dtd">
<!-- Created with matplotlib (https://matplotlib.org/) -->
<svg height="345.6pt" version="1.1" viewBox="0 0 460.8 345.6" width="460.8pt" xmlns="http://www.w3.org/2000/svg" xmlns:xlink="http://www.w3.org/1999/xlink">
 <defs>
  <style type="text/css">
*{stroke-linecap:butt;stroke-linejoin:round;white-space:pre;}
  </style>
 </defs>
 <g id="figure_1">
  <g id="patch_1">
   <path d="M 0 345.6 
L 460.8 345.6 
L 460.8 0 
L 0 0 
z
" style="fill:#ffffff;"/>
  </g>
  <g id="axes_1">
   <g id="matplotlib.axis_1"/>
   <g id="matplotlib.axis_2"/>
   <g id="patch_2">
    <path d="M 363.922034 185.503625 
C 363.922034 165.31574 359.424553 145.379126 350.757304 127.146477 
C 342.090055 108.913829 329.468792 92.839014 313.813174 80.093337 
C 298.157555 67.347659 279.857298 58.248399 260.245865 53.45858 
C 240.634431 48.668761 220.200012 48.307617 200.431574 52.401464 
C 180.663137 56.49531 162.052782 64.942238 145.956564 77.126756 
C 129.860346 89.311273 116.678953 104.930069 107.372855 122.84507 
C 98.066758 140.76007 92.867614 160.525313 92.154263 180.70059 
C 91.440913 200.875868 95.231113 220.958953 103.248689 239.486478 
L 227.995706 185.503625 
L 363.922034 185.503625 
z
" style="fill:#002235;opacity:0.5;stroke:#002235;stroke-linejoin:miter;"/>
   </g>
   <g id="patch_3">
    <path d="M 103.248689 239.486478 
C 109.99537 255.077138 119.605384 269.265735 131.579797 281.315624 
C 143.554211 293.365513 157.682146 303.064487 173.230108 309.908995 
L 227.995706 185.503625 
L 103.248689 239.486478 
z
" style="fill:#432b02;opacity:0.5;stroke:#432b02;stroke-linejoin:miter;"/>
   </g>
   <g id="patch_4">
    <path d="M 173.230108 309.908995 
C 175.444949 310.884009 177.685432 311.799703 179.949163 312.655095 
C 182.212894 313.510488 184.499064 314.305275 186.805229 315.038606 
L 227.995706 185.503625 
L 173.230108 309.908995 
z
" style="fill:#012f22;opacity:0.5;stroke:#012f22;stroke-linejoin:miter;"/>
   </g>
   <g id="patch_5">
    <path d="M 186.805229 315.038606 
C 194.814228 317.585366 203.04219 319.383865 211.383356 320.410988 
C 219.724522 321.43811 228.143002 321.689436 236.530586 321.161734 
L 227.995706 185.503625 
L 186.805229 315.038606 
z
" style="fill:#401c00;opacity:0.5;stroke:#401c00;stroke-linejoin:miter;"/>
   </g>
   <g id="patch_6">
    <path d="M 236.530586 321.161734 
C 255.06243 319.99581 273.16032 315.044788 289.704961 306.614873 
C 306.249603 298.184959 320.892738 286.453597 332.728736 272.146334 
L 227.995706 185.503625 
L 236.530586 321.161734 
z
" style="fill:#3d2438;opacity:0.5;stroke:#3d2438;stroke-linejoin:miter;"/>
   </g>
   <g id="patch_7">
    <path d="M 332.728736 272.146334 
C 342.734025 260.052019 350.56919 246.315515 355.886171 231.547035 
C 361.203152 216.778556 363.922033 201.200076 363.922034 185.503635 
L 227.995706 185.503625 
L 332.728736 272.146334 
z
" style="fill:#3d2b1d;opacity:0.5;stroke:#3d2b1d;stroke-linejoin:miter;"/>
   </g>
   <g id="patch_8">
    <path d="M 363.922034 185.503625 
C 363.922034 165.31574 359.424553 145.379126 350.757304 127.146477 
C 342.090055 108.913829 329.468792 92.839014 313.813174 80.093337 
C 298.157555 67.347659 279.857298 58.248399 260.245865 53.45858 
C 240.634431 48.668761 220.200012 48.307617 200.431574 52.401464 
C 180.663137 56.49531 162.052782 64.942238 145.956564 77.126756 
C 129.860346 89.311273 116.678953 104.930069 107.372855 122.84507 
C 98.066758 140.76007 92.867614 160.525313 92.154263 180.70059 
C 91.440913 200.875868 95.231113 220.958953 103.248689 239.486478 
L 227.995706 185.503625 
L 363.922034 185.503625 
z
" style="fill:#172235;opacity:0.5;stroke:#172235;stroke-linejoin:miter;"/>
   </g>
   <g id="patch_9">
    <path d="M 103.248689 239.486478 
C 109.99537 255.077138 119.605384 269.265735 131.579797 281.315624 
C 143.554211 293.365513 157.682146 303.064487 173.230108 309.908995 
L 227.995706 185.503625 
L 103.248689 239.486478 
z
" style="fill:#422819;opacity:0.5;stroke:#422819;stroke-linejoin:miter;"/>
   </g>
   <g id="patch_10">
    <path d="M 173.230108 309.908995 
C 175.444949 310.884009 177.685432 311.799703 179.949163 312.655095 
C 182.212894 313.510488 184.499064 314.305275 186.805229 315.038606 
L 227.995706 185.503625 
L 173.230108 309.908995 
z
" style="fill:#19321f;opacity:0.5;stroke:#19321f;stroke-linejoin:miter;"/>
   </g>
   <g id="patch_11">
    <path d="M 186.805229 315.038606 
C 194.814228 317.585366 203.04219 319.383865 211.383356 320.410988 
C 219.724522 321.43811 228.143002 321.689436 236.530586 321.161734 
L 227.995706 185.503625 
L 186.805229 315.038606 
z
" style="fill:#3b1719;opacity:0.5;stroke:#3b1719;stroke-linejoin:miter;"/>
   </g>
   <g id="patch_12">
    <path d="M 236.530586 321.161734 
C 255.06243 319.99581 273.16032 315.044788 289.704961 306.614873 
C 306.249603 298.184959 320.892738 286.453597 332.728736 272.146334 
L 227.995706 185.503625 
L 236.530586 321.161734 
z
" style="fill:#272236;opacity:0.5;stroke:#272236;stroke-linejoin:miter;"/>
   </g>
   <g id="patch_13">
    <path d="M 332.728736 272.146334 
C 342.734025 260.052019 350.56919 246.315515 355.886171 231.547035 
C 361.203152 216.778556 363.922033 201.200076 363.922034 185.503635 
L 227.995706 185.503625 
L 332.728736 272.146334 
z
" style="fill:#2c241d;opacity:0.5;stroke:#2c241d;stroke-linejoin:miter;"/>
   </g>
   <g id="patch_14">
    <path d="M 366.640561 182.785099 
C 366.640561 162.597214 362.14308 142.660599 353.475831 124.427951 
C 344.808581 106.195302 332.187319 90.120488 316.5317 77.37481 
C 300.876081 64.629133 282.575825 55.529872 262.964391 50.740053 
C 243.352958 45.950235 222.918538 45.589091 203.150101 49.682937 
C 183.381664 53.776784 164.771308 62.223711 148.675091 74.408229 
C 132.578873 86.592747 119.39748 102.211543 110.091382 120.126543 
C 100.785284 138.041543 95.58614 157.806786 94.87279 177.982064 
C 94.159439 198.157341 97.94964 218.240426 105.967215 236.767951 
L 230.714232 182.785099 
L 366.640561 182.785099 
z
" style="fill:#0173b2;stroke:#ffffff;stroke-linejoin:miter;"/>
   </g>
   <g id="patch_15">
    <path d="M 105.967215 236.767951 
C 112.713896 252.358612 122.32391 266.547209 134.298324 278.597098 
C 146.272737 290.646987 160.400672 300.345961 175.948635 307.190468 
L 230.714232 182.785099 
L 105.967215 236.767951 
z
" style="fill:#de8f05;stroke:#ffffff;stroke-linejoin:miter;"/>
   </g>
   <g id="patch_16">
    <path d="M 175.948635 307.190468 
C 178.163475 308.165483 180.403959 309.081176 182.66769 309.936569 
C 184.93142 310.791961 187.217591 311.586748 189.523756 312.32008 
L 230.714232 182.785099 
L 175.948635 307.190468 
z
" style="fill:#029e73;stroke:#ffffff;stroke-linejoin:miter;"/>
   </g>
   <g id="patch_17">
    <path d="M 189.523756 312.32008 
C 197.532754 314.866839 205.760716 316.665339 214.101882 317.692461 
C 222.443049 318.719584 230.861528 318.970909 239.249112 318.443207 
L 230.714232 182.785099 
L 189.523756 312.32008 
z
" style="fill:#d55e00;stroke:#ffffff;stroke-linejoin:miter;"/>
   </g>
   <g id="patch_18">
    <path d="M 239.249112 318.443207 
C 257.780956 317.277283 275.878847 312.326261 292.423488 303.896347 
C 308.968129 295.466432 323.611264 283.73507 335.447263 269.427808 
L 230.714232 182.785099 
L 239.249112 318.443207 
z
" style="fill:#cc78bc;stroke:#ffffff;stroke-linejoin:miter;"/>
   </g>
   <g id="patch_19">
    <path d="M 335.447263 269.427808 
C 345.452551 257.333493 353.287717 243.596988 358.604697 228.828509 
C 363.921678 214.06003 366.640559 198.481549 366.640561 182.785108 
L 230.714232 182.785099 
L 335.447263 269.427808 
z
" style="fill:#ca9161;stroke:#ffffff;stroke-linejoin:miter;"/>
   </g>
   <g id="patch_20">
    <path d="M 366.640561 182.785099 
C 366.640561 162.597214 362.14308 142.660599 353.475831 124.427951 
C 344.808581 106.195302 332.187319 90.120488 316.5317 77.37481 
C 300.876081 64.629133 282.575825 55.529872 262.964391 50.740053 
C 243.352958 45.950235 222.918538 45.589091 203.150101 49.682937 
C 183.381664 53.776784 164.771308 62.223711 148.675091 74.408229 
C 132.578873 86.592747 119.39748 102.211543 110.091382 120.126543 
C 100.785284 138.041543 95.58614 157.806786 94.87279 177.982064 
C 94.159439 198.157341 97.94964 218.240426 105.967215 236.767951 
L 230.714232 182.785099 
L 366.640561 182.785099 
z
" style="fill:#4c72b0;stroke:#ffffff;stroke-linejoin:miter;"/>
   </g>
   <g id="patch_21">
    <path d="M 105.967215 236.767951 
C 112.713896 252.358612 122.32391 266.547209 134.298324 278.597098 
C 146.272737 290.646987 160.400672 300.345961 175.948635 307.190468 
L 230.714232 182.785099 
L 105.967215 236.767951 
z
" style="fill:#dd8452;stroke:#ffffff;stroke-linejoin:miter;"/>
   </g>
   <g id="patch_22">
    <path d="M 175.948635 307.190468 
C 178.163475 308.165483 180.403959 309.081176 182.66769 309.936569 
C 184.93142 310.791961 187.217591 311.586748 189.523756 312.32008 
L 230.714232 182.785099 
L 175.948635 307.190468 
z
" style="fill:#55a868;stroke:#ffffff;stroke-linejoin:miter;"/>
   </g>
   <g id="patch_23">
    <path d="M 189.523756 312.32008 
C 197.532754 314.866839 205.760716 316.665339 214.101882 317.692461 
C 222.443049 318.719584 230.861528 318.970909 239.249112 318.443207 
L 230.714232 182.785099 
L 189.523756 312.32008 
z
" style="fill:#c44e52;stroke:#ffffff;stroke-linejoin:miter;"/>
   </g>
   <g id="patch_24">
    <path d="M 239.249112 318.443207 
C 257.780956 317.277283 275.878847 312.326261 292.423488 303.896347 
C 308.968129 295.466432 323.611264 283.73507 335.447263 269.427808 
L 230.714232 182.785099 
L 239.249112 318.443207 
z
" style="fill:#8172b3;stroke:#ffffff;stroke-linejoin:miter;"/>
   </g>
   <g id="patch_25">
    <path d="M 335.447263 269.427808 
C 345.452551 257.333493 353.287717 243.596988 358.604697 228.828509 
C 363.921678 214.06003 366.640559 198.481549 366.640561 182.785108 
L 230.714232 182.785099 
L 335.447263 269.427808 
z
" style="fill:#937860;stroke:#ffffff;stroke-linejoin:miter;"/>
   </g>
   <g id="text_1">
    <!-- 1000 -->
    <defs>
     <path d="M 37.25 0 
L 28.46875 0 
L 28.46875 56 
Q 25.296875 52.984375 20.140625 49.953125 
Q 14.984375 46.921875 10.890625 45.40625 
L 10.890625 53.90625 
Q 18.265625 57.375 23.78125 62.296875 
Q 29.296875 67.234375 31.59375 71.875 
L 37.25 71.875 
z
" id="ArialMT-49"/>
     <path d="M 4.15625 35.296875 
Q 4.15625 48 6.765625 55.734375 
Q 9.375 63.484375 14.515625 67.671875 
Q 19.671875 71.875 27.484375 71.875 
Q 33.25 71.875 37.59375 69.546875 
Q 41.9375 67.234375 44.765625 62.859375 
Q 47.609375 58.5 49.21875 52.21875 
Q 50.828125 45.953125 50.828125 35.296875 
Q 50.828125 22.703125 48.234375 14.96875 
Q 45.65625 7.234375 40.5 3 
Q 35.359375 -1.21875 27.484375 -1.21875 
Q 17.140625 -1.21875 11.234375 6.203125 
Q 4.15625 15.140625 4.15625 35.296875 
z
M 13.1875 35.296875 
Q 13.1875 17.671875 17.3125 11.828125 
Q 21.4375 6 27.484375 6 
Q 33.546875 6 37.671875 11.859375 
Q 41.796875 17.71875 41.796875 35.296875 
Q 41.796875 52.984375 37.671875 58.78125 
Q 33.546875 64.59375 27.390625 64.59375 
Q 21.34375 64.59375 17.71875 59.46875 
Q 13.1875 52.9375 13.1875 35.296875 
z
" id="ArialMT-48"/>
    </defs>
    <g style="fill:#262626;" transform="translate(197.492941 106.801536)scale(0.15 -0.15)">
     <use xlink:href="#ArialMT-49"/>
     <use x="55.615234" xlink:href="#ArialMT-48"/>
     <use x="111.230469" xlink:href="#ArialMT-48"/>
     <use x="166.845703" xlink:href="#ArialMT-48"/>
    </g>
   </g>
   <g id="text_2">
    <!-- 900 -->
    <defs>
     <path d="M 5.46875 16.546875 
L 13.921875 17.328125 
Q 14.984375 11.375 18.015625 8.6875 
Q 21.046875 6 25.78125 6 
Q 29.828125 6 32.875 7.859375 
Q 35.9375 9.71875 37.890625 12.8125 
Q 39.84375 15.921875 41.15625 21.1875 
Q 42.484375 26.46875 42.484375 31.9375 
Q 42.484375 32.515625 42.4375 33.6875 
Q 39.796875 29.5 35.234375 26.875 
Q 30.671875 24.265625 25.34375 24.265625 
Q 16.453125 24.265625 10.296875 30.703125 
Q 4.15625 37.15625 4.15625 47.703125 
Q 4.15625 58.59375 10.578125 65.234375 
Q 17 71.875 26.65625 71.875 
Q 33.640625 71.875 39.421875 68.109375 
Q 45.21875 64.359375 48.21875 57.390625 
Q 51.21875 50.4375 51.21875 37.25 
Q 51.21875 23.53125 48.234375 15.40625 
Q 45.265625 7.28125 39.375 3.03125 
Q 33.5 -1.21875 25.59375 -1.21875 
Q 17.1875 -1.21875 11.859375 3.4375 
Q 6.546875 8.109375 5.46875 16.546875 
z
M 41.453125 48.140625 
Q 41.453125 55.71875 37.421875 60.15625 
Q 33.40625 64.59375 27.734375 64.59375 
Q 21.875 64.59375 17.53125 59.8125 
Q 13.1875 55.03125 13.1875 47.40625 
Q 13.1875 40.578125 17.3125 36.296875 
Q 21.4375 32.03125 27.484375 32.03125 
Q 33.59375 32.03125 37.515625 36.296875 
Q 41.453125 40.578125 41.453125 48.140625 
z
" id="ArialMT-57"/>
    </defs>
    <g style="fill:#262626;" transform="translate(160.352578 244.150032)scale(0.15 -0.15)">
     <use xlink:href="#ArialMT-57"/>
     <use x="55.615234" xlink:href="#ArialMT-48"/>
     <use x="111.230469" xlink:href="#ArialMT-48"/>
    </g>
   </g>
   <g id="text_3">
    <!-- 100 -->
    <g style="fill:#262626;" transform="translate(189.374197 262.953715)scale(0.15 -0.15)">
     <use xlink:href="#ArialMT-49"/>
     <use x="55.615234" xlink:href="#ArialMT-48"/>
     <use x="111.230469" xlink:href="#ArialMT-48"/>
    </g>
   </g>
   <g id="text_4">
    <!-- 1 -->
    <g style="fill:#262626;" transform="translate(216.576119 267.60725)scale(0.15 -0.15)">
     <use xlink:href="#ArialMT-49"/>
    </g>
   </g>
   <g id="text_5">
    <!-- 0 -->
    <g style="fill:#262626;" transform="translate(263.569083 259.329582)scale(0.15 -0.15)">
     <use xlink:href="#ArialMT-48"/>
    </g>
   </g>
   <g id="text_6">
    <!-- other -->
    <defs>
     <path d="M 3.328125 25.921875 
Q 3.328125 40.328125 11.328125 47.265625 
Q 18.015625 53.03125 27.640625 53.03125 
Q 38.328125 53.03125 45.109375 46.015625 
Q 51.90625 39.015625 51.90625 26.65625 
Q 51.90625 16.65625 48.90625 10.90625 
Q 45.90625 5.171875 40.15625 2 
Q 34.421875 -1.171875 27.640625 -1.171875 
Q 16.75 -1.171875 10.03125 5.8125 
Q 3.328125 12.796875 3.328125 25.921875 
z
M 12.359375 25.921875 
Q 12.359375 15.96875 16.703125 11.015625 
Q 21.046875 6.0625 27.640625 6.0625 
Q 34.1875 6.0625 38.53125 11.03125 
Q 42.875 16.015625 42.875 26.21875 
Q 42.875 35.84375 38.5 40.796875 
Q 34.125 45.75 27.640625 45.75 
Q 21.046875 45.75 16.703125 40.8125 
Q 12.359375 35.890625 12.359375 25.921875 
z
" id="ArialMT-111"/>
     <path d="M 25.78125 7.859375 
L 27.046875 0.09375 
Q 23.34375 -0.6875 20.40625 -0.6875 
Q 15.625 -0.6875 12.984375 0.828125 
Q 10.359375 2.34375 9.28125 4.8125 
Q 8.203125 7.28125 8.203125 15.1875 
L 8.203125 45.015625 
L 1.765625 45.015625 
L 1.765625 51.859375 
L 8.203125 51.859375 
L 8.203125 64.703125 
L 16.9375 69.96875 
L 16.9375 51.859375 
L 25.78125 51.859375 
L 25.78125 45.015625 
L 16.9375 45.015625 
L 16.9375 14.703125 
Q 16.9375 10.9375 17.40625 9.859375 
Q 17.875 8.796875 18.921875 8.15625 
Q 19.96875 7.515625 21.921875 7.515625 
Q 23.390625 7.515625 25.78125 7.859375 
z
" id="ArialMT-116"/>
     <path d="M 6.59375 0 
L 6.59375 71.578125 
L 15.375 71.578125 
L 15.375 45.90625 
Q 21.53125 53.03125 30.90625 53.03125 
Q 36.671875 53.03125 40.921875 50.75 
Q 45.171875 48.484375 47 44.484375 
Q 48.828125 40.484375 48.828125 32.859375 
L 48.828125 0 
L 40.046875 0 
L 40.046875 32.859375 
Q 40.046875 39.453125 37.1875 42.453125 
Q 34.328125 45.453125 29.109375 45.453125 
Q 25.203125 45.453125 21.75 43.421875 
Q 18.3125 41.40625 16.84375 37.9375 
Q 15.375 34.46875 15.375 28.375 
L 15.375 0 
z
" id="ArialMT-104"/>
     <path d="M 42.09375 16.703125 
L 51.171875 15.578125 
Q 49.03125 7.625 43.21875 3.21875 
Q 37.40625 -1.171875 28.375 -1.171875 
Q 17 -1.171875 10.328125 5.828125 
Q 3.65625 12.84375 3.65625 25.484375 
Q 3.65625 38.578125 10.390625 45.796875 
Q 17.140625 53.03125 27.875 53.03125 
Q 38.28125 53.03125 44.875 45.953125 
Q 51.46875 38.875 51.46875 26.03125 
Q 51.46875 25.25 51.421875 23.6875 
L 12.75 23.6875 
Q 13.234375 15.140625 17.578125 10.59375 
Q 21.921875 6.0625 28.421875 6.0625 
Q 33.25 6.0625 36.671875 8.59375 
Q 40.09375 11.140625 42.09375 16.703125 
z
M 13.234375 30.90625 
L 42.1875 30.90625 
Q 41.609375 37.453125 38.875 40.71875 
Q 34.671875 45.796875 27.984375 45.796875 
Q 21.921875 45.796875 17.796875 41.75 
Q 13.671875 37.703125 13.234375 30.90625 
z
" id="ArialMT-101"/>
     <path d="M 6.5 0 
L 6.5 51.859375 
L 14.40625 51.859375 
L 14.40625 44 
Q 17.4375 49.515625 20 51.265625 
Q 22.5625 53.03125 25.640625 53.03125 
Q 30.078125 53.03125 34.671875 50.203125 
L 31.640625 42.046875 
Q 28.421875 43.953125 25.203125 43.953125 
Q 22.3125 43.953125 20.015625 42.21875 
Q 17.71875 40.484375 16.75 37.40625 
Q 15.28125 32.71875 15.28125 27.15625 
L 15.28125 0 
z
" id="ArialMT-114"/>
    </defs>
    <g style="fill:#262626;" transform="translate(290.355543 214.288879)scale(0.15 -0.15)">
     <use xlink:href="#ArialMT-111"/>
     <use x="55.615234" xlink:href="#ArialMT-116"/>
     <use x="83.398438" xlink:href="#ArialMT-104"/>
     <use x="139.013672" xlink:href="#ArialMT-101"/>
     <use x="194.628906" xlink:href="#ArialMT-114"/>
    </g>
   </g>
   <g id="text_7">
    <!--  -->
    <g style="fill:#262626;" transform="translate(214.175754 96.425052)scale(0.08 -0.08)"/>
    <!--  -->
    <g style="fill:#262626;" transform="translate(214.175754 104.886552)scale(0.08 -0.08)"/>
    <!--  (56.5%) -->
    <defs>
     <path id="ArialMT-32"/>
     <path d="M 23.390625 -21.046875 
Q 16.109375 -11.859375 11.078125 0.4375 
Q 6.0625 12.75 6.0625 25.921875 
Q 6.0625 37.546875 9.8125 48.1875 
Q 14.203125 60.546875 23.390625 72.796875 
L 29.6875 72.796875 
Q 23.78125 62.640625 21.875 58.296875 
Q 18.890625 51.5625 17.1875 44.234375 
Q 15.09375 35.109375 15.09375 25.875 
Q 15.09375 2.390625 29.6875 -21.046875 
z
" id="ArialMT-40"/>
     <path d="M 4.15625 18.75 
L 13.375 19.53125 
Q 14.40625 12.796875 18.140625 9.390625 
Q 21.875 6 27.15625 6 
Q 33.5 6 37.890625 10.78125 
Q 42.28125 15.578125 42.28125 23.484375 
Q 42.28125 31 38.0625 35.34375 
Q 33.84375 39.703125 27 39.703125 
Q 22.75 39.703125 19.328125 37.765625 
Q 15.921875 35.84375 13.96875 32.765625 
L 5.71875 33.84375 
L 12.640625 70.609375 
L 48.25 70.609375 
L 48.25 62.203125 
L 19.671875 62.203125 
L 15.828125 42.96875 
Q 22.265625 47.46875 29.34375 47.46875 
Q 38.71875 47.46875 45.15625 40.96875 
Q 51.609375 34.46875 51.609375 24.265625 
Q 51.609375 14.546875 45.953125 7.46875 
Q 39.0625 -1.21875 27.15625 -1.21875 
Q 17.390625 -1.21875 11.203125 4.25 
Q 5.03125 9.71875 4.15625 18.75 
z
" id="ArialMT-53"/>
     <path d="M 49.75 54.046875 
L 41.015625 53.375 
Q 39.84375 58.546875 37.703125 60.890625 
Q 34.125 64.65625 28.90625 64.65625 
Q 24.703125 64.65625 21.53125 62.3125 
Q 17.390625 59.28125 14.984375 53.46875 
Q 12.59375 47.65625 12.5 36.921875 
Q 15.671875 41.75 20.265625 44.09375 
Q 24.859375 46.4375 29.890625 46.4375 
Q 38.671875 46.4375 44.84375 39.96875 
Q 51.03125 33.5 51.03125 23.25 
Q 51.03125 16.5 48.125 10.71875 
Q 45.21875 4.9375 40.140625 1.859375 
Q 35.0625 -1.21875 28.609375 -1.21875 
Q 17.625 -1.21875 10.6875 6.859375 
Q 3.765625 14.9375 3.765625 33.5 
Q 3.765625 54.25 11.421875 63.671875 
Q 18.109375 71.875 29.4375 71.875 
Q 37.890625 71.875 43.28125 67.140625 
Q 48.6875 62.40625 49.75 54.046875 
z
M 13.875 23.1875 
Q 13.875 18.65625 15.796875 14.5 
Q 17.71875 10.359375 21.1875 8.171875 
Q 24.65625 6 28.46875 6 
Q 34.03125 6 38.03125 10.484375 
Q 42.046875 14.984375 42.046875 22.703125 
Q 42.046875 30.125 38.078125 34.390625 
Q 34.125 38.671875 28.125 38.671875 
Q 22.171875 38.671875 18.015625 34.390625 
Q 13.875 30.125 13.875 23.1875 
z
" id="ArialMT-54"/>
     <path d="M 9.078125 0 
L 9.078125 10.015625 
L 19.09375 10.015625 
L 19.09375 0 
z
" id="ArialMT-46"/>
     <path d="M 5.8125 54.390625 
Q 5.8125 62.0625 9.671875 67.421875 
Q 13.53125 72.796875 20.84375 72.796875 
Q 27.59375 72.796875 32 67.984375 
Q 36.421875 63.1875 36.421875 53.859375 
Q 36.421875 44.78125 31.953125 39.875 
Q 27.484375 34.96875 20.953125 34.96875 
Q 14.453125 34.96875 10.125 39.796875 
Q 5.8125 44.625 5.8125 54.390625 
z
M 21.09375 66.75 
Q 17.828125 66.75 15.65625 63.90625 
Q 13.484375 61.078125 13.484375 53.515625 
Q 13.484375 46.625 15.671875 43.8125 
Q 17.875 41.015625 21.09375 41.015625 
Q 24.421875 41.015625 26.59375 43.84375 
Q 28.765625 46.6875 28.765625 54.203125 
Q 28.765625 61.140625 26.5625 63.9375 
Q 24.359375 66.75 21.09375 66.75 
z
M 21.140625 -2.640625 
L 60.296875 72.796875 
L 67.4375 72.796875 
L 28.421875 -2.640625 
z
M 52.09375 16.796875 
Q 52.09375 24.515625 55.953125 29.859375 
Q 59.8125 35.203125 67.1875 35.203125 
Q 73.921875 35.203125 78.34375 30.390625 
Q 82.765625 25.59375 82.765625 16.265625 
Q 82.765625 7.171875 78.296875 2.265625 
Q 73.828125 -2.640625 67.234375 -2.640625 
Q 60.75 -2.640625 56.421875 2.21875 
Q 52.09375 7.078125 52.09375 16.796875 
z
M 67.4375 29.15625 
Q 64.109375 29.15625 61.9375 26.3125 
Q 59.765625 23.484375 59.765625 15.921875 
Q 59.765625 9.078125 61.953125 6.25 
Q 64.15625 3.421875 67.390625 3.421875 
Q 70.75 3.421875 72.921875 6.25 
Q 75.09375 9.078125 75.09375 16.609375 
Q 75.09375 23.53125 72.890625 26.34375 
Q 70.703125 29.15625 67.4375 29.15625 
z
" id="ArialMT-37"/>
     <path d="M 12.359375 -21.046875 
L 6.0625 -21.046875 
Q 20.65625 2.390625 20.65625 25.875 
Q 20.65625 35.0625 18.5625 44.09375 
Q 16.890625 51.421875 13.921875 58.15625 
Q 12.015625 62.546875 6.0625 72.796875 
L 12.359375 72.796875 
Q 21.53125 60.546875 25.921875 48.1875 
Q 29.6875 37.546875 29.6875 25.921875 
Q 29.6875 12.75 24.625 0.4375 
Q 19.578125 -11.859375 12.359375 -21.046875 
z
" id="ArialMT-41"/>
    </defs>
    <g style="fill:#262626;" transform="translate(199.059504 113.465052)scale(0.08 -0.08)">
     <use xlink:href="#ArialMT-32"/>
     <use x="27.783203" xlink:href="#ArialMT-40"/>
     <use x="61.083984" xlink:href="#ArialMT-53"/>
     <use x="116.699219" xlink:href="#ArialMT-54"/>
     <use x="172.314453" xlink:href="#ArialMT-46"/>
     <use x="200.097656" xlink:href="#ArialMT-53"/>
     <use x="255.712891" xlink:href="#ArialMT-37"/>
     <use x="344.628906" xlink:href="#ArialMT-41"/>
    </g>
   </g>
   <g id="text_8">
    <!--  -->
    <g style="fill:#262626;" transform="translate(172.864687 233.773548)scale(0.08 -0.08)"/>
    <!--  -->
    <g style="fill:#262626;" transform="translate(172.864687 242.235048)scale(0.08 -0.08)"/>
    <!--  (11.9%) -->
    <g style="fill:#262626;" transform="translate(157.752812 250.813548)scale(0.08 -0.08)">
     <use xlink:href="#ArialMT-32"/>
     <use x="27.783203" xlink:href="#ArialMT-40"/>
     <use x="61.083984" xlink:href="#ArialMT-49"/>
     <use x="116.589844" xlink:href="#ArialMT-49"/>
     <use x="172.205078" xlink:href="#ArialMT-46"/>
     <use x="199.988281" xlink:href="#ArialMT-57"/>
     <use x="255.603516" xlink:href="#ArialMT-37"/>
     <use x="344.519531" xlink:href="#ArialMT-41"/>
    </g>
   </g>
   <g id="text_9">
    <!--  -->
    <g style="fill:#262626;" transform="translate(201.886307 252.577231)scale(0.08 -0.08)"/>
    <!--  -->
    <g style="fill:#262626;" transform="translate(201.886307 261.038731)scale(0.08 -0.08)"/>
    <!--  (1.7%) -->
    <defs>
     <path d="M 4.734375 62.203125 
L 4.734375 70.65625 
L 51.078125 70.65625 
L 51.078125 63.8125 
Q 44.234375 56.546875 37.515625 44.484375 
Q 30.8125 32.421875 27.15625 19.671875 
Q 24.515625 10.6875 23.78125 0 
L 14.75 0 
Q 14.890625 8.453125 18.0625 20.40625 
Q 21.234375 32.375 27.171875 43.484375 
Q 33.109375 54.59375 39.796875 62.203125 
z
" id="ArialMT-55"/>
    </defs>
    <g style="fill:#262626;" transform="translate(188.994432 269.617231)scale(0.08 -0.08)">
     <use xlink:href="#ArialMT-32"/>
     <use x="27.783203" xlink:href="#ArialMT-40"/>
     <use x="61.083984" xlink:href="#ArialMT-49"/>
     <use x="116.699219" xlink:href="#ArialMT-46"/>
     <use x="144.482422" xlink:href="#ArialMT-55"/>
     <use x="200.097656" xlink:href="#ArialMT-37"/>
     <use x="289.013672" xlink:href="#ArialMT-41"/>
    </g>
   </g>
   <g id="text_10">
    <!--  -->
    <g style="fill:#262626;" transform="translate(220.746822 257.230766)scale(0.08 -0.08)"/>
    <!--  -->
    <g style="fill:#262626;" transform="translate(220.746822 265.692266)scale(0.08 -0.08)"/>
    <!--  (5.9%) -->
    <g style="fill:#262626;" transform="translate(207.854947 274.270766)scale(0.08 -0.08)">
     <use xlink:href="#ArialMT-32"/>
     <use x="27.783203" xlink:href="#ArialMT-40"/>
     <use x="61.083984" xlink:href="#ArialMT-53"/>
     <use x="116.699219" xlink:href="#ArialMT-46"/>
     <use x="144.482422" xlink:href="#ArialMT-57"/>
     <use x="200.097656" xlink:href="#ArialMT-37"/>
     <use x="289.013672" xlink:href="#ArialMT-41"/>
    </g>
   </g>
   <g id="text_11">
    <!--  -->
    <g style="fill:#262626;" transform="translate(267.739786 248.953097)scale(0.08 -0.08)"/>
    <!--  -->
    <g style="fill:#262626;" transform="translate(267.739786 257.414597)scale(0.08 -0.08)"/>
    <!--  (13.0%) -->
    <defs>
     <path d="M 4.203125 18.890625 
L 12.984375 20.0625 
Q 14.5 12.59375 18.140625 9.296875 
Q 21.78125 6 27 6 
Q 33.203125 6 37.46875 10.296875 
Q 41.75 14.59375 41.75 20.953125 
Q 41.75 27 37.796875 30.921875 
Q 33.84375 34.859375 27.734375 34.859375 
Q 25.25 34.859375 21.53125 33.890625 
L 22.515625 41.609375 
Q 23.390625 41.5 23.921875 41.5 
Q 29.546875 41.5 34.03125 44.421875 
Q 38.53125 47.359375 38.53125 53.46875 
Q 38.53125 58.296875 35.25 61.46875 
Q 31.984375 64.65625 26.8125 64.65625 
Q 21.6875 64.65625 18.265625 61.421875 
Q 14.84375 58.203125 13.875 51.765625 
L 5.078125 53.328125 
Q 6.6875 62.15625 12.390625 67.015625 
Q 18.109375 71.875 26.609375 71.875 
Q 32.46875 71.875 37.390625 69.359375 
Q 42.328125 66.84375 44.9375 62.5 
Q 47.5625 58.15625 47.5625 53.265625 
Q 47.5625 48.640625 45.0625 44.828125 
Q 42.578125 41.015625 37.703125 38.765625 
Q 44.046875 37.3125 47.5625 32.6875 
Q 51.078125 28.078125 51.078125 21.140625 
Q 51.078125 11.765625 44.234375 5.25 
Q 37.40625 -1.265625 26.953125 -1.265625 
Q 17.53125 -1.265625 11.296875 4.34375 
Q 5.078125 9.96875 4.203125 18.890625 
z
" id="ArialMT-51"/>
    </defs>
    <g style="fill:#262626;" transform="translate(252.623536 265.993097)scale(0.08 -0.08)">
     <use xlink:href="#ArialMT-32"/>
     <use x="27.783203" xlink:href="#ArialMT-40"/>
     <use x="61.083984" xlink:href="#ArialMT-49"/>
     <use x="116.699219" xlink:href="#ArialMT-51"/>
     <use x="172.314453" xlink:href="#ArialMT-46"/>
     <use x="200.097656" xlink:href="#ArialMT-48"/>
     <use x="255.712891" xlink:href="#ArialMT-37"/>
     <use x="344.628906" xlink:href="#ArialMT-41"/>
    </g>
   </g>
   <g id="text_12">
    <!--  -->
    <g style="fill:#262626;" transform="translate(307.448511 203.912395)scale(0.08 -0.08)"/>
    <!--  -->
    <g style="fill:#262626;" transform="translate(307.448511 212.373895)scale(0.08 -0.08)"/>
    <!--  (11.0%) -->
    <g style="fill:#262626;" transform="translate(292.336636 220.952395)scale(0.08 -0.08)">
     <use xlink:href="#ArialMT-32"/>
     <use x="27.783203" xlink:href="#ArialMT-40"/>
     <use x="61.083984" xlink:href="#ArialMT-49"/>
     <use x="116.589844" xlink:href="#ArialMT-49"/>
     <use x="172.205078" xlink:href="#ArialMT-46"/>
     <use x="199.988281" xlink:href="#ArialMT-48"/>
     <use x="255.603516" xlink:href="#ArialMT-37"/>
     <use x="344.519531" xlink:href="#ArialMT-41"/>
    </g>
   </g>
   <g id="text_13">
    <!-- fee_base_msat -->
    <defs>
     <path d="M 8.6875 0 
L 8.6875 45.015625 
L 0.921875 45.015625 
L 0.921875 51.859375 
L 8.6875 51.859375 
L 8.6875 57.375 
Q 8.6875 62.59375 9.625 65.140625 
Q 10.890625 68.5625 14.078125 70.671875 
Q 17.28125 72.796875 23.046875 72.796875 
Q 26.765625 72.796875 31.25 71.921875 
L 29.9375 64.265625 
Q 27.203125 64.75 24.75 64.75 
Q 20.75 64.75 19.09375 63.03125 
Q 17.4375 61.328125 17.4375 56.640625 
L 17.4375 51.859375 
L 27.546875 51.859375 
L 27.546875 45.015625 
L 17.4375 45.015625 
L 17.4375 0 
z
" id="ArialMT-102"/>
     <path d="M -1.515625 -19.875 
L -1.515625 -13.53125 
L 56.734375 -13.53125 
L 56.734375 -19.875 
z
" id="ArialMT-95"/>
     <path d="M 14.703125 0 
L 6.546875 0 
L 6.546875 71.578125 
L 15.328125 71.578125 
L 15.328125 46.046875 
Q 20.90625 53.03125 29.546875 53.03125 
Q 34.328125 53.03125 38.59375 51.09375 
Q 42.875 49.171875 45.625 45.671875 
Q 48.390625 42.1875 49.953125 37.25 
Q 51.515625 32.328125 51.515625 26.703125 
Q 51.515625 13.375 44.921875 6.09375 
Q 38.328125 -1.171875 29.109375 -1.171875 
Q 19.921875 -1.171875 14.703125 6.5 
z
M 14.59375 26.3125 
Q 14.59375 17 17.140625 12.84375 
Q 21.296875 6.0625 28.375 6.0625 
Q 34.125 6.0625 38.328125 11.0625 
Q 42.53125 16.0625 42.53125 25.984375 
Q 42.53125 36.140625 38.5 40.96875 
Q 34.46875 45.796875 28.765625 45.796875 
Q 23 45.796875 18.796875 40.796875 
Q 14.59375 35.796875 14.59375 26.3125 
z
" id="ArialMT-98"/>
     <path d="M 40.4375 6.390625 
Q 35.546875 2.25 31.03125 0.53125 
Q 26.515625 -1.171875 21.34375 -1.171875 
Q 12.796875 -1.171875 8.203125 3 
Q 3.609375 7.171875 3.609375 13.671875 
Q 3.609375 17.484375 5.34375 20.625 
Q 7.078125 23.78125 9.890625 25.6875 
Q 12.703125 27.59375 16.21875 28.5625 
Q 18.796875 29.25 24.03125 29.890625 
Q 34.671875 31.15625 39.703125 32.90625 
Q 39.75 34.71875 39.75 35.203125 
Q 39.75 40.578125 37.25 42.78125 
Q 33.890625 45.75 27.25 45.75 
Q 21.046875 45.75 18.09375 43.578125 
Q 15.140625 41.40625 13.71875 35.890625 
L 5.125 37.0625 
Q 6.296875 42.578125 8.984375 45.96875 
Q 11.671875 49.359375 16.75 51.1875 
Q 21.828125 53.03125 28.515625 53.03125 
Q 35.15625 53.03125 39.296875 51.46875 
Q 43.453125 49.90625 45.40625 47.53125 
Q 47.359375 45.171875 48.140625 41.546875 
Q 48.578125 39.3125 48.578125 33.453125 
L 48.578125 21.734375 
Q 48.578125 9.46875 49.140625 6.21875 
Q 49.703125 2.984375 51.375 0 
L 42.1875 0 
Q 40.828125 2.734375 40.4375 6.390625 
z
M 39.703125 26.03125 
Q 34.90625 24.078125 25.34375 22.703125 
Q 19.921875 21.921875 17.671875 20.9375 
Q 15.4375 19.96875 14.203125 18.09375 
Q 12.984375 16.21875 12.984375 13.921875 
Q 12.984375 10.40625 15.640625 8.0625 
Q 18.3125 5.71875 23.4375 5.71875 
Q 28.515625 5.71875 32.46875 7.9375 
Q 36.421875 10.15625 38.28125 14.015625 
Q 39.703125 17 39.703125 22.796875 
z
" id="ArialMT-97"/>
     <path d="M 3.078125 15.484375 
L 11.765625 16.84375 
Q 12.5 11.625 15.84375 8.84375 
Q 19.1875 6.0625 25.203125 6.0625 
Q 31.25 6.0625 34.171875 8.515625 
Q 37.109375 10.984375 37.109375 14.3125 
Q 37.109375 17.28125 34.515625 19 
Q 32.71875 20.171875 25.53125 21.96875 
Q 15.875 24.421875 12.140625 26.203125 
Q 8.40625 27.984375 6.46875 31.125 
Q 4.546875 34.28125 4.546875 38.09375 
Q 4.546875 41.546875 6.125 44.5 
Q 7.71875 47.46875 10.453125 49.421875 
Q 12.5 50.921875 16.03125 51.96875 
Q 19.578125 53.03125 23.640625 53.03125 
Q 29.734375 53.03125 34.34375 51.265625 
Q 38.96875 49.515625 41.15625 46.5 
Q 43.359375 43.5 44.1875 38.484375 
L 35.59375 37.3125 
Q 35.015625 41.3125 32.203125 43.546875 
Q 29.390625 45.796875 24.265625 45.796875 
Q 18.21875 45.796875 15.625 43.796875 
Q 13.03125 41.796875 13.03125 39.109375 
Q 13.03125 37.40625 14.109375 36.03125 
Q 15.1875 34.625 17.484375 33.6875 
Q 18.796875 33.203125 25.25 31.453125 
Q 34.578125 28.953125 38.25 27.359375 
Q 41.9375 25.78125 44.03125 22.75 
Q 46.140625 19.734375 46.140625 15.234375 
Q 46.140625 10.84375 43.578125 6.953125 
Q 41.015625 3.078125 36.171875 0.953125 
Q 31.34375 -1.171875 25.25 -1.171875 
Q 15.140625 -1.171875 9.84375 3.03125 
Q 4.546875 7.234375 3.078125 15.484375 
z
" id="ArialMT-115"/>
     <path d="M 6.59375 0 
L 6.59375 51.859375 
L 14.453125 51.859375 
L 14.453125 44.578125 
Q 16.890625 48.390625 20.9375 50.703125 
Q 25 53.03125 30.171875 53.03125 
Q 35.9375 53.03125 39.625 50.640625 
Q 43.3125 48.25 44.828125 43.953125 
Q 50.984375 53.03125 60.84375 53.03125 
Q 68.5625 53.03125 72.703125 48.75 
Q 76.859375 44.484375 76.859375 35.59375 
L 76.859375 0 
L 68.109375 0 
L 68.109375 32.671875 
Q 68.109375 37.9375 67.25 40.25 
Q 66.40625 42.578125 64.15625 43.984375 
Q 61.921875 45.40625 58.890625 45.40625 
Q 53.421875 45.40625 49.796875 41.765625 
Q 46.1875 38.140625 46.1875 30.125 
L 46.1875 0 
L 37.40625 0 
L 37.40625 33.6875 
Q 37.40625 39.546875 35.25 42.46875 
Q 33.109375 45.40625 28.21875 45.40625 
Q 24.515625 45.40625 21.359375 43.453125 
Q 18.21875 41.5 16.796875 37.734375 
Q 15.375 33.984375 15.375 26.90625 
L 15.375 0 
z
" id="ArialMT-109"/>
    </defs>
    <g style="fill:#262626;" transform="translate(168.863906 25.92)scale(0.18 -0.18)">
     <use xlink:href="#ArialMT-102"/>
     <use x="27.783203" xlink:href="#ArialMT-101"/>
     <use x="83.398438" xlink:href="#ArialMT-101"/>
     <use x="139.013672" xlink:href="#ArialMT-95"/>
     <use x="194.628906" xlink:href="#ArialMT-98"/>
     <use x="250.244141" xlink:href="#ArialMT-97"/>
     <use x="305.859375" xlink:href="#ArialMT-115"/>
     <use x="355.859375" xlink:href="#ArialMT-101"/>
     <use x="411.474609" xlink:href="#ArialMT-95"/>
     <use x="467.089844" xlink:href="#ArialMT-109"/>
     <use x="550.390625" xlink:href="#ArialMT-115"/>
     <use x="600.390625" xlink:href="#ArialMT-97"/>
     <use x="656.005859" xlink:href="#ArialMT-116"/>
    </g>
   </g>
  </g>
 </g>
</svg>
