<?xml version="1.0" encoding="utf-8" standalone="no"?>
<!DOCTYPE svg PUBLIC "-//W3C//DTD SVG 1.1//EN"
  "http://www.w3.org/Graphics/SVG/1.1/DTD/svg11.dtd">
<!-- Created with matplotlib (https://matplotlib.org/) -->
<svg height="345.6pt" version="1.1" viewBox="0 0 460.8 345.6" width="460.8pt" xmlns="http://www.w3.org/2000/svg" xmlns:xlink="http://www.w3.org/1999/xlink">
 <defs>
  <style type="text/css">
*{stroke-linecap:butt;stroke-linejoin:round;white-space:pre;}
  </style>
 </defs>
 <g id="figure_1">
  <g id="patch_1">
   <path d="M 0 345.6 
L 460.8 345.6 
L 460.8 0 
L 0 0 
z
" style="fill:#ffffff;"/>
  </g>
  <g id="axes_1">
   <g id="matplotlib.axis_1"/>
   <g id="matplotlib.axis_2"/>
   <g id="patch_2">
    <path d="M 363.503494 185.108623 
C 363.503494 164.51933 358.810164 144.198372 349.781183 125.694412 
C 340.752202 107.190453 327.622915 90.985808 311.393907 78.315437 
C 295.1649 65.645065 276.259189 56.839226 256.117583 52.569014 
C 235.975977 48.298802 215.123477 48.675523 195.149255 53.670467 
C 175.175032 58.66541 156.599727 68.148381 140.838966 81.396679 
C 125.078205 94.644978 112.5428 111.313281 104.188077 130.131294 
C 95.833354 148.949307 91.877083 169.426528 92.620772 190.002386 
C 93.364461 210.578244 98.788725 230.716418 108.480181 248.882174 
L 228.017928 185.108623 
L 363.503494 185.108623 
z
" style="fill:#002235;opacity:0.5;stroke:#002235;stroke-linejoin:miter;"/>
   </g>
   <g id="patch_3">
    <path d="M 108.480181 248.882174 
C 113.159731 257.653567 118.790533 265.883313 125.270804 273.42265 
C 131.751075 280.961987 139.041533 287.765213 147.010393 293.709351 
L 228.017928 185.108623 
L 108.480181 248.882174 
z
" style="fill:#432b02;opacity:0.5;stroke:#432b02;stroke-linejoin:miter;"/>
   </g>
   <g id="patch_4">
    <path d="M 147.010393 293.709351 
C 160.812582 304.004689 176.451752 311.575072 193.088697 316.014267 
C 209.725642 320.453462 227.057359 321.68062 244.153818 319.629892 
L 228.017928 185.108623 
L 147.010393 293.709351 
z
" style="fill:#012f22;opacity:0.5;stroke:#012f22;stroke-linejoin:miter;"/>
   </g>
   <g id="patch_5">
    <path d="M 244.153818 319.629892 
C 248.944548 319.055242 253.701161 318.225082 258.403324 317.142961 
C 263.105486 316.060841 267.746486 314.728304 272.306483 313.151048 
L 228.017928 185.108623 
L 244.153818 319.629892 
z
" style="fill:#401c00;opacity:0.5;stroke:#401c00;stroke-linejoin:miter;"/>
   </g>
   <g id="patch_6">
    <path d="M 272.306483 313.151048 
C 276.195641 311.805828 280.021491 310.284113 283.772131 308.590636 
C 287.522771 306.897159 291.194308 305.033678 294.77532 303.005991 
L 228.017928 185.108623 
L 272.306483 313.151048 
z
" style="fill:#3d2438;opacity:0.5;stroke:#3d2438;stroke-linejoin:miter;"/>
   </g>
   <g id="patch_7">
    <path d="M 294.77532 303.005991 
C 309.011927 294.944753 321.67138 284.371074 332.139484 271.797955 
C 342.607588 259.224836 350.712269 244.858953 356.060313 229.397293 
L 228.017928 185.108623 
L 294.77532 303.005991 
z
" style="fill:#3d2b1d;opacity:0.5;stroke:#3d2b1d;stroke-linejoin:miter;"/>
   </g>
   <g id="patch_8">
    <path d="M 356.060313 229.397293 
C 358.519818 222.28665 360.382737 214.98347 361.629737 207.563538 
C 362.876737 200.143606 363.503491 192.632675 363.503494 185.108687 
L 228.017928 185.108623 
L 356.060313 229.397293 
z
" style="fill:#4b3444;opacity:0.5;stroke:#4b3444;stroke-linejoin:miter;"/>
   </g>
   <g id="patch_9">
    <path d="M 363.503494 185.108623 
C 363.503494 164.51933 358.810164 144.198372 349.781183 125.694412 
C 340.752202 107.190453 327.622915 90.985808 311.393907 78.315437 
C 295.1649 65.645065 276.259189 56.839226 256.117583 52.569014 
C 235.975977 48.298802 215.123477 48.675523 195.149255 53.670467 
C 175.175032 58.66541 156.599727 68.148381 140.838966 81.396679 
C 125.078205 94.644978 112.5428 111.313281 104.188077 130.131294 
C 95.833354 148.949307 91.877083 169.426528 92.620772 190.002386 
C 93.364461 210.578244 98.788725 230.716418 108.480181 248.882174 
L 228.017928 185.108623 
L 363.503494 185.108623 
z
" style="fill:#172235;opacity:0.5;stroke:#172235;stroke-linejoin:miter;"/>
   </g>
   <g id="patch_10">
    <path d="M 108.480181 248.882174 
C 113.159731 257.653567 118.790533 265.883313 125.270804 273.42265 
C 131.751075 280.961987 139.041533 287.765213 147.010393 293.709351 
L 228.017928 185.108623 
L 108.480181 248.882174 
z
" style="fill:#422819;opacity:0.5;stroke:#422819;stroke-linejoin:miter;"/>
   </g>
   <g id="patch_11">
    <path d="M 147.010393 293.709351 
C 160.812582 304.004689 176.451752 311.575072 193.088697 316.014267 
C 209.725642 320.453462 227.057359 321.68062 244.153818 319.629892 
L 228.017928 185.108623 
L 147.010393 293.709351 
z
" style="fill:#19321f;opacity:0.5;stroke:#19321f;stroke-linejoin:miter;"/>
   </g>
   <g id="patch_12">
    <path d="M 244.153818 319.629892 
C 248.944548 319.055242 253.701161 318.225082 258.403324 317.142961 
C 263.105486 316.060841 267.746486 314.728304 272.306483 313.151048 
L 228.017928 185.108623 
L 244.153818 319.629892 
z
" style="fill:#3b1719;opacity:0.5;stroke:#3b1719;stroke-linejoin:miter;"/>
   </g>
   <g id="patch_13">
    <path d="M 272.306483 313.151048 
C 276.195641 311.805828 280.021491 310.284113 283.772131 308.590636 
C 287.522771 306.897159 291.194308 305.033678 294.77532 303.005991 
L 228.017928 185.108623 
L 272.306483 313.151048 
z
" style="fill:#272236;opacity:0.5;stroke:#272236;stroke-linejoin:miter;"/>
   </g>
   <g id="patch_14">
    <path d="M 294.77532 303.005991 
C 309.011927 294.944753 321.67138 284.371074 332.139484 271.797955 
C 342.607588 259.224836 350.712269 244.858953 356.060313 229.397293 
L 228.017928 185.108623 
L 294.77532 303.005991 
z
" style="fill:#2c241d;opacity:0.5;stroke:#2c241d;stroke-linejoin:miter;"/>
   </g>
   <g id="patch_15">
    <path d="M 356.060313 229.397293 
C 358.519818 222.28665 360.382737 214.98347 361.629737 207.563538 
C 362.876737 200.143606 363.503491 192.632675 363.503494 185.108687 
L 228.017928 185.108623 
L 356.060313 229.397293 
z
" style="fill:#412a3a;opacity:0.5;stroke:#412a3a;stroke-linejoin:miter;"/>
   </g>
   <g id="patch_16">
    <path d="M 366.213205 182.398912 
C 366.213205 161.809618 361.519875 141.48866 352.490894 122.984701 
C 343.461913 104.480742 330.332626 88.276097 314.103619 75.605725 
C 297.874611 62.935353 278.968901 54.129514 258.827294 49.859303 
C 238.685688 45.589091 217.833188 45.965812 197.858966 50.960755 
C 177.884744 55.955699 159.309439 65.438669 143.548678 78.686968 
C 127.787916 91.935267 115.252512 108.603569 106.897789 127.421582 
C 98.543066 146.239595 94.586795 166.716817 95.330483 187.292675 
C 96.074172 207.868533 101.498437 228.006707 111.189892 246.172463 
L 230.727639 182.398912 
L 366.213205 182.398912 
z
" style="fill:#0173b2;stroke:#ffffff;stroke-linejoin:miter;"/>
   </g>
   <g id="patch_17">
    <path d="M 111.189892 246.172463 
C 115.869442 254.943856 121.500244 263.173601 127.980516 270.712938 
C 134.460787 278.252276 141.751244 285.055501 149.720105 290.99964 
L 230.727639 182.398912 
L 111.189892 246.172463 
z
" style="fill:#de8f05;stroke:#ffffff;stroke-linejoin:miter;"/>
   </g>
   <g id="patch_18">
    <path d="M 149.720105 290.99964 
C 163.522293 301.294978 179.161463 308.86536 195.798408 313.304556 
C 212.435354 317.743751 229.767071 318.970909 246.86353 316.920181 
L 230.727639 182.398912 
L 149.720105 290.99964 
z
" style="fill:#029e73;stroke:#ffffff;stroke-linejoin:miter;"/>
   </g>
   <g id="patch_19">
    <path d="M 246.86353 316.920181 
C 251.654259 316.34553 256.410873 315.51537 261.113035 314.43325 
C 265.815197 313.35113 270.456197 312.018593 275.016195 310.441337 
L 230.727639 182.398912 
L 246.86353 316.920181 
z
" style="fill:#d55e00;stroke:#ffffff;stroke-linejoin:miter;"/>
   </g>
   <g id="patch_20">
    <path d="M 275.016195 310.441337 
C 278.905352 309.096117 282.731202 307.574402 286.481842 305.880925 
C 290.232482 304.187448 293.904019 302.323967 297.485031 300.29628 
L 230.727639 182.398912 
L 275.016195 310.441337 
z
" style="fill:#cc78bc;stroke:#ffffff;stroke-linejoin:miter;"/>
   </g>
   <g id="patch_21">
    <path d="M 297.485031 300.29628 
C 311.721638 292.235041 324.381091 281.661363 334.849195 269.088244 
C 345.3173 256.515124 353.42198 242.149242 358.770025 226.687581 
L 230.727639 182.398912 
L 297.485031 300.29628 
z
" style="fill:#ca9161;stroke:#ffffff;stroke-linejoin:miter;"/>
   </g>
   <g id="patch_22">
    <path d="M 358.770025 226.687581 
C 361.22953 219.576939 363.092448 212.273759 364.339448 204.853827 
C 365.586448 197.433894 366.213202 189.922964 366.213205 182.398975 
L 230.727639 182.398912 
L 358.770025 226.687581 
z
" style="fill:#fbafe4;stroke:#ffffff;stroke-linejoin:miter;"/>
   </g>
   <g id="patch_23">
    <path d="M 366.213205 182.398912 
C 366.213205 161.809618 361.519875 141.48866 352.490894 122.984701 
C 343.461913 104.480742 330.332626 88.276097 314.103619 75.605725 
C 297.874611 62.935353 278.968901 54.129514 258.827294 49.859303 
C 238.685688 45.589091 217.833188 45.965812 197.858966 50.960755 
C 177.884744 55.955699 159.309439 65.438669 143.548678 78.686968 
C 127.787916 91.935267 115.252512 108.603569 106.897789 127.421582 
C 98.543066 146.239595 94.586795 166.716817 95.330483 187.292675 
C 96.074172 207.868533 101.498437 228.006707 111.189892 246.172463 
L 230.727639 182.398912 
L 366.213205 182.398912 
z
" style="fill:#4c72b0;stroke:#ffffff;stroke-linejoin:miter;"/>
   </g>
   <g id="patch_24">
    <path d="M 111.189892 246.172463 
C 115.869442 254.943856 121.500244 263.173601 127.980516 270.712938 
C 134.460787 278.252276 141.751244 285.055501 149.720105 290.99964 
L 230.727639 182.398912 
L 111.189892 246.172463 
z
" style="fill:#dd8452;stroke:#ffffff;stroke-linejoin:miter;"/>
   </g>
   <g id="patch_25">
    <path d="M 149.720105 290.99964 
C 163.522293 301.294978 179.161463 308.86536 195.798408 313.304556 
C 212.435354 317.743751 229.767071 318.970909 246.86353 316.920181 
L 230.727639 182.398912 
L 149.720105 290.99964 
z
" style="fill:#55a868;stroke:#ffffff;stroke-linejoin:miter;"/>
   </g>
   <g id="patch_26">
    <path d="M 246.86353 316.920181 
C 251.654259 316.34553 256.410873 315.51537 261.113035 314.43325 
C 265.815197 313.35113 270.456197 312.018593 275.016195 310.441337 
L 230.727639 182.398912 
L 246.86353 316.920181 
z
" style="fill:#c44e52;stroke:#ffffff;stroke-linejoin:miter;"/>
   </g>
   <g id="patch_27">
    <path d="M 275.016195 310.441337 
C 278.905352 309.096117 282.731202 307.574402 286.481842 305.880925 
C 290.232482 304.187448 293.904019 302.323967 297.485031 300.29628 
L 230.727639 182.398912 
L 275.016195 310.441337 
z
" style="fill:#8172b3;stroke:#ffffff;stroke-linejoin:miter;"/>
   </g>
   <g id="patch_28">
    <path d="M 297.485031 300.29628 
C 311.721638 292.235041 324.381091 281.661363 334.849195 269.088244 
C 345.3173 256.515124 353.42198 242.149242 358.770025 226.687581 
L 230.727639 182.398912 
L 297.485031 300.29628 
z
" style="fill:#937860;stroke:#ffffff;stroke-linejoin:miter;"/>
   </g>
   <g id="patch_29">
    <path d="M 358.770025 226.687581 
C 361.22953 219.576939 363.092448 212.273759 364.339448 204.853827 
C 365.586448 197.433894 366.213202 189.922964 366.213205 182.398975 
L 230.727639 182.398912 
L 358.770025 226.687581 
z
" style="fill:#da8bc3;stroke:#ffffff;stroke-linejoin:miter;"/>
   </g>
   <g id="text_1">
    <!-- 1 -->
    <defs>
     <path d="M 37.25 0 
L 28.46875 0 
L 28.46875 56 
Q 25.296875 52.984375 20.140625 49.953125 
Q 14.984375 46.921875 10.890625 45.40625 
L 10.890625 53.90625 
Q 18.265625 57.375 23.78125 62.296875 
Q 29.296875 67.234375 31.59375 71.875 
L 37.25 71.875 
z
" id="ArialMT-49"/>
    </defs>
    <g style="fill:#262626;" transform="translate(208.225966 106.121174)scale(0.1 -0.1)">
     <use xlink:href="#ArialMT-49"/>
    </g>
   </g>
   <g id="text_2">
    <!-- 0 -->
    <defs>
     <path d="M 4.15625 35.296875 
Q 4.15625 48 6.765625 55.734375 
Q 9.375 63.484375 14.515625 67.671875 
Q 19.671875 71.875 27.484375 71.875 
Q 33.25 71.875 37.59375 69.546875 
Q 41.9375 67.234375 44.765625 62.859375 
Q 47.609375 58.5 49.21875 52.21875 
Q 50.828125 45.953125 50.828125 35.296875 
Q 50.828125 22.703125 48.234375 14.96875 
Q 45.65625 7.234375 40.5 3 
Q 35.359375 -1.21875 27.484375 -1.21875 
Q 17.140625 -1.21875 11.234375 6.203125 
Q 4.15625 15.140625 4.15625 35.296875 
z
M 13.1875 35.296875 
Q 13.1875 17.671875 17.3125 11.828125 
Q 21.4375 6 27.484375 6 
Q 33.546875 6 37.671875 11.859375 
Q 41.796875 17.71875 41.796875 35.296875 
Q 41.796875 52.984375 37.671875 58.78125 
Q 33.546875 64.59375 27.390625 64.59375 
Q 21.34375 64.59375 17.71875 59.46875 
Q 13.1875 52.9375 13.1875 35.296875 
z
" id="ArialMT-48"/>
    </defs>
    <g style="fill:#262626;" transform="translate(166.298896 237.972484)scale(0.1 -0.1)">
     <use xlink:href="#ArialMT-48"/>
    </g>
   </g>
   <g id="text_3">
    <!-- other -->
    <defs>
     <path d="M 3.328125 25.921875 
Q 3.328125 40.328125 11.328125 47.265625 
Q 18.015625 53.03125 27.640625 53.03125 
Q 38.328125 53.03125 45.109375 46.015625 
Q 51.90625 39.015625 51.90625 26.65625 
Q 51.90625 16.65625 48.90625 10.90625 
Q 45.90625 5.171875 40.15625 2 
Q 34.421875 -1.171875 27.640625 -1.171875 
Q 16.75 -1.171875 10.03125 5.8125 
Q 3.328125 12.796875 3.328125 25.921875 
z
M 12.359375 25.921875 
Q 12.359375 15.96875 16.703125 11.015625 
Q 21.046875 6.0625 27.640625 6.0625 
Q 34.1875 6.0625 38.53125 11.03125 
Q 42.875 16.015625 42.875 26.21875 
Q 42.875 35.84375 38.5 40.796875 
Q 34.125 45.75 27.640625 45.75 
Q 21.046875 45.75 16.703125 40.8125 
Q 12.359375 35.890625 12.359375 25.921875 
z
" id="ArialMT-111"/>
     <path d="M 25.78125 7.859375 
L 27.046875 0.09375 
Q 23.34375 -0.6875 20.40625 -0.6875 
Q 15.625 -0.6875 12.984375 0.828125 
Q 10.359375 2.34375 9.28125 4.8125 
Q 8.203125 7.28125 8.203125 15.1875 
L 8.203125 45.015625 
L 1.765625 45.015625 
L 1.765625 51.859375 
L 8.203125 51.859375 
L 8.203125 64.703125 
L 16.9375 69.96875 
L 16.9375 51.859375 
L 25.78125 51.859375 
L 25.78125 45.015625 
L 16.9375 45.015625 
L 16.9375 14.703125 
Q 16.9375 10.9375 17.40625 9.859375 
Q 17.875 8.796875 18.921875 8.15625 
Q 19.96875 7.515625 21.921875 7.515625 
Q 23.390625 7.515625 25.78125 7.859375 
z
" id="ArialMT-116"/>
     <path d="M 6.59375 0 
L 6.59375 71.578125 
L 15.375 71.578125 
L 15.375 45.90625 
Q 21.53125 53.03125 30.90625 53.03125 
Q 36.671875 53.03125 40.921875 50.75 
Q 45.171875 48.484375 47 44.484375 
Q 48.828125 40.484375 48.828125 32.859375 
L 48.828125 0 
L 40.046875 0 
L 40.046875 32.859375 
Q 40.046875 39.453125 37.1875 42.453125 
Q 34.328125 45.453125 29.109375 45.453125 
Q 25.203125 45.453125 21.75 43.421875 
Q 18.3125 41.40625 16.84375 37.9375 
Q 15.375 34.46875 15.375 28.375 
L 15.375 0 
z
" id="ArialMT-104"/>
     <path d="M 42.09375 16.703125 
L 51.171875 15.578125 
Q 49.03125 7.625 43.21875 3.21875 
Q 37.40625 -1.171875 28.375 -1.171875 
Q 17 -1.171875 10.328125 5.828125 
Q 3.65625 12.84375 3.65625 25.484375 
Q 3.65625 38.578125 10.390625 45.796875 
Q 17.140625 53.03125 27.875 53.03125 
Q 38.28125 53.03125 44.875 45.953125 
Q 51.46875 38.875 51.46875 26.03125 
Q 51.46875 25.25 51.421875 23.6875 
L 12.75 23.6875 
Q 13.234375 15.140625 17.578125 10.59375 
Q 21.921875 6.0625 28.421875 6.0625 
Q 33.25 6.0625 36.671875 8.59375 
Q 40.09375 11.140625 42.09375 16.703125 
z
M 13.234375 30.90625 
L 42.1875 30.90625 
Q 41.609375 37.453125 38.875 40.71875 
Q 34.671875 45.796875 27.984375 45.796875 
Q 21.921875 45.796875 17.796875 41.75 
Q 13.671875 37.703125 13.234375 30.90625 
z
" id="ArialMT-101"/>
     <path d="M 6.5 0 
L 6.5 51.859375 
L 14.40625 51.859375 
L 14.40625 44 
Q 17.4375 49.515625 20 51.265625 
Q 22.5625 53.03125 25.640625 53.03125 
Q 30.078125 53.03125 34.671875 50.203125 
L 31.640625 42.046875 
Q 28.421875 43.953125 25.203125 43.953125 
Q 22.3125 43.953125 20.015625 42.21875 
Q 17.71875 40.484375 16.75 37.40625 
Q 15.28125 32.71875 15.28125 27.15625 
L 15.28125 0 
z
" id="ArialMT-114"/>
    </defs>
    <g style="fill:#262626;" transform="translate(198.374788 263.527454)scale(0.1 -0.1)">
     <use xlink:href="#ArialMT-111"/>
     <use x="55.615234" xlink:href="#ArialMT-116"/>
     <use x="83.398438" xlink:href="#ArialMT-104"/>
     <use x="139.013672" xlink:href="#ArialMT-101"/>
     <use x="194.628906" xlink:href="#ArialMT-114"/>
    </g>
   </g>
   <g id="text_4">
    <!-- 1000 -->
    <g style="fill:#262626;" transform="translate(237.837002 264.204671)scale(0.1 -0.1)">
     <use xlink:href="#ArialMT-49"/>
     <use x="55.615234" xlink:href="#ArialMT-48"/>
     <use x="111.230469" xlink:href="#ArialMT-48"/>
     <use x="166.845703" xlink:href="#ArialMT-48"/>
    </g>
   </g>
   <g id="text_5">
    <!-- 100 -->
    <g style="fill:#262626;" transform="translate(255.838755 259.073276)scale(0.1 -0.1)">
     <use xlink:href="#ArialMT-49"/>
     <use x="55.615234" xlink:href="#ArialMT-48"/>
     <use x="111.230469" xlink:href="#ArialMT-48"/>
    </g>
   </g>
   <g id="text_6">
    <!-- 90 -->
    <defs>
     <path d="M 5.46875 16.546875 
L 13.921875 17.328125 
Q 14.984375 11.375 18.015625 8.6875 
Q 21.046875 6 25.78125 6 
Q 29.828125 6 32.875 7.859375 
Q 35.9375 9.71875 37.890625 12.8125 
Q 39.84375 15.921875 41.15625 21.1875 
Q 42.484375 26.46875 42.484375 31.9375 
Q 42.484375 32.515625 42.4375 33.6875 
Q 39.796875 29.5 35.234375 26.875 
Q 30.671875 24.265625 25.34375 24.265625 
Q 16.453125 24.265625 10.296875 30.703125 
Q 4.15625 37.15625 4.15625 47.703125 
Q 4.15625 58.59375 10.578125 65.234375 
Q 17 71.875 26.65625 71.875 
Q 33.640625 71.875 39.421875 68.109375 
Q 45.21875 64.359375 48.21875 57.390625 
Q 51.21875 50.4375 51.21875 37.25 
Q 51.21875 23.53125 48.234375 15.40625 
Q 45.265625 7.28125 39.375 3.03125 
Q 33.5 -1.21875 25.59375 -1.21875 
Q 17.1875 -1.21875 11.859375 3.4375 
Q 6.546875 8.109375 5.46875 16.546875 
z
M 41.453125 48.140625 
Q 41.453125 55.71875 37.421875 60.15625 
Q 33.40625 64.59375 27.734375 64.59375 
Q 21.875 64.59375 17.53125 59.8125 
Q 13.1875 55.03125 13.1875 47.40625 
Q 13.1875 40.578125 17.3125 36.296875 
Q 21.4375 32.03125 27.484375 32.03125 
Q 33.59375 32.03125 37.515625 36.296875 
Q 41.453125 40.578125 41.453125 48.140625 
z
" id="ArialMT-57"/>
    </defs>
    <g style="fill:#262626;" transform="translate(287.639635 236.997667)scale(0.1 -0.1)">
     <use xlink:href="#ArialMT-57"/>
     <use x="55.615234" xlink:href="#ArialMT-48"/>
    </g>
   </g>
   <g id="text_7">
    <!-- 10 -->
    <g style="fill:#262626;" transform="translate(305.333787 198.457017)scale(0.1 -0.1)">
     <use xlink:href="#ArialMT-49"/>
     <use x="55.615234" xlink:href="#ArialMT-48"/>
    </g>
   </g>
   <g id="text_8">
    <!--  -->
    <g style="fill:#262626;" transform="translate(211.006435 98.661956)scale(0.06 -0.06)"/>
    <!--  -->
    <g style="fill:#262626;" transform="translate(211.006435 105.008081)scale(0.06 -0.06)"/>
    <!--  (57.8%) -->
    <defs>
     <path id="ArialMT-32"/>
     <path d="M 23.390625 -21.046875 
Q 16.109375 -11.859375 11.078125 0.4375 
Q 6.0625 12.75 6.0625 25.921875 
Q 6.0625 37.546875 9.8125 48.1875 
Q 14.203125 60.546875 23.390625 72.796875 
L 29.6875 72.796875 
Q 23.78125 62.640625 21.875 58.296875 
Q 18.890625 51.5625 17.1875 44.234375 
Q 15.09375 35.109375 15.09375 25.875 
Q 15.09375 2.390625 29.6875 -21.046875 
z
" id="ArialMT-40"/>
     <path d="M 4.15625 18.75 
L 13.375 19.53125 
Q 14.40625 12.796875 18.140625 9.390625 
Q 21.875 6 27.15625 6 
Q 33.5 6 37.890625 10.78125 
Q 42.28125 15.578125 42.28125 23.484375 
Q 42.28125 31 38.0625 35.34375 
Q 33.84375 39.703125 27 39.703125 
Q 22.75 39.703125 19.328125 37.765625 
Q 15.921875 35.84375 13.96875 32.765625 
L 5.71875 33.84375 
L 12.640625 70.609375 
L 48.25 70.609375 
L 48.25 62.203125 
L 19.671875 62.203125 
L 15.828125 42.96875 
Q 22.265625 47.46875 29.34375 47.46875 
Q 38.71875 47.46875 45.15625 40.96875 
Q 51.609375 34.46875 51.609375 24.265625 
Q 51.609375 14.546875 45.953125 7.46875 
Q 39.0625 -1.21875 27.15625 -1.21875 
Q 17.390625 -1.21875 11.203125 4.25 
Q 5.03125 9.71875 4.15625 18.75 
z
" id="ArialMT-53"/>
     <path d="M 4.734375 62.203125 
L 4.734375 70.65625 
L 51.078125 70.65625 
L 51.078125 63.8125 
Q 44.234375 56.546875 37.515625 44.484375 
Q 30.8125 32.421875 27.15625 19.671875 
Q 24.515625 10.6875 23.78125 0 
L 14.75 0 
Q 14.890625 8.453125 18.0625 20.40625 
Q 21.234375 32.375 27.171875 43.484375 
Q 33.109375 54.59375 39.796875 62.203125 
z
" id="ArialMT-55"/>
     <path d="M 9.078125 0 
L 9.078125 10.015625 
L 19.09375 10.015625 
L 19.09375 0 
z
" id="ArialMT-46"/>
     <path d="M 17.671875 38.8125 
Q 12.203125 40.828125 9.5625 44.53125 
Q 6.9375 48.25 6.9375 53.421875 
Q 6.9375 61.234375 12.546875 66.546875 
Q 18.171875 71.875 27.484375 71.875 
Q 36.859375 71.875 42.578125 66.421875 
Q 48.296875 60.984375 48.296875 53.171875 
Q 48.296875 48.1875 45.671875 44.5 
Q 43.0625 40.828125 37.75 38.8125 
Q 44.34375 36.671875 47.78125 31.875 
Q 51.21875 27.09375 51.21875 20.453125 
Q 51.21875 11.28125 44.71875 5.03125 
Q 38.234375 -1.21875 27.640625 -1.21875 
Q 17.046875 -1.21875 10.546875 5.046875 
Q 4.046875 11.328125 4.046875 20.703125 
Q 4.046875 27.6875 7.59375 32.390625 
Q 11.140625 37.109375 17.671875 38.8125 
z
M 15.921875 53.71875 
Q 15.921875 48.640625 19.1875 45.40625 
Q 22.46875 42.1875 27.6875 42.1875 
Q 32.765625 42.1875 36.015625 45.375 
Q 39.265625 48.578125 39.265625 53.21875 
Q 39.265625 58.0625 35.90625 61.359375 
Q 32.5625 64.65625 27.59375 64.65625 
Q 22.5625 64.65625 19.234375 61.421875 
Q 15.921875 58.203125 15.921875 53.71875 
z
M 13.09375 20.65625 
Q 13.09375 16.890625 14.875 13.375 
Q 16.65625 9.859375 20.171875 7.921875 
Q 23.6875 6 27.734375 6 
Q 34.03125 6 38.125 10.046875 
Q 42.234375 14.109375 42.234375 20.359375 
Q 42.234375 26.703125 38.015625 30.859375 
Q 33.796875 35.015625 27.4375 35.015625 
Q 21.234375 35.015625 17.15625 30.90625 
Q 13.09375 26.8125 13.09375 20.65625 
z
" id="ArialMT-56"/>
     <path d="M 5.8125 54.390625 
Q 5.8125 62.0625 9.671875 67.421875 
Q 13.53125 72.796875 20.84375 72.796875 
Q 27.59375 72.796875 32 67.984375 
Q 36.421875 63.1875 36.421875 53.859375 
Q 36.421875 44.78125 31.953125 39.875 
Q 27.484375 34.96875 20.953125 34.96875 
Q 14.453125 34.96875 10.125 39.796875 
Q 5.8125 44.625 5.8125 54.390625 
z
M 21.09375 66.75 
Q 17.828125 66.75 15.65625 63.90625 
Q 13.484375 61.078125 13.484375 53.515625 
Q 13.484375 46.625 15.671875 43.8125 
Q 17.875 41.015625 21.09375 41.015625 
Q 24.421875 41.015625 26.59375 43.84375 
Q 28.765625 46.6875 28.765625 54.203125 
Q 28.765625 61.140625 26.5625 63.9375 
Q 24.359375 66.75 21.09375 66.75 
z
M 21.140625 -2.640625 
L 60.296875 72.796875 
L 67.4375 72.796875 
L 28.421875 -2.640625 
z
M 52.09375 16.796875 
Q 52.09375 24.515625 55.953125 29.859375 
Q 59.8125 35.203125 67.1875 35.203125 
Q 73.921875 35.203125 78.34375 30.390625 
Q 82.765625 25.59375 82.765625 16.265625 
Q 82.765625 7.171875 78.296875 2.265625 
Q 73.828125 -2.640625 67.234375 -2.640625 
Q 60.75 -2.640625 56.421875 2.21875 
Q 52.09375 7.078125 52.09375 16.796875 
z
M 67.4375 29.15625 
Q 64.109375 29.15625 61.9375 26.3125 
Q 59.765625 23.484375 59.765625 15.921875 
Q 59.765625 9.078125 61.953125 6.25 
Q 64.15625 3.421875 67.390625 3.421875 
Q 70.75 3.421875 72.921875 6.25 
Q 75.09375 9.078125 75.09375 16.609375 
Q 75.09375 23.53125 72.890625 26.34375 
Q 70.703125 29.15625 67.4375 29.15625 
z
" id="ArialMT-37"/>
     <path d="M 12.359375 -21.046875 
L 6.0625 -21.046875 
Q 20.65625 2.390625 20.65625 25.875 
Q 20.65625 35.0625 18.5625 44.09375 
Q 16.890625 51.421875 13.921875 58.15625 
Q 12.015625 62.546875 6.0625 72.796875 
L 12.359375 72.796875 
Q 21.53125 60.546875 25.921875 48.1875 
Q 29.6875 37.546875 29.6875 25.921875 
Q 29.6875 12.75 24.625 0.4375 
Q 19.578125 -11.859375 12.359375 -21.046875 
z
" id="ArialMT-41"/>
    </defs>
    <g style="fill:#262626;" transform="translate(199.669248 111.441956)scale(0.06 -0.06)">
     <use xlink:href="#ArialMT-32"/>
     <use x="27.783203" xlink:href="#ArialMT-40"/>
     <use x="61.083984" xlink:href="#ArialMT-53"/>
     <use x="116.699219" xlink:href="#ArialMT-55"/>
     <use x="172.314453" xlink:href="#ArialMT-46"/>
     <use x="200.097656" xlink:href="#ArialMT-56"/>
     <use x="255.712891" xlink:href="#ArialMT-37"/>
     <use x="344.628906" xlink:href="#ArialMT-41"/>
    </g>
   </g>
   <g id="text_9">
    <!--  -->
    <g style="fill:#262626;" transform="translate(169.079365 230.513265)scale(0.06 -0.06)"/>
    <!--  -->
    <g style="fill:#262626;" transform="translate(169.079365 236.85939)scale(0.06 -0.06)"/>
    <!--  (7.0%) -->
    <g style="fill:#262626;" transform="translate(159.410459 243.293265)scale(0.06 -0.06)">
     <use xlink:href="#ArialMT-32"/>
     <use x="27.783203" xlink:href="#ArialMT-40"/>
     <use x="61.083984" xlink:href="#ArialMT-55"/>
     <use x="116.699219" xlink:href="#ArialMT-46"/>
     <use x="144.482422" xlink:href="#ArialMT-48"/>
     <use x="200.097656" xlink:href="#ArialMT-37"/>
     <use x="289.013672" xlink:href="#ArialMT-41"/>
    </g>
   </g>
   <g id="text_10">
    <!--  -->
    <g style="fill:#262626;" transform="translate(209.770101 256.068236)scale(0.06 -0.06)"/>
    <!--  -->
    <g style="fill:#262626;" transform="translate(209.770101 262.414361)scale(0.06 -0.06)"/>
    <!--  (12.1%) -->
    <defs>
     <path d="M 50.34375 8.453125 
L 50.34375 0 
L 3.03125 0 
Q 2.9375 3.171875 4.046875 6.109375 
Q 5.859375 10.9375 9.828125 15.625 
Q 13.8125 20.3125 21.34375 26.46875 
Q 33.015625 36.03125 37.109375 41.625 
Q 41.21875 47.21875 41.21875 52.203125 
Q 41.21875 57.421875 37.46875 61 
Q 33.734375 64.59375 27.734375 64.59375 
Q 21.390625 64.59375 17.578125 60.78125 
Q 13.765625 56.984375 13.71875 50.25 
L 4.6875 51.171875 
Q 5.609375 61.28125 11.65625 66.578125 
Q 17.71875 71.875 27.9375 71.875 
Q 38.234375 71.875 44.234375 66.15625 
Q 50.25 60.453125 50.25 52 
Q 50.25 47.703125 48.484375 43.546875 
Q 46.734375 39.40625 42.65625 34.8125 
Q 38.578125 30.21875 29.109375 22.21875 
Q 21.1875 15.578125 18.9375 13.203125 
Q 16.703125 10.84375 15.234375 8.453125 
z
" id="ArialMT-50"/>
    </defs>
    <g style="fill:#262626;" transform="translate(198.432913 268.848236)scale(0.06 -0.06)">
     <use xlink:href="#ArialMT-32"/>
     <use x="27.783203" xlink:href="#ArialMT-40"/>
     <use x="61.083984" xlink:href="#ArialMT-49"/>
     <use x="116.699219" xlink:href="#ArialMT-50"/>
     <use x="172.314453" xlink:href="#ArialMT-46"/>
     <use x="200.097656" xlink:href="#ArialMT-49"/>
     <use x="255.712891" xlink:href="#ArialMT-37"/>
     <use x="344.628906" xlink:href="#ArialMT-41"/>
    </g>
   </g>
   <g id="text_11">
    <!--  -->
    <g style="fill:#262626;" transform="translate(248.958877 256.745452)scale(0.06 -0.06)"/>
    <!--  -->
    <g style="fill:#262626;" transform="translate(248.958877 263.091577)scale(0.06 -0.06)"/>
    <!--  (3.4%) -->
    <defs>
     <path d="M 4.203125 18.890625 
L 12.984375 20.0625 
Q 14.5 12.59375 18.140625 9.296875 
Q 21.78125 6 27 6 
Q 33.203125 6 37.46875 10.296875 
Q 41.75 14.59375 41.75 20.953125 
Q 41.75 27 37.796875 30.921875 
Q 33.84375 34.859375 27.734375 34.859375 
Q 25.25 34.859375 21.53125 33.890625 
L 22.515625 41.609375 
Q 23.390625 41.5 23.921875 41.5 
Q 29.546875 41.5 34.03125 44.421875 
Q 38.53125 47.359375 38.53125 53.46875 
Q 38.53125 58.296875 35.25 61.46875 
Q 31.984375 64.65625 26.8125 64.65625 
Q 21.6875 64.65625 18.265625 61.421875 
Q 14.84375 58.203125 13.875 51.765625 
L 5.078125 53.328125 
Q 6.6875 62.15625 12.390625 67.015625 
Q 18.109375 71.875 26.609375 71.875 
Q 32.46875 71.875 37.390625 69.359375 
Q 42.328125 66.84375 44.9375 62.5 
Q 47.5625 58.15625 47.5625 53.265625 
Q 47.5625 48.640625 45.0625 44.828125 
Q 42.578125 41.015625 37.703125 38.765625 
Q 44.046875 37.3125 47.5625 32.6875 
Q 51.078125 28.078125 51.078125 21.140625 
Q 51.078125 11.765625 44.234375 5.25 
Q 37.40625 -1.265625 26.953125 -1.265625 
Q 17.53125 -1.265625 11.296875 4.34375 
Q 5.078125 9.96875 4.203125 18.890625 
z
" id="ArialMT-51"/>
     <path d="M 32.328125 0 
L 32.328125 17.140625 
L 1.265625 17.140625 
L 1.265625 25.203125 
L 33.9375 71.578125 
L 41.109375 71.578125 
L 41.109375 25.203125 
L 50.78125 25.203125 
L 50.78125 17.140625 
L 41.109375 17.140625 
L 41.109375 0 
z
M 32.328125 25.203125 
L 32.328125 57.46875 
L 9.90625 25.203125 
z
" id="ArialMT-52"/>
    </defs>
    <g style="fill:#262626;" transform="translate(239.28997 269.525452)scale(0.06 -0.06)">
     <use xlink:href="#ArialMT-32"/>
     <use x="27.783203" xlink:href="#ArialMT-40"/>
     <use x="61.083984" xlink:href="#ArialMT-51"/>
     <use x="116.699219" xlink:href="#ArialMT-46"/>
     <use x="144.482422" xlink:href="#ArialMT-52"/>
     <use x="200.097656" xlink:href="#ArialMT-37"/>
     <use x="289.013672" xlink:href="#ArialMT-41"/>
    </g>
   </g>
   <g id="text_12">
    <!--  -->
    <g style="fill:#262626;" transform="translate(264.180161 251.614057)scale(0.06 -0.06)"/>
    <!--  -->
    <g style="fill:#262626;" transform="translate(264.180161 257.960182)scale(0.06 -0.06)"/>
    <!--  (2.9%) -->
    <g style="fill:#262626;" transform="translate(254.511255 264.394057)scale(0.06 -0.06)">
     <use xlink:href="#ArialMT-32"/>
     <use x="27.783203" xlink:href="#ArialMT-40"/>
     <use x="61.083984" xlink:href="#ArialMT-50"/>
     <use x="116.699219" xlink:href="#ArialMT-46"/>
     <use x="144.482422" xlink:href="#ArialMT-57"/>
     <use x="200.097656" xlink:href="#ArialMT-37"/>
     <use x="289.013672" xlink:href="#ArialMT-41"/>
    </g>
   </g>
   <g id="text_13">
    <!--  -->
    <g style="fill:#262626;" transform="translate(293.200573 229.538449)scale(0.06 -0.06)"/>
    <!--  -->
    <g style="fill:#262626;" transform="translate(293.200573 235.884574)scale(0.06 -0.06)"/>
    <!--  (11.5%) -->
    <g style="fill:#262626;" transform="translate(281.866667 242.318449)scale(0.06 -0.06)">
     <use xlink:href="#ArialMT-32"/>
     <use x="27.783203" xlink:href="#ArialMT-40"/>
     <use x="61.083984" xlink:href="#ArialMT-49"/>
     <use x="116.589844" xlink:href="#ArialMT-49"/>
     <use x="172.205078" xlink:href="#ArialMT-46"/>
     <use x="199.988281" xlink:href="#ArialMT-53"/>
     <use x="255.603516" xlink:href="#ArialMT-37"/>
     <use x="344.519531" xlink:href="#ArialMT-41"/>
    </g>
   </g>
   <g id="text_14">
    <!--  -->
    <g style="fill:#262626;" transform="translate(310.894725 190.997798)scale(0.06 -0.06)"/>
    <!--  -->
    <g style="fill:#262626;" transform="translate(310.894725 197.343923)scale(0.06 -0.06)"/>
    <!--  (5.3%) -->
    <g style="fill:#262626;" transform="translate(301.225818 203.777798)scale(0.06 -0.06)">
     <use xlink:href="#ArialMT-32"/>
     <use x="27.783203" xlink:href="#ArialMT-40"/>
     <use x="61.083984" xlink:href="#ArialMT-53"/>
     <use x="116.699219" xlink:href="#ArialMT-46"/>
     <use x="144.482422" xlink:href="#ArialMT-51"/>
     <use x="200.097656" xlink:href="#ArialMT-37"/>
     <use x="289.013672" xlink:href="#ArialMT-41"/>
    </g>
   </g>
   <g id="text_15">
    <!-- fee_proportional_millionths -->
    <defs>
     <path d="M 8.6875 0 
L 8.6875 45.015625 
L 0.921875 45.015625 
L 0.921875 51.859375 
L 8.6875 51.859375 
L 8.6875 57.375 
Q 8.6875 62.59375 9.625 65.140625 
Q 10.890625 68.5625 14.078125 70.671875 
Q 17.28125 72.796875 23.046875 72.796875 
Q 26.765625 72.796875 31.25 71.921875 
L 29.9375 64.265625 
Q 27.203125 64.75 24.75 64.75 
Q 20.75 64.75 19.09375 63.03125 
Q 17.4375 61.328125 17.4375 56.640625 
L 17.4375 51.859375 
L 27.546875 51.859375 
L 27.546875 45.015625 
L 17.4375 45.015625 
L 17.4375 0 
z
" id="ArialMT-102"/>
     <path d="M -1.515625 -19.875 
L -1.515625 -13.53125 
L 56.734375 -13.53125 
L 56.734375 -19.875 
z
" id="ArialMT-95"/>
     <path d="M 6.59375 -19.875 
L 6.59375 51.859375 
L 14.59375 51.859375 
L 14.59375 45.125 
Q 17.4375 49.078125 21 51.046875 
Q 24.5625 53.03125 29.640625 53.03125 
Q 36.28125 53.03125 41.359375 49.609375 
Q 46.4375 46.1875 49.015625 39.953125 
Q 51.609375 33.734375 51.609375 26.3125 
Q 51.609375 18.359375 48.75 11.984375 
Q 45.90625 5.609375 40.453125 2.21875 
Q 35.015625 -1.171875 29 -1.171875 
Q 24.609375 -1.171875 21.109375 0.6875 
Q 17.625 2.546875 15.375 5.375 
L 15.375 -19.875 
z
M 14.546875 25.640625 
Q 14.546875 15.625 18.59375 10.84375 
Q 22.65625 6.0625 28.421875 6.0625 
Q 34.28125 6.0625 38.453125 11.015625 
Q 42.625 15.96875 42.625 26.375 
Q 42.625 36.28125 38.546875 41.203125 
Q 34.46875 46.140625 28.8125 46.140625 
Q 23.1875 46.140625 18.859375 40.890625 
Q 14.546875 35.640625 14.546875 25.640625 
z
" id="ArialMT-112"/>
     <path d="M 6.640625 61.46875 
L 6.640625 71.578125 
L 15.4375 71.578125 
L 15.4375 61.46875 
z
M 6.640625 0 
L 6.640625 51.859375 
L 15.4375 51.859375 
L 15.4375 0 
z
" id="ArialMT-105"/>
     <path d="M 6.59375 0 
L 6.59375 51.859375 
L 14.5 51.859375 
L 14.5 44.484375 
Q 20.21875 53.03125 31 53.03125 
Q 35.6875 53.03125 39.625 51.34375 
Q 43.5625 49.65625 45.515625 46.921875 
Q 47.46875 44.1875 48.25 40.4375 
Q 48.734375 37.984375 48.734375 31.890625 
L 48.734375 0 
L 39.9375 0 
L 39.9375 31.546875 
Q 39.9375 36.921875 38.90625 39.578125 
Q 37.890625 42.234375 35.28125 43.8125 
Q 32.671875 45.40625 29.15625 45.40625 
Q 23.53125 45.40625 19.453125 41.84375 
Q 15.375 38.28125 15.375 28.328125 
L 15.375 0 
z
" id="ArialMT-110"/>
     <path d="M 40.4375 6.390625 
Q 35.546875 2.25 31.03125 0.53125 
Q 26.515625 -1.171875 21.34375 -1.171875 
Q 12.796875 -1.171875 8.203125 3 
Q 3.609375 7.171875 3.609375 13.671875 
Q 3.609375 17.484375 5.34375 20.625 
Q 7.078125 23.78125 9.890625 25.6875 
Q 12.703125 27.59375 16.21875 28.5625 
Q 18.796875 29.25 24.03125 29.890625 
Q 34.671875 31.15625 39.703125 32.90625 
Q 39.75 34.71875 39.75 35.203125 
Q 39.75 40.578125 37.25 42.78125 
Q 33.890625 45.75 27.25 45.75 
Q 21.046875 45.75 18.09375 43.578125 
Q 15.140625 41.40625 13.71875 35.890625 
L 5.125 37.0625 
Q 6.296875 42.578125 8.984375 45.96875 
Q 11.671875 49.359375 16.75 51.1875 
Q 21.828125 53.03125 28.515625 53.03125 
Q 35.15625 53.03125 39.296875 51.46875 
Q 43.453125 49.90625 45.40625 47.53125 
Q 47.359375 45.171875 48.140625 41.546875 
Q 48.578125 39.3125 48.578125 33.453125 
L 48.578125 21.734375 
Q 48.578125 9.46875 49.140625 6.21875 
Q 49.703125 2.984375 51.375 0 
L 42.1875 0 
Q 40.828125 2.734375 40.4375 6.390625 
z
M 39.703125 26.03125 
Q 34.90625 24.078125 25.34375 22.703125 
Q 19.921875 21.921875 17.671875 20.9375 
Q 15.4375 19.96875 14.203125 18.09375 
Q 12.984375 16.21875 12.984375 13.921875 
Q 12.984375 10.40625 15.640625 8.0625 
Q 18.3125 5.71875 23.4375 5.71875 
Q 28.515625 5.71875 32.46875 7.9375 
Q 36.421875 10.15625 38.28125 14.015625 
Q 39.703125 17 39.703125 22.796875 
z
" id="ArialMT-97"/>
     <path d="M 6.390625 0 
L 6.390625 71.578125 
L 15.1875 71.578125 
L 15.1875 0 
z
" id="ArialMT-108"/>
     <path d="M 6.59375 0 
L 6.59375 51.859375 
L 14.453125 51.859375 
L 14.453125 44.578125 
Q 16.890625 48.390625 20.9375 50.703125 
Q 25 53.03125 30.171875 53.03125 
Q 35.9375 53.03125 39.625 50.640625 
Q 43.3125 48.25 44.828125 43.953125 
Q 50.984375 53.03125 60.84375 53.03125 
Q 68.5625 53.03125 72.703125 48.75 
Q 76.859375 44.484375 76.859375 35.59375 
L 76.859375 0 
L 68.109375 0 
L 68.109375 32.671875 
Q 68.109375 37.9375 67.25 40.25 
Q 66.40625 42.578125 64.15625 43.984375 
Q 61.921875 45.40625 58.890625 45.40625 
Q 53.421875 45.40625 49.796875 41.765625 
Q 46.1875 38.140625 46.1875 30.125 
L 46.1875 0 
L 37.40625 0 
L 37.40625 33.6875 
Q 37.40625 39.546875 35.25 42.46875 
Q 33.109375 45.40625 28.21875 45.40625 
Q 24.515625 45.40625 21.359375 43.453125 
Q 18.21875 41.5 16.796875 37.734375 
Q 15.375 33.984375 15.375 26.90625 
L 15.375 0 
z
" id="ArialMT-109"/>
     <path d="M 3.078125 15.484375 
L 11.765625 16.84375 
Q 12.5 11.625 15.84375 8.84375 
Q 19.1875 6.0625 25.203125 6.0625 
Q 31.25 6.0625 34.171875 8.515625 
Q 37.109375 10.984375 37.109375 14.3125 
Q 37.109375 17.28125 34.515625 19 
Q 32.71875 20.171875 25.53125 21.96875 
Q 15.875 24.421875 12.140625 26.203125 
Q 8.40625 27.984375 6.46875 31.125 
Q 4.546875 34.28125 4.546875 38.09375 
Q 4.546875 41.546875 6.125 44.5 
Q 7.71875 47.46875 10.453125 49.421875 
Q 12.5 50.921875 16.03125 51.96875 
Q 19.578125 53.03125 23.640625 53.03125 
Q 29.734375 53.03125 34.34375 51.265625 
Q 38.96875 49.515625 41.15625 46.5 
Q 43.359375 43.5 44.1875 38.484375 
L 35.59375 37.3125 
Q 35.015625 41.3125 32.203125 43.546875 
Q 29.390625 45.796875 24.265625 45.796875 
Q 18.21875 45.796875 15.625 43.796875 
Q 13.03125 41.796875 13.03125 39.109375 
Q 13.03125 37.40625 14.109375 36.03125 
Q 15.1875 34.625 17.484375 33.6875 
Q 18.796875 33.203125 25.25 31.453125 
Q 34.578125 28.953125 38.25 27.359375 
Q 41.9375 25.78125 44.03125 22.75 
Q 46.140625 19.734375 46.140625 15.234375 
Q 46.140625 10.84375 43.578125 6.953125 
Q 41.015625 3.078125 36.171875 0.953125 
Q 31.34375 -1.171875 25.25 -1.171875 
Q 15.140625 -1.171875 9.84375 3.03125 
Q 4.546875 7.234375 3.078125 15.484375 
z
" id="ArialMT-115"/>
    </defs>
    <g style="fill:#262626;" transform="translate(122.842969 25.92)scale(0.18 -0.18)">
     <use xlink:href="#ArialMT-102"/>
     <use x="27.783203" xlink:href="#ArialMT-101"/>
     <use x="83.398438" xlink:href="#ArialMT-101"/>
     <use x="139.013672" xlink:href="#ArialMT-95"/>
     <use x="194.628906" xlink:href="#ArialMT-112"/>
     <use x="250.244141" xlink:href="#ArialMT-114"/>
     <use x="283.544922" xlink:href="#ArialMT-111"/>
     <use x="339.160156" xlink:href="#ArialMT-112"/>
     <use x="394.775391" xlink:href="#ArialMT-111"/>
     <use x="450.390625" xlink:href="#ArialMT-114"/>
     <use x="483.691406" xlink:href="#ArialMT-116"/>
     <use x="511.474609" xlink:href="#ArialMT-105"/>
     <use x="533.691406" xlink:href="#ArialMT-111"/>
     <use x="589.306641" xlink:href="#ArialMT-110"/>
     <use x="644.921875" xlink:href="#ArialMT-97"/>
     <use x="700.537109" xlink:href="#ArialMT-108"/>
     <use x="722.753906" xlink:href="#ArialMT-95"/>
     <use x="778.369141" xlink:href="#ArialMT-109"/>
     <use x="861.669922" xlink:href="#ArialMT-105"/>
     <use x="883.886719" xlink:href="#ArialMT-108"/>
     <use x="906.103516" xlink:href="#ArialMT-108"/>
     <use x="928.320312" xlink:href="#ArialMT-105"/>
     <use x="950.537109" xlink:href="#ArialMT-111"/>
     <use x="1006.152344" xlink:href="#ArialMT-110"/>
     <use x="1061.767578" xlink:href="#ArialMT-116"/>
     <use x="1089.550781" xlink:href="#ArialMT-104"/>
     <use x="1145.166016" xlink:href="#ArialMT-115"/>
    </g>
   </g>
  </g>
 </g>
</svg>
