<?xml version="1.0" encoding="utf-8" standalone="no"?>
<!DOCTYPE svg PUBLIC "-//W3C//DTD SVG 1.1//EN"
  "http://www.w3.org/Graphics/SVG/1.1/DTD/svg11.dtd">
<!-- Created with matplotlib (https://matplotlib.org/) -->
<svg height="345.6pt" version="1.1" viewBox="0 0 460.8 345.6" width="460.8pt" xmlns="http://www.w3.org/2000/svg" xmlns:xlink="http://www.w3.org/1999/xlink">
 <defs>
  <style type="text/css">
*{stroke-linecap:butt;stroke-linejoin:round;white-space:pre;}
  </style>
 </defs>
 <g id="figure_1">
  <g id="patch_1">
   <path d="M 0 345.6 
L 460.8 345.6 
L 460.8 0 
L 0 0 
z
" style="fill:#ffffff;"/>
  </g>
  <g id="axes_1">
   <g id="matplotlib.axis_1"/>
   <g id="matplotlib.axis_2"/>
   <g id="patch_2">
    <path d="M 321.217855 88.744134 
C 311.105775 78.632053 299.462923 70.176519 286.718409 63.689168 
C 273.973896 57.201817 260.286238 52.76334 246.159908 50.537322 
C 232.033578 48.311303 217.644282 48.325431 203.52235 50.579184 
C 189.400419 52.832936 175.721503 57.298282 162.989752 63.810646 
C 150.258002 70.323009 138.631776 78.801389 128.539571 88.933307 
C 118.447366 99.065224 110.01471 110.724656 103.552397 123.481884 
C 97.090084 136.239112 92.678492 149.935459 90.480217 164.066132 
C 88.281941 178.196806 88.324324 192.586047 90.605802 206.703526 
C 92.88728 220.821005 97.379477 234.491126 103.916829 247.210064 
C 110.45418 259.929003 118.955373 271.538558 129.107088 281.610848 
C 139.258803 291.683139 150.934771 300.092884 163.704664 306.530134 
C 176.474557 312.967385 190.17954 317.352073 204.314503 319.522597 
C 218.449466 321.693121 232.838596 321.622484 246.951567 319.313289 
C 261.064539 317.004094 274.725813 312.485063 287.43189 305.922749 
C 300.137967 299.360435 311.730807 290.836462 321.783144 280.664989 
C 331.835481 270.493515 340.222283 258.801056 346.634446 246.018548 
L 224.973114 184.988875 
L 321.217855 88.744134 
z
" style="fill:#002235;opacity:0.5;stroke:#002235;stroke-linejoin:miter;"/>
   </g>
   <g id="patch_3">
    <path d="M 352.042916 245.507295 
C 362.127381 225.404132 367.073634 203.111401 366.437799 180.629646 
C 365.801965 158.147891 359.603648 136.170354 348.399087 116.669293 
L 230.381584 184.477623 
L 352.042916 245.507295 
z
" style="fill:#432b02;opacity:0.5;stroke:#432b02;stroke-linejoin:miter;"/>
   </g>
   <g id="patch_4">
    <path d="M 347.8651 115.12549 
C 345.237038 110.55146 342.345282 106.13408 339.20447 101.895712 
C 336.063658 97.657344 332.6791 93.605152 329.067929 89.759648 
L 229.847598 182.93382 
L 347.8651 115.12549 
z
" style="fill:#012f22;opacity:0.5;stroke:#012f22;stroke-linejoin:miter;"/>
   </g>
   <g id="patch_5">
    <path d="M 356.204163 62.964061 
C 355.716302 62.444542 355.224368 61.928862 354.728406 61.41707 
C 354.232445 60.905278 353.732472 60.397389 353.228532 59.893451 
L 256.983832 156.138233 
L 356.204163 62.964061 
z
" style="fill:#401c00;opacity:0.5;stroke:#401c00;stroke-linejoin:miter;"/>
   </g>
   <g id="patch_6">
    <path d="M 321.217855 88.744134 
C 311.105775 78.632053 299.462923 70.176519 286.718409 63.689168 
C 273.973896 57.201817 260.286238 52.76334 246.159908 50.537322 
C 232.033578 48.311303 217.644282 48.325431 203.52235 50.579184 
C 189.400419 52.832936 175.721503 57.298282 162.989752 63.810646 
C 150.258002 70.323009 138.631776 78.801389 128.539571 88.933307 
C 118.447366 99.065224 110.01471 110.724656 103.552397 123.481884 
C 97.090084 136.239112 92.678492 149.935459 90.480217 164.066132 
C 88.281941 178.196806 88.324324 192.586047 90.605802 206.703526 
C 92.88728 220.821005 97.379477 234.491126 103.916829 247.210064 
C 110.45418 259.929003 118.955373 271.538558 129.107088 281.610848 
C 139.258803 291.683139 150.934771 300.092884 163.704664 306.530134 
C 176.474557 312.967385 190.17954 317.352073 204.314503 319.522597 
C 218.449466 321.693121 232.838596 321.622484 246.951567 319.313289 
C 261.064539 317.004094 274.725813 312.485063 287.43189 305.922749 
C 300.137967 299.360435 311.730807 290.836462 321.783144 280.664989 
C 331.835481 270.493515 340.222283 258.801056 346.634446 246.018548 
L 224.973114 184.988875 
L 321.217855 88.744134 
z
" style="fill:#172235;opacity:0.5;stroke:#172235;stroke-linejoin:miter;"/>
   </g>
   <g id="patch_7">
    <path d="M 352.042916 245.507295 
C 362.127381 225.404132 367.073634 203.111401 366.437799 180.629646 
C 365.801965 158.147891 359.603648 136.170354 348.399087 116.669293 
L 230.381584 184.477623 
L 352.042916 245.507295 
z
" style="fill:#422819;opacity:0.5;stroke:#422819;stroke-linejoin:miter;"/>
   </g>
   <g id="patch_8">
    <path d="M 347.8651 115.12549 
C 345.237038 110.55146 342.345282 106.13408 339.20447 101.895712 
C 336.063658 97.657344 332.6791 93.605152 329.067929 89.759648 
L 229.847598 182.93382 
L 347.8651 115.12549 
z
" style="fill:#19321f;opacity:0.5;stroke:#19321f;stroke-linejoin:miter;"/>
   </g>
   <g id="patch_9">
    <path d="M 356.204163 62.964061 
C 355.716302 62.444542 355.224368 61.928862 354.728406 61.41707 
C 354.232445 60.905278 353.732472 60.397389 353.228532 59.893451 
L 256.983832 156.138233 
L 356.204163 62.964061 
z
" style="fill:#3b1719;opacity:0.5;stroke:#3b1719;stroke-linejoin:miter;"/>
   </g>
   <g id="patch_10">
    <path d="M 323.940068 86.021922 
C 313.827987 75.909841 302.185135 67.454307 289.440622 60.966956 
C 276.696108 54.479605 263.00845 50.041128 248.88212 47.815109 
C 234.755791 45.589091 220.366494 45.603218 206.244563 47.856971 
C 192.122631 50.110724 178.443715 54.57607 165.711965 61.088433 
C 152.980214 67.600797 141.353988 76.079177 131.261783 86.211094 
C 121.169578 96.343012 112.736922 108.002444 106.274609 120.759672 
C 99.812296 133.5169 95.400705 147.213246 93.202429 161.34392 
C 91.004154 175.474594 91.046536 189.863835 93.328014 203.981313 
C 95.609493 218.098792 100.10169 231.768914 106.639041 244.487852 
C 113.176392 257.20679 121.677585 268.816345 131.8293 278.888636 
C 141.981015 288.960926 153.656984 297.370671 166.426876 303.807922 
C 179.196769 310.245172 192.901752 314.629861 207.036715 316.800385 
C 221.171678 318.970909 235.560808 318.900272 249.67378 316.591077 
C 263.786751 314.281882 277.448026 309.76285 290.154102 303.200537 
C 302.860179 296.638223 314.453019 288.11425 324.505356 277.942776 
C 334.557693 267.771303 342.944495 256.078843 349.356658 243.296335 
L 227.695326 182.266663 
L 323.940068 86.021922 
z
" style="fill:#0173b2;stroke:#ffffff;stroke-linejoin:miter;"/>
   </g>
   <g id="patch_11">
    <path d="M 354.765129 242.785083 
C 364.849593 222.68192 369.795846 200.389188 369.160012 177.907434 
C 368.524177 155.425679 362.325861 133.448141 351.121299 113.94708 
L 233.103797 181.75541 
L 354.765129 242.785083 
z
" style="fill:#de8f05;stroke:#ffffff;stroke-linejoin:miter;"/>
   </g>
   <g id="patch_12">
    <path d="M 350.587312 112.403278 
C 347.95925 107.829248 345.067494 103.411868 341.926682 99.1735 
C 338.785871 94.935132 335.401313 90.882939 331.790141 87.037435 
L 232.56981 180.211608 
L 350.587312 112.403278 
z
" style="fill:#029e73;stroke:#ffffff;stroke-linejoin:miter;"/>
   </g>
   <g id="patch_13">
    <path d="M 358.926376 60.241848 
C 358.438514 59.722329 357.94658 59.20665 357.450619 58.694858 
C 356.954657 58.183066 356.454684 57.675177 355.950745 57.171238 
L 259.706045 153.416021 
L 358.926376 60.241848 
z
" style="fill:#d55e00;stroke:#ffffff;stroke-linejoin:miter;"/>
   </g>
   <g id="patch_14">
    <path d="M 323.940068 86.021922 
C 313.827987 75.909841 302.185135 67.454307 289.440622 60.966956 
C 276.696108 54.479605 263.00845 50.041128 248.88212 47.815109 
C 234.755791 45.589091 220.366494 45.603218 206.244563 47.856971 
C 192.122631 50.110724 178.443715 54.57607 165.711965 61.088433 
C 152.980214 67.600797 141.353988 76.079177 131.261783 86.211094 
C 121.169578 96.343012 112.736922 108.002444 106.274609 120.759672 
C 99.812296 133.5169 95.400705 147.213246 93.202429 161.34392 
C 91.004154 175.474594 91.046536 189.863835 93.328014 203.981313 
C 95.609493 218.098792 100.10169 231.768914 106.639041 244.487852 
C 113.176392 257.20679 121.677585 268.816345 131.8293 278.888636 
C 141.981015 288.960926 153.656984 297.370671 166.426876 303.807922 
C 179.196769 310.245172 192.901752 314.629861 207.036715 316.800385 
C 221.171678 318.970909 235.560808 318.900272 249.67378 316.591077 
C 263.786751 314.281882 277.448026 309.76285 290.154102 303.200537 
C 302.860179 296.638223 314.453019 288.11425 324.505356 277.942776 
C 334.557693 267.771303 342.944495 256.078843 349.356658 243.296335 
L 227.695326 182.266663 
L 323.940068 86.021922 
z
" style="fill:#4c72b0;stroke:#ffffff;stroke-linejoin:miter;"/>
   </g>
   <g id="patch_15">
    <path d="M 354.765129 242.785083 
C 364.849593 222.68192 369.795846 200.389188 369.160012 177.907434 
C 368.524177 155.425679 362.325861 133.448141 351.121299 113.94708 
L 233.103797 181.75541 
L 354.765129 242.785083 
z
" style="fill:#dd8452;stroke:#ffffff;stroke-linejoin:miter;"/>
   </g>
   <g id="patch_16">
    <path d="M 350.587312 112.403278 
C 347.95925 107.829248 345.067494 103.411868 341.926682 99.1735 
C 338.785871 94.935132 335.401313 90.882939 331.790141 87.037435 
L 232.56981 180.211608 
L 350.587312 112.403278 
z
" style="fill:#55a868;stroke:#ffffff;stroke-linejoin:miter;"/>
   </g>
   <g id="patch_17">
    <path d="M 358.926376 60.241848 
C 358.438514 59.722329 357.94658 59.20665 357.450619 58.694858 
C 356.954657 58.183066 356.454684 57.675177 355.950745 57.171238 
L 259.706045 153.416021 
L 358.926376 60.241848 
z
" style="fill:#c44e52;stroke:#ffffff;stroke-linejoin:miter;"/>
   </g>
   <g id="text_1">
    <!-- 1000 -->
    <defs>
     <path d="M 37.25 0 
L 28.46875 0 
L 28.46875 56 
Q 25.296875 52.984375 20.140625 49.953125 
Q 14.984375 46.921875 10.890625 45.40625 
L 10.890625 53.90625 
Q 18.265625 57.375 23.78125 62.296875 
Q 29.296875 67.234375 31.59375 71.875 
L 37.25 71.875 
z
" id="ArialMT-49"/>
     <path d="M 4.15625 35.296875 
Q 4.15625 48 6.765625 55.734375 
Q 9.375 63.484375 14.515625 67.671875 
Q 19.671875 71.875 27.484375 71.875 
Q 33.25 71.875 37.59375 69.546875 
Q 41.9375 67.234375 44.765625 62.859375 
Q 47.609375 58.5 49.21875 52.21875 
Q 50.828125 45.953125 50.828125 35.296875 
Q 50.828125 22.703125 48.234375 14.96875 
Q 45.65625 7.234375 40.5 3 
Q 35.359375 -1.21875 27.484375 -1.21875 
Q 17.140625 -1.21875 11.234375 6.203125 
Q 4.15625 15.140625 4.15625 35.296875 
z
M 13.1875 35.296875 
Q 13.1875 17.671875 17.3125 11.828125 
Q 21.4375 6 27.484375 6 
Q 33.546875 6 37.671875 11.859375 
Q 41.796875 17.71875 41.796875 35.296875 
Q 41.796875 52.984375 37.671875 58.78125 
Q 33.546875 64.59375 27.390625 64.59375 
Q 21.34375 64.59375 17.71875 59.46875 
Q 13.1875 52.9375 13.1875 35.296875 
z
" id="ArialMT-48"/>
    </defs>
    <g style="fill:#262626;" transform="translate(130.392127 199.173188)scale(0.15 -0.15)">
     <use xlink:href="#ArialMT-49"/>
     <use x="55.615234" xlink:href="#ArialMT-48"/>
     <use x="111.230469" xlink:href="#ArialMT-48"/>
     <use x="166.845703" xlink:href="#ArialMT-48"/>
    </g>
   </g>
   <g id="text_2">
    <!-- 1 -->
    <g style="fill:#262626;" transform="translate(310.566823 183.324359)scale(0.15 -0.15)">
     <use xlink:href="#ArialMT-49"/>
    </g>
   </g>
   <g id="text_3">
    <!-- 0 -->
    <g style="fill:#262626;" transform="translate(294.01323 135.466477)scale(0.15 -0.15)">
     <use xlink:href="#ArialMT-48"/>
    </g>
   </g>
   <g id="text_4">
    <!-- other -->
    <defs>
     <path d="M 3.328125 25.921875 
Q 3.328125 40.328125 11.328125 47.265625 
Q 18.015625 53.03125 27.640625 53.03125 
Q 38.328125 53.03125 45.109375 46.015625 
Q 51.90625 39.015625 51.90625 26.65625 
Q 51.90625 16.65625 48.90625 10.90625 
Q 45.90625 5.171875 40.15625 2 
Q 34.421875 -1.171875 27.640625 -1.171875 
Q 16.75 -1.171875 10.03125 5.8125 
Q 3.328125 12.796875 3.328125 25.921875 
z
M 12.359375 25.921875 
Q 12.359375 15.96875 16.703125 11.015625 
Q 21.046875 6.0625 27.640625 6.0625 
Q 34.1875 6.0625 38.53125 11.03125 
Q 42.875 16.015625 42.875 26.21875 
Q 42.875 35.84375 38.5 40.796875 
Q 34.125 45.75 27.640625 45.75 
Q 21.046875 45.75 16.703125 40.8125 
Q 12.359375 35.890625 12.359375 25.921875 
z
" id="ArialMT-111"/>
     <path d="M 25.78125 7.859375 
L 27.046875 0.09375 
Q 23.34375 -0.6875 20.40625 -0.6875 
Q 15.625 -0.6875 12.984375 0.828125 
Q 10.359375 2.34375 9.28125 4.8125 
Q 8.203125 7.28125 8.203125 15.1875 
L 8.203125 45.015625 
L 1.765625 45.015625 
L 1.765625 51.859375 
L 8.203125 51.859375 
L 8.203125 64.703125 
L 16.9375 69.96875 
L 16.9375 51.859375 
L 25.78125 51.859375 
L 25.78125 45.015625 
L 16.9375 45.015625 
L 16.9375 14.703125 
Q 16.9375 10.9375 17.40625 9.859375 
Q 17.875 8.796875 18.921875 8.15625 
Q 19.96875 7.515625 21.921875 7.515625 
Q 23.390625 7.515625 25.78125 7.859375 
z
" id="ArialMT-116"/>
     <path d="M 6.59375 0 
L 6.59375 71.578125 
L 15.375 71.578125 
L 15.375 45.90625 
Q 21.53125 53.03125 30.90625 53.03125 
Q 36.671875 53.03125 40.921875 50.75 
Q 45.171875 48.484375 47 44.484375 
Q 48.828125 40.484375 48.828125 32.859375 
L 48.828125 0 
L 40.046875 0 
L 40.046875 32.859375 
Q 40.046875 39.453125 37.1875 42.453125 
Q 34.328125 45.453125 29.109375 45.453125 
Q 25.203125 45.453125 21.75 43.421875 
Q 18.3125 41.40625 16.84375 37.9375 
Q 15.375 34.46875 15.375 28.375 
L 15.375 0 
z
" id="ArialMT-104"/>
     <path d="M 42.09375 16.703125 
L 51.171875 15.578125 
Q 49.03125 7.625 43.21875 3.21875 
Q 37.40625 -1.171875 28.375 -1.171875 
Q 17 -1.171875 10.328125 5.828125 
Q 3.65625 12.84375 3.65625 25.484375 
Q 3.65625 38.578125 10.390625 45.796875 
Q 17.140625 53.03125 27.875 53.03125 
Q 38.28125 53.03125 44.875 45.953125 
Q 51.46875 38.875 51.46875 26.03125 
Q 51.46875 25.25 51.421875 23.6875 
L 12.75 23.6875 
Q 13.234375 15.140625 17.578125 10.59375 
Q 21.921875 6.0625 28.421875 6.0625 
Q 33.25 6.0625 36.671875 8.59375 
Q 40.09375 11.140625 42.09375 16.703125 
z
M 13.234375 30.90625 
L 42.1875 30.90625 
Q 41.609375 37.453125 38.875 40.71875 
Q 34.671875 45.796875 27.984375 45.796875 
Q 21.921875 45.796875 17.796875 41.75 
Q 13.671875 37.703125 13.234375 30.90625 
z
" id="ArialMT-101"/>
     <path d="M 6.5 0 
L 6.5 51.859375 
L 14.40625 51.859375 
L 14.40625 44 
Q 17.4375 49.515625 20 51.265625 
Q 22.5625 53.03125 25.640625 53.03125 
Q 30.078125 53.03125 34.671875 50.203125 
L 31.640625 42.046875 
Q 28.421875 43.953125 25.203125 43.953125 
Q 22.3125 43.953125 20.015625 42.21875 
Q 17.71875 40.484375 16.75 37.40625 
Q 15.28125 32.71875 15.28125 27.15625 
L 15.28125 0 
z
" id="ArialMT-114"/>
    </defs>
    <g style="fill:#262626;" transform="translate(301.25982 100.461057)scale(0.15 -0.15)">
     <use xlink:href="#ArialMT-111"/>
     <use x="55.615234" xlink:href="#ArialMT-116"/>
     <use x="83.398438" xlink:href="#ArialMT-104"/>
     <use x="139.013672" xlink:href="#ArialMT-101"/>
     <use x="194.628906" xlink:href="#ArialMT-114"/>
    </g>
   </g>
   <g id="text_5">
    <!--  -->
    <g style="fill:#262626;" transform="translate(147.074939 186.359672)scale(0.11 -0.11)"/>
    <!--  -->
    <g style="fill:#262626;" transform="translate(147.074939 197.994235)scale(0.11 -0.11)"/>
    <!--  (80.1%) -->
    <defs>
     <path id="ArialMT-32"/>
     <path d="M 23.390625 -21.046875 
Q 16.109375 -11.859375 11.078125 0.4375 
Q 6.0625 12.75 6.0625 25.921875 
Q 6.0625 37.546875 9.8125 48.1875 
Q 14.203125 60.546875 23.390625 72.796875 
L 29.6875 72.796875 
Q 23.78125 62.640625 21.875 58.296875 
Q 18.890625 51.5625 17.1875 44.234375 
Q 15.09375 35.109375 15.09375 25.875 
Q 15.09375 2.390625 29.6875 -21.046875 
z
" id="ArialMT-40"/>
     <path d="M 17.671875 38.8125 
Q 12.203125 40.828125 9.5625 44.53125 
Q 6.9375 48.25 6.9375 53.421875 
Q 6.9375 61.234375 12.546875 66.546875 
Q 18.171875 71.875 27.484375 71.875 
Q 36.859375 71.875 42.578125 66.421875 
Q 48.296875 60.984375 48.296875 53.171875 
Q 48.296875 48.1875 45.671875 44.5 
Q 43.0625 40.828125 37.75 38.8125 
Q 44.34375 36.671875 47.78125 31.875 
Q 51.21875 27.09375 51.21875 20.453125 
Q 51.21875 11.28125 44.71875 5.03125 
Q 38.234375 -1.21875 27.640625 -1.21875 
Q 17.046875 -1.21875 10.546875 5.046875 
Q 4.046875 11.328125 4.046875 20.703125 
Q 4.046875 27.6875 7.59375 32.390625 
Q 11.140625 37.109375 17.671875 38.8125 
z
M 15.921875 53.71875 
Q 15.921875 48.640625 19.1875 45.40625 
Q 22.46875 42.1875 27.6875 42.1875 
Q 32.765625 42.1875 36.015625 45.375 
Q 39.265625 48.578125 39.265625 53.21875 
Q 39.265625 58.0625 35.90625 61.359375 
Q 32.5625 64.65625 27.59375 64.65625 
Q 22.5625 64.65625 19.234375 61.421875 
Q 15.921875 58.203125 15.921875 53.71875 
z
M 13.09375 20.65625 
Q 13.09375 16.890625 14.875 13.375 
Q 16.65625 9.859375 20.171875 7.921875 
Q 23.6875 6 27.734375 6 
Q 34.03125 6 38.125 10.046875 
Q 42.234375 14.109375 42.234375 20.359375 
Q 42.234375 26.703125 38.015625 30.859375 
Q 33.796875 35.015625 27.4375 35.015625 
Q 21.234375 35.015625 17.15625 30.90625 
Q 13.09375 26.8125 13.09375 20.65625 
z
" id="ArialMT-56"/>
     <path d="M 9.078125 0 
L 9.078125 10.015625 
L 19.09375 10.015625 
L 19.09375 0 
z
" id="ArialMT-46"/>
     <path d="M 5.8125 54.390625 
Q 5.8125 62.0625 9.671875 67.421875 
Q 13.53125 72.796875 20.84375 72.796875 
Q 27.59375 72.796875 32 67.984375 
Q 36.421875 63.1875 36.421875 53.859375 
Q 36.421875 44.78125 31.953125 39.875 
Q 27.484375 34.96875 20.953125 34.96875 
Q 14.453125 34.96875 10.125 39.796875 
Q 5.8125 44.625 5.8125 54.390625 
z
M 21.09375 66.75 
Q 17.828125 66.75 15.65625 63.90625 
Q 13.484375 61.078125 13.484375 53.515625 
Q 13.484375 46.625 15.671875 43.8125 
Q 17.875 41.015625 21.09375 41.015625 
Q 24.421875 41.015625 26.59375 43.84375 
Q 28.765625 46.6875 28.765625 54.203125 
Q 28.765625 61.140625 26.5625 63.9375 
Q 24.359375 66.75 21.09375 66.75 
z
M 21.140625 -2.640625 
L 60.296875 72.796875 
L 67.4375 72.796875 
L 28.421875 -2.640625 
z
M 52.09375 16.796875 
Q 52.09375 24.515625 55.953125 29.859375 
Q 59.8125 35.203125 67.1875 35.203125 
Q 73.921875 35.203125 78.34375 30.390625 
Q 82.765625 25.59375 82.765625 16.265625 
Q 82.765625 7.171875 78.296875 2.265625 
Q 73.828125 -2.640625 67.234375 -2.640625 
Q 60.75 -2.640625 56.421875 2.21875 
Q 52.09375 7.078125 52.09375 16.796875 
z
M 67.4375 29.15625 
Q 64.109375 29.15625 61.9375 26.3125 
Q 59.765625 23.484375 59.765625 15.921875 
Q 59.765625 9.078125 61.953125 6.25 
Q 64.15625 3.421875 67.390625 3.421875 
Q 70.75 3.421875 72.921875 6.25 
Q 75.09375 9.078125 75.09375 16.609375 
Q 75.09375 23.53125 72.890625 26.34375 
Q 70.703125 29.15625 67.4375 29.15625 
z
" id="ArialMT-37"/>
     <path d="M 12.359375 -21.046875 
L 6.0625 -21.046875 
Q 20.65625 2.390625 20.65625 25.875 
Q 20.65625 35.0625 18.5625 44.09375 
Q 16.890625 51.421875 13.921875 58.15625 
Q 12.015625 62.546875 6.0625 72.796875 
L 12.359375 72.796875 
Q 21.53125 60.546875 25.921875 48.1875 
Q 29.6875 37.546875 29.6875 25.921875 
Q 29.6875 12.75 24.625 0.4375 
Q 19.578125 -11.859375 12.359375 -21.046875 
z
" id="ArialMT-41"/>
    </defs>
    <g style="fill:#262626;" transform="translate(126.290095 209.789672)scale(0.11 -0.11)">
     <use xlink:href="#ArialMT-32"/>
     <use x="27.783203" xlink:href="#ArialMT-40"/>
     <use x="61.083984" xlink:href="#ArialMT-56"/>
     <use x="116.699219" xlink:href="#ArialMT-48"/>
     <use x="172.314453" xlink:href="#ArialMT-46"/>
     <use x="200.097656" xlink:href="#ArialMT-49"/>
     <use x="255.712891" xlink:href="#ArialMT-37"/>
     <use x="344.628906" xlink:href="#ArialMT-41"/>
    </g>
   </g>
   <g id="text_6">
    <!--  -->
    <g style="fill:#262626;" transform="translate(314.737526 170.510843)scale(0.11 -0.11)"/>
    <!--  -->
    <g style="fill:#262626;" transform="translate(314.737526 182.145406)scale(0.11 -0.11)"/>
    <!--  (15.7%) -->
    <defs>
     <path d="M 4.15625 18.75 
L 13.375 19.53125 
Q 14.40625 12.796875 18.140625 9.390625 
Q 21.875 6 27.15625 6 
Q 33.5 6 37.890625 10.78125 
Q 42.28125 15.578125 42.28125 23.484375 
Q 42.28125 31 38.0625 35.34375 
Q 33.84375 39.703125 27 39.703125 
Q 22.75 39.703125 19.328125 37.765625 
Q 15.921875 35.84375 13.96875 32.765625 
L 5.71875 33.84375 
L 12.640625 70.609375 
L 48.25 70.609375 
L 48.25 62.203125 
L 19.671875 62.203125 
L 15.828125 42.96875 
Q 22.265625 47.46875 29.34375 47.46875 
Q 38.71875 47.46875 45.15625 40.96875 
Q 51.609375 34.46875 51.609375 24.265625 
Q 51.609375 14.546875 45.953125 7.46875 
Q 39.0625 -1.21875 27.15625 -1.21875 
Q 17.390625 -1.21875 11.203125 4.25 
Q 5.03125 9.71875 4.15625 18.75 
z
" id="ArialMT-53"/>
     <path d="M 4.734375 62.203125 
L 4.734375 70.65625 
L 51.078125 70.65625 
L 51.078125 63.8125 
Q 44.234375 56.546875 37.515625 44.484375 
Q 30.8125 32.421875 27.15625 19.671875 
Q 24.515625 10.6875 23.78125 0 
L 14.75 0 
Q 14.890625 8.453125 18.0625 20.40625 
Q 21.234375 32.375 27.171875 43.484375 
Q 33.109375 54.59375 39.796875 62.203125 
z
" id="ArialMT-55"/>
    </defs>
    <g style="fill:#262626;" transform="translate(293.952682 193.940843)scale(0.11 -0.11)">
     <use xlink:href="#ArialMT-32"/>
     <use x="27.783203" xlink:href="#ArialMT-40"/>
     <use x="61.083984" xlink:href="#ArialMT-49"/>
     <use x="116.699219" xlink:href="#ArialMT-53"/>
     <use x="172.314453" xlink:href="#ArialMT-46"/>
     <use x="200.097656" xlink:href="#ArialMT-55"/>
     <use x="255.712891" xlink:href="#ArialMT-37"/>
     <use x="344.628906" xlink:href="#ArialMT-41"/>
    </g>
   </g>
   <g id="text_7">
    <!--  -->
    <g style="fill:#262626;" transform="translate(298.183933 122.652962)scale(0.11 -0.11)"/>
    <!--  -->
    <g style="fill:#262626;" transform="translate(298.183933 134.287524)scale(0.11 -0.11)"/>
    <!--  (3.7%) -->
    <defs>
     <path d="M 4.203125 18.890625 
L 12.984375 20.0625 
Q 14.5 12.59375 18.140625 9.296875 
Q 21.78125 6 27 6 
Q 33.203125 6 37.46875 10.296875 
Q 41.75 14.59375 41.75 20.953125 
Q 41.75 27 37.796875 30.921875 
Q 33.84375 34.859375 27.734375 34.859375 
Q 25.25 34.859375 21.53125 33.890625 
L 22.515625 41.609375 
Q 23.390625 41.5 23.921875 41.5 
Q 29.546875 41.5 34.03125 44.421875 
Q 38.53125 47.359375 38.53125 53.46875 
Q 38.53125 58.296875 35.25 61.46875 
Q 31.984375 64.65625 26.8125 64.65625 
Q 21.6875 64.65625 18.265625 61.421875 
Q 14.84375 58.203125 13.875 51.765625 
L 5.078125 53.328125 
Q 6.6875 62.15625 12.390625 67.015625 
Q 18.109375 71.875 26.609375 71.875 
Q 32.46875 71.875 37.390625 69.359375 
Q 42.328125 66.84375 44.9375 62.5 
Q 47.5625 58.15625 47.5625 53.265625 
Q 47.5625 48.640625 45.0625 44.828125 
Q 42.578125 41.015625 37.703125 38.765625 
Q 44.046875 37.3125 47.5625 32.6875 
Q 51.078125 28.078125 51.078125 21.140625 
Q 51.078125 11.765625 44.234375 5.25 
Q 37.40625 -1.265625 26.953125 -1.265625 
Q 17.53125 -1.265625 11.296875 4.34375 
Q 5.078125 9.96875 4.203125 18.890625 
z
" id="ArialMT-51"/>
    </defs>
    <g style="fill:#262626;" transform="translate(280.457605 146.082962)scale(0.11 -0.11)">
     <use xlink:href="#ArialMT-32"/>
     <use x="27.783203" xlink:href="#ArialMT-40"/>
     <use x="61.083984" xlink:href="#ArialMT-51"/>
     <use x="116.699219" xlink:href="#ArialMT-46"/>
     <use x="144.482422" xlink:href="#ArialMT-55"/>
     <use x="200.097656" xlink:href="#ArialMT-37"/>
     <use x="289.013672" xlink:href="#ArialMT-41"/>
    </g>
   </g>
   <g id="text_8">
    <!--  -->
    <g style="fill:#262626;" transform="translate(318.352789 87.647542)scale(0.11 -0.11)"/>
    <!--  -->
    <g style="fill:#262626;" transform="translate(318.352789 99.282104)scale(0.11 -0.11)"/>
    <!--  (0.5%) -->
    <g style="fill:#262626;" transform="translate(300.626461 111.077542)scale(0.11 -0.11)">
     <use xlink:href="#ArialMT-32"/>
     <use x="27.783203" xlink:href="#ArialMT-40"/>
     <use x="61.083984" xlink:href="#ArialMT-48"/>
     <use x="116.699219" xlink:href="#ArialMT-46"/>
     <use x="144.482422" xlink:href="#ArialMT-53"/>
     <use x="200.097656" xlink:href="#ArialMT-37"/>
     <use x="289.013672" xlink:href="#ArialMT-41"/>
    </g>
   </g>
   <g id="text_9">
    <!-- htlc_minimum_msat -->
    <defs>
     <path d="M 6.390625 0 
L 6.390625 71.578125 
L 15.1875 71.578125 
L 15.1875 0 
z
" id="ArialMT-108"/>
     <path d="M 40.4375 19 
L 49.078125 17.875 
Q 47.65625 8.9375 41.8125 3.875 
Q 35.984375 -1.171875 27.484375 -1.171875 
Q 16.84375 -1.171875 10.375 5.78125 
Q 3.90625 12.75 3.90625 25.734375 
Q 3.90625 34.125 6.6875 40.421875 
Q 9.46875 46.734375 15.15625 49.875 
Q 20.84375 53.03125 27.546875 53.03125 
Q 35.984375 53.03125 41.359375 48.75 
Q 46.734375 44.484375 48.25 36.625 
L 39.703125 35.296875 
Q 38.484375 40.53125 35.375 43.15625 
Q 32.28125 45.796875 27.875 45.796875 
Q 21.234375 45.796875 17.078125 41.03125 
Q 12.9375 36.28125 12.9375 25.984375 
Q 12.9375 15.53125 16.9375 10.796875 
Q 20.953125 6.0625 27.390625 6.0625 
Q 32.5625 6.0625 36.03125 9.234375 
Q 39.5 12.40625 40.4375 19 
z
" id="ArialMT-99"/>
     <path d="M -1.515625 -19.875 
L -1.515625 -13.53125 
L 56.734375 -13.53125 
L 56.734375 -19.875 
z
" id="ArialMT-95"/>
     <path d="M 6.59375 0 
L 6.59375 51.859375 
L 14.453125 51.859375 
L 14.453125 44.578125 
Q 16.890625 48.390625 20.9375 50.703125 
Q 25 53.03125 30.171875 53.03125 
Q 35.9375 53.03125 39.625 50.640625 
Q 43.3125 48.25 44.828125 43.953125 
Q 50.984375 53.03125 60.84375 53.03125 
Q 68.5625 53.03125 72.703125 48.75 
Q 76.859375 44.484375 76.859375 35.59375 
L 76.859375 0 
L 68.109375 0 
L 68.109375 32.671875 
Q 68.109375 37.9375 67.25 40.25 
Q 66.40625 42.578125 64.15625 43.984375 
Q 61.921875 45.40625 58.890625 45.40625 
Q 53.421875 45.40625 49.796875 41.765625 
Q 46.1875 38.140625 46.1875 30.125 
L 46.1875 0 
L 37.40625 0 
L 37.40625 33.6875 
Q 37.40625 39.546875 35.25 42.46875 
Q 33.109375 45.40625 28.21875 45.40625 
Q 24.515625 45.40625 21.359375 43.453125 
Q 18.21875 41.5 16.796875 37.734375 
Q 15.375 33.984375 15.375 26.90625 
L 15.375 0 
z
" id="ArialMT-109"/>
     <path d="M 6.640625 61.46875 
L 6.640625 71.578125 
L 15.4375 71.578125 
L 15.4375 61.46875 
z
M 6.640625 0 
L 6.640625 51.859375 
L 15.4375 51.859375 
L 15.4375 0 
z
" id="ArialMT-105"/>
     <path d="M 6.59375 0 
L 6.59375 51.859375 
L 14.5 51.859375 
L 14.5 44.484375 
Q 20.21875 53.03125 31 53.03125 
Q 35.6875 53.03125 39.625 51.34375 
Q 43.5625 49.65625 45.515625 46.921875 
Q 47.46875 44.1875 48.25 40.4375 
Q 48.734375 37.984375 48.734375 31.890625 
L 48.734375 0 
L 39.9375 0 
L 39.9375 31.546875 
Q 39.9375 36.921875 38.90625 39.578125 
Q 37.890625 42.234375 35.28125 43.8125 
Q 32.671875 45.40625 29.15625 45.40625 
Q 23.53125 45.40625 19.453125 41.84375 
Q 15.375 38.28125 15.375 28.328125 
L 15.375 0 
z
" id="ArialMT-110"/>
     <path d="M 40.578125 0 
L 40.578125 7.625 
Q 34.515625 -1.171875 24.125 -1.171875 
Q 19.53125 -1.171875 15.546875 0.578125 
Q 11.578125 2.34375 9.640625 5 
Q 7.71875 7.671875 6.9375 11.53125 
Q 6.390625 14.109375 6.390625 19.734375 
L 6.390625 51.859375 
L 15.1875 51.859375 
L 15.1875 23.09375 
Q 15.1875 16.21875 15.71875 13.8125 
Q 16.546875 10.359375 19.234375 8.375 
Q 21.921875 6.390625 25.875 6.390625 
Q 29.828125 6.390625 33.296875 8.421875 
Q 36.765625 10.453125 38.203125 13.9375 
Q 39.65625 17.4375 39.65625 24.078125 
L 39.65625 51.859375 
L 48.4375 51.859375 
L 48.4375 0 
z
" id="ArialMT-117"/>
     <path d="M 3.078125 15.484375 
L 11.765625 16.84375 
Q 12.5 11.625 15.84375 8.84375 
Q 19.1875 6.0625 25.203125 6.0625 
Q 31.25 6.0625 34.171875 8.515625 
Q 37.109375 10.984375 37.109375 14.3125 
Q 37.109375 17.28125 34.515625 19 
Q 32.71875 20.171875 25.53125 21.96875 
Q 15.875 24.421875 12.140625 26.203125 
Q 8.40625 27.984375 6.46875 31.125 
Q 4.546875 34.28125 4.546875 38.09375 
Q 4.546875 41.546875 6.125 44.5 
Q 7.71875 47.46875 10.453125 49.421875 
Q 12.5 50.921875 16.03125 51.96875 
Q 19.578125 53.03125 23.640625 53.03125 
Q 29.734375 53.03125 34.34375 51.265625 
Q 38.96875 49.515625 41.15625 46.5 
Q 43.359375 43.5 44.1875 38.484375 
L 35.59375 37.3125 
Q 35.015625 41.3125 32.203125 43.546875 
Q 29.390625 45.796875 24.265625 45.796875 
Q 18.21875 45.796875 15.625 43.796875 
Q 13.03125 41.796875 13.03125 39.109375 
Q 13.03125 37.40625 14.109375 36.03125 
Q 15.1875 34.625 17.484375 33.6875 
Q 18.796875 33.203125 25.25 31.453125 
Q 34.578125 28.953125 38.25 27.359375 
Q 41.9375 25.78125 44.03125 22.75 
Q 46.140625 19.734375 46.140625 15.234375 
Q 46.140625 10.84375 43.578125 6.953125 
Q 41.015625 3.078125 36.171875 0.953125 
Q 31.34375 -1.171875 25.25 -1.171875 
Q 15.140625 -1.171875 9.84375 3.03125 
Q 4.546875 7.234375 3.078125 15.484375 
z
" id="ArialMT-115"/>
     <path d="M 40.4375 6.390625 
Q 35.546875 2.25 31.03125 0.53125 
Q 26.515625 -1.171875 21.34375 -1.171875 
Q 12.796875 -1.171875 8.203125 3 
Q 3.609375 7.171875 3.609375 13.671875 
Q 3.609375 17.484375 5.34375 20.625 
Q 7.078125 23.78125 9.890625 25.6875 
Q 12.703125 27.59375 16.21875 28.5625 
Q 18.796875 29.25 24.03125 29.890625 
Q 34.671875 31.15625 39.703125 32.90625 
Q 39.75 34.71875 39.75 35.203125 
Q 39.75 40.578125 37.25 42.78125 
Q 33.890625 45.75 27.25 45.75 
Q 21.046875 45.75 18.09375 43.578125 
Q 15.140625 41.40625 13.71875 35.890625 
L 5.125 37.0625 
Q 6.296875 42.578125 8.984375 45.96875 
Q 11.671875 49.359375 16.75 51.1875 
Q 21.828125 53.03125 28.515625 53.03125 
Q 35.15625 53.03125 39.296875 51.46875 
Q 43.453125 49.90625 45.40625 47.53125 
Q 47.359375 45.171875 48.140625 41.546875 
Q 48.578125 39.3125 48.578125 33.453125 
L 48.578125 21.734375 
Q 48.578125 9.46875 49.140625 6.21875 
Q 49.703125 2.984375 51.375 0 
L 42.1875 0 
Q 40.828125 2.734375 40.4375 6.390625 
z
M 39.703125 26.03125 
Q 34.90625 24.078125 25.34375 22.703125 
Q 19.921875 21.921875 17.671875 20.9375 
Q 15.4375 19.96875 14.203125 18.09375 
Q 12.984375 16.21875 12.984375 13.921875 
Q 12.984375 10.40625 15.640625 8.0625 
Q 18.3125 5.71875 23.4375 5.71875 
Q 28.515625 5.71875 32.46875 7.9375 
Q 36.421875 10.15625 38.28125 14.015625 
Q 39.703125 17 39.703125 22.796875 
z
" id="ArialMT-97"/>
    </defs>
    <g style="fill:#262626;" transform="translate(150.384375 25.92)scale(0.18 -0.18)">
     <use xlink:href="#ArialMT-104"/>
     <use x="55.615234" xlink:href="#ArialMT-116"/>
     <use x="83.398438" xlink:href="#ArialMT-108"/>
     <use x="105.615234" xlink:href="#ArialMT-99"/>
     <use x="155.615234" xlink:href="#ArialMT-95"/>
     <use x="211.230469" xlink:href="#ArialMT-109"/>
     <use x="294.53125" xlink:href="#ArialMT-105"/>
     <use x="316.748047" xlink:href="#ArialMT-110"/>
     <use x="372.363281" xlink:href="#ArialMT-105"/>
     <use x="394.580078" xlink:href="#ArialMT-109"/>
     <use x="477.880859" xlink:href="#ArialMT-117"/>
     <use x="533.496094" xlink:href="#ArialMT-109"/>
     <use x="616.796875" xlink:href="#ArialMT-95"/>
     <use x="672.412109" xlink:href="#ArialMT-109"/>
     <use x="755.712891" xlink:href="#ArialMT-115"/>
     <use x="805.712891" xlink:href="#ArialMT-97"/>
     <use x="861.328125" xlink:href="#ArialMT-116"/>
    </g>
   </g>
  </g>
 </g>
</svg>
