<?xml version="1.0" encoding="utf-8" standalone="no"?>
<!DOCTYPE svg PUBLIC "-//W3C//DTD SVG 1.1//EN"
  "http://www.w3.org/Graphics/SVG/1.1/DTD/svg11.dtd">
<!-- Created with matplotlib (https://matplotlib.org/) -->
<svg height="345.6pt" version="1.1" viewBox="0 0 460.8 345.6" width="460.8pt" xmlns="http://www.w3.org/2000/svg" xmlns:xlink="http://www.w3.org/1999/xlink">
 <defs>
  <style type="text/css">
*{stroke-linecap:butt;stroke-linejoin:round;white-space:pre;}
  </style>
 </defs>
 <g id="figure_1">
  <g id="patch_1">
   <path d="M 0 345.6 
L 460.8 345.6 
L 460.8 0 
L 0 0 
z
" style="fill:#ffffff;"/>
  </g>
  <g id="axes_1">
   <g id="matplotlib.axis_1"/>
   <g id="matplotlib.axis_2"/>
   <g id="patch_2">
    <path d="M 356.034963 138.095584 
C 351.309031 125.111193 344.635938 112.920646 336.244838 101.942565 
C 327.853738 90.964484 317.841794 81.325989 306.552816 73.358065 
C 295.263839 65.390141 282.828547 59.185052 269.673968 54.955881 
C 256.51939 50.72671 242.797846 48.522428 228.980536 48.41873 
C 215.163226 48.315031 201.410143 50.313118 188.193571 54.344374 
C 174.976998 58.375631 162.449974 64.393379 151.042677 72.190968 
C 139.63538 79.988557 129.479899 89.475696 120.924973 100.326598 
C 112.370047 111.177499 105.514737 123.266517 100.594454 136.178513 
C 95.674171 149.090508 92.745889 162.675971 91.910165 176.468374 
C 91.074441 190.260777 92.340952 204.100415 95.666207 217.512033 
C 98.991461 230.923651 104.336955 243.751953 111.519122 255.556413 
C 118.70129 267.360873 127.636968 278.004805 138.019304 287.122695 
C 148.401641 296.240584 160.110415 303.726854 172.743547 309.324423 
C 185.37668 314.921993 198.787888 318.566047 212.516629 320.131448 
C 226.24537 321.696849 240.132676 321.165472 253.701655 318.555563 
C 267.270634 315.945655 280.364168 311.287436 292.532622 304.74087 
L 227.957661 184.711909 
L 356.034963 138.095584 
z
" style="fill:#002235;opacity:0.5;stroke:#002235;stroke-linejoin:miter;"/>
   </g>
   <g id="patch_3">
    <path d="M 292.532622 304.74087 
C 306.646565 297.147642 319.311213 287.124145 329.943496 275.131854 
C 340.57578 263.139563 349.009986 249.365385 354.857812 234.443475 
L 227.957661 184.711909 
L 292.532622 304.74087 
z
" style="fill:#432b02;opacity:0.5;stroke:#432b02;stroke-linejoin:miter;"/>
   </g>
   <g id="patch_4">
    <path d="M 354.857812 234.443475 
C 357.828284 226.863714 360.113682 219.033033 361.686584 211.04539 
C 363.259486 203.057746 364.113575 194.945216 364.238604 186.80514 
L 227.957661 184.711909 
L 354.857812 234.443475 
z
" style="fill:#012f22;opacity:0.5;stroke:#012f22;stroke-linejoin:miter;"/>
   </g>
   <g id="patch_5">
    <path d="M 364.238604 186.80514 
C 364.273678 184.52161 364.251353 182.23756 364.171648 179.955153 
C 364.091944 177.672745 363.954886 175.392701 363.760604 173.117181 
L 227.957661 184.711909 
L 364.238604 186.80514 
z
" style="fill:#401c00;opacity:0.5;stroke:#401c00;stroke-linejoin:miter;"/>
   </g>
   <g id="patch_6">
    <path d="M 363.760604 173.117181 
C 363.250456 167.14209 362.346524 161.207175 361.054701 155.351138 
C 359.762879 149.495102 358.085981 143.730701 356.034941 138.095525 
L 227.957661 184.711909 
L 363.760604 173.117181 
z
" style="fill:#3d2438;opacity:0.5;stroke:#3d2438;stroke-linejoin:miter;"/>
   </g>
   <g id="patch_7">
    <path d="M 356.034963 138.095584 
C 351.309031 125.111193 344.635938 112.920646 336.244838 101.942565 
C 327.853738 90.964484 317.841794 81.325989 306.552816 73.358065 
C 295.263839 65.390141 282.828547 59.185052 269.673968 54.955881 
C 256.51939 50.72671 242.797846 48.522428 228.980536 48.41873 
C 215.163226 48.315031 201.410143 50.313118 188.193571 54.344374 
C 174.976998 58.375631 162.449974 64.393379 151.042677 72.190968 
C 139.63538 79.988557 129.479899 89.475696 120.924973 100.326598 
C 112.370047 111.177499 105.514737 123.266517 100.594454 136.178513 
C 95.674171 149.090508 92.745889 162.675971 91.910165 176.468374 
C 91.074441 190.260777 92.340952 204.100415 95.666207 217.512033 
C 98.991461 230.923651 104.336955 243.751953 111.519122 255.556413 
C 118.70129 267.360873 127.636968 278.004805 138.019304 287.122695 
C 148.401641 296.240584 160.110415 303.726854 172.743547 309.324423 
C 185.37668 314.921993 198.787888 318.566047 212.516629 320.131448 
C 226.24537 321.696849 240.132676 321.165472 253.701655 318.555563 
C 267.270634 315.945655 280.364168 311.287436 292.532622 304.74087 
L 227.957661 184.711909 
L 356.034963 138.095584 
z
" style="fill:#172235;opacity:0.5;stroke:#172235;stroke-linejoin:miter;"/>
   </g>
   <g id="patch_8">
    <path d="M 292.532622 304.74087 
C 306.646565 297.147642 319.311213 287.124145 329.943496 275.131854 
C 340.57578 263.139563 349.009986 249.365385 354.857812 234.443475 
L 227.957661 184.711909 
L 292.532622 304.74087 
z
" style="fill:#422819;opacity:0.5;stroke:#422819;stroke-linejoin:miter;"/>
   </g>
   <g id="patch_9">
    <path d="M 354.857812 234.443475 
C 357.828284 226.863714 360.113682 219.033033 361.686584 211.04539 
C 363.259486 203.057746 364.113575 194.945216 364.238604 186.80514 
L 227.957661 184.711909 
L 354.857812 234.443475 
z
" style="fill:#19321f;opacity:0.5;stroke:#19321f;stroke-linejoin:miter;"/>
   </g>
   <g id="patch_10">
    <path d="M 364.238604 186.80514 
C 364.273678 184.52161 364.251353 182.23756 364.171648 179.955153 
C 364.091944 177.672745 363.954886 175.392701 363.760604 173.117181 
L 227.957661 184.711909 
L 364.238604 186.80514 
z
" style="fill:#3b1719;opacity:0.5;stroke:#3b1719;stroke-linejoin:miter;"/>
   </g>
   <g id="patch_11">
    <path d="M 363.760604 173.117181 
C 363.250456 167.14209 362.346524 161.207175 361.054701 155.351138 
C 359.762879 149.495102 358.085981 143.730701 356.034941 138.095525 
L 227.957661 184.711909 
L 363.760604 173.117181 
z
" style="fill:#272236;opacity:0.5;stroke:#272236;stroke-linejoin:miter;"/>
   </g>
   <g id="patch_12">
    <path d="M 358.760903 135.369643 
C 354.034972 122.385253 347.361878 110.194705 338.970778 99.216625 
C 330.579678 88.238544 320.567734 78.600048 309.278757 70.632125 
C 297.989779 62.664201 285.554487 56.459112 272.399909 52.229941 
C 259.24533 48.00077 245.523786 45.796488 231.706476 45.692789 
C 217.889166 45.589091 204.136083 47.587177 190.919511 51.618434 
C 177.702939 55.64969 165.175914 61.667438 153.768617 69.465027 
C 142.361321 77.262616 132.205839 86.749756 123.650913 97.600658 
C 115.095988 108.451559 108.240677 120.540577 103.320394 133.452572 
C 98.400112 146.364568 95.471829 159.950031 94.636105 173.742434 
C 93.800381 187.534837 95.066893 201.374474 98.392147 214.786093 
C 101.717401 228.197711 107.062895 241.026012 114.245063 252.830473 
C 121.427231 264.634933 130.362909 275.278865 140.745245 284.396754 
C 151.127581 293.514644 162.836355 301.000913 175.469488 306.598483 
C 188.10262 312.196052 201.513828 315.840106 215.242569 317.405508 
C 228.97131 318.970909 242.858616 318.439532 256.427595 315.829623 
C 269.996574 313.219714 283.090108 308.561495 295.258563 302.014929 
L 230.683601 181.985969 
L 358.760903 135.369643 
z
" style="fill:#0173b2;stroke:#ffffff;stroke-linejoin:miter;"/>
   </g>
   <g id="patch_13">
    <path d="M 295.258563 302.014929 
C 309.372505 294.421701 322.037154 284.398204 332.669437 272.405913 
C 343.30172 260.413623 351.735927 246.639445 357.583753 231.717534 
L 230.683601 181.985969 
L 295.258563 302.014929 
z
" style="fill:#de8f05;stroke:#ffffff;stroke-linejoin:miter;"/>
   </g>
   <g id="patch_14">
    <path d="M 357.583753 231.717534 
C 360.554225 224.137774 362.839623 216.307093 364.412524 208.319449 
C 365.985426 200.331806 366.839515 192.219275 366.964544 184.079199 
L 230.683601 181.985969 
L 357.583753 231.717534 
z
" style="fill:#029e73;stroke:#ffffff;stroke-linejoin:miter;"/>
   </g>
   <g id="patch_15">
    <path d="M 366.964544 184.079199 
C 366.999619 181.79567 366.977293 179.51162 366.897589 177.229212 
C 366.817884 174.946805 366.680826 172.666761 366.486544 170.391241 
L 230.683601 181.985969 
L 366.964544 184.079199 
z
" style="fill:#d55e00;stroke:#ffffff;stroke-linejoin:miter;"/>
   </g>
   <g id="patch_16">
    <path d="M 366.486544 170.391241 
C 365.976397 164.41615 365.072464 158.481235 363.780642 152.625198 
C 362.488819 146.769162 360.811921 141.004761 358.760882 135.369585 
L 230.683601 181.985969 
L 366.486544 170.391241 
z
" style="fill:#cc78bc;stroke:#ffffff;stroke-linejoin:miter;"/>
   </g>
   <g id="patch_17">
    <path d="M 358.760903 135.369643 
C 354.034972 122.385253 347.361878 110.194705 338.970778 99.216625 
C 330.579678 88.238544 320.567734 78.600048 309.278757 70.632125 
C 297.989779 62.664201 285.554487 56.459112 272.399909 52.229941 
C 259.24533 48.00077 245.523786 45.796488 231.706476 45.692789 
C 217.889166 45.589091 204.136083 47.587177 190.919511 51.618434 
C 177.702939 55.64969 165.175914 61.667438 153.768617 69.465027 
C 142.361321 77.262616 132.205839 86.749756 123.650913 97.600658 
C 115.095988 108.451559 108.240677 120.540577 103.320394 133.452572 
C 98.400112 146.364568 95.471829 159.950031 94.636105 173.742434 
C 93.800381 187.534837 95.066893 201.374474 98.392147 214.786093 
C 101.717401 228.197711 107.062895 241.026012 114.245063 252.830473 
C 121.427231 264.634933 130.362909 275.278865 140.745245 284.396754 
C 151.127581 293.514644 162.836355 301.000913 175.469488 306.598483 
C 188.10262 312.196052 201.513828 315.840106 215.242569 317.405508 
C 228.97131 318.970909 242.858616 318.439532 256.427595 315.829623 
C 269.996574 313.219714 283.090108 308.561495 295.258563 302.014929 
L 230.683601 181.985969 
L 358.760903 135.369643 
z
" style="fill:#4c72b0;stroke:#ffffff;stroke-linejoin:miter;"/>
   </g>
   <g id="patch_18">
    <path d="M 295.258563 302.014929 
C 309.372505 294.421701 322.037154 284.398204 332.669437 272.405913 
C 343.30172 260.413623 351.735927 246.639445 357.583753 231.717534 
L 230.683601 181.985969 
L 295.258563 302.014929 
z
" style="fill:#dd8452;stroke:#ffffff;stroke-linejoin:miter;"/>
   </g>
   <g id="patch_19">
    <path d="M 357.583753 231.717534 
C 360.554225 224.137774 362.839623 216.307093 364.412524 208.319449 
C 365.985426 200.331806 366.839515 192.219275 366.964544 184.079199 
L 230.683601 181.985969 
L 357.583753 231.717534 
z
" style="fill:#55a868;stroke:#ffffff;stroke-linejoin:miter;"/>
   </g>
   <g id="patch_20">
    <path d="M 366.964544 184.079199 
C 366.999619 181.79567 366.977293 179.51162 366.897589 177.229212 
C 366.817884 174.946805 366.680826 172.666761 366.486544 170.391241 
L 230.683601 181.985969 
L 366.964544 184.079199 
z
" style="fill:#c44e52;stroke:#ffffff;stroke-linejoin:miter;"/>
   </g>
   <g id="patch_21">
    <path d="M 366.486544 170.391241 
C 365.976397 164.41615 365.072464 158.481235 363.780642 152.625198 
C 362.488819 146.769162 360.811921 141.004761 358.760882 135.369585 
L 230.683601 181.985969 
L 366.486544 170.391241 
z
" style="fill:#8172b3;stroke:#ffffff;stroke-linejoin:miter;"/>
   </g>
   <g id="text_1">
    <!-- 40 -->
    <defs>
     <path d="M 32.328125 0 
L 32.328125 17.140625 
L 1.265625 17.140625 
L 1.265625 25.203125 
L 33.9375 71.578125 
L 41.109375 71.578125 
L 41.109375 25.203125 
L 50.78125 25.203125 
L 50.78125 17.140625 
L 41.109375 17.140625 
L 41.109375 0 
z
M 32.328125 25.203125 
L 32.328125 57.46875 
L 9.90625 25.203125 
z
" id="ArialMT-52"/>
     <path d="M 4.15625 35.296875 
Q 4.15625 48 6.765625 55.734375 
Q 9.375 63.484375 14.515625 67.671875 
Q 19.671875 71.875 27.484375 71.875 
Q 33.25 71.875 37.59375 69.546875 
Q 41.9375 67.234375 44.765625 62.859375 
Q 47.609375 58.5 49.21875 52.21875 
Q 50.828125 45.953125 50.828125 35.296875 
Q 50.828125 22.703125 48.234375 14.96875 
Q 45.65625 7.234375 40.5 3 
Q 35.359375 -1.21875 27.484375 -1.21875 
Q 17.140625 -1.21875 11.234375 6.203125 
Q 4.15625 15.140625 4.15625 35.296875 
z
M 13.1875 35.296875 
Q 13.1875 17.671875 17.3125 11.828125 
Q 21.4375 6 27.484375 6 
Q 33.546875 6 37.671875 11.859375 
Q 41.796875 17.71875 41.796875 35.296875 
Q 41.796875 52.984375 37.671875 58.78125 
Q 33.546875 64.59375 27.390625 64.59375 
Q 21.34375 64.59375 17.71875 59.46875 
Q 13.1875 52.9375 13.1875 35.296875 
z
" id="ArialMT-48"/>
    </defs>
    <g style="fill:#262626;" transform="translate(147.592552 155.968118)scale(0.12 -0.12)">
     <use xlink:href="#ArialMT-52"/>
     <use x="55.615234" xlink:href="#ArialMT-48"/>
    </g>
   </g>
   <g id="text_2">
    <!-- 144 -->
    <defs>
     <path d="M 37.25 0 
L 28.46875 0 
L 28.46875 56 
Q 25.296875 52.984375 20.140625 49.953125 
Q 14.984375 46.921875 10.890625 45.40625 
L 10.890625 53.90625 
Q 18.265625 57.375 23.78125 62.296875 
Q 29.296875 67.234375 31.59375 71.875 
L 37.25 71.875 
z
" id="ArialMT-49"/>
    </defs>
    <g style="fill:#262626;" transform="translate(281.865415 239.340123)scale(0.12 -0.12)">
     <use xlink:href="#ArialMT-49"/>
     <use x="55.615234" xlink:href="#ArialMT-52"/>
     <use x="111.230469" xlink:href="#ArialMT-52"/>
    </g>
   </g>
   <g id="text_3">
    <!-- 14 -->
    <g style="fill:#262626;" transform="translate(304.24783 200.888244)scale(0.12 -0.12)">
     <use xlink:href="#ArialMT-49"/>
     <use x="55.615234" xlink:href="#ArialMT-52"/>
    </g>
   </g>
   <g id="text_4">
    <!-- 34 -->
    <defs>
     <path d="M 4.203125 18.890625 
L 12.984375 20.0625 
Q 14.5 12.59375 18.140625 9.296875 
Q 21.78125 6 27 6 
Q 33.203125 6 37.46875 10.296875 
Q 41.75 14.59375 41.75 20.953125 
Q 41.75 27 37.796875 30.921875 
Q 33.84375 34.859375 27.734375 34.859375 
Q 25.25 34.859375 21.53125 33.890625 
L 22.515625 41.609375 
Q 23.390625 41.5 23.921875 41.5 
Q 29.546875 41.5 34.03125 44.421875 
Q 38.53125 47.359375 38.53125 53.46875 
Q 38.53125 58.296875 35.25 61.46875 
Q 31.984375 64.65625 26.8125 64.65625 
Q 21.6875 64.65625 18.265625 61.421875 
Q 14.84375 58.203125 13.875 51.765625 
L 5.078125 53.328125 
Q 6.6875 62.15625 12.390625 67.015625 
Q 18.109375 71.875 26.609375 71.875 
Q 32.46875 71.875 37.390625 69.359375 
Q 42.328125 66.84375 44.9375 62.5 
Q 47.5625 58.15625 47.5625 53.265625 
Q 47.5625 48.640625 45.0625 44.828125 
Q 42.578125 41.015625 37.703125 38.765625 
Q 44.046875 37.3125 47.5625 32.6875 
Q 51.078125 28.078125 51.078125 21.140625 
Q 51.078125 11.765625 44.234375 5.25 
Q 37.40625 -1.265625 26.953125 -1.265625 
Q 17.53125 -1.265625 11.296875 4.34375 
Q 5.078125 9.96875 4.203125 18.890625 
z
" id="ArialMT-51"/>
    </defs>
    <g style="fill:#262626;" transform="translate(305.738869 182.234102)scale(0.12 -0.12)">
     <use xlink:href="#ArialMT-51"/>
     <use x="55.615234" xlink:href="#ArialMT-52"/>
    </g>
   </g>
   <g id="text_5">
    <!-- other -->
    <defs>
     <path d="M 3.328125 25.921875 
Q 3.328125 40.328125 11.328125 47.265625 
Q 18.015625 53.03125 27.640625 53.03125 
Q 38.328125 53.03125 45.109375 46.015625 
Q 51.90625 39.015625 51.90625 26.65625 
Q 51.90625 16.65625 48.90625 10.90625 
Q 45.90625 5.171875 40.15625 2 
Q 34.421875 -1.171875 27.640625 -1.171875 
Q 16.75 -1.171875 10.03125 5.8125 
Q 3.328125 12.796875 3.328125 25.921875 
z
M 12.359375 25.921875 
Q 12.359375 15.96875 16.703125 11.015625 
Q 21.046875 6.0625 27.640625 6.0625 
Q 34.1875 6.0625 38.53125 11.03125 
Q 42.875 16.015625 42.875 26.21875 
Q 42.875 35.84375 38.5 40.796875 
Q 34.125 45.75 27.640625 45.75 
Q 21.046875 45.75 16.703125 40.8125 
Q 12.359375 35.890625 12.359375 25.921875 
z
" id="ArialMT-111"/>
     <path d="M 25.78125 7.859375 
L 27.046875 0.09375 
Q 23.34375 -0.6875 20.40625 -0.6875 
Q 15.625 -0.6875 12.984375 0.828125 
Q 10.359375 2.34375 9.28125 4.8125 
Q 8.203125 7.28125 8.203125 15.1875 
L 8.203125 45.015625 
L 1.765625 45.015625 
L 1.765625 51.859375 
L 8.203125 51.859375 
L 8.203125 64.703125 
L 16.9375 69.96875 
L 16.9375 51.859375 
L 25.78125 51.859375 
L 25.78125 45.015625 
L 16.9375 45.015625 
L 16.9375 14.703125 
Q 16.9375 10.9375 17.40625 9.859375 
Q 17.875 8.796875 18.921875 8.15625 
Q 19.96875 7.515625 21.921875 7.515625 
Q 23.390625 7.515625 25.78125 7.859375 
z
" id="ArialMT-116"/>
     <path d="M 6.59375 0 
L 6.59375 71.578125 
L 15.375 71.578125 
L 15.375 45.90625 
Q 21.53125 53.03125 30.90625 53.03125 
Q 36.671875 53.03125 40.921875 50.75 
Q 45.171875 48.484375 47 44.484375 
Q 48.828125 40.484375 48.828125 32.859375 
L 48.828125 0 
L 40.046875 0 
L 40.046875 32.859375 
Q 40.046875 39.453125 37.1875 42.453125 
Q 34.328125 45.453125 29.109375 45.453125 
Q 25.203125 45.453125 21.75 43.421875 
Q 18.3125 41.40625 16.84375 37.9375 
Q 15.375 34.46875 15.375 28.375 
L 15.375 0 
z
" id="ArialMT-104"/>
     <path d="M 42.09375 16.703125 
L 51.171875 15.578125 
Q 49.03125 7.625 43.21875 3.21875 
Q 37.40625 -1.171875 28.375 -1.171875 
Q 17 -1.171875 10.328125 5.828125 
Q 3.65625 12.84375 3.65625 25.484375 
Q 3.65625 38.578125 10.390625 45.796875 
Q 17.140625 53.03125 27.875 53.03125 
Q 38.28125 53.03125 44.875 45.953125 
Q 51.46875 38.875 51.46875 26.03125 
Q 51.46875 25.25 51.421875 23.6875 
L 12.75 23.6875 
Q 13.234375 15.140625 17.578125 10.59375 
Q 21.921875 6.0625 28.421875 6.0625 
Q 33.25 6.0625 36.671875 8.59375 
Q 40.09375 11.140625 42.09375 16.703125 
z
M 13.234375 30.90625 
L 42.1875 30.90625 
Q 41.609375 37.453125 38.875 40.71875 
Q 34.671875 45.796875 27.984375 45.796875 
Q 21.921875 45.796875 17.796875 41.75 
Q 13.671875 37.703125 13.234375 30.90625 
z
" id="ArialMT-101"/>
     <path d="M 6.5 0 
L 6.5 51.859375 
L 14.40625 51.859375 
L 14.40625 44 
Q 17.4375 49.515625 20 51.265625 
Q 22.5625 53.03125 25.640625 53.03125 
Q 30.078125 53.03125 34.671875 50.203125 
L 31.640625 42.046875 
Q 28.421875 43.953125 25.203125 43.953125 
Q 22.3125 43.953125 20.015625 42.21875 
Q 17.71875 40.484375 16.75 37.40625 
Q 15.28125 32.71875 15.28125 27.15625 
L 15.28125 0 
z
" id="ArialMT-114"/>
    </defs>
    <g style="fill:#262626;" transform="translate(296.867451 167.471694)scale(0.12 -0.12)">
     <use xlink:href="#ArialMT-111"/>
     <use x="55.615234" xlink:href="#ArialMT-116"/>
     <use x="83.398438" xlink:href="#ArialMT-104"/>
     <use x="139.013672" xlink:href="#ArialMT-101"/>
     <use x="194.628906" xlink:href="#ArialMT-114"/>
    </g>
   </g>
   <g id="text_6">
    <!--                      (77.3%) -->
    <defs>
     <path id="ArialMT-32"/>
     <path d="M 23.390625 -21.046875 
Q 16.109375 -11.859375 11.078125 0.4375 
Q 6.0625 12.75 6.0625 25.921875 
Q 6.0625 37.546875 9.8125 48.1875 
Q 14.203125 60.546875 23.390625 72.796875 
L 29.6875 72.796875 
Q 23.78125 62.640625 21.875 58.296875 
Q 18.890625 51.5625 17.1875 44.234375 
Q 15.09375 35.109375 15.09375 25.875 
Q 15.09375 2.390625 29.6875 -21.046875 
z
" id="ArialMT-40"/>
     <path d="M 4.734375 62.203125 
L 4.734375 70.65625 
L 51.078125 70.65625 
L 51.078125 63.8125 
Q 44.234375 56.546875 37.515625 44.484375 
Q 30.8125 32.421875 27.15625 19.671875 
Q 24.515625 10.6875 23.78125 0 
L 14.75 0 
Q 14.890625 8.453125 18.0625 20.40625 
Q 21.234375 32.375 27.171875 43.484375 
Q 33.109375 54.59375 39.796875 62.203125 
z
" id="ArialMT-55"/>
     <path d="M 9.078125 0 
L 9.078125 10.015625 
L 19.09375 10.015625 
L 19.09375 0 
z
" id="ArialMT-46"/>
     <path d="M 5.8125 54.390625 
Q 5.8125 62.0625 9.671875 67.421875 
Q 13.53125 72.796875 20.84375 72.796875 
Q 27.59375 72.796875 32 67.984375 
Q 36.421875 63.1875 36.421875 53.859375 
Q 36.421875 44.78125 31.953125 39.875 
Q 27.484375 34.96875 20.953125 34.96875 
Q 14.453125 34.96875 10.125 39.796875 
Q 5.8125 44.625 5.8125 54.390625 
z
M 21.09375 66.75 
Q 17.828125 66.75 15.65625 63.90625 
Q 13.484375 61.078125 13.484375 53.515625 
Q 13.484375 46.625 15.671875 43.8125 
Q 17.875 41.015625 21.09375 41.015625 
Q 24.421875 41.015625 26.59375 43.84375 
Q 28.765625 46.6875 28.765625 54.203125 
Q 28.765625 61.140625 26.5625 63.9375 
Q 24.359375 66.75 21.09375 66.75 
z
M 21.140625 -2.640625 
L 60.296875 72.796875 
L 67.4375 72.796875 
L 28.421875 -2.640625 
z
M 52.09375 16.796875 
Q 52.09375 24.515625 55.953125 29.859375 
Q 59.8125 35.203125 67.1875 35.203125 
Q 73.921875 35.203125 78.34375 30.390625 
Q 82.765625 25.59375 82.765625 16.265625 
Q 82.765625 7.171875 78.296875 2.265625 
Q 73.828125 -2.640625 67.234375 -2.640625 
Q 60.75 -2.640625 56.421875 2.21875 
Q 52.09375 7.078125 52.09375 16.796875 
z
M 67.4375 29.15625 
Q 64.109375 29.15625 61.9375 26.3125 
Q 59.765625 23.484375 59.765625 15.921875 
Q 59.765625 9.078125 61.953125 6.25 
Q 64.15625 3.421875 67.390625 3.421875 
Q 70.75 3.421875 72.921875 6.25 
Q 75.09375 9.078125 75.09375 16.609375 
Q 75.09375 23.53125 72.890625 26.34375 
Q 70.703125 29.15625 67.4375 29.15625 
z
" id="ArialMT-37"/>
     <path d="M 12.359375 -21.046875 
L 6.0625 -21.046875 
Q 20.65625 2.390625 20.65625 25.875 
Q 20.65625 35.0625 18.5625 44.09375 
Q 16.890625 51.421875 13.921875 58.15625 
Q 12.015625 62.546875 6.0625 72.796875 
L 12.359375 72.796875 
Q 21.53125 60.546875 25.921875 48.1875 
Q 29.6875 37.546875 29.6875 25.921875 
Q 29.6875 12.75 24.625 0.4375 
Q 19.578125 -11.859375 12.359375 -21.046875 
z
" id="ArialMT-41"/>
    </defs>
    <g style="fill:#262626;" transform="translate(112.256771 155.194681)scale(0.09 -0.09)">
     <use xlink:href="#ArialMT-32"/>
     <use x="27.783203" xlink:href="#ArialMT-32"/>
     <use x="55.566406" xlink:href="#ArialMT-32"/>
     <use x="83.349609" xlink:href="#ArialMT-32"/>
     <use x="111.132812" xlink:href="#ArialMT-32"/>
     <use x="138.916016" xlink:href="#ArialMT-32"/>
     <use x="166.699219" xlink:href="#ArialMT-32"/>
     <use x="194.482422" xlink:href="#ArialMT-32"/>
     <use x="222.265625" xlink:href="#ArialMT-32"/>
     <use x="250.048828" xlink:href="#ArialMT-32"/>
     <use x="277.832031" xlink:href="#ArialMT-32"/>
     <use x="305.615234" xlink:href="#ArialMT-32"/>
     <use x="333.398438" xlink:href="#ArialMT-32"/>
     <use x="361.181641" xlink:href="#ArialMT-32"/>
     <use x="388.964844" xlink:href="#ArialMT-32"/>
     <use x="416.748047" xlink:href="#ArialMT-32"/>
     <use x="444.53125" xlink:href="#ArialMT-32"/>
     <use x="472.314453" xlink:href="#ArialMT-32"/>
     <use x="500.097656" xlink:href="#ArialMT-32"/>
     <use x="527.880859" xlink:href="#ArialMT-32"/>
     <use x="555.664062" xlink:href="#ArialMT-32"/>
     <use x="583.447266" xlink:href="#ArialMT-40"/>
     <use x="616.748047" xlink:href="#ArialMT-55"/>
     <use x="672.363281" xlink:href="#ArialMT-55"/>
     <use x="727.978516" xlink:href="#ArialMT-46"/>
     <use x="755.761719" xlink:href="#ArialMT-51"/>
     <use x="811.376953" xlink:href="#ArialMT-37"/>
     <use x="900.292969" xlink:href="#ArialMT-41"/>
    </g>
   </g>
   <g id="text_7">
    <!--                        (11.2%) -->
    <defs>
     <path d="M 50.34375 8.453125 
L 50.34375 0 
L 3.03125 0 
Q 2.9375 3.171875 4.046875 6.109375 
Q 5.859375 10.9375 9.828125 15.625 
Q 13.8125 20.3125 21.34375 26.46875 
Q 33.015625 36.03125 37.109375 41.625 
Q 41.21875 47.21875 41.21875 52.203125 
Q 41.21875 57.421875 37.46875 61 
Q 33.734375 64.59375 27.734375 64.59375 
Q 21.390625 64.59375 17.578125 60.78125 
Q 13.765625 56.984375 13.71875 50.25 
L 4.6875 51.171875 
Q 5.609375 61.28125 11.65625 66.578125 
Q 17.71875 71.875 27.9375 71.875 
Q 38.234375 71.875 44.234375 66.15625 
Q 50.25 60.453125 50.25 52 
Q 50.25 47.703125 48.484375 43.546875 
Q 46.734375 39.40625 42.65625 34.8125 
Q 38.578125 30.21875 29.109375 22.21875 
Q 21.1875 15.578125 18.9375 13.203125 
Q 16.703125 10.84375 15.234375 8.453125 
z
" id="ArialMT-50"/>
    </defs>
    <g style="fill:#262626;" transform="translate(247.370806 238.566686)scale(0.09 -0.09)">
     <use xlink:href="#ArialMT-32"/>
     <use x="27.783203" xlink:href="#ArialMT-32"/>
     <use x="55.566406" xlink:href="#ArialMT-32"/>
     <use x="83.349609" xlink:href="#ArialMT-32"/>
     <use x="111.132812" xlink:href="#ArialMT-32"/>
     <use x="138.916016" xlink:href="#ArialMT-32"/>
     <use x="166.699219" xlink:href="#ArialMT-32"/>
     <use x="194.482422" xlink:href="#ArialMT-32"/>
     <use x="222.265625" xlink:href="#ArialMT-32"/>
     <use x="250.048828" xlink:href="#ArialMT-32"/>
     <use x="277.832031" xlink:href="#ArialMT-32"/>
     <use x="305.615234" xlink:href="#ArialMT-32"/>
     <use x="333.398438" xlink:href="#ArialMT-32"/>
     <use x="361.181641" xlink:href="#ArialMT-32"/>
     <use x="388.964844" xlink:href="#ArialMT-32"/>
     <use x="416.748047" xlink:href="#ArialMT-32"/>
     <use x="444.53125" xlink:href="#ArialMT-32"/>
     <use x="472.314453" xlink:href="#ArialMT-32"/>
     <use x="500.097656" xlink:href="#ArialMT-32"/>
     <use x="527.880859" xlink:href="#ArialMT-32"/>
     <use x="555.664062" xlink:href="#ArialMT-32"/>
     <use x="583.447266" xlink:href="#ArialMT-32"/>
     <use x="611.230469" xlink:href="#ArialMT-32"/>
     <use x="639.013672" xlink:href="#ArialMT-40"/>
     <use x="672.314453" xlink:href="#ArialMT-49"/>
     <use x="727.820312" xlink:href="#ArialMT-49"/>
     <use x="783.435547" xlink:href="#ArialMT-46"/>
     <use x="811.21875" xlink:href="#ArialMT-50"/>
     <use x="866.833984" xlink:href="#ArialMT-37"/>
     <use x="955.75" xlink:href="#ArialMT-41"/>
    </g>
   </g>
   <g id="text_8">
    <!--                      (5.7%) -->
    <defs>
     <path d="M 4.15625 18.75 
L 13.375 19.53125 
Q 14.40625 12.796875 18.140625 9.390625 
Q 21.875 6 27.15625 6 
Q 33.5 6 37.890625 10.78125 
Q 42.28125 15.578125 42.28125 23.484375 
Q 42.28125 31 38.0625 35.34375 
Q 33.84375 39.703125 27 39.703125 
Q 22.75 39.703125 19.328125 37.765625 
Q 15.921875 35.84375 13.96875 32.765625 
L 5.71875 33.84375 
L 12.640625 70.609375 
L 48.25 70.609375 
L 48.25 62.203125 
L 19.671875 62.203125 
L 15.828125 42.96875 
Q 22.265625 47.46875 29.34375 47.46875 
Q 38.71875 47.46875 45.15625 40.96875 
Q 51.609375 34.46875 51.609375 24.265625 
Q 51.609375 14.546875 45.953125 7.46875 
Q 39.0625 -1.21875 27.15625 -1.21875 
Q 17.390625 -1.21875 11.203125 4.25 
Q 5.03125 9.71875 4.15625 18.75 
z
" id="ArialMT-53"/>
    </defs>
    <g style="fill:#262626;" transform="translate(271.414471 200.114807)scale(0.09 -0.09)">
     <use xlink:href="#ArialMT-32"/>
     <use x="27.783203" xlink:href="#ArialMT-32"/>
     <use x="55.566406" xlink:href="#ArialMT-32"/>
     <use x="83.349609" xlink:href="#ArialMT-32"/>
     <use x="111.132812" xlink:href="#ArialMT-32"/>
     <use x="138.916016" xlink:href="#ArialMT-32"/>
     <use x="166.699219" xlink:href="#ArialMT-32"/>
     <use x="194.482422" xlink:href="#ArialMT-32"/>
     <use x="222.265625" xlink:href="#ArialMT-32"/>
     <use x="250.048828" xlink:href="#ArialMT-32"/>
     <use x="277.832031" xlink:href="#ArialMT-32"/>
     <use x="305.615234" xlink:href="#ArialMT-32"/>
     <use x="333.398438" xlink:href="#ArialMT-32"/>
     <use x="361.181641" xlink:href="#ArialMT-32"/>
     <use x="388.964844" xlink:href="#ArialMT-32"/>
     <use x="416.748047" xlink:href="#ArialMT-32"/>
     <use x="444.53125" xlink:href="#ArialMT-32"/>
     <use x="472.314453" xlink:href="#ArialMT-32"/>
     <use x="500.097656" xlink:href="#ArialMT-32"/>
     <use x="527.880859" xlink:href="#ArialMT-32"/>
     <use x="555.664062" xlink:href="#ArialMT-32"/>
     <use x="583.447266" xlink:href="#ArialMT-40"/>
     <use x="616.748047" xlink:href="#ArialMT-53"/>
     <use x="672.363281" xlink:href="#ArialMT-46"/>
     <use x="700.146484" xlink:href="#ArialMT-55"/>
     <use x="755.761719" xlink:href="#ArialMT-37"/>
     <use x="844.677734" xlink:href="#ArialMT-41"/>
    </g>
   </g>
   <g id="text_9">
    <!--                      (1.6%) -->
    <defs>
     <path d="M 49.75 54.046875 
L 41.015625 53.375 
Q 39.84375 58.546875 37.703125 60.890625 
Q 34.125 64.65625 28.90625 64.65625 
Q 24.703125 64.65625 21.53125 62.3125 
Q 17.390625 59.28125 14.984375 53.46875 
Q 12.59375 47.65625 12.5 36.921875 
Q 15.671875 41.75 20.265625 44.09375 
Q 24.859375 46.4375 29.890625 46.4375 
Q 38.671875 46.4375 44.84375 39.96875 
Q 51.03125 33.5 51.03125 23.25 
Q 51.03125 16.5 48.125 10.71875 
Q 45.21875 4.9375 40.140625 1.859375 
Q 35.0625 -1.21875 28.609375 -1.21875 
Q 17.625 -1.21875 10.6875 6.859375 
Q 3.765625 14.9375 3.765625 33.5 
Q 3.765625 54.25 11.421875 63.671875 
Q 18.109375 71.875 29.4375 71.875 
Q 37.890625 71.875 43.28125 67.140625 
Q 48.6875 62.40625 49.75 54.046875 
z
M 13.875 23.1875 
Q 13.875 18.65625 15.796875 14.5 
Q 17.71875 10.359375 21.1875 8.171875 
Q 24.65625 6 28.46875 6 
Q 34.03125 6 38.03125 10.484375 
Q 42.046875 14.984375 42.046875 22.703125 
Q 42.046875 30.125 38.078125 34.390625 
Q 34.125 38.671875 28.125 38.671875 
Q 22.171875 38.671875 18.015625 34.390625 
Q 13.875 30.125 13.875 23.1875 
z
" id="ArialMT-54"/>
    </defs>
    <g style="fill:#262626;" transform="translate(272.905509 181.460665)scale(0.09 -0.09)">
     <use xlink:href="#ArialMT-32"/>
     <use x="27.783203" xlink:href="#ArialMT-32"/>
     <use x="55.566406" xlink:href="#ArialMT-32"/>
     <use x="83.349609" xlink:href="#ArialMT-32"/>
     <use x="111.132812" xlink:href="#ArialMT-32"/>
     <use x="138.916016" xlink:href="#ArialMT-32"/>
     <use x="166.699219" xlink:href="#ArialMT-32"/>
     <use x="194.482422" xlink:href="#ArialMT-32"/>
     <use x="222.265625" xlink:href="#ArialMT-32"/>
     <use x="250.048828" xlink:href="#ArialMT-32"/>
     <use x="277.832031" xlink:href="#ArialMT-32"/>
     <use x="305.615234" xlink:href="#ArialMT-32"/>
     <use x="333.398438" xlink:href="#ArialMT-32"/>
     <use x="361.181641" xlink:href="#ArialMT-32"/>
     <use x="388.964844" xlink:href="#ArialMT-32"/>
     <use x="416.748047" xlink:href="#ArialMT-32"/>
     <use x="444.53125" xlink:href="#ArialMT-32"/>
     <use x="472.314453" xlink:href="#ArialMT-32"/>
     <use x="500.097656" xlink:href="#ArialMT-32"/>
     <use x="527.880859" xlink:href="#ArialMT-32"/>
     <use x="555.664062" xlink:href="#ArialMT-32"/>
     <use x="583.447266" xlink:href="#ArialMT-40"/>
     <use x="616.748047" xlink:href="#ArialMT-49"/>
     <use x="672.363281" xlink:href="#ArialMT-46"/>
     <use x="700.146484" xlink:href="#ArialMT-54"/>
     <use x="755.761719" xlink:href="#ArialMT-37"/>
     <use x="844.677734" xlink:href="#ArialMT-41"/>
    </g>
   </g>
   <g id="text_10">
    <!--                            (4.2%) -->
    <g style="fill:#262626;" transform="translate(263.534404 166.698256)scale(0.09 -0.09)">
     <use xlink:href="#ArialMT-32"/>
     <use x="27.783203" xlink:href="#ArialMT-32"/>
     <use x="55.566406" xlink:href="#ArialMT-32"/>
     <use x="83.349609" xlink:href="#ArialMT-32"/>
     <use x="111.132812" xlink:href="#ArialMT-32"/>
     <use x="138.916016" xlink:href="#ArialMT-32"/>
     <use x="166.699219" xlink:href="#ArialMT-32"/>
     <use x="194.482422" xlink:href="#ArialMT-32"/>
     <use x="222.265625" xlink:href="#ArialMT-32"/>
     <use x="250.048828" xlink:href="#ArialMT-32"/>
     <use x="277.832031" xlink:href="#ArialMT-32"/>
     <use x="305.615234" xlink:href="#ArialMT-32"/>
     <use x="333.398438" xlink:href="#ArialMT-32"/>
     <use x="361.181641" xlink:href="#ArialMT-32"/>
     <use x="388.964844" xlink:href="#ArialMT-32"/>
     <use x="416.748047" xlink:href="#ArialMT-32"/>
     <use x="444.53125" xlink:href="#ArialMT-32"/>
     <use x="472.314453" xlink:href="#ArialMT-32"/>
     <use x="500.097656" xlink:href="#ArialMT-32"/>
     <use x="527.880859" xlink:href="#ArialMT-32"/>
     <use x="555.664062" xlink:href="#ArialMT-32"/>
     <use x="583.447266" xlink:href="#ArialMT-32"/>
     <use x="611.230469" xlink:href="#ArialMT-32"/>
     <use x="639.013672" xlink:href="#ArialMT-32"/>
     <use x="666.796875" xlink:href="#ArialMT-32"/>
     <use x="694.580078" xlink:href="#ArialMT-32"/>
     <use x="722.363281" xlink:href="#ArialMT-32"/>
     <use x="750.146484" xlink:href="#ArialMT-40"/>
     <use x="783.447266" xlink:href="#ArialMT-52"/>
     <use x="839.0625" xlink:href="#ArialMT-46"/>
     <use x="866.845703" xlink:href="#ArialMT-50"/>
     <use x="922.460938" xlink:href="#ArialMT-37"/>
     <use x="1011.376953" xlink:href="#ArialMT-41"/>
    </g>
   </g>
   <g id="text_11">
    <!-- cltv_expiry_delta by nodes -->
    <defs>
     <path d="M 40.4375 19 
L 49.078125 17.875 
Q 47.65625 8.9375 41.8125 3.875 
Q 35.984375 -1.171875 27.484375 -1.171875 
Q 16.84375 -1.171875 10.375 5.78125 
Q 3.90625 12.75 3.90625 25.734375 
Q 3.90625 34.125 6.6875 40.421875 
Q 9.46875 46.734375 15.15625 49.875 
Q 20.84375 53.03125 27.546875 53.03125 
Q 35.984375 53.03125 41.359375 48.75 
Q 46.734375 44.484375 48.25 36.625 
L 39.703125 35.296875 
Q 38.484375 40.53125 35.375 43.15625 
Q 32.28125 45.796875 27.875 45.796875 
Q 21.234375 45.796875 17.078125 41.03125 
Q 12.9375 36.28125 12.9375 25.984375 
Q 12.9375 15.53125 16.9375 10.796875 
Q 20.953125 6.0625 27.390625 6.0625 
Q 32.5625 6.0625 36.03125 9.234375 
Q 39.5 12.40625 40.4375 19 
z
" id="ArialMT-99"/>
     <path d="M 6.390625 0 
L 6.390625 71.578125 
L 15.1875 71.578125 
L 15.1875 0 
z
" id="ArialMT-108"/>
     <path d="M 21 0 
L 1.265625 51.859375 
L 10.546875 51.859375 
L 21.6875 20.796875 
Q 23.484375 15.765625 25 10.359375 
Q 26.171875 14.453125 28.265625 20.21875 
L 39.796875 51.859375 
L 48.828125 51.859375 
L 29.203125 0 
z
" id="ArialMT-118"/>
     <path d="M -1.515625 -19.875 
L -1.515625 -13.53125 
L 56.734375 -13.53125 
L 56.734375 -19.875 
z
" id="ArialMT-95"/>
     <path d="M 0.734375 0 
L 19.671875 26.953125 
L 2.15625 51.859375 
L 13.140625 51.859375 
L 21.09375 39.703125 
Q 23.34375 36.234375 24.703125 33.890625 
Q 26.859375 37.109375 28.65625 39.59375 
L 37.40625 51.859375 
L 47.90625 51.859375 
L 29.984375 27.4375 
L 49.265625 0 
L 38.484375 0 
L 27.828125 16.109375 
L 25 20.453125 
L 11.375 0 
z
" id="ArialMT-120"/>
     <path d="M 6.59375 -19.875 
L 6.59375 51.859375 
L 14.59375 51.859375 
L 14.59375 45.125 
Q 17.4375 49.078125 21 51.046875 
Q 24.5625 53.03125 29.640625 53.03125 
Q 36.28125 53.03125 41.359375 49.609375 
Q 46.4375 46.1875 49.015625 39.953125 
Q 51.609375 33.734375 51.609375 26.3125 
Q 51.609375 18.359375 48.75 11.984375 
Q 45.90625 5.609375 40.453125 2.21875 
Q 35.015625 -1.171875 29 -1.171875 
Q 24.609375 -1.171875 21.109375 0.6875 
Q 17.625 2.546875 15.375 5.375 
L 15.375 -19.875 
z
M 14.546875 25.640625 
Q 14.546875 15.625 18.59375 10.84375 
Q 22.65625 6.0625 28.421875 6.0625 
Q 34.28125 6.0625 38.453125 11.015625 
Q 42.625 15.96875 42.625 26.375 
Q 42.625 36.28125 38.546875 41.203125 
Q 34.46875 46.140625 28.8125 46.140625 
Q 23.1875 46.140625 18.859375 40.890625 
Q 14.546875 35.640625 14.546875 25.640625 
z
" id="ArialMT-112"/>
     <path d="M 6.640625 61.46875 
L 6.640625 71.578125 
L 15.4375 71.578125 
L 15.4375 61.46875 
z
M 6.640625 0 
L 6.640625 51.859375 
L 15.4375 51.859375 
L 15.4375 0 
z
" id="ArialMT-105"/>
     <path d="M 6.203125 -19.96875 
L 5.21875 -11.71875 
Q 8.109375 -12.5 10.25 -12.5 
Q 13.1875 -12.5 14.9375 -11.515625 
Q 16.703125 -10.546875 17.828125 -8.796875 
Q 18.65625 -7.46875 20.515625 -2.25 
Q 20.75 -1.515625 21.296875 -0.09375 
L 1.609375 51.859375 
L 11.078125 51.859375 
L 21.875 21.828125 
Q 23.96875 16.109375 25.640625 9.8125 
Q 27.15625 15.875 29.25 21.625 
L 40.328125 51.859375 
L 49.125 51.859375 
L 29.390625 -0.875 
Q 26.21875 -9.421875 24.46875 -12.640625 
Q 22.125 -17 19.09375 -19.015625 
Q 16.0625 -21.046875 11.859375 -21.046875 
Q 9.328125 -21.046875 6.203125 -19.96875 
z
" id="ArialMT-121"/>
     <path d="M 40.234375 0 
L 40.234375 6.546875 
Q 35.296875 -1.171875 25.734375 -1.171875 
Q 19.53125 -1.171875 14.328125 2.25 
Q 9.125 5.671875 6.265625 11.796875 
Q 3.421875 17.921875 3.421875 25.875 
Q 3.421875 33.640625 6 39.96875 
Q 8.59375 46.296875 13.765625 49.65625 
Q 18.953125 53.03125 25.34375 53.03125 
Q 30.03125 53.03125 33.6875 51.046875 
Q 37.359375 49.078125 39.65625 45.90625 
L 39.65625 71.578125 
L 48.390625 71.578125 
L 48.390625 0 
z
M 12.453125 25.875 
Q 12.453125 15.921875 16.640625 10.984375 
Q 20.84375 6.0625 26.5625 6.0625 
Q 32.328125 6.0625 36.34375 10.765625 
Q 40.375 15.484375 40.375 25.140625 
Q 40.375 35.796875 36.265625 40.765625 
Q 32.171875 45.75 26.171875 45.75 
Q 20.3125 45.75 16.375 40.96875 
Q 12.453125 36.1875 12.453125 25.875 
z
" id="ArialMT-100"/>
     <path d="M 40.4375 6.390625 
Q 35.546875 2.25 31.03125 0.53125 
Q 26.515625 -1.171875 21.34375 -1.171875 
Q 12.796875 -1.171875 8.203125 3 
Q 3.609375 7.171875 3.609375 13.671875 
Q 3.609375 17.484375 5.34375 20.625 
Q 7.078125 23.78125 9.890625 25.6875 
Q 12.703125 27.59375 16.21875 28.5625 
Q 18.796875 29.25 24.03125 29.890625 
Q 34.671875 31.15625 39.703125 32.90625 
Q 39.75 34.71875 39.75 35.203125 
Q 39.75 40.578125 37.25 42.78125 
Q 33.890625 45.75 27.25 45.75 
Q 21.046875 45.75 18.09375 43.578125 
Q 15.140625 41.40625 13.71875 35.890625 
L 5.125 37.0625 
Q 6.296875 42.578125 8.984375 45.96875 
Q 11.671875 49.359375 16.75 51.1875 
Q 21.828125 53.03125 28.515625 53.03125 
Q 35.15625 53.03125 39.296875 51.46875 
Q 43.453125 49.90625 45.40625 47.53125 
Q 47.359375 45.171875 48.140625 41.546875 
Q 48.578125 39.3125 48.578125 33.453125 
L 48.578125 21.734375 
Q 48.578125 9.46875 49.140625 6.21875 
Q 49.703125 2.984375 51.375 0 
L 42.1875 0 
Q 40.828125 2.734375 40.4375 6.390625 
z
M 39.703125 26.03125 
Q 34.90625 24.078125 25.34375 22.703125 
Q 19.921875 21.921875 17.671875 20.9375 
Q 15.4375 19.96875 14.203125 18.09375 
Q 12.984375 16.21875 12.984375 13.921875 
Q 12.984375 10.40625 15.640625 8.0625 
Q 18.3125 5.71875 23.4375 5.71875 
Q 28.515625 5.71875 32.46875 7.9375 
Q 36.421875 10.15625 38.28125 14.015625 
Q 39.703125 17 39.703125 22.796875 
z
" id="ArialMT-97"/>
     <path d="M 14.703125 0 
L 6.546875 0 
L 6.546875 71.578125 
L 15.328125 71.578125 
L 15.328125 46.046875 
Q 20.90625 53.03125 29.546875 53.03125 
Q 34.328125 53.03125 38.59375 51.09375 
Q 42.875 49.171875 45.625 45.671875 
Q 48.390625 42.1875 49.953125 37.25 
Q 51.515625 32.328125 51.515625 26.703125 
Q 51.515625 13.375 44.921875 6.09375 
Q 38.328125 -1.171875 29.109375 -1.171875 
Q 19.921875 -1.171875 14.703125 6.5 
z
M 14.59375 26.3125 
Q 14.59375 17 17.140625 12.84375 
Q 21.296875 6.0625 28.375 6.0625 
Q 34.125 6.0625 38.328125 11.0625 
Q 42.53125 16.0625 42.53125 25.984375 
Q 42.53125 36.140625 38.5 40.96875 
Q 34.46875 45.796875 28.765625 45.796875 
Q 23 45.796875 18.796875 40.796875 
Q 14.59375 35.796875 14.59375 26.3125 
z
" id="ArialMT-98"/>
     <path d="M 6.59375 0 
L 6.59375 51.859375 
L 14.5 51.859375 
L 14.5 44.484375 
Q 20.21875 53.03125 31 53.03125 
Q 35.6875 53.03125 39.625 51.34375 
Q 43.5625 49.65625 45.515625 46.921875 
Q 47.46875 44.1875 48.25 40.4375 
Q 48.734375 37.984375 48.734375 31.890625 
L 48.734375 0 
L 39.9375 0 
L 39.9375 31.546875 
Q 39.9375 36.921875 38.90625 39.578125 
Q 37.890625 42.234375 35.28125 43.8125 
Q 32.671875 45.40625 29.15625 45.40625 
Q 23.53125 45.40625 19.453125 41.84375 
Q 15.375 38.28125 15.375 28.328125 
L 15.375 0 
z
" id="ArialMT-110"/>
     <path d="M 3.078125 15.484375 
L 11.765625 16.84375 
Q 12.5 11.625 15.84375 8.84375 
Q 19.1875 6.0625 25.203125 6.0625 
Q 31.25 6.0625 34.171875 8.515625 
Q 37.109375 10.984375 37.109375 14.3125 
Q 37.109375 17.28125 34.515625 19 
Q 32.71875 20.171875 25.53125 21.96875 
Q 15.875 24.421875 12.140625 26.203125 
Q 8.40625 27.984375 6.46875 31.125 
Q 4.546875 34.28125 4.546875 38.09375 
Q 4.546875 41.546875 6.125 44.5 
Q 7.71875 47.46875 10.453125 49.421875 
Q 12.5 50.921875 16.03125 51.96875 
Q 19.578125 53.03125 23.640625 53.03125 
Q 29.734375 53.03125 34.34375 51.265625 
Q 38.96875 49.515625 41.15625 46.5 
Q 43.359375 43.5 44.1875 38.484375 
L 35.59375 37.3125 
Q 35.015625 41.3125 32.203125 43.546875 
Q 29.390625 45.796875 24.265625 45.796875 
Q 18.21875 45.796875 15.625 43.796875 
Q 13.03125 41.796875 13.03125 39.109375 
Q 13.03125 37.40625 14.109375 36.03125 
Q 15.1875 34.625 17.484375 33.6875 
Q 18.796875 33.203125 25.25 31.453125 
Q 34.578125 28.953125 38.25 27.359375 
Q 41.9375 25.78125 44.03125 22.75 
Q 46.140625 19.734375 46.140625 15.234375 
Q 46.140625 10.84375 43.578125 6.953125 
Q 41.015625 3.078125 36.171875 0.953125 
Q 31.34375 -1.171875 25.25 -1.171875 
Q 15.140625 -1.171875 9.84375 3.03125 
Q 4.546875 7.234375 3.078125 15.484375 
z
" id="ArialMT-115"/>
    </defs>
    <g style="fill:#262626;" transform="translate(124.344844 25.92)scale(0.18 -0.18)">
     <use xlink:href="#ArialMT-99"/>
     <use x="50" xlink:href="#ArialMT-108"/>
     <use x="72.216797" xlink:href="#ArialMT-116"/>
     <use x="100" xlink:href="#ArialMT-118"/>
     <use x="150" xlink:href="#ArialMT-95"/>
     <use x="205.615234" xlink:href="#ArialMT-101"/>
     <use x="261.230469" xlink:href="#ArialMT-120"/>
     <use x="311.230469" xlink:href="#ArialMT-112"/>
     <use x="366.845703" xlink:href="#ArialMT-105"/>
     <use x="389.0625" xlink:href="#ArialMT-114"/>
     <use x="422.363281" xlink:href="#ArialMT-121"/>
     <use x="472.363281" xlink:href="#ArialMT-95"/>
     <use x="527.978516" xlink:href="#ArialMT-100"/>
     <use x="583.59375" xlink:href="#ArialMT-101"/>
     <use x="639.208984" xlink:href="#ArialMT-108"/>
     <use x="661.425781" xlink:href="#ArialMT-116"/>
     <use x="689.208984" xlink:href="#ArialMT-97"/>
     <use x="744.824219" xlink:href="#ArialMT-32"/>
     <use x="772.607422" xlink:href="#ArialMT-98"/>
     <use x="828.222656" xlink:href="#ArialMT-121"/>
     <use x="878.222656" xlink:href="#ArialMT-32"/>
     <use x="906.005859" xlink:href="#ArialMT-110"/>
     <use x="961.621094" xlink:href="#ArialMT-111"/>
     <use x="1017.236328" xlink:href="#ArialMT-100"/>
     <use x="1072.851562" xlink:href="#ArialMT-101"/>
     <use x="1128.466797" xlink:href="#ArialMT-115"/>
    </g>
   </g>
  </g>
 </g>
</svg>
